<svg width="71" height="70" viewBox="0 0 71 70" fill="none" xmlns="http://www.w3.org/2000/svg">
<path fill-rule="evenodd" clip-rule="evenodd" d="M5.26064 0.198579C3.49768 0.643169 2.01293 1.77895 1.29138 3.23486C0.435354 4.96212 0.473713 3.35511 0.519915 35.5563C0.565119 67.1438 0.527901 65.5011 1.23134 66.8863C1.60524 67.6228 2.55139 68.6092 3.35522 69.1009C4.90657 70.0498 4.53709 70.0281 18.4055 69.9836L30.9437 69.9434L32.03 69.3952C33.6806 68.5623 34.6417 67.3699 35.2291 65.4262C35.469 64.6325 35.4902 63.9921 35.4731 58.0495L35.4544 51.542L34.9612 50.9537C34.3936 50.2768 34.1319 49.5078 34.028 48.2121C33.8726 46.2724 32.0686 47.7233 32 53V58.4799H17.9877H4V35.1077V11.9313H17.952H32V14.5268C32.0001 16.0281 31.9485 18.8787 32 20.5V23.38L34.5954 23.2862H35.4362L35.3841 14.1513C35.3389 6.24276 35.3013 4.92617 35.1035 4.34401C34.28 1.92089 32.6499 0.485364 30.3335 0.143552C28.827 -0.0788888 6.1633 -0.0291018 5.26064 0.198579ZM8.21802 1.54676C7.8946 1.67982 7.7463 2.13227 7.89517 2.53217C8.02836 2.88955 8.08269 2.90557 9.16117 2.90557C10.4146 2.90557 10.6599 2.76276 10.5827 2.07797C10.5468 1.7577 10.4446 1.64954 10.109 1.57689C9.58612 1.46364 8.46357 1.44573 8.21802 1.54676ZM11.8619 1.63178C11.162 2.19341 11.6271 3.10399 12.5726 3.02305C12.963 2.98957 13.1475 2.88169 13.3045 2.59476C13.4925 2.2512 13.4889 2.17157 13.27 1.83049C12.9982 1.40686 12.2701 1.30408 11.8619 1.63178ZM14.8249 1.67851C14.5541 1.9551 14.5322 2.52052 14.7842 2.73408C14.9075 2.8386 17.5047 2.90382 22.7341 2.93381C30.4125 2.97792 30.5075 2.982 31.0847 3.29731C31.7618 3.66722 32.4441 4.41519 32.8557 5.23886C33.0147 5.55695 33.2033 5.81709 33.2749 5.81709C33.6512 5.81709 33.3926 3.97774 32.9107 3.22685C32.375 2.39212 31.4619 1.84286 30.2206 1.60863C29.6843 1.50745 26.7798 1.44981 22.214 1.44981C15.8906 1.44981 15.0227 1.47674 14.8249 1.67851ZM14.4583 6.54497C14.0769 6.93439 14.0988 7.35583 14.5232 7.78892C14.8697 8.14267 14.8997 8.14631 17.5242 8.14631C20.1488 8.14631 20.1787 8.14267 20.5252 7.78892C20.9496 7.35583 20.9716 6.93439 20.5901 6.54497C20.3244 6.27376 20.1148 6.25382 17.5242 6.25382C14.9336 6.25382 14.724 6.27376 14.4583 6.54497ZM43.5487 10.4755C43.265 10.7651 43.1726 11.4218 43.3725 11.7275C43.5604 12.0146 44.0603 12.2073 45.0256 12.3647C46.3477 12.5803 48.1382 13.2707 49.6281 14.1395C51.7832 15.3963 53.4461 17.0048 54.8702 19.2101C55.9625 20.9018 56.5436 22.202 57.0171 24.0141C57.2207 24.794 57.4841 25.4764 57.6207 25.5791C57.9762 25.8459 58.4325 25.8016 58.8589 25.4592C59.3038 25.102 59.335 24.6788 59.0124 23.38C58.1347 19.8463 56.1103 16.6499 53.1557 14.1323C50.9559 12.2577 49.0118 11.2394 46.2859 10.5335C44.6144 10.1005 43.9301 10.0861 43.5487 10.4755ZM42.6439 14.5268C42.302 14.9123 42.3438 15.5234 42.7287 15.7672C42.9052 15.8789 43.6271 16.1144 44.333 16.2903C48.6403 17.364 51.7892 20.4918 53.0926 24.9908C53.4372 26.1803 53.6698 26.4889 54.2221 26.4889C54.7991 26.4889 55.2418 26.109 55.2418 25.6138C55.2418 24.9816 54.1872 22.0874 53.582 21.0589C52.4631 19.1578 51.4023 17.9635 49.6917 16.6791C47.306 14.8879 43.3851 13.6906 42.6439 14.5268ZM41.7743 18.3691C41.5072 18.7582 41.4842 19.4113 41.7305 19.6078C41.8286 19.686 42.3537 19.8614 42.8973 19.9978C45.9726 20.7691 48.0247 22.7154 49.1786 25.9554C49.4278 26.6547 49.7078 27.1782 49.9028 27.3086C50.306 27.5784 50.9095 27.4366 51.185 27.0076C51.3635 26.7294 51.362 26.5777 51.1723 25.8244C51.0527 25.3492 50.7392 24.5018 50.4759 23.9413C49.1461 21.1123 47.0629 19.3089 44.0673 18.3936C42.6155 17.95 42.0658 17.9442 41.7743 18.3691ZM40.7581 22.1892C40.4173 22.7204 40.6158 23.3052 41.1983 23.4854C42.6754 23.9422 43.2297 24.2547 44.0589 25.0979C44.7317 25.7823 45.0187 26.2176 45.3423 27.0447C45.8444 28.3283 46.0717 28.4984 46.7995 28.1354C47.3066 27.8824 47.3265 27.8439 47.3036 27.1696C47.2263 24.9065 44.2758 22.0386 41.8397 21.8589C41.0653 21.8016 40.9927 21.8238 40.7581 22.1892ZM7.5766 24.9484C7.00692 25.1576 6.70732 25.3636 6.28864 25.8338C5.64894 26.5524 5.65022 26.533 5.59675 36.2425C5.54841 45.0085 5.55953 45.5147 5.81008 46.0292C6.16415 46.7563 7.04185 47.543 7.71036 47.7325C8.46742 47.9471 28.2968 47.9458 29.0541 47.7312C29.3564 47.6455 29.881 47.3145 30.22 46.9955C31.3075 45.9722 31.2851 46.1891 31.2851 36.6533V28.2358H30.2869H29.2887V34.3267C29.2887 37.6767 29.2461 41.5228 29.1939 42.8736C29.105 45.1723 29.0781 45.3509 28.7725 45.6629L28.4461 45.9961H18.3754H8.30457L7.88775 45.5706L7.47094 45.1451V36.3198V27.4947L7.82102 27.1374L8.17096 26.7801H23.8421C35.145 26.7801 39.6484 26.8261 39.9981 26.9451C40.5725 27.1408 41.3779 27.8701 41.5841 28.3814C41.6648 28.5816 41.7709 29.1361 41.8198 29.6137C41.8948 30.3464 41.9661 30.5148 42.2751 30.6915C42.6875 30.9272 43.2619 30.837 43.61 30.4816C43.7651 30.3232 43.8339 29.9769 43.8337 29.3537C43.8336 28.1319 43.2773 26.936 42.2858 26.026C40.8619 24.719 42.3209 24.819 24.1551 24.7832C10.973 24.7573 8.01709 24.7867 7.5766 24.9484ZM8.90321 30.7415C8.90763 32.5147 8.96724 33.4087 9.10484 33.7677C10.0809 36.3119 10.2438 36.9177 10.2398 37.9894C10.2354 39.1601 10.063 39.6462 9.30035 40.637C8.89494 41.1637 8.88781 41.2039 8.92774 42.7479L8.96823 44.322L11.6776 44.3687C13.1678 44.3945 17.419 44.3703 21.1249 44.3151L27.8627 44.2147V36.2226V28.2304L24.5472 28.2696L21.2318 28.3086L21.2699 29.3276C21.3326 31.0092 21.8363 31.8646 24.1065 34.1446C26.6758 36.7251 27.1734 37.8431 26.6611 39.8845C26.2885 41.3691 24.9936 43.1073 24.123 43.2913C23.7822 43.3634 22.8717 43.4823 22.8717 43.4548C22.8717 43.4461 23.3071 42.9824 23.8392 42.4247C24.4966 41.7355 24.8623 41.2185 24.98 40.8113C25.547 38.8512 24.8849 37.4017 21.9893 34.2641C19.6475 31.7264 19.2477 30.9814 19.3305 29.3092L19.3836 28.2358H18.8487C18.3924 28.2358 18.3004 28.291 18.2212 28.6127C18.1703 28.82 18.1628 29.3739 18.2044 29.8437C18.2908 30.8153 18.6473 31.5373 20.2124 33.9095C21.4206 35.7409 21.8655 36.7809 21.8701 37.7843C21.8781 39.5107 21.0192 40.9256 19.0365 42.4522C17.9432 43.2941 17.7755 43.3757 17.1389 43.3757C16.2528 43.3757 16.2679 43.3475 18.0978 41.5859C18.9763 40.7401 19.6837 39.916 19.9339 39.4466C20.2961 38.7674 20.3334 38.577 20.273 37.7176C20.19 36.5388 19.9722 36.085 18.2344 33.4723C16.7927 31.3047 16.4547 30.4704 16.4547 29.0783V28.2266L14.7792 28.2676L13.1036 28.3086L13.1503 28.7957C13.2539 29.88 13.7999 30.7013 16.601 33.9861C17.9087 35.5196 18.4511 36.6065 18.4511 37.6929C18.4511 38.9396 17.9542 39.8017 16.1232 41.7312C14.7431 43.1855 14.5071 43.3757 14.0827 43.3757C13.8186 43.3757 13.6027 43.3142 13.6027 43.239C13.6027 43.1638 14.1774 42.394 14.8798 41.5285C16.4694 39.5697 16.9374 38.7288 16.9374 37.8315C16.9374 36.7871 16.3523 35.7719 14.6176 33.8063C12.4518 31.352 11.7926 30.278 11.614 28.9132L11.535 28.3086L10.216 28.2667L8.89693 28.2249L8.90321 30.7415ZM9.99253 29.2039C9.93905 29.2586 9.89556 29.6037 9.89599 29.9707C9.89684 30.5958 10.0938 31.2449 11.4546 35.1077C12.2044 37.2361 12.1629 38.717 11.2816 41.2649C11.0878 41.8254 10.8839 42.4968 10.8286 42.757C10.7286 43.2277 10.7311 43.2302 11.2858 43.2302C11.7946 43.2302 11.8818 43.1696 12.2813 42.5387C13.0981 41.2481 13.857 39.6387 14.0381 38.8125C14.3542 37.3704 13.7776 35.639 12.1214 33.0566C11.6907 32.3853 11.1031 31.2717 10.8155 30.5818C10.2532 29.2333 10.1435 29.0497 9.99253 29.2039ZM23.6152 30.9654L23.656 32.3847L25.1176 32.4262L26.5793 32.4677L26.5806 31.7711C26.5812 31.388 26.6222 30.7306 26.6717 30.3103L26.7617 29.546H25.168H23.5744L23.6152 30.9654ZM25.1533 31.2929C25.1533 31.9723 25.2008 32.1664 25.3672 32.1664C25.5336 32.1664 25.5811 31.9723 25.5811 31.2929C25.5811 30.6135 25.5336 30.4195 25.3672 30.4195C25.2008 30.4195 25.1533 30.6135 25.1533 31.2929ZM33.7673 33.2687C32.8707 33.7203 32.4531 35.1848 32.9056 36.2904C33.1452 36.8756 33.8553 37.5013 34.7063 37.877C35.4511 38.2058 40.2553 39.7294 43.2635 40.5907C46.8068 41.6054 49.145 42.3337 49.2546 42.4567C49.3127 42.5218 49.394 43.1155 49.4355 43.7761C49.4912 44.6632 49.4657 44.9771 49.3378 44.9771C49.0156 44.9771 48.6291 44.5792 48.3342 43.9442C48.0498 43.3321 47.9975 43.2974 46.6858 42.854C45.9408 42.6021 45.285 42.4227 45.2285 42.4551C45.0865 42.5366 44.5658 44.3614 44.5162 44.9516L44.4756 45.4355L45.6877 45.8452C46.3543 46.0704 47.397 46.4528 48.0046 46.6949C49.5123 47.2955 50.1171 47.3848 50.7157 47.0948C50.9814 46.9661 51.8036 46.1963 52.543 45.3843C53.7676 44.039 55.547 42.4442 56.2547 42.0576C56.5734 41.8834 54.3574 45.2714 53.2027 46.724C52.2776 47.8874 51.1625 48.6165 50.3079 48.6165C49.5483 48.6165 48.4374 48.2686 44.9747 46.9464C39.9132 45.0136 38.9591 44.8369 37.5335 45.568C35.8086 46.4526 35.0422 47.7643 35.4178 49.1885C35.7349 50.3911 35.8322 50.4576 43.4774 54.7039C46.2926 56.2675 48.0856 57.5218 49.7666 59.1029C52.5987 61.767 55.0917 63.0454 59.6624 64.1783C63.2488 65.067 67.2636 65.6712 68.1199 65.4509C68.6439 65.3161 69.6796 64.3329 70.1372 63.5359L70.5 62.9039V57.1631V51.4225L69.4907 50.6562C68.2531 49.7167 67.5719 48.7478 65.4165 44.8602C61.7002 38.1579 60.9033 36.9423 59.5911 35.9744C58.3508 35.0594 57.3121 35.0277 54.7828 35.827C52.5614 36.529 51.518 36.4898 47.0461 35.5363C45.0873 35.1188 42.7451 34.588 41.8412 34.357C39.5636 33.7748 35.6579 33.0391 34.8662 33.0432C34.5044 33.0449 34.0099 33.1464 33.7673 33.2687ZM34.023 34.5247C33.9289 34.6208 33.8519 34.9534 33.8519 35.2638C33.8519 36.4321 34.6537 36.7988 38.7428 37.5004C40.1143 37.7358 40.3235 37.7412 40.6564 37.5495C41.6642 36.9695 41.0904 36.5523 38.4782 35.9659C35.1889 35.2274 35.0885 35.1935 34.8779 34.7455C34.6818 34.3285 34.3095 34.2322 34.023 34.5247ZM37.2433 47.2449C36.9992 47.7918 37.2 48.0083 38.4861 48.5846C39.7745 49.162 40.3402 49.1262 40.3402 48.4674C40.3402 48.1619 40.1583 48.0128 39.1463 47.4883C37.7565 46.7681 37.4723 46.7317 37.2433 47.2449ZM42.271 51.0115C41.9662 51.3864 42.2464 51.7563 43.301 52.3708C44.9429 53.3275 48.2767 54.8987 48.4887 54.8157C48.5951 54.7739 48.6822 54.5441 48.6822 54.3047C48.6822 53.9457 48.5761 53.8072 48.0762 53.5129C46.7325 52.7226 42.9125 50.8001 42.6855 50.8001C42.552 50.8001 42.3655 50.8952 42.271 51.0115ZM16.9538 60.0995C15.7407 60.4265 14.4635 61.4949 13.9923 62.5765C13.6089 63.4571 13.6119 65.0806 13.9986 65.9731C15.2336 68.8235 18.8259 69.5022 20.9584 67.2878C21.7841 66.4305 22.0828 65.6297 22.0853 64.2659C22.0871 63.2463 22.0351 63.0048 21.6669 62.3263C20.9756 61.0522 19.6179 60.1594 18.2033 60.0486C17.7514 60.0132 17.1891 60.0361 16.9538 60.0995ZM17.3418 61.7291C16.5203 61.8922 15.9692 62.321 15.6114 63.0755C15.2459 63.8462 15.2362 64.6625 15.5834 65.4305C16.0587 66.4819 16.8054 66.9591 17.9754 66.9591C18.8588 66.9591 19.525 66.6013 20.0261 65.8577C20.3803 65.3323 20.4475 65.0903 20.4475 64.3416C20.4475 62.8148 19.7321 61.9714 18.1659 61.6515C18.0483 61.6275 17.6774 61.6624 17.3418 61.7291Z" fill="#8D1B60"/>
</svg>
