<svg width="154" height="60" viewBox="0 0 154 60" fill="none" xmlns="http://www.w3.org/2000/svg">
<path d="M98.1936 1.82269C97.4737 1.53937 95.7188 1.25606 94.2339 1.20884C92.479 1.16162 90.9491 1.44494 89.8692 1.96435C88.9242 2.43655 87.4843 3.5226 86.7194 4.37255C85.9094 5.22251 84.8295 6.73354 84.3345 7.77237C83.7046 9.09452 83.4796 10.6055 83.4796 12.7304C83.4796 14.8553 83.7946 16.3663 84.4245 17.6885C84.9195 18.7273 86.2244 20.38 87.3043 21.3244C88.3843 22.316 90.1391 23.3076 91.2191 23.5909C92.254 23.827 93.8739 24.0631 94.7738 24.0631C95.7188 24.0631 97.4737 23.5437 98.7336 22.9299C99.9485 22.316 101.433 21.3244 101.973 20.7105C102.513 20.0967 103.413 18.5384 103.953 17.2163C104.628 15.7053 104.988 13.9581 104.988 12.2582C104.988 10.5583 104.673 9.00008 104.043 7.77237C103.548 6.73354 102.288 5.08085 101.253 4.13646C100.263 3.14484 98.8686 2.10601 98.1936 1.82269Z" fill="#8D1B60"/>
<path d="M29.2131 45.312C28.3582 45.0287 27.4133 44.8398 27.1883 44.887C26.9633 44.887 26.1533 45.1231 25.3884 45.3592C24.6234 45.5953 23.6335 46.1147 23.1385 46.5397C22.4636 47.0591 22.1936 47.8618 22.1486 49.7034C22.1036 51.0728 21.9236 52.8671 21.7886 53.7171C21.6086 54.9448 21.7886 55.4642 22.9136 56.6447C23.6785 57.4002 24.6234 58.0613 25.0734 58.0613C25.4784 58.0613 26.1084 58.2974 26.3783 58.6279C26.8283 59.1473 27.1883 59.1001 28.1782 58.6279C28.8982 58.2502 29.9331 57.7307 30.5181 57.4474C31.103 57.1169 32.003 56.2669 32.5429 55.5586C33.2629 54.567 33.4879 53.5282 33.4879 51.4505C33.4879 48.9951 33.3079 48.5229 32.138 47.2008C31.373 46.398 30.0681 45.5481 29.2131 45.312Z" fill="#8D1B60"/>
<path d="M98.1936 1.82269C97.4737 1.53937 95.7188 1.25606 94.2339 1.20884C92.479 1.16162 90.9491 1.44494 89.8692 1.96435C88.9242 2.43655 87.4843 3.5226 86.7194 4.37255C85.9094 5.22251 84.8295 6.73354 84.3345 7.77237C83.7046 9.09452 83.4796 10.6055 83.4796 12.7304C83.4796 14.8553 83.7946 16.3663 84.4245 17.6885C84.9195 18.7273 86.2244 20.38 87.3043 21.3244C88.3843 22.316 90.1391 23.3076 91.2191 23.5909C92.254 23.827 93.8739 24.0631 94.7738 24.0631C95.7188 24.0631 97.4737 23.5437 98.7336 22.9299C99.9485 22.316 101.433 21.3244 101.973 20.7105C102.513 20.0967 103.413 18.5384 103.953 17.2163C104.628 15.7053 104.988 13.9581 104.988 12.2582C104.988 10.5583 104.673 9.00008 104.043 7.77237C103.548 6.73354 102.288 5.08085 101.253 4.13646C100.263 3.14484 98.8686 2.10601 98.1936 1.82269Z" stroke="#8D1B60" stroke-width="0.7164"/>
<path d="M29.2131 45.312C28.3582 45.0287 27.4133 44.8398 27.1883 44.887C26.9633 44.887 26.1533 45.1231 25.3884 45.3592C24.6234 45.5953 23.6335 46.1147 23.1385 46.5397C22.4636 47.0591 22.1936 47.8618 22.1486 49.7034C22.1036 51.0728 21.9236 52.8671 21.7886 53.7171C21.6086 54.9448 21.7886 55.4642 22.9136 56.6447C23.6785 57.4002 24.6234 58.0613 25.0734 58.0613C25.4784 58.0613 26.1084 58.2974 26.3783 58.6279C26.8283 59.1473 27.1883 59.1001 28.1782 58.6279C28.8982 58.2502 29.9331 57.7307 30.5181 57.4474C31.103 57.1169 32.003 56.2669 32.5429 55.5586C33.2629 54.567 33.4879 53.5282 33.4879 51.4505C33.4879 48.9951 33.3079 48.5229 32.138 47.2008C31.373 46.398 30.0681 45.5481 29.2131 45.312Z" stroke="#8D1B60" stroke-width="0.7164"/>
<path d="M28.0432 2.01158C27.7732 1.53939 27.0083 1.11441 26.3783 1.01997C25.6134 0.92553 25.1184 1.16163 24.7584 1.8227C24.3984 2.48378 24.3984 3.09763 24.7134 3.75871C25.0284 4.41978 25.5234 4.65588 26.3333 4.60866C27.0083 4.51422 27.7732 4.08925 28.0432 3.66427C28.4032 3.05041 28.4032 2.57822 28.0432 2.01158Z" fill="#8D1B60"/>
<path d="M53.0616 47.3424C53.0616 46.4925 52.8816 45.7842 52.6566 45.7842C52.4766 45.7842 51.9366 46.1619 51.4867 46.6341C51.0367 47.1063 50.6767 47.9563 50.7217 48.5229C50.7667 49.0896 51.3517 49.9867 52.0266 50.5062C53.2415 51.4506 53.2865 51.4506 53.6465 50.6478C53.9165 50.1284 53.8715 49.609 53.5565 49.3257C53.2865 49.0896 53.0616 48.1452 53.0616 47.3424Z" fill="#8D1B60"/>
<path d="M17.8739 51.0256C17.7839 48.8063 17.5139 46.9647 17.2889 46.8702C17.0189 46.823 16.5689 46.9175 16.299 47.1063C15.849 47.3424 15.804 48.1452 16.119 50.2701C16.299 51.8283 16.344 53.4338 16.119 53.8115C15.939 54.1893 15.894 55.0865 15.984 55.842C16.074 56.5503 16.299 57.1169 16.479 57.1169C16.7039 57.1169 17.1089 56.6447 17.4239 56.0781C17.7839 55.3698 17.9639 53.6227 17.8739 51.0256Z" fill="#8D1B60"/>
<path d="M22.1936 50.3645C22.2836 49.4201 22.1936 48.4757 22.0136 48.3813C21.8336 48.2396 21.4286 48.9479 21.1136 49.8923C20.7987 50.9784 20.7087 52.3477 20.8887 53.3393L21.2486 54.992C21.8786 52.8199 22.1486 51.3561 22.1936 50.3645Z" fill="#8D1B60"/>
<path d="M53.2865 56.6447C52.5216 56.4558 51.5766 56.267 51.0817 56.2197C50.5867 56.1725 50.3617 56.4086 50.4517 56.7864C50.5867 57.0697 51.0367 57.5891 51.4867 57.8252C52.0716 58.1557 52.3416 58.1085 52.4316 57.7308C52.5216 57.4002 53.0616 57.0697 53.6015 57.0697C54.4565 57.0225 54.3665 56.928 53.2865 56.6447Z" fill="#8D1B60"/>
<path d="M28.0432 2.01158C27.7732 1.53939 27.0083 1.11441 26.3783 1.01997C25.6134 0.92553 25.1184 1.16163 24.7584 1.8227C24.3984 2.48378 24.3984 3.09763 24.7134 3.75871C25.0284 4.41978 25.5234 4.65588 26.3333 4.60866C27.0083 4.51422 27.7732 4.08925 28.0432 3.66427C28.4032 3.05041 28.4032 2.57822 28.0432 2.01158Z" stroke="#8D1B60" stroke-width="0.7164"/>
<path d="M53.0616 47.3424C53.0616 46.4925 52.8816 45.7842 52.6566 45.7842C52.4766 45.7842 51.9366 46.1619 51.4867 46.6341C51.0367 47.1063 50.6767 47.9563 50.7217 48.5229C50.7667 49.0896 51.3517 49.9867 52.0266 50.5062C53.2415 51.4506 53.2865 51.4506 53.6465 50.6478C53.9165 50.1284 53.8715 49.609 53.5565 49.3257C53.2865 49.0896 53.0616 48.1452 53.0616 47.3424Z" stroke="#8D1B60" stroke-width="0.7164"/>
<path d="M17.8739 51.0256C17.7839 48.8063 17.5139 46.9647 17.2889 46.8702C17.0189 46.823 16.5689 46.9175 16.299 47.1063C15.849 47.3424 15.804 48.1452 16.119 50.2701C16.299 51.8283 16.344 53.4338 16.119 53.8115C15.939 54.1893 15.894 55.0865 15.984 55.842C16.074 56.5503 16.299 57.1169 16.479 57.1169C16.7039 57.1169 17.1089 56.6447 17.4239 56.0781C17.7839 55.3698 17.9639 53.6227 17.8739 51.0256Z" stroke="#8D1B60" stroke-width="0.7164"/>
<path d="M22.1936 50.3645C22.2836 49.4201 22.1936 48.4757 22.0136 48.3813C21.8336 48.2396 21.4286 48.9479 21.1136 49.8923C20.7987 50.9784 20.7087 52.3477 20.8887 53.3393L21.2486 54.992C21.8786 52.8199 22.1486 51.3561 22.1936 50.3645Z" stroke="#8D1B60" stroke-width="0.7164"/>
<path d="M53.2865 56.6447C52.5216 56.4558 51.5766 56.267 51.0817 56.2197C50.5867 56.1725 50.3617 56.4086 50.4517 56.7864C50.5867 57.0697 51.0367 57.5891 51.4867 57.8252C52.0716 58.1557 52.3416 58.1085 52.4316 57.7308C52.5216 57.4002 53.0616 57.0697 53.6015 57.0697C54.4565 57.0225 54.3665 56.928 53.2865 56.6447Z" stroke="#8D1B60" stroke-width="0.7164"/>
<path fill-rule="evenodd" clip-rule="evenodd" d="M55.4464 44.887C56.1213 44.8398 57.0663 45.0287 57.5612 45.312C58.0562 45.5481 58.4612 46.1619 58.4612 46.5869C58.4612 47.2952 58.1912 47.3897 56.5713 47.1063C55.4914 46.9647 54.2765 47.0119 53.8265 47.248C53.1965 47.5785 53.0615 47.4369 52.9715 46.5397C52.9265 45.8786 53.1515 45.2648 53.5115 45.1703C53.8715 45.0287 54.7264 44.887 55.4014 44.887H55.4464ZM2.70984 46.7286C3.51978 46.7286 3.60978 47.1536 3.78977 50.8367C3.96975 54.0004 4.23974 55.1809 4.8247 55.842C5.27467 56.3142 5.94962 56.6919 6.3096 56.6919C6.66958 56.6919 7.34453 56.3142 7.74951 55.842C8.33447 55.2281 8.55945 53.9532 8.64945 50.9783C8.78444 47.0591 8.82944 46.9647 9.90936 46.9647C10.9893 46.9647 11.0343 47.0591 11.2593 51.2144C11.4843 55.1337 11.5743 55.4642 12.6092 56.0309C13.5091 56.503 13.9141 56.503 14.724 55.9364C15.309 55.5587 15.849 55.2281 15.984 55.2281C16.119 55.2281 16.2539 55.7475 16.2989 56.3614C16.4339 57.2586 16.119 57.6363 14.724 58.2502C13.2391 58.9112 12.9242 58.9112 11.7092 58.2974C10.9443 57.9196 10.0894 57.5891 9.77437 57.5891C9.50439 57.5891 8.51446 57.9196 7.65951 58.3446C6.75957 58.7696 5.63465 59.0057 5.04968 58.8168C4.50972 58.6751 3.51978 58.0141 2.79983 57.4002C1.62991 56.3142 1.58491 56.1725 1.62991 51.6394C1.67491 49.0423 1.7199 46.9175 1.7649 46.823C1.7649 46.7758 2.21487 46.7286 2.70984 46.7286ZM15.939 49.0896C16.074 49.2312 16.209 50.3173 16.2989 51.545C16.3889 52.7255 16.2539 53.906 16.074 54.1421C15.894 54.3309 15.714 53.2449 15.714 51.6866C15.714 50.1284 15.849 48.9479 15.939 49.0896ZM54.3214 50.034C54.5464 50.034 55.4014 50.4589 56.2563 51.0256C57.1113 51.545 58.1012 52.3477 58.4162 52.7727C58.7312 53.2449 58.9561 54.2365 58.9561 54.992C59.0011 55.842 58.5962 56.7864 58.0112 57.353C57.3812 57.9669 56.1663 58.3918 54.5914 58.5335C52.5216 58.7224 52.1616 58.6751 52.3866 58.0613C52.5216 57.6835 53.4665 57.1169 54.5014 56.8808C55.5364 56.5975 56.6163 56.0309 56.8863 55.5587C57.2912 54.8504 57.1563 54.4726 56.0313 53.3865C55.2664 52.6783 54.4114 52.0172 54.0515 51.8755C53.6465 51.7811 53.5115 51.3561 53.6915 50.8367C53.8715 50.4117 54.1415 50.034 54.3214 50.034Z" fill="#8D1B60" stroke="#8D1B60" stroke-width="0.7164"/>
<path d="M8.37957 52.3947C8.46957 51.2143 8.46957 49.5145 8.37957 48.6174C8.28958 47.7202 8.19958 48.6646 8.19958 50.7421C8.19958 52.8197 8.28958 53.5752 8.37957 52.3947Z" fill="#8D1B60" stroke="#8D1B60" stroke-width="0.7164"/>
<path d="M15.579 52.3947C15.669 51.4976 15.669 49.8922 15.579 48.8534C15.489 47.8147 15.399 48.5701 15.399 50.506C15.399 52.442 15.489 53.2919 15.579 52.3947Z" fill="#8D1B60"/>
<path d="M55.2214 58.8635C55.6264 58.7219 55.1764 58.6274 54.1865 58.6746C53.1966 58.6746 52.8366 58.7691 53.4215 58.8635C54.0065 58.9579 54.8165 58.9579 55.2214 58.8635Z" fill="#8D1B60"/>
<path d="M15.579 52.3947C15.669 51.4976 15.669 49.8922 15.579 48.8534C15.489 47.8147 15.399 48.5701 15.399 50.506C15.399 52.442 15.489 53.2919 15.579 52.3947Z" stroke="#8D1B60" stroke-width="0.7164"/>
<path d="M55.2214 58.8635C55.6264 58.7219 55.1764 58.6274 54.1865 58.6746C53.1966 58.6746 52.8366 58.7691 53.4215 58.8635C54.0065 58.9579 54.8165 58.9579 55.2214 58.8635Z" stroke="#8D1B60" stroke-width="0.7164"/>
<path d="M1.17999 52.3947C1.26998 51.4976 1.26998 49.8922 1.17999 48.8534C1.08999 47.8147 1 48.5701 1 50.506C1 52.442 1.08999 53.2919 1.17999 52.3947Z" fill="#8D1B60" stroke="#8D1B60" stroke-width="0.7164"/>
<path d="M3.87979 51.4504C3.96979 50.5533 3.96979 49.2784 3.87979 48.6174C3.7898 47.9563 3.6998 48.7118 3.6998 50.27C3.6998 51.8281 3.7898 52.3475 3.87979 51.4504Z" fill="#8D1B60"/>
<path d="M1.62994 52.3947C1.71993 51.7337 1.71993 50.7894 1.62994 50.27C1.53995 49.7506 1.44995 50.27 1.44995 51.4504C1.44995 52.6308 1.53995 53.0558 1.62994 52.3947Z" fill="#8D1B60"/>
<path d="M3.87979 51.4504C3.96979 50.5533 3.96979 49.2784 3.87979 48.6174C3.7898 47.9563 3.6998 48.7118 3.6998 50.27C3.6998 51.8281 3.7898 52.3475 3.87979 51.4504Z" stroke="#8D1B60" stroke-width="0.7164"/>
<path d="M1.62994 52.3947C1.71993 51.7337 1.71993 50.7894 1.62994 50.27C1.53995 49.7506 1.44995 50.27 1.44995 51.4504C1.44995 52.6308 1.53995 53.0558 1.62994 52.3947Z" stroke="#8D1B60" stroke-width="0.7164"/>
<path d="M95.3589 1.25605C95.9888 1.16161 95.5838 1.06718 94.4589 1.06718C93.334 1.06718 92.839 1.16161 93.334 1.25605C93.829 1.35048 94.7289 1.35048 95.3589 1.25605Z" fill="#8D1B60" stroke="#8D1B60" stroke-width="0.7164"/>
<path d="M18.2789 52.3947C18.3689 51.2143 18.3689 49.5145 18.2789 48.6174C18.1889 47.7202 18.0989 48.6646 18.0989 50.7421C18.0989 52.8197 18.1889 53.5752 18.2789 52.3947Z" fill="#8D1B60" stroke="#8D1B60" stroke-width="0.7164"/>
<path d="M49.1019 12.3055C48.5619 12.0222 47.662 11.7861 47.122 11.7861H47.077C46.537 11.7861 45.1871 12.2583 44.1072 12.8721C43.0273 13.4387 41.9023 14.4304 41.5874 15.0914C41.2724 15.7525 40.8674 17.4524 40.7324 18.869C40.4624 20.805 40.5974 21.9383 41.0924 23.2132C41.4974 24.2048 42.3523 25.3853 43.0273 25.8103C43.7472 26.2353 44.7822 26.5658 45.4121 26.5658C46.0421 26.5186 46.672 26.2353 46.807 25.8575C46.987 25.527 47.347 25.3853 47.617 25.5742C47.887 25.8103 48.1119 25.7631 48.1119 25.4798C48.1119 25.1964 48.6069 25.0076 49.2369 25.0076C49.8668 25.0076 50.3618 24.8187 50.3618 24.5354C50.3618 24.252 50.7668 24.0632 51.2617 24.0632C52.1167 24.0632 52.1617 23.7326 52.1617 19.4356C52.1617 15.2803 52.0717 14.7609 51.1717 13.8637C50.5868 13.2971 49.6868 12.5888 49.1019 12.3055Z" fill="#8D1B60"/>
<path d="M68.3156 13.7693C67.2807 12.7304 66.2907 12.1638 65.0308 11.9749C63.8159 11.8333 62.646 12.0222 61.4311 12.636C60.4411 13.1082 59.3162 14.0054 58.9112 14.6665C58.5063 15.2803 57.9213 16.6497 57.6513 17.6885C57.1563 19.2468 57.2013 20.0023 57.6963 21.8911C58.0563 23.3076 58.7762 24.677 59.4962 25.3381C60.2161 25.9047 61.5211 26.5658 62.421 26.7075C63.6359 26.8963 64.7608 26.7075 66.3807 25.952C67.5957 25.3853 69.0356 24.8187 69.5305 24.7242C70.0255 24.5826 70.4755 24.4881 70.5655 24.3937C70.6105 24.3465 70.7905 23.0243 70.9704 21.4661C71.1504 19.3412 71.0604 18.2079 70.5205 16.9802C70.1155 16.083 69.1256 14.6192 68.3156 13.7693Z" fill="#8D1B60"/>
<path d="M151.2 22.0327C149.625 20.5217 149.13 20.2856 147.285 20.2856H147.24C145.936 20.2856 144.586 20.6161 143.641 21.23C142.876 21.7494 141.886 22.6466 141.526 23.2132C141.166 23.8271 140.716 25.1492 140.581 26.188C140.356 27.5574 140.536 28.5963 141.121 29.9184C141.616 30.91 142.606 32.1849 143.326 32.7044C144.046 33.2238 145.396 33.7904 146.25 33.8848C147.24 34.0265 148.5 33.7904 149.58 33.2238C150.57 32.7044 151.74 31.6655 152.19 30.91C152.73 29.9656 153 28.5963 153 26.6602C152.955 23.9687 152.865 23.7326 151.2 22.0327Z" fill="#8D1B60"/>
<path d="M100.848 36.8125C99.5886 35.3487 98.9586 34.9709 97.6987 34.9237C96.8437 34.9237 95.4488 35.3487 94.6389 35.8681C93.7839 36.4347 93.064 37.3319 92.929 38.0874C92.749 38.8429 92.749 40.0706 92.884 40.8261C93.064 41.5817 94.0989 43.5649 95.2238 45.1703C96.3488 46.8703 98.5536 49.184 100.264 50.5062C101.973 51.7811 104.448 53.481 105.798 54.2365C107.148 54.992 109.578 56.0781 111.198 56.6447C113.448 57.4475 115.248 57.6836 118.847 57.7308C122.042 57.7308 124.517 57.4947 126.497 56.928C128.117 56.4558 131.221 55.1809 133.471 54.0949C135.676 52.9616 138.331 51.3561 139.321 50.5534C140.311 49.7034 141.976 47.9091 143.056 46.5869C144.406 44.7926 144.946 43.7065 144.946 42.5733C144.946 41.44 144.586 40.7317 143.371 39.6456C142.321 38.7013 141.301 38.2291 140.311 38.2291C139.231 38.2291 138.106 38.8901 135.721 40.8734C133.966 42.3372 131.761 44.0843 130.772 44.7454C129.782 45.4064 128.027 46.3508 126.812 46.823C125.642 47.2952 123.437 47.8619 121.862 48.1452C120.017 48.4285 118.082 48.4285 116.147 48.1452C114.528 47.8619 112.008 47.0119 110.523 46.3036C108.633 45.312 107.013 43.9899 105.123 41.7705C103.638 40.0234 101.703 37.8041 100.848 36.8125Z" fill="#8D1B60"/>
<path d="M46.0421 46.0675C45.3671 45.737 44.1972 45.312 43.4772 45.1703C42.7123 44.9815 41.4074 45.1231 40.5524 45.4537C39.6525 45.7842 38.5726 46.3508 38.1226 46.7286C37.6726 47.1063 36.9977 48.0035 36.6827 48.7118C36.3227 49.4673 36.0527 50.7895 36.0527 51.6867C36.0527 52.5838 36.2327 53.8115 36.4577 54.3782C36.6827 54.992 37.3127 55.9364 37.8076 56.5031C38.3476 57.1169 39.5625 57.778 40.5524 58.0613C41.5424 58.3446 43.1173 58.3918 44.0172 58.203C44.9621 58.0141 46.2221 57.4475 46.807 56.928C47.707 56.0781 47.887 55.417 48.0219 52.2533C48.1119 50.2701 47.977 48.1924 47.752 47.673C47.482 47.1536 46.762 46.4453 46.0421 46.0675Z" fill="#8D1B60"/>
<path d="M49.1019 12.3055C48.5619 12.0222 47.662 11.7861 47.122 11.7861H47.077C46.537 11.7861 45.1871 12.2583 44.1072 12.8721C43.0273 13.4387 41.9023 14.4304 41.5874 15.0914C41.2724 15.7525 40.8674 17.4524 40.7324 18.869C40.4624 20.805 40.5974 21.9383 41.0924 23.2132C41.4974 24.2048 42.3523 25.3853 43.0273 25.8103C43.7472 26.2353 44.7822 26.5658 45.4121 26.5658C46.0421 26.5186 46.672 26.2353 46.807 25.8575C46.987 25.527 47.347 25.3853 47.617 25.5742C47.887 25.8103 48.1119 25.7631 48.1119 25.4798C48.1119 25.1964 48.6069 25.0076 49.2369 25.0076C49.8668 25.0076 50.3618 24.8187 50.3618 24.5354C50.3618 24.252 50.7668 24.0632 51.2617 24.0632C52.1167 24.0632 52.1617 23.7326 52.1617 19.4356C52.1617 15.2803 52.0717 14.7609 51.1717 13.8637C50.5868 13.2971 49.6868 12.5888 49.1019 12.3055Z" stroke="#8D1B60" stroke-width="0.7164"/>
<path d="M68.3156 13.7693C67.2807 12.7304 66.2907 12.1638 65.0308 11.9749C63.8159 11.8333 62.646 12.0222 61.4311 12.636C60.4411 13.1082 59.3162 14.0054 58.9112 14.6665C58.5063 15.2803 57.9213 16.6497 57.6513 17.6885C57.1563 19.2468 57.2013 20.0023 57.6963 21.8911C58.0563 23.3076 58.7762 24.677 59.4962 25.3381C60.2161 25.9047 61.5211 26.5658 62.421 26.7075C63.6359 26.8963 64.7608 26.7075 66.3807 25.952C67.5957 25.3853 69.0356 24.8187 69.5305 24.7242C70.0255 24.5826 70.4755 24.4881 70.5655 24.3937C70.6105 24.3465 70.7905 23.0243 70.9704 21.4661C71.1504 19.3412 71.0604 18.2079 70.5205 16.9802C70.1155 16.083 69.1256 14.6192 68.3156 13.7693Z" stroke="#8D1B60" stroke-width="0.7164"/>
<path d="M151.2 22.0327C149.625 20.5217 149.13 20.2856 147.285 20.2856H147.24C145.936 20.2856 144.586 20.6161 143.641 21.23C142.876 21.7494 141.886 22.6466 141.526 23.2132C141.166 23.8271 140.716 25.1492 140.581 26.188C140.356 27.5574 140.536 28.5963 141.121 29.9184C141.616 30.91 142.606 32.1849 143.326 32.7044C144.046 33.2238 145.396 33.7904 146.25 33.8848C147.24 34.0265 148.5 33.7904 149.58 33.2238C150.57 32.7044 151.74 31.6655 152.19 30.91C152.73 29.9656 153 28.5963 153 26.6602C152.955 23.9687 152.865 23.7326 151.2 22.0327Z" stroke="#8D1B60" stroke-width="0.7164"/>
<path d="M100.848 36.8125C99.5886 35.3487 98.9586 34.9709 97.6987 34.9237C96.8437 34.9237 95.4488 35.3487 94.6389 35.8681C93.7839 36.4347 93.064 37.3319 92.929 38.0874C92.749 38.8429 92.749 40.0706 92.884 40.8261C93.064 41.5817 94.0989 43.5649 95.2238 45.1703C96.3488 46.8703 98.5536 49.184 100.264 50.5062C101.973 51.7811 104.448 53.481 105.798 54.2365C107.148 54.992 109.578 56.0781 111.198 56.6447C113.448 57.4475 115.248 57.6836 118.847 57.7308C122.042 57.7308 124.517 57.4947 126.497 56.928C128.117 56.4558 131.221 55.1809 133.471 54.0949C135.676 52.9616 138.331 51.3561 139.321 50.5534C140.311 49.7034 141.976 47.9091 143.056 46.5869C144.406 44.7926 144.946 43.7065 144.946 42.5733C144.946 41.44 144.586 40.7317 143.371 39.6456C142.321 38.7013 141.301 38.2291 140.311 38.2291C139.231 38.2291 138.106 38.8901 135.721 40.8734C133.966 42.3372 131.761 44.0843 130.772 44.7454C129.782 45.4064 128.027 46.3508 126.812 46.823C125.642 47.2952 123.437 47.8619 121.862 48.1452C120.017 48.4285 118.082 48.4285 116.147 48.1452C114.528 47.8619 112.008 47.0119 110.523 46.3036C108.633 45.312 107.013 43.9899 105.123 41.7705C103.638 40.0234 101.703 37.8041 100.848 36.8125Z" stroke="#8D1B60" stroke-width="0.7164"/>
<path d="M46.0421 46.0675C45.3671 45.737 44.1972 45.312 43.4772 45.1703C42.7123 44.9815 41.4074 45.1231 40.5524 45.4537C39.6525 45.7842 38.5726 46.3508 38.1226 46.7286C37.6726 47.1063 36.9977 48.0035 36.6827 48.7118C36.3227 49.4673 36.0527 50.7895 36.0527 51.6867C36.0527 52.5838 36.2327 53.8115 36.4577 54.3782C36.6827 54.992 37.3127 55.9364 37.8076 56.5031C38.3476 57.1169 39.5625 57.778 40.5524 58.0613C41.5424 58.3446 43.1173 58.3918 44.0172 58.203C44.9621 58.0141 46.2221 57.4475 46.807 56.928C47.707 56.0781 47.887 55.417 48.0219 52.2533C48.1119 50.2701 47.977 48.1924 47.752 47.673C47.482 47.1536 46.762 46.4453 46.0421 46.0675Z" stroke="#8D1B60" stroke-width="0.7164"/>
<path d="M24.1735 7.67793C24.0385 6.59188 23.8135 6.30856 22.6886 6.21412C21.9236 6.11968 21.1137 6.21412 20.8887 6.403C20.7087 6.59188 20.5287 7.25295 20.5737 7.86681C20.6187 8.5751 21.0237 9.0473 21.6986 9.23618C22.2386 9.42506 23.0485 9.42506 23.4985 9.23618C23.9935 9.0473 24.2185 8.52788 24.1735 7.67793Z" fill="#8D1B60"/>
<path d="M31.913 6.82798C31.553 6.403 30.833 6.11968 30.3381 6.11968C29.8431 6.1669 29.1231 6.30856 28.7632 6.45022C28.4482 6.54466 28.1782 7.01686 28.2232 7.44183C28.2232 7.91403 28.5382 8.52788 28.8532 8.85842C29.1681 9.18896 29.9331 9.37784 30.5181 9.33062C31.103 9.23618 31.823 8.85842 32.0929 8.38623C32.4529 7.81959 32.4079 7.44183 31.913 6.82798Z" fill="#8D1B60"/>
<path d="M36.6377 17.4524V12.4943C34.0278 12.211 33.7578 12.3999 33.5329 13.2971C33.3979 13.9109 33.2629 15.9886 33.1729 17.9718C33.0829 20.2856 32.8129 21.8438 32.3629 22.3632C32.003 22.7882 31.283 23.166 30.788 23.166C30.2931 23.1188 29.5281 22.8827 29.0781 22.5521C28.4482 22.0799 28.1782 20.9939 27.9532 17.6885L27.6382 13.4387H24.9384C24.5784 20.1439 24.2635 21.8438 23.8135 22.3632C23.4535 22.7882 22.6436 23.166 22.0136 23.166C21.3837 23.166 20.5737 22.7882 20.2137 22.3632C19.7638 21.8438 19.4488 20.1439 19.3138 17.4996C19.0888 13.5804 19.0438 13.4387 17.9639 13.2971C17.2439 13.2026 16.614 13.4387 16.254 14.0054C15.894 14.572 15.714 16.7913 15.714 20.9939C15.759 26.9435 15.714 27.1796 14.5891 28.4546C13.9591 29.1629 12.9242 29.8712 12.2493 30.0128C11.5293 30.2017 10.2694 30.2017 9.41444 30.0128C8.5595 29.8712 7.38958 29.2573 6.80461 28.6907C6.03966 27.8879 5.67969 26.8963 5.5447 25.0075C5.40971 23.591 5.22972 21.9383 5.09473 21.3716C4.95974 20.6161 4.59976 20.2856 3.9248 20.2856C3.33984 20.2384 2.57489 20.6161 2.21492 21.0411C1.67495 21.6549 1.62995 22.4577 1.85494 24.7242C2.03493 26.2825 2.61989 28.549 3.20485 29.6823C3.83481 30.9572 4.86974 32.0905 5.81468 32.6099C6.66962 33.1293 8.10953 33.6487 8.96447 33.7904C9.81942 33.9793 11.4843 33.9793 12.6992 33.7904C14.1841 33.6015 15.2641 33.0821 16.434 31.996C17.3339 31.1461 18.4139 29.6823 18.8188 28.7851C19.4938 27.2269 19.7188 27.1324 22.1036 26.8963C23.4985 26.7547 24.9384 26.3769 25.2084 26.0936C25.5234 25.7631 26.1983 25.4797 26.6933 25.4797C27.2333 25.4797 28.0432 25.8103 28.5382 26.188C29.0332 26.613 30.1131 26.8963 30.923 26.8963C31.688 26.8963 32.9029 26.613 33.5329 26.3297C34.1628 25.9992 35.1527 24.9603 35.6477 24.0631C36.5027 22.6466 36.6377 21.7022 36.6377 17.4524Z" fill="#8D1B60"/>
<path d="M53.1066 16.7441L52.2516 14.8553L52.2066 19.4828C52.1616 23.7326 52.1166 24.0631 51.2617 24.0631C50.7667 24.0631 50.3617 24.252 50.3617 24.5353C50.3617 24.8187 49.8668 25.0075 49.2368 25.0075C48.6069 25.0075 48.1119 25.1964 48.1119 25.4797C48.1119 25.7631 47.7969 25.8575 47.4369 25.7158C47.077 25.5742 46.762 25.6686 46.762 25.9519C46.762 26.2353 46.402 26.5186 45.952 26.613C45.5021 26.7074 45.6371 26.8019 46.312 26.8019C46.942 26.8491 47.9319 26.5658 48.5619 26.188C49.1918 25.8103 49.8218 25.527 50.0018 25.4797C50.2268 25.4797 50.2268 26.0464 50.0918 26.8019C49.9568 27.5102 49.5068 28.4546 49.1018 28.9268C48.6969 29.399 47.302 29.9184 46.087 30.06C44.8271 30.2489 43.5672 30.6739 43.2522 31.0044C42.9822 31.335 42.7123 31.8544 42.7123 32.0905C42.7123 32.3738 43.0722 32.8932 43.4772 33.3182C44.1072 33.9321 44.8721 34.0737 46.762 33.8848C48.1119 33.7432 49.8218 33.2238 50.4967 32.7516C51.2167 32.2794 52.2066 30.91 52.7466 29.7295C53.4215 28.1713 53.7365 26.4241 53.8265 23.1188C53.9615 19.3884 53.8265 18.3024 53.1066 16.7441Z" fill="#8D1B60"/>
<path d="M40.7324 19.1995C40.8674 17.9246 40.8674 16.7441 40.7774 16.6024C40.6424 16.4136 40.4174 17.3107 40.2824 18.6329C40.1024 19.9078 40.1024 21.0883 40.1924 21.23C40.3274 21.3244 40.5524 20.4272 40.7324 19.1995Z" fill="#8D1B60"/>
<path d="M70.8354 25.5742C71.0154 23.9687 71.0154 22.6466 70.8804 22.6466C70.7454 22.6466 70.6104 23.0243 70.6104 23.591C70.6104 24.1104 70.4304 24.5353 70.1604 24.5353C69.9355 24.5353 69.6655 24.4881 69.6205 24.4409C69.5305 24.3937 69.0355 24.5826 68.4956 24.9131C67.9106 25.1964 67.4606 25.8575 67.4606 26.4241C67.4606 26.9435 67.0107 27.8879 66.4707 28.549C65.7507 29.4462 64.8058 29.8712 63.2759 30.1073C62.061 30.2961 60.7561 30.7683 60.3511 31.2405C59.6311 31.996 59.6761 32.1377 60.4861 33.0821C61.251 33.9321 61.791 34.0265 63.8609 33.8376C65.2108 33.7432 66.9207 33.2238 67.6406 32.7043C68.3606 32.2321 69.3055 31.0989 69.7555 30.2017C70.1604 29.2573 70.6554 27.1796 70.8354 25.5742Z" fill="#8D1B60"/>
<path d="M48.6519 49.5618L48.1569 48.3813L48.1119 49.5618C48.0669 50.1756 48.0219 51.6394 47.9769 52.7255C47.9319 53.8115 48.0669 54.7087 48.2469 54.7087C48.4269 54.7087 48.6969 53.8115 48.8318 52.7255C48.9668 51.6394 48.8768 50.1756 48.6519 49.5618Z" fill="#8D1B60"/>
<path d="M24.1735 7.67793C24.0385 6.59188 23.8135 6.30856 22.6886 6.21412C21.9236 6.11968 21.1137 6.21412 20.8887 6.403C20.7087 6.59188 20.5287 7.25295 20.5737 7.86681C20.6187 8.5751 21.0237 9.0473 21.6986 9.23618C22.2386 9.42506 23.0485 9.42506 23.4985 9.23618C23.9935 9.0473 24.2185 8.52788 24.1735 7.67793Z" stroke="#8D1B60" stroke-width="0.7164"/>
<path d="M31.913 6.82798C31.553 6.403 30.833 6.11968 30.3381 6.11968C29.8431 6.1669 29.1231 6.30856 28.7632 6.45022C28.4482 6.54466 28.1782 7.01686 28.2232 7.44183C28.2232 7.91403 28.5382 8.52788 28.8532 8.85842C29.1681 9.18896 29.9331 9.37784 30.5181 9.33062C31.103 9.23618 31.823 8.85842 32.0929 8.38623C32.4529 7.81959 32.4079 7.44183 31.913 6.82798Z" stroke="#8D1B60" stroke-width="0.7164"/>
<path d="M36.6377 17.4524V12.4943C34.0278 12.211 33.7578 12.3999 33.5329 13.2971C33.3979 13.9109 33.2629 15.9886 33.1729 17.9718C33.0829 20.2856 32.8129 21.8438 32.3629 22.3632C32.003 22.7882 31.283 23.166 30.788 23.166C30.2931 23.1188 29.5281 22.8827 29.0781 22.5521C28.4482 22.0799 28.1782 20.9939 27.9532 17.6885L27.6382 13.4387H24.9384C24.5784 20.1439 24.2635 21.8438 23.8135 22.3632C23.4535 22.7882 22.6436 23.166 22.0136 23.166C21.3837 23.166 20.5737 22.7882 20.2137 22.3632C19.7638 21.8438 19.4488 20.1439 19.3138 17.4996C19.0888 13.5804 19.0438 13.4387 17.9639 13.2971C17.2439 13.2026 16.614 13.4387 16.254 14.0054C15.894 14.572 15.714 16.7913 15.714 20.9939C15.759 26.9435 15.714 27.1796 14.5891 28.4546C13.9591 29.1629 12.9242 29.8712 12.2493 30.0128C11.5293 30.2017 10.2694 30.2017 9.41444 30.0128C8.5595 29.8712 7.38958 29.2573 6.80461 28.6907C6.03966 27.8879 5.67969 26.8963 5.5447 25.0075C5.40971 23.591 5.22972 21.9383 5.09473 21.3716C4.95974 20.6161 4.59976 20.2856 3.9248 20.2856C3.33984 20.2384 2.57489 20.6161 2.21492 21.0411C1.67495 21.6549 1.62995 22.4577 1.85494 24.7242C2.03493 26.2825 2.61989 28.549 3.20485 29.6823C3.83481 30.9572 4.86974 32.0905 5.81468 32.6099C6.66962 33.1293 8.10953 33.6487 8.96447 33.7904C9.81942 33.9793 11.4843 33.9793 12.6992 33.7904C14.1841 33.6015 15.2641 33.0821 16.434 31.996C17.3339 31.1461 18.4139 29.6823 18.8188 28.7851C19.4938 27.2269 19.7188 27.1324 22.1036 26.8963C23.4985 26.7547 24.9384 26.3769 25.2084 26.0936C25.5234 25.7631 26.1983 25.4797 26.6933 25.4797C27.2333 25.4797 28.0432 25.8103 28.5382 26.188C29.0332 26.613 30.1131 26.8963 30.923 26.8963C31.688 26.8963 32.9029 26.613 33.5329 26.3297C34.1628 25.9992 35.1527 24.9603 35.6477 24.0631C36.5027 22.6466 36.6377 21.7022 36.6377 17.4524Z" stroke="#8D1B60" stroke-width="0.7164"/>
<path d="M53.1066 16.7441L52.2516 14.8553L52.2066 19.4828C52.1616 23.7326 52.1166 24.0631 51.2617 24.0631C50.7667 24.0631 50.3617 24.252 50.3617 24.5353C50.3617 24.8187 49.8668 25.0075 49.2368 25.0075C48.6069 25.0075 48.1119 25.1964 48.1119 25.4797C48.1119 25.7631 47.7969 25.8575 47.4369 25.7158C47.077 25.5742 46.762 25.6686 46.762 25.9519C46.762 26.2353 46.402 26.5186 45.952 26.613C45.5021 26.7074 45.6371 26.8019 46.312 26.8019C46.942 26.8491 47.9319 26.5658 48.5619 26.188C49.1918 25.8103 49.8218 25.527 50.0018 25.4797C50.2268 25.4797 50.2268 26.0464 50.0918 26.8019C49.9568 27.5102 49.5068 28.4546 49.1018 28.9268C48.6969 29.399 47.302 29.9184 46.087 30.06C44.8271 30.2489 43.5672 30.6739 43.2522 31.0044C42.9822 31.335 42.7123 31.8544 42.7123 32.0905C42.7123 32.3738 43.0722 32.8932 43.4772 33.3182C44.1072 33.9321 44.8721 34.0737 46.762 33.8848C48.1119 33.7432 49.8218 33.2238 50.4967 32.7516C51.2167 32.2794 52.2066 30.91 52.7466 29.7295C53.4215 28.1713 53.7365 26.4241 53.8265 23.1188C53.9615 19.3884 53.8265 18.3024 53.1066 16.7441Z" stroke="#8D1B60" stroke-width="0.7164"/>
<path d="M40.7324 19.1995C40.8674 17.9246 40.8674 16.7441 40.7774 16.6024C40.6424 16.4136 40.4174 17.3107 40.2824 18.6329C40.1024 19.9078 40.1024 21.0883 40.1924 21.23C40.3274 21.3244 40.5524 20.4272 40.7324 19.1995Z" stroke="#8D1B60" stroke-width="0.7164"/>
<path d="M70.8354 25.5742C71.0154 23.9687 71.0154 22.6466 70.8804 22.6466C70.7454 22.6466 70.6104 23.0243 70.6104 23.591C70.6104 24.1104 70.4304 24.5353 70.1604 24.5353C69.9355 24.5353 69.6655 24.4881 69.6205 24.4409C69.5305 24.3937 69.0355 24.5826 68.4956 24.9131C67.9106 25.1964 67.4606 25.8575 67.4606 26.4241C67.4606 26.9435 67.0107 27.8879 66.4707 28.549C65.7507 29.4462 64.8058 29.8712 63.2759 30.1073C62.061 30.2961 60.7561 30.7683 60.3511 31.2405C59.6311 31.996 59.6761 32.1377 60.4861 33.0821C61.251 33.9321 61.791 34.0265 63.8609 33.8376C65.2108 33.7432 66.9207 33.2238 67.6406 32.7043C68.3606 32.2321 69.3055 31.0989 69.7555 30.2017C70.1604 29.2573 70.6554 27.1796 70.8354 25.5742Z" stroke="#8D1B60" stroke-width="0.7164"/>
<path d="M48.6519 49.5618L48.1569 48.3813L48.1119 49.5618C48.0669 50.1756 48.0219 51.6394 47.9769 52.7255C47.9319 53.8115 48.0669 54.7087 48.2469 54.7087C48.4269 54.7087 48.6969 53.8115 48.8318 52.7255C48.9668 51.6394 48.8768 50.1756 48.6519 49.5618Z" stroke="#8D1B60" stroke-width="0.7164"/>
<path d="M63.0059 46.1619C63.0059 45.6425 62.601 45.312 62.061 45.312C61.1611 45.312 61.1611 45.5481 61.2511 51.5447C61.3861 57.1163 61.476 57.8246 62.151 57.919C62.826 58.0607 62.9609 57.6357 63.0509 55.1332L63.1859 52.1585H69.0355C69.2605 57.8718 69.3505 58.0607 70.2505 57.9662C71.2854 57.8246 71.2854 57.6829 71.2854 51.6863V45.5481C69.1255 45.5481 69.0355 45.6897 69.0355 47.9089V50.2698H63.1859C63.0959 47.7201 63.0509 46.5869 63.0059 46.1619Z" fill="#8D1B60" stroke="#8D1B60" stroke-width="0.7164"/>
<path d="M68.2705 50.3645C68.6755 50.2228 68.2255 50.1284 67.2356 50.1756C66.2457 50.1756 65.8857 50.27 66.4707 50.3645C67.0556 50.4589 67.8656 50.4589 68.2705 50.3645Z" fill="#8D1B60"/>
<path d="M71.8253 53.3392C71.9153 52.6781 71.9153 51.8282 71.8253 51.4505C71.6903 51.0727 71.6003 51.5921 71.6453 52.6309C71.6453 53.7641 71.6903 54.0474 71.8253 53.3392Z" fill="#8D1B60"/>
<path d="M61.026 55.7C61.116 55.3223 61.116 54.5668 61.026 54.0474C60.891 53.528 60.801 53.8586 60.801 54.7557C60.801 55.6528 60.891 56.0778 61.026 55.7Z" fill="#8D1B60"/>
<path d="M68.2705 50.3645C68.6755 50.2228 68.2255 50.1284 67.2356 50.1756C66.2457 50.1756 65.8857 50.27 66.4707 50.3645C67.0556 50.4589 67.8656 50.4589 68.2705 50.3645Z" stroke="#8D1B60" stroke-width="0.7164"/>
<path d="M71.8253 53.3392C71.9153 52.6781 71.9153 51.8282 71.8253 51.4505C71.6903 51.0727 71.6003 51.5921 71.6453 52.6309C71.6453 53.7641 71.6903 54.0474 71.8253 53.3392Z" stroke="#8D1B60" stroke-width="0.7164"/>
<path d="M61.026 55.7C61.116 55.3223 61.116 54.5668 61.026 54.0474C60.891 53.528 60.801 53.8586 60.801 54.7557C60.801 55.6528 60.891 56.0778 61.026 55.7Z" stroke="#8D1B60" stroke-width="0.7164"/>
<path d="M61.026 52.3948C61.116 51.7338 61.116 50.8839 61.026 50.5061C60.8911 50.1284 60.8011 50.6478 60.8461 51.6866C60.8461 52.8198 60.8911 53.1031 61.026 52.3948Z" fill="#8D1B60"/>
<path d="M120.332 58.3914C121.052 58.297 120.557 58.2026 119.207 58.2026C117.857 58.2026 117.227 58.297 117.857 58.3914C118.487 58.4859 119.612 58.4859 120.332 58.3914Z" fill="#8D1B60"/>
<path d="M61.026 52.3948C61.116 51.7338 61.116 50.8839 61.026 50.5061C60.8911 50.1284 60.8011 50.6478 60.8461 51.6866C60.8461 52.8198 60.8911 53.1031 61.026 52.3948Z" stroke="#8D1B60" stroke-width="0.7164"/>
<path d="M120.332 58.3914C121.052 58.297 120.557 58.2026 119.207 58.2026C117.857 58.2026 117.227 58.297 117.857 58.3914C118.487 58.4859 119.612 58.4859 120.332 58.3914Z" stroke="#8D1B60" stroke-width="0.7164"/>
<path d="M15.579 22.1742C15.669 20.9937 15.669 19.1995 15.579 18.1607C15.489 17.1219 15.399 18.0663 15.399 20.2855C15.399 22.5047 15.489 23.3546 15.579 22.1742Z" fill="#8D1B60" stroke="#8D1B60" stroke-width="0.7164"/>
<path d="M67.4606 52.2533C68.3156 52.1588 67.7306 52.0644 66.1107 52.0644C64.4908 52.0644 63.7709 52.1588 64.5358 52.2533C65.3008 52.3477 66.6057 52.3477 67.4606 52.2533Z" fill="#8D1B60"/>
<path d="M63.2759 56.6445C63.3659 56.2667 63.3659 55.5113 63.2759 54.9919C63.1409 54.4725 63.0509 54.803 63.0509 55.7001C63.0509 56.5972 63.1409 57.0222 63.2759 56.6445Z" fill="#8D1B60"/>
<path d="M67.4606 52.2533C68.3156 52.1588 67.7306 52.0644 66.1107 52.0644C64.4908 52.0644 63.7709 52.1588 64.5358 52.2533C65.3008 52.3477 66.6057 52.3477 67.4606 52.2533Z" stroke="#8D1B60" stroke-width="0.7164"/>
<path d="M63.2759 56.6445C63.3659 56.2667 63.3659 55.5113 63.2759 54.9919C63.1409 54.4725 63.0509 54.803 63.0509 55.7001C63.0509 56.5972 63.1409 57.0222 63.2759 56.6445Z" stroke="#8D1B60" stroke-width="0.7164"/>
<path d="M28.1782 19.3411C28.2682 18.9634 28.2682 18.2079 28.1782 17.6885C28.0432 17.1691 27.9532 17.4996 27.9532 18.3968C27.9532 19.2939 28.0432 19.7188 28.1782 19.3411Z" fill="#8D1B60" stroke="#8D1B60" stroke-width="0.7164"/>
<path d="M54.2765 23.1187C54.3665 22.7409 54.3665 21.9855 54.2765 21.4661C54.1415 20.9467 54.0515 21.2772 54.0515 22.1743C54.0515 23.0715 54.1415 23.4964 54.2765 23.1187Z" fill="#8D1B60" stroke="#8D1B60" stroke-width="0.7164"/>
<path d="M24.5784 17.9245C24.6684 17.2635 24.6684 16.4136 24.5784 16.0358C24.4434 15.6581 24.3534 16.1775 24.3984 17.2163C24.3984 18.3495 24.4434 18.6328 24.5784 17.9245Z" fill="#8D1B60" stroke="#8D1B60" stroke-width="0.7164"/>
<path d="M37.1776 16.744C37.2676 15.9413 37.2676 14.9025 37.1776 14.3831C37.0876 13.8637 36.9976 14.4775 36.9976 15.7996C36.9976 17.1217 37.0876 17.5467 37.1776 16.744Z" fill="#8D1B60"/>
<path d="M19.6287 19.3409C19.7187 18.4438 19.7187 17.0273 19.6287 16.2718C19.5387 15.4691 19.4487 16.2246 19.4487 17.9244C19.4487 19.6242 19.5387 20.2381 19.6287 19.3409Z" fill="#8D1B60"/>
<path d="M37.1776 16.744C37.2676 15.9413 37.2676 14.9025 37.1776 14.3831C37.0876 13.8637 36.9976 14.4775 36.9976 15.7996C36.9976 17.1217 37.0876 17.5467 37.1776 16.744Z" stroke="#8D1B60" stroke-width="0.7164"/>
<path d="M19.6287 19.3409C19.7187 18.4438 19.7187 17.0273 19.6287 16.2718C19.5387 15.4691 19.4487 16.2246 19.4487 17.9244C19.4487 19.6242 19.5387 20.2381 19.6287 19.3409Z" stroke="#8D1B60" stroke-width="0.7164"/>
</svg>
