<svg width="59" height="70" viewBox="0 0 59 70" fill="none" xmlns="http://www.w3.org/2000/svg">
<path fill-rule="evenodd" clip-rule="evenodd" d="M7.24935 0.21258C4.96871 0.626803 3.374 1.37227 2.12447 2.60837C1.46767 3.25828 1.12429 3.73266 0.887304 4.31722L0.559455 5.12652L0.520691 34.6553C0.477252 67.7838 0.401647 65.2517 1.48183 66.8604C2.31265 68.0976 3.25922 68.7761 5.23319 69.549L6.19543 69.9258L21.1445 69.963L36.0936 70V69.642C36.0936 69.4307 35.7921 68.8548 35.3586 68.2377C33.7064 65.8862 32.8199 62.9054 32.9568 60.1616L33.0007 59.2834L31.8322 58.6243C31.0046 58.1575 30.3553 57.646 29.6062 56.8709L28.5487 55.7766H17.0627H5.57684V33.7667V11.7568H21.2635H36.9504L36.8999 26.1972L36.8496 40.6376L38.9116 41.1507C40.0456 41.4328 41.1477 41.7325 41.3605 41.8164C41.5732 41.9004 41.8046 41.9691 41.8744 41.9691C42.0549 41.9691 42.0474 6.55416 41.8667 5.59187C41.3805 3.001 39.3568 1.21902 35.9068 0.343819L34.5514 0L21.4044 0.0147644C11.0661 0.0263845 8.04196 0.068627 7.24935 0.21258ZM17.811 4.46377C17.2705 4.64094 16.9462 4.87525 16.7684 5.21743C16.4506 5.82865 16.5275 6.2698 17.0412 6.78068L17.5086 7.24548H21.5445H25.5804L25.945 6.90946C26.4213 6.47008 26.5406 5.89823 26.2835 5.28647C25.9182 4.41674 25.6941 4.37327 21.6325 4.38543C19.6441 4.39131 17.9244 4.42658 17.811 4.46377ZM36.7809 45.3133V47.7056L37.1589 47.7868C38.1141 47.9923 41.1294 49.0238 41.8909 49.4056C42.966 49.9448 43.2513 50.3232 43.2723 51.2386C43.2812 51.6286 43.2491 51.987 43.2008 52.035C43.1526 52.0829 42.181 51.7734 41.0418 51.3468C37.0213 49.8418 34.0858 49.2254 32.8514 49.6271C31.4172 50.0936 30.6146 51.1401 30.4961 52.6981C30.2968 55.3189 31.5933 56.4977 36.6082 58.2549L38.7036 58.9892L38.7045 60.2537C38.705 60.9492 38.6647 61.5183 38.6149 61.5183C38.5652 61.5183 37.9929 61.2778 37.3434 60.984C36.6937 60.6901 35.9518 60.4063 35.6947 60.3534L35.227 60.257L35.3213 61.4991C35.5418 64.4032 36.5772 66.723 38.2872 68.1438C39.1424 68.8543 39.8643 69.2439 41.0664 69.6435L42.1217 69.9941H50.3108H58.5V69.4664C58.5 68.1777 58.052 64.6051 57.7262 63.2955C57.3806 61.9065 56.8874 60.3822 56.5098 59.536C56.4092 59.3104 56.159 58.726 55.9539 58.2373C53.4067 52.1678 49.6262 48.0201 44.3413 45.4969C42.3336 44.5383 39.257 43.4709 37.1589 43.0048L36.7809 42.9209V45.3133ZM20.6844 59.7381C18.9474 60.0433 17.8204 61.3671 17.8141 63.109C17.805 65.6451 20.4983 67.3346 22.8294 66.255C24.5521 65.4572 25.1955 63.6005 24.4589 61.5539C23.992 60.2573 22.3165 59.4513 20.6844 59.7381Z" fill="#8D1B60"/>
<path d="M11.0549 28.5407C11.2855 27.2411 11.8102 26.5374 12.8222 26.1709C13.23 26.023 13.6036 25.9715 13.951 26.0149C14.6448 26.1016 15.4508 26.4111 15.4508 26.5905C15.4508 26.6702 15.302 26.9212 15.1201 27.1482C14.8138 27.5304 14.7665 27.5502 14.48 27.4141C13.881 27.1298 13.3866 27.2258 12.9165 27.7181C12.5753 28.0756 12.4706 28.2933 12.4109 28.77C12.2788 29.8232 12.5965 30.5057 13.3372 30.7604C13.9773 30.9805 14.6432 30.5826 14.6432 29.9799C14.6432 29.8367 14.518 29.7917 14.1211 29.7917C13.6705 29.7917 13.5842 29.7506 13.4895 29.4911C13.4201 29.3012 13.4201 29.08 13.4895 28.8901C13.5951 28.6006 13.6368 28.5896 14.6262 28.5896C15.8953 28.5896 15.9548 28.6446 15.8943 29.7631C15.845 30.6699 15.616 31.1191 14.9211 31.6714C14.3361 32.1363 13.1747 32.2034 12.4527 31.8139C11.3842 31.2373 10.8135 29.9012 11.0549 28.5407Z" fill="#8D1B60"/>
<path d="M29.4461 26.1979L29.8034 26.1616C29.9999 26.1417 30.7837 26.1253 31.5452 26.1253H32.9296L32.9646 26.6917L32.9995 27.2582L31.9262 27.2928L30.8529 27.3274V27.8683V28.4093L31.6955 28.4447L32.5381 28.4802L32.5031 29.0458L32.4681 29.6114L31.6894 29.6469L30.9106 29.6824V30.2132V30.744L31.9201 30.7787L32.9296 30.8134L32.9648 31.3844L33 31.9554H31.1477H29.2954L29.2959 30.7834C29.2961 30.1387 29.33 28.8433 29.3712 27.9046L29.4461 26.1979Z" fill="#8D1B60"/>
<path d="M16.2584 31.9074C16.2584 31.866 17.9004 26.7425 18.044 26.3357C18.0803 26.2328 18.385 26.1854 19.0106 26.1854H19.924L20.5667 28.1989C20.9202 29.3064 21.3414 30.5855 21.5028 31.0415C21.6641 31.4974 21.7962 31.8897 21.7962 31.913C21.7962 31.9363 21.4609 31.9554 21.0509 31.9554H20.3056L20.1674 31.4746L20.0291 30.9937H19.0054C18.2871 30.9937 17.9684 31.0386 17.9373 31.144C17.9128 31.2267 17.8616 31.4431 17.8233 31.6248C17.7563 31.944 17.728 31.9554 17.0061 31.9554C16.5948 31.9554 16.2584 31.9339 16.2584 31.9074Z" fill="#8D1B60"/>
<path d="M22.3731 31.9554V29.0704V26.1854H23.2878H24.2024L24.4258 26.8165C24.5485 27.1636 24.7664 27.8263 24.9098 28.2891C25.0532 28.7519 25.2082 29.1737 25.2542 29.2264C25.3002 29.2793 25.5717 28.6302 25.8574 27.784L26.3771 26.2455L27.3171 26.2107L28.2571 26.1757V29.0656V31.9554H27.6255H26.994L26.9621 30.1222L26.9303 28.2891L26.3939 29.8518C26.0989 30.7113 25.8219 31.5392 25.7784 31.6918C25.7139 31.9175 25.6313 31.9623 25.3341 31.9322C24.9791 31.8964 24.9541 31.8537 24.4298 30.3927C24.1333 29.5663 23.8496 28.7819 23.7993 28.6497C23.7461 28.5096 23.693 29.1495 23.672 30.1823L23.6361 31.9554H23.0045H22.3731Z" fill="#8D1B60"/>
<path d="M21.0842 36.544C20.0349 35.4508 20.0334 35.28 21.0636 34.2012C22.0859 33.1308 22.3141 33.1213 23.2772 34.1093C23.6585 34.5004 24.0576 34.9592 24.1641 35.1284C24.3518 35.4269 24.3471 35.4503 24.0071 35.8975C23.8143 36.1511 23.4209 36.585 23.1328 36.8617C22.3496 37.6139 22.0693 37.5706 21.0842 36.544Z" fill="#8D1B60"/>
<path d="M23.9595 37.5822C24.3244 37.1826 24.7267 36.8114 24.8536 36.7572C25.223 36.5995 25.3173 36.6238 25.7606 36.9909C26.3913 37.5131 27.1033 38.4655 27.1033 38.7867C27.1033 38.9742 26.8416 39.3535 26.3345 39.9008C25.7012 40.5843 25.5012 40.7306 25.1997 40.7306C24.8982 40.7306 24.6982 40.5843 24.0649 39.9008C23.0526 38.8082 23.0425 38.5862 23.9595 37.5822Z" fill="#8D1B60"/>
<path d="M17.2967 38.6486C17.2967 38.5246 17.6427 38.0498 18.0656 37.5935C18.738 36.8678 18.8868 36.7637 19.2517 36.7637C19.6072 36.7637 19.766 36.8664 20.3225 37.4549C21.2054 38.3888 21.3146 38.7122 20.9372 39.2761C20.6778 39.6636 19.7825 40.5375 19.4002 40.7764C19.0094 41.0203 17.2967 39.2878 17.2967 38.6486Z" fill="#8D1B60"/>
<path d="M20.3983 41.655C20.5301 41.4326 20.9215 40.9713 21.268 40.63C22.2218 39.6899 22.5322 39.7511 23.5798 41.0852C24.3952 42.1237 24.3836 42.2333 23.351 43.2397C22.3276 44.2372 22.0294 44.2464 21.1495 43.3073C20.8048 42.9395 20.4408 42.5081 20.3406 42.3488C20.1716 42.08 20.1757 42.0301 20.3983 41.655Z" fill="#8D1B60"/>
</svg>
