<svg width="28" height="28" viewBox="0 0 28 28" fill="none" xmlns="http://www.w3.org/2000/svg">
<path d="M7.34261 5.79316C4.23133 8.05364 2.67568 9.18388 2.06469 10.8534C2.01568 10.9873 1.97159 11.123 1.93253 11.2602C1.44551 12.97 2.03971 14.7987 3.22811 18.4563C4.41652 22.1138 5.01072 23.9426 6.40973 25.0396C6.52195 25.1276 6.63737 25.2114 6.75574 25.291C7.2535 25.6254 7.80215 25.8471 8.45833 25.994V21.9563C8.45833 18.8957 10.9394 16.4146 14 16.4146C17.0606 16.4146 19.5417 18.8957 19.5417 21.9563V25.994C20.1979 25.8471 20.7465 25.6254 21.2443 25.291C21.3626 25.2114 21.4781 25.1276 21.5903 25.0396C22.9893 23.9426 23.5835 22.1138 24.7719 18.4563C25.9603 14.7987 26.5545 12.97 26.0675 11.2602C26.0284 11.123 25.9843 10.9873 25.9353 10.8534C25.3243 9.18389 23.7687 8.05365 20.6574 5.79317C17.5461 3.53269 15.9905 2.40244 14.2139 2.33726C14.0713 2.33204 13.9287 2.33204 13.7862 2.33726C12.0095 2.40244 10.4539 3.53268 7.34261 5.79316Z" fill="#8D1B60"/>
<path d="M17.7917 26.2187V21.9563C17.7917 19.8622 16.0941 18.1646 14 18.1646C11.9059 18.1646 10.2083 19.8622 10.2083 21.9563V26.2187C11.2268 26.2825 12.459 26.2825 14 26.2825C15.541 26.2825 16.7732 26.2825 17.7917 26.2187Z" fill="#8D1B60"/>
</svg>
