<svg width="375" height="812" viewBox="0 0 375 812" fill="none" xmlns="http://www.w3.org/2000/svg">
<path d="M36.7974 -1.04808C35.7558 -2.0891 34.0632 -3 33.282 -3H33.1518C32.3706 -3 24.0379 1.29423 14.924 6.49936C-1.09035 15.4782 -1.74134 15.9987 -1.35074 19.7724C-1.09035 22.8955 -0.309154 23.8064 2.29481 24.0667C4.37798 24.3269 10.7577 21.5942 19.481 16.9096C27.2929 12.7455 34.7142 8.32115 36.1464 7.15C37.5786 5.84872 38.7503 3.89679 38.7503 2.85577C38.7503 1.81474 37.839 -0.00705147 36.7974 -1.04808Z" fill="#85195A" fill-opacity="0.2"/>
<path d="M61.9256 -0.787821C61.4048 -1.95897 60.233 -3 59.1915 -3C58.1499 -3 56.7177 -2.0891 55.9365 -1.04808C54.8949 0.383333 55.0251 2.075 56.4573 5.45833C57.6291 8.19102 60.1029 10.7936 62.5766 12.0949C65.3108 13.5263 68.4355 13.9167 71.4301 13.5263C73.9039 13.0058 77.5494 11.0538 79.6326 9.10192C81.5856 7.15 83.4083 4.41731 83.7989 3.11602C84.1895 1.94487 83.5385 -0.00705147 82.3667 -1.17821C80.544 -3 80.0232 -2.73974 76.2474 1.42436C73.9039 3.89679 70.9093 5.97885 69.4771 6.10897C68.0449 6.10897 65.9618 5.19808 64.79 3.89679C63.6182 2.59551 62.3162 0.513461 61.9256 -0.787821Z" fill="#85195A" fill-opacity="0.2"/>
<path d="M157.231 -0.13718C156.58 -1.69872 155.278 -3 154.366 -2.86987C153.585 -2.86987 151.893 -2.47949 150.981 -2.0891C149.94 -1.82885 149.158 -0.527564 149.289 0.64359C149.419 1.81474 150.591 4.67756 151.893 6.75961C153.195 8.84167 155.929 11.4442 158.142 12.3551C160.355 13.3962 163.871 13.7865 166.735 13.3962C169.99 12.8756 172.724 11.3141 174.938 8.71154C176.761 6.62949 178.193 3.37628 178.193 1.55449C178.193 -0.267308 177.412 -1.95897 176.5 -2.21923C175.719 -2.47949 174.287 -2.34936 173.506 -1.95897C172.724 -1.43846 171.422 0.253205 170.511 1.81474C169.73 3.50641 167.647 5.06795 165.824 5.45833C164.001 5.84872 161.658 5.3282 160.486 4.41731C159.314 3.63654 157.752 1.55449 157.231 -0.13718Z" fill="#85195A" fill-opacity="0.2"/>
<path d="M227.408 -1.43846C226.496 -2.34936 224.804 -3 223.762 -3C222.721 -3 215.039 0.903846 206.836 5.58846C198.634 10.2731 191.082 14.8276 190.171 15.6083C189.129 16.5192 188.609 18.6013 188.869 20.4231C189.129 22.7654 190.171 23.8064 192.515 24.0667C194.467 24.3269 199.936 22.2449 206.185 18.9917C211.914 15.9987 219.335 11.8346 222.721 9.88269C227.147 7.15 228.97 5.3282 228.97 3.11602C228.97 1.55449 228.319 -0.527564 227.408 -1.43846Z" fill="#85195A" fill-opacity="0.2"/>
<path d="M252.015 1.29423C251.234 -0.657692 249.411 -2.47949 248.239 -2.73974C247.068 -3 245.635 -2.0891 245.115 -0.787821C244.724 0.513461 244.984 2.9859 245.766 4.80769C246.547 6.62949 248.37 9.23205 249.932 10.6635C251.885 12.4853 254.489 13.266 259.176 13.266C264.775 13.266 266.077 12.7455 269.462 8.97179C271.545 6.75961 273.237 3.37628 273.237 1.55449C273.237 -0.267308 272.326 -1.95897 271.284 -2.34936C270.243 -2.73974 268.42 -2.0891 267.379 -1.04808C266.337 -0.00705147 265.426 1.55449 265.426 2.20513C265.426 2.85577 264.124 4.15705 262.431 4.93782C260.869 5.71859 258.265 5.97885 256.572 5.58846C255.01 5.19808 252.926 3.24615 252.015 1.29423Z" fill="#85195A" fill-opacity="0.2"/>
<path d="M317.635 2.59551C318.937 0.513462 319.067 -0.787821 318.156 -1.56859C317.201 -2.43611 313.512 -1.13483 307.089 2.33526C301.751 5.32821 293.548 9.75256 288.861 12.225C284.174 14.6974 279.878 17.3 279.096 17.9506C278.228 18.7314 278.359 19.6423 279.487 20.6833C280.789 22.1147 281.961 21.9846 284.955 20.0327C287.169 18.8615 289.903 17.8205 291.075 17.8205C293.028 17.6904 293.158 18.0808 291.726 19.7724C290.944 20.8135 290.424 22.375 290.814 23.0256C291.205 23.6763 291.986 24.3269 292.767 24.3269C293.548 24.3269 302.011 20.0327 311.646 14.8276C321.411 9.75256 329.092 4.80769 328.832 4.15705C328.572 3.50641 327.139 2.9859 325.837 3.11602C324.536 3.24615 321.671 3.89679 319.588 4.41731C315.812 5.45833 315.812 5.32821 317.635 2.59551Z" fill="#85195A" fill-opacity="0.2"/>
<path d="M347.06 1.29423C346.279 -0.657692 344.456 -2.47949 343.284 -2.73974C342.112 -3 340.68 -2.0891 340.159 -0.787821C339.769 0.513461 339.639 2.85577 340.159 4.54744C340.55 6.10897 342.112 8.58141 343.544 10.0128C344.977 11.4442 348.362 13.0058 350.966 13.3962C354.351 13.9167 357.346 13.5263 360.08 12.0949C362.423 10.9237 365.418 7.93077 366.59 5.45833C368.673 1.29423 368.673 0.64359 366.98 -1.17821C365.157 -3.13013 364.637 -3 360.47 1.55449C356.694 5.58846 355.262 6.2391 352.268 5.58846C350.185 5.06795 348.101 3.37628 347.06 1.29423Z" fill="#85195A" fill-opacity="0.2"/>
<path d="M133.014 4.41731C132.363 3.89679 131.061 3.50641 130.019 3.50641C128.978 3.63654 120.775 7.67051 111.792 12.6154C102.808 17.5603 94.996 21.8545 94.2148 22.1147C93.4336 22.375 93.5638 23.416 94.6054 24.7173C96.0376 26.6692 96.5584 26.7994 100.074 24.9776C102.157 23.9365 104.37 23.2859 105.021 23.6763C105.542 23.9365 105.021 25.2378 103.98 26.2788C102.678 27.6669 102.461 28.7947 103.329 29.6622C104.24 30.5731 110.49 28.1006 123.249 21.4641C133.404 16.259 141.737 11.184 141.737 10.4032C141.737 9.49231 141.216 8.45128 140.435 8.0609C139.654 7.67051 137.31 8.32115 135.227 9.36218C133.144 10.4032 130.931 11.0538 130.41 10.6635C129.759 10.2731 130.41 8.97179 131.712 7.80064C132.884 6.49936 133.535 4.93782 133.014 4.41731Z" fill="#85195A" fill-opacity="0.2"/>
<path d="M51.9003 32.1346C50.4682 30.7032 47.6038 29.5321 45.5206 29.5321C43.4375 29.5321 40.5731 30.5731 39.0107 31.8744C37.5785 33.0455 35.886 35.7782 35.4954 37.9904C34.7142 41.1135 35.235 42.5449 37.9691 45.5378C40.3127 47.75 42.7865 49.0513 45.3904 49.0513C47.6038 49.0513 50.4682 47.8801 51.9003 46.4487C53.4627 44.8872 54.5043 42.1545 54.5043 39.2917C54.5043 36.4288 53.4627 33.6962 51.9003 32.1346Z" fill="#85195A" fill-opacity="0.2"/>
<path d="M146.945 32.1346C145.513 30.7032 142.649 29.5321 140.435 29.5321C138.222 29.5321 135.357 30.7032 133.925 32.1346C132.363 33.6962 131.321 36.4288 131.321 39.2917C131.321 42.1545 132.363 44.8872 133.925 46.4487C135.357 47.8801 138.222 49.0513 140.435 49.0513C142.649 49.0513 145.513 47.8801 146.945 46.4487C148.507 44.8872 149.549 42.1545 149.549 39.2917C149.549 36.4288 148.507 33.6962 146.945 32.1346Z" fill="#85195A" fill-opacity="0.2"/>
<path d="M241.99 32.0045C240.167 30.5731 237.173 29.4019 235.22 29.5321C233.136 29.5321 230.402 30.7032 228.97 32.1346C227.408 33.6962 226.366 36.4288 226.366 39.2917C226.366 42.1545 227.408 44.8872 228.97 46.4487C230.402 47.8801 233.136 49.0513 235.22 49.0513C237.173 49.1814 240.167 48.0103 241.99 46.5788C244.464 44.757 245.245 42.8051 245.245 39.2917C245.245 35.7782 244.464 33.8263 241.99 32.0045Z" fill="#85195A" fill-opacity="0.2"/>
<path d="M337.035 32.0045C335.212 30.5731 332.217 29.4019 330.394 29.5321C328.572 29.5321 325.707 30.8333 324.015 32.525C321.932 34.4769 321.02 36.8192 321.15 39.4218C321.281 41.5038 322.713 44.4968 324.275 46.0583C325.968 47.75 328.702 49.0513 330.525 49.0513C332.347 49.1814 335.212 48.0103 337.035 46.5788C339.508 44.757 340.29 42.8051 340.29 39.2917C340.29 35.7782 339.508 33.8263 337.035 32.0045Z" fill="#85195A" fill-opacity="0.2"/>
<path d="M92.9128 54.9071C91.8712 53.866 90.1787 52.9551 89.3975 53.0853C88.4861 53.0853 82.3667 56.0782 75.987 59.5917C69.6073 63.1051 62.0558 67.5295 59.4519 69.2212C55.9365 71.5635 54.5043 73.3853 54.5043 75.7276C54.5043 77.6795 55.5459 79.5013 57.1083 80.2821C59.1914 81.3231 62.186 80.2821 72.4717 74.9468C79.3722 71.1731 86.9237 67.009 89.0068 65.5776C91.09 64.016 93.3034 62.1942 93.8242 61.4135C94.345 60.7628 94.8658 59.3314 94.8658 58.5506C94.8658 57.6397 93.9544 55.9481 92.9128 54.9071Z" fill="#85195A" fill-opacity="0.2"/>
<path d="M187.307 54.2564C185.874 53.6058 184.572 52.9551 184.442 52.9551C184.182 52.9551 180.276 55.0372 175.589 57.3795C170.902 59.8519 163.35 64.1461 158.663 66.8788C152.023 71.0429 150.07 72.8647 149.94 75.5974C149.679 78.0699 150.33 79.241 152.544 80.1519C154.887 81.0628 158.142 79.8917 169.079 74.0359C176.63 70.132 184.312 65.7077 186.395 64.4064C188.609 62.8449 189.911 60.8929 189.911 58.8109C189.911 56.859 188.869 55.0372 187.307 54.2564Z" fill="#85195A" fill-opacity="0.2"/>
<path d="M282.351 54.2564C280.919 53.6058 279.617 52.9551 279.487 52.9551C279.227 52.9551 274.409 55.5577 268.681 58.5506C262.952 61.6737 255.4 65.9679 251.755 68.05C246.807 71.0429 245.115 72.8647 244.984 75.4673C244.724 77.9397 245.375 79.3711 247.198 80.2821C249.281 81.3231 252.536 80.1519 263.863 74.2962C271.545 70.132 279.357 65.8378 281.44 64.5365C283.653 62.975 284.955 60.8929 284.955 58.8109C284.955 56.859 283.914 55.0372 282.351 54.2564Z" fill="#85195A" fill-opacity="0.2"/>
<path d="M378.438 54.5167C377.526 53.6058 376.094 52.9551 375.443 52.9551C374.792 52.9551 371.798 54.1263 368.933 55.6878C366.069 57.1192 359.689 60.7628 354.611 63.6256C349.534 66.6186 344.196 69.7417 342.633 70.7827C340.81 71.8237 339.639 73.7756 339.639 75.7276C339.639 77.6795 340.68 79.5013 342.242 80.2821C344.326 81.3231 347.581 80.1519 358.908 74.166C366.59 70.132 374.401 65.8378 376.485 64.4064C378.568 63.1051 380 60.8929 380 59.2013C380 57.5096 379.349 55.4276 378.438 54.5167Z" fill="#85195A" fill-opacity="0.2"/>
<path d="M15.8354 75.0769C14.5334 72.9949 12.8409 71.0429 12.0597 70.7827C11.2785 70.5224 9.84633 70.5224 8.80474 70.7827C7.89336 71.1731 7.24235 72.6045 7.37254 74.166C7.50274 75.7276 8.67452 78.5904 10.2369 80.6724C11.6691 82.6244 15.0543 84.8365 17.7884 85.6173C21.6944 86.7885 23.5171 86.6583 27.5533 84.9667C30.1572 83.7955 33.282 81.5833 34.3236 80.0218C35.4954 78.3301 36.2766 75.8577 36.0162 74.4263C35.7558 72.8647 34.4538 71.6936 32.631 71.5635C31.0686 71.3032 29.7666 71.8237 29.7666 72.4744C29.7666 73.125 28.5949 74.9468 27.1627 76.3782C25.7305 77.8096 23.1265 78.9808 21.3037 78.9808C19.0904 78.9808 17.3978 77.8096 15.8354 75.0769Z" fill="#85195A" fill-opacity="0.2"/>
<path d="M110.88 75.0769C109.578 72.9949 107.886 71.0429 107.104 70.7827C106.323 70.5224 104.891 70.5224 103.849 70.7827C102.938 71.1731 102.287 72.8647 102.417 74.5564C102.548 76.2481 104.11 79.3711 105.933 81.5833C107.886 83.7955 111.01 85.7474 113.484 86.2679C115.958 86.6583 119.603 86.2679 122.598 84.9667C125.202 83.7955 128.327 81.5833 129.368 80.0218C130.54 78.3301 131.321 75.8577 131.061 74.4263C130.801 72.8647 129.499 71.6936 127.676 71.5635C125.853 71.3032 124.291 72.2141 123.379 74.166C122.468 75.7276 121.166 77.4192 120.385 77.9397C119.603 78.4603 117.651 78.9808 116.088 78.9808C114.135 78.9808 112.312 77.5494 110.88 75.0769Z" fill="#85195A" fill-opacity="0.2"/>
<path d="M204.623 74.4263C203.972 72.6045 202.93 70.9128 202.149 70.6526C201.368 70.3923 199.936 70.5224 198.894 70.7827C197.983 71.1731 197.332 72.9949 197.462 75.207C197.592 77.2891 199.155 80.4122 200.977 82.234C202.8 84.0558 206.185 85.8776 208.529 86.2679C211.306 86.7885 214.388 86.268 217.773 84.7064C220.637 83.275 223.632 80.5423 224.673 78.3301C225.715 76.1179 226.236 73.6455 225.845 72.8647C225.455 71.9538 223.892 71.1731 222.46 71.1731C220.898 71.1731 219.205 72.6045 218.294 74.5564C217.382 76.3782 215.429 78.2 213.997 78.5904C212.565 78.9808 210.091 78.8506 208.529 78.4603C206.836 78.0699 205.144 76.2481 204.623 74.4263Z" fill="#85195A" fill-opacity="0.2"/>
<path d="M299.277 73.2551C299.147 72.2141 298.366 71.1731 297.454 70.9128C296.543 70.5224 294.981 70.5224 293.939 70.7827C293.028 71.1731 292.377 72.8647 292.507 74.8167C292.637 76.7686 293.679 79.6314 294.72 81.3231C295.762 82.8846 298.887 84.8365 301.621 85.6173C304.225 86.3981 307.87 86.6583 309.693 86.2679C311.516 85.8776 314.901 83.5352 317.244 80.9327C319.458 78.4603 321.281 75.3372 321.02 74.166C320.89 72.8647 319.588 71.6936 318.156 71.4333C316.463 71.1731 314.51 72.4744 312.688 75.0769C310.735 77.5494 308.521 78.9808 306.438 78.9808C304.615 78.9808 302.272 78.0699 301.23 77.0288C300.188 75.9878 299.277 74.2961 299.277 73.2551Z" fill="#85195A" fill-opacity="0.2"/>
<path d="M62.3162 105.787C62.186 104.746 61.4048 103.705 60.233 103.185C59.1915 102.794 57.4989 103.315 56.4573 104.356C54.7647 106.047 54.7647 106.958 56.1969 110.472C56.9781 112.684 59.1914 115.417 61.0142 116.588C62.837 117.629 66.4826 118.54 69.0865 118.54C71.9509 118.67 75.3361 117.629 77.5494 115.937C79.5024 114.506 81.846 111.773 82.7573 110.081C83.5385 108.39 83.9291 106.178 83.6687 105.397C83.4083 104.486 82.1064 103.705 80.9346 103.705C79.6326 103.705 77.289 105.397 75.7267 107.609C73.7737 110.081 71.5603 111.513 69.4771 111.513C67.6543 111.513 65.3108 110.602 64.2692 109.561C63.2276 108.52 62.3162 106.828 62.3162 105.787Z" fill="#85195A" fill-opacity="0.2"/>
<path d="M131.842 104.096C130.54 103.185 129.108 102.404 128.717 102.404C128.327 102.404 125.072 103.965 121.556 105.787C117.911 107.609 110.359 111.643 104.631 114.766C98.9019 117.889 93.8242 121.403 93.4336 122.834C93.043 124.135 92.9128 125.957 93.1732 126.868C93.3034 127.649 94.7356 128.95 96.1678 129.731C98.1207 130.772 100.204 130.251 105.021 127.779C108.406 125.957 116.088 121.663 122.207 118.279C130.67 113.595 133.404 111.383 133.795 108.91C134.186 106.828 133.535 105.267 131.842 104.096Z" fill="#85195A" fill-opacity="0.2"/>
<path d="M155.538 103.445C154.757 102.924 153.846 102.404 153.455 102.404C153.064 102.404 152.023 102.924 151.111 103.445C149.94 103.965 149.549 105.657 150.07 108.26C150.46 110.472 151.893 113.204 153.064 114.376C154.366 115.677 157.231 117.238 159.314 117.889C161.788 118.67 165.043 118.67 168.167 117.889C170.902 117.238 174.026 115.287 175.589 113.204C177.151 111.122 178.323 108.26 178.193 106.698C178.193 104.356 177.411 103.705 174.938 103.705C172.768 103.705 171.466 104.573 171.032 106.308C170.641 107.739 169.079 109.561 167.516 110.342C165.824 111.122 163.22 111.383 161.658 110.992C159.965 110.602 158.272 108.91 157.882 107.349C157.361 105.657 156.319 103.965 155.538 103.445Z" fill="#85195A" fill-opacity="0.2"/>
<path d="M220.507 103.705C220.117 102.924 219.075 102.534 218.294 102.534C217.382 102.664 209.18 106.698 200.066 111.383C190.952 116.067 182.75 120.752 181.838 121.663C180.406 122.964 180.406 123.485 181.838 124.916C183.14 126.217 184.312 125.957 187.958 123.875C190.431 122.444 192.905 121.663 193.426 122.183C194.077 122.704 193.556 124.135 192.515 125.176C191.213 126.564 190.995 127.692 191.863 128.56C192.775 129.471 199.024 126.868 211.263 120.362C221.288 115.156 229.751 110.081 230.142 109.171C230.532 108.26 230.532 107.088 229.881 106.568C229.361 106.047 226.757 106.698 224.022 107.999C221.419 109.301 218.945 109.951 218.554 109.691C218.164 109.301 218.684 108.129 219.596 106.958C220.377 105.917 220.898 104.486 220.507 103.705Z" fill="#85195A" fill-opacity="0.2"/>
<path d="M252.145 106.698C251.234 104.876 249.932 103.054 249.151 102.794C248.5 102.664 247.068 102.924 246.156 103.445C244.984 103.965 244.594 105.657 245.115 108.26C245.505 110.472 246.937 113.204 248.109 114.376C249.411 115.547 252.015 117.108 254.098 117.889C256.442 118.93 259.306 118.93 262.822 118.019C265.946 117.238 269.071 115.287 270.633 113.204C272.196 111.122 273.368 108.26 273.237 106.698C273.237 104.356 272.456 103.705 269.982 103.705C267.812 103.705 266.51 104.573 266.077 106.308C265.686 107.739 264.124 109.561 262.561 110.342C260.869 111.122 258.265 111.383 256.702 110.992C255.01 110.602 252.926 108.65 252.145 106.698Z" fill="#85195A" fill-opacity="0.2"/>
<path d="M322.452 103.965C321.541 103.054 319.848 102.404 318.807 102.404C317.765 102.534 309.302 106.828 300.188 111.903C285.085 120.362 283.523 121.663 283.653 124.916C283.653 127.128 284.565 128.95 286.257 129.731C288.34 130.772 290.554 130.121 296.413 127.128C300.449 124.916 308.261 120.622 313.599 117.629C321.15 113.335 323.494 111.383 323.754 108.91C323.885 107.088 323.364 104.876 322.452 103.965Z" fill="#85195A" fill-opacity="0.2"/>
<path d="M347.19 106.698C346.279 104.746 344.456 102.924 343.284 102.664C342.112 102.404 340.68 103.315 340.159 104.616C339.639 105.917 339.769 108.39 340.42 110.081C341.071 111.773 343.284 114.376 345.237 115.937C347.581 117.629 350.705 118.67 353.7 118.54C356.304 118.54 359.949 117.499 361.772 116.458C363.595 115.287 365.808 112.684 366.85 110.602C367.761 108.65 368.152 106.178 367.761 105.397C367.371 104.486 365.939 103.705 364.767 103.705C363.465 103.705 360.991 105.657 359.168 107.869C356.434 111.253 355.262 111.773 352.398 110.992C350.185 110.602 348.101 108.78 347.19 106.698Z" fill="#85195A" fill-opacity="0.2"/>
<path d="M37.5785 109.561C37.5785 108.52 36.537 107.609 35.3652 107.739C34.0632 107.739 25.3399 112.033 15.8354 117.108L15.8341 117.109C6.46038 122.314 -1.74137 126.868 -2.39233 127.388C-2.91312 127.909 -3.04332 129.34 -2.39233 130.381C-1.61114 132.073 -0.829951 131.943 3.72699 129.731L8.93493 127.128C7.24235 133.895 7.50273 134.936 8.67452 134.936C9.45571 134.936 15.3146 132.333 21.6944 129.08C27.9439 125.827 35.6256 121.793 38.8805 119.971C42.1355 118.149 45.3904 116.067 46.0414 115.417C46.9094 114.549 46.9094 113.682 46.0414 112.814C45.13 111.773 43.3073 112.163 39.9221 113.725C37.188 115.026 34.584 115.547 34.0632 115.026C33.4122 114.376 34.0632 113.335 35.3652 112.684C36.537 112.033 37.5785 110.602 37.5785 109.561Z" fill="#85195A" fill-opacity="0.2"/>
<path d="M51.9003 137.538C50.4682 136.107 47.6038 134.936 45.5206 134.936C43.4375 134.936 40.4429 136.107 38.7503 137.408C36.537 139.23 35.6256 141.182 35.6256 144.435C35.6256 147.168 36.6671 150.031 38.2295 151.722C39.9221 153.544 42.3959 154.585 45.13 154.455C47.4736 154.455 50.338 153.414 51.9003 151.853C53.4627 150.291 54.5043 147.558 54.5043 144.696C54.5043 141.833 53.4627 139.1 51.9003 137.538Z" fill="#85195A" fill-opacity="0.2"/>
<path d="M146.945 137.538C145.513 136.107 142.649 134.936 140.435 134.936C138.222 134.936 135.357 136.107 133.925 137.538C132.363 139.1 131.321 141.833 131.321 144.696C131.321 147.558 132.363 150.291 133.925 151.853C135.357 153.284 138.222 154.455 140.435 154.455C142.649 154.455 145.513 153.284 146.945 151.853C148.507 150.291 149.549 147.558 149.549 144.696C149.549 141.833 148.507 139.1 146.945 137.538Z" fill="#85195A" fill-opacity="0.2"/>
<path d="M241.99 137.408C240.167 135.977 237.173 134.806 235.22 134.936C233.136 134.936 230.402 136.107 228.97 137.538C227.408 139.1 226.366 141.833 226.366 144.696C226.366 147.558 227.408 150.291 228.97 151.853C230.532 153.414 233.397 154.455 235.871 154.455C238.474 154.585 240.948 153.544 242.641 151.722C244.203 150.031 245.245 147.168 245.245 144.435C245.245 141.182 244.333 139.23 241.99 137.408Z" fill="#85195A" fill-opacity="0.2"/>
<path d="M336.384 136.628C334.951 135.717 332.608 134.936 331.045 134.936C329.483 134.936 326.749 136.107 324.796 137.669C322.062 139.621 321.15 141.442 321.281 144.435C321.281 146.778 322.583 149.901 324.015 151.592C325.447 153.154 328.051 154.455 329.874 154.455C331.696 154.455 334.04 154.065 335.212 153.544C336.384 152.894 338.206 150.942 339.118 148.99C340.29 146.647 340.55 144.045 340.029 141.833C339.378 140.011 337.816 137.669 336.384 136.628Z" fill="#85195A" fill-opacity="0.2"/>
<path d="M93.043 160.701C91.8712 159.4 90.5693 158.359 90.0485 158.359C89.3975 158.359 81.3252 162.393 72.0811 167.338C56.3271 175.666 55.1553 176.577 54.8949 180.351C54.6345 183.344 55.1553 184.775 57.1083 185.686C59.1914 186.727 62.837 185.296 77.0286 177.488C88.8767 170.981 94.345 167.338 94.6054 165.516C94.8658 164.085 94.2148 161.872 93.043 160.701Z" fill="#85195A" fill-opacity="0.2"/>
<path d="M187.827 160.051C186.525 159.14 185.093 158.359 184.703 158.359C184.312 158.359 176.24 162.523 166.605 167.598C150.07 176.317 149.158 176.967 149.289 180.611C149.419 182.953 150.591 184.905 152.153 185.686C154.106 186.727 156.189 186.206 161.007 183.734C164.392 181.912 172.073 177.748 178.193 174.235C186.525 169.55 189.39 167.338 189.78 164.865C190.171 162.783 189.52 161.222 187.827 160.051Z" fill="#85195A" fill-opacity="0.2"/>
<path d="M282.872 160.051C281.57 159.14 280.138 158.359 279.747 158.359C279.357 158.359 272.326 162.003 264.124 166.427C255.921 170.721 248.109 175.276 246.807 176.447C245.505 177.618 244.464 179.83 244.594 181.522C244.594 183.083 245.766 184.905 247.198 185.686C249.281 186.727 252.927 185.296 267.118 177.618C280.919 169.94 284.434 167.468 284.825 164.996C285.216 162.783 284.565 161.222 282.872 160.051Z" fill="#85195A" fill-opacity="0.2"/>
<path d="M377.917 160.051C376.615 159.14 375.183 158.359 374.792 158.359C374.401 158.359 367.631 161.872 359.819 166.167C352.007 170.461 344.977 173.974 344.326 173.974C343.675 173.974 342.373 175.015 341.461 176.317C340.55 177.488 339.639 179.83 339.639 181.522C339.639 183.083 340.81 184.905 342.242 185.686C343.935 186.597 345.888 186.597 347.841 185.686C349.403 185.035 357.215 180.741 365.027 176.317C376.094 169.94 379.479 167.338 379.87 164.865C380.26 162.783 379.609 161.222 377.917 160.051Z" fill="#85195A" fill-opacity="0.2"/>
<path d="M15.4448 179.83C14.2731 177.748 12.4503 175.796 11.4087 175.536C10.3671 175.406 8.93492 175.536 8.28393 176.056C7.76313 176.577 7.24235 178.399 7.37254 180.09C7.50274 181.652 9.06512 184.905 10.8879 186.987C13.1013 189.59 15.8354 191.151 19.0904 191.672C21.9548 192.062 25.4701 191.802 27.6835 190.631C29.7666 189.72 32.631 187.508 33.933 185.686C35.235 183.864 36.4068 181.131 36.2766 179.57C36.2766 177.878 35.4954 176.317 34.7142 176.056C33.8028 175.796 32.3706 175.926 31.7196 176.317C30.9384 176.837 29.376 178.789 28.0741 180.871C26.3815 183.604 24.9493 184.254 21.6944 184.124C18.6998 183.864 17.0072 182.693 15.4448 179.83Z" fill="#85195A" fill-opacity="0.2"/>
<path d="M110.49 179.83C109.057 177.358 107.104 175.276 106.193 175.276C105.151 175.276 103.98 175.666 103.329 176.187C102.678 176.577 102.287 178.399 102.417 180.09C102.548 181.652 104.11 184.905 105.933 186.987C107.755 189.199 110.75 191.281 112.833 191.672C114.786 192.062 118.562 191.802 121.296 191.021C123.9 190.24 127.285 188.028 128.717 186.076C130.28 183.994 131.452 181.131 131.321 179.57C131.321 177.878 130.41 176.317 129.368 175.926C128.327 175.536 126.374 176.447 125.202 177.748C123.9 179.179 122.077 181.262 121.296 182.303C120.385 183.474 118.171 184.385 116.349 184.385C114.005 184.385 112.312 183.083 110.49 179.83Z" fill="#85195A" fill-opacity="0.2"/>
<path d="M204.232 179.179C203.581 177.097 202.149 175.276 201.238 175.276C200.196 175.276 199.024 175.666 198.373 176.187C197.722 176.577 197.332 178.659 197.462 180.741C197.592 182.693 199.155 185.816 200.977 187.638C202.8 189.46 206.185 191.281 208.529 191.672C211.003 192.062 214.648 191.672 217.643 190.371C220.637 189.069 223.241 186.727 224.543 184.124C225.585 181.782 226.236 179.049 225.845 178.269C225.455 177.358 223.892 176.577 222.46 176.577C220.898 176.577 219.205 178.008 218.294 179.96C217.382 181.782 215.429 183.604 213.997 183.994C212.565 184.385 210.091 184.254 208.529 183.864C206.706 183.344 205.014 181.522 204.232 179.179Z" fill="#85195A" fill-opacity="0.2"/>
<path d="M299.277 179.179C298.626 177.097 297.194 175.276 296.283 175.276C295.241 175.276 294.069 175.666 293.418 176.187C292.767 176.577 292.377 178.529 292.507 180.351C292.637 182.172 293.548 184.905 294.46 186.337C295.501 187.768 297.975 189.72 300.058 190.631C302.272 191.802 305.787 192.062 308.782 191.672C312.167 191.151 314.771 189.46 317.505 186.337C319.718 183.864 321.411 180.871 321.411 179.83C321.411 178.789 320.239 177.358 318.807 176.707C317.244 176.056 315.682 175.796 315.161 176.317C314.64 176.837 313.599 178.399 312.818 179.83C312.036 181.262 310.474 182.953 309.563 183.604C308.521 184.254 306.178 184.385 304.225 183.864C301.751 183.344 300.188 181.912 299.277 179.179Z" fill="#85195A" fill-opacity="0.2"/>
<path d="M38.6201 214.184C38.3597 212.622 37.0577 210.54 35.6256 209.629C33.282 208.198 31.1988 208.849 17.3978 216.396C8.80472 221.081 0.732424 226.026 -0.439361 227.457C-1.87154 229.019 -2.39232 230.71 -1.74133 232.012C-1.22054 233.183 0.21165 234.744 1.51363 235.265C3.07601 236.176 7.50275 234.484 17.7884 229.019C25.4701 224.985 33.282 220.69 35.3652 219.259C37.5785 217.697 38.7503 216.006 38.6201 214.184Z" fill="#85195A" fill-opacity="0.2"/>
<path d="M62.7068 213.013C61.7954 211.191 60.4934 209.239 59.9727 208.719C59.4519 208.068 57.8895 208.588 56.5875 209.76C55.4157 210.931 54.3741 212.232 54.3741 212.753C54.5043 213.273 55.6761 215.615 57.1083 217.958C58.5405 220.17 61.1444 222.642 62.9672 223.423C64.79 224.204 67.6543 224.724 69.4771 224.724C71.2999 224.724 74.5549 223.813 76.638 222.772C78.7212 221.731 81.4554 219.129 82.4969 216.917C83.5385 214.835 84.1895 212.102 83.7989 211.061C83.4083 210.02 81.9762 209.109 80.544 209.109C78.9816 209.109 77.289 210.54 76.3776 212.492C75.4663 214.314 73.5133 216.136 72.0811 216.526C70.6489 216.787 68.3053 216.917 66.8732 216.656C65.441 216.526 63.6182 214.835 62.7068 213.013Z" fill="#85195A" fill-opacity="0.2"/>
<path d="M157.752 213.013C156.84 211.191 155.538 209.369 155.017 208.849C154.497 208.328 152.934 208.588 151.502 209.239C150.2 210.02 149.158 211.712 149.289 213.013C149.419 214.444 151.632 217.697 154.106 220.17C157.752 223.813 159.705 224.724 163.871 224.724C167.777 224.724 170.251 223.813 173.636 220.821C176.63 218.348 178.193 215.745 178.193 213.663C178.193 211.842 177.281 210.02 176.24 209.499C174.808 208.719 173.115 209.76 170.641 212.753C167.777 216.266 166.345 217.047 163.22 216.656C160.746 216.396 158.793 215.095 157.752 213.013Z" fill="#85195A" fill-opacity="0.2"/>
<path d="M226.757 210.15C225.455 208.849 224.153 207.938 223.762 207.938C223.371 207.938 216.731 211.581 208.789 215.876C200.977 220.04 193.166 224.464 191.603 225.505C189.78 226.546 188.609 228.628 188.609 230.58C188.609 232.532 189.65 234.354 191.213 235.135C193.296 236.176 196.681 234.874 209.18 228.498C217.513 224.074 225.455 219.519 226.757 218.348C228.059 217.177 229.1 215.355 229.1 214.314C229.1 213.273 228.059 211.321 226.757 210.15Z" fill="#85195A" fill-opacity="0.2"/>
<path d="M252.796 213.013C251.494 210.931 249.802 208.849 248.89 208.588C247.979 208.328 246.547 208.719 245.766 209.499C244.854 210.28 244.203 211.712 244.333 212.622C244.464 213.533 245.375 215.876 246.417 217.958C247.328 219.91 250.192 222.252 252.536 223.293C255.27 224.334 258.785 224.854 261.52 224.334C264.254 223.813 267.509 221.862 269.722 219.519C271.675 217.437 273.237 214.444 273.237 213.013C273.237 211.581 272.326 210.02 271.154 209.499C269.722 208.719 268.16 209.629 265.946 212.753C263.603 215.876 261.78 216.917 258.916 216.917C255.921 216.917 254.489 216.006 252.796 213.013Z" fill="#85195A" fill-opacity="0.2"/>
<path d="M347.841 213.013C346.539 210.931 344.846 208.979 344.065 208.719C343.284 208.458 341.852 208.458 340.81 208.719C339.899 209.109 339.248 210.931 339.378 213.143C339.508 215.225 341.071 218.348 342.894 220.17C344.716 221.992 347.711 223.813 349.794 224.204C351.747 224.724 355.262 224.724 357.606 224.204C360.08 223.683 363.074 221.731 365.157 219.259C366.98 216.917 368.282 213.794 368.022 212.362C367.761 210.931 366.459 209.629 365.027 209.369C363.291 209.109 361.685 210.323 360.21 213.013C358.387 216.006 356.955 216.917 353.96 216.917C350.966 216.917 349.534 216.006 347.841 213.013Z" fill="#85195A" fill-opacity="0.2"/>
<path d="M320.109 211.061C320.109 210.02 319.067 209.109 317.895 209.239C316.593 209.239 307.349 213.533 297.324 218.869C287.299 224.204 278.966 229.149 278.836 229.929C278.576 230.58 279.227 231.621 280.138 232.012C280.919 232.402 283.653 231.751 285.997 230.71C288.21 229.539 290.944 228.628 291.856 228.628C293.158 228.498 293.158 228.888 291.856 230.58C290.727 231.881 290.597 233.096 291.465 234.224C292.377 235.395 296.803 233.703 310.344 227.067C319.979 222.122 328.311 217.437 328.702 216.656C329.092 215.745 328.962 214.444 328.441 213.924C327.79 213.403 325.056 213.924 322.452 215.225C319.718 216.526 317.114 217.047 316.593 216.526C315.942 215.876 316.593 214.835 317.895 214.184C319.067 213.533 320.109 212.102 320.109 211.061Z" fill="#85195A" fill-opacity="0.2"/>
<path d="M132.363 216.396C131.712 215.225 130.931 214.314 130.41 214.444C129.759 214.574 121.166 218.869 111.141 224.074C101.115 229.409 92.7826 234.354 92.6524 235.004C92.392 235.785 93.043 236.826 93.9544 237.217C94.7356 237.607 97.4698 236.956 99.8133 235.915C102.027 234.744 104.37 234.094 105.021 234.484C105.542 234.874 105.151 235.915 104.24 236.826C103.329 237.607 102.678 239.169 102.678 240.079C102.678 240.86 103.459 241.641 104.37 241.641C105.151 241.641 113.875 237.607 123.509 232.532C133.144 227.457 141.347 223.033 141.737 222.642C142.128 222.382 141.737 221.341 140.826 220.43C139.524 219.259 138.352 219.259 135.227 220.821C133.144 221.862 130.931 222.252 130.28 221.731C129.759 221.211 130.28 220.17 131.321 219.519C132.493 218.869 132.884 217.697 132.363 216.396Z" fill="#85195A" fill-opacity="0.2"/>
<path d="M52.291 244.113C50.989 242.942 48.7756 241.641 47.3434 241.251C45.9112 240.86 43.4375 240.99 42.0053 241.641C40.4429 242.292 38.2295 244.113 37.0578 245.805C35.886 247.497 34.9746 249.709 34.9746 250.75C34.8444 251.791 36.0162 254.263 37.5785 256.346C39.5315 259.078 41.2241 259.859 45.13 259.859C48.1246 259.989 50.8588 259.078 52.1607 257.647C53.4627 256.345 54.5043 253.222 54.5043 250.75C54.5043 248.017 53.7231 245.415 52.291 244.113Z" fill="#85195A" fill-opacity="0.2"/>
<path d="M147.336 244.113C146.034 242.942 143.82 241.641 142.388 241.251C140.956 240.86 138.873 240.86 137.831 241.251C136.79 241.641 134.837 242.942 133.535 244.113C132.233 245.285 131.191 248.017 131.191 250.75C131.191 253.353 132.233 256.215 133.535 257.517C134.837 258.818 137.701 259.859 139.784 259.859C141.998 259.859 144.992 258.948 146.685 257.907C148.768 256.476 149.549 254.654 149.549 251.14C149.679 248.017 148.768 245.415 147.336 244.113Z" fill="#85195A" fill-opacity="0.2"/>
<path d="M243.031 245.024C241.339 243.333 238.865 241.511 237.433 241.251C236.001 240.86 233.918 240.86 232.876 241.251C231.834 241.641 229.881 242.942 228.579 244.113C227.277 245.285 226.236 248.017 226.236 250.75C226.236 253.353 227.277 256.215 228.579 257.517C229.881 258.818 233.006 259.859 235.871 259.859C239.646 259.859 241.209 259.078 243.292 256.346C244.854 254.263 246.026 251.661 245.896 250.49C245.896 249.188 244.594 246.716 243.031 245.024Z" fill="#85195A" fill-opacity="0.2"/>
<path d="M338.597 245.545C337.295 243.723 334.951 242.031 333.389 241.641C331.827 241.251 329.353 241.12 328.051 241.381C326.619 241.641 324.536 243.072 323.494 244.634C322.322 246.195 321.411 249.058 321.411 251.14C321.411 253.092 322.583 255.825 324.015 257.256C325.577 258.818 328.442 259.859 330.915 259.859C333.259 259.989 335.993 258.948 337.295 257.647C338.467 256.345 339.769 253.873 340.29 252.051C340.81 249.839 340.29 247.757 338.597 245.545Z" fill="#85195A" fill-opacity="0.2"/>
<path d="M93.3034 266.626C92.392 265.715 90.439 265.064 89.0068 265.064C87.5747 265.064 85.2311 265.845 83.7989 266.756C82.3668 267.797 75.8568 271.31 69.4771 274.824C63.0974 278.207 56.9781 281.72 56.0667 282.501C55.1553 283.282 54.3741 285.104 54.3741 286.535C54.3741 287.967 55.4157 290.049 56.5875 291.09C58.5405 292.912 60.2331 292.261 73.7737 285.234C81.9762 280.94 90.1786 276.385 91.8712 275.214C93.4336 273.913 94.8658 271.831 94.8658 270.66C94.8658 269.358 94.2148 267.537 93.3034 266.626Z" fill="#85195A" fill-opacity="0.2"/>
<path d="M189.26 267.016C188.869 265.845 187.176 265.064 185.093 265.194C183.01 265.194 174.417 269.228 165.824 274.043C153.064 281.07 150.07 283.282 149.809 285.885C149.679 287.706 150.2 289.919 151.111 290.829C152.023 291.74 153.325 292.521 154.106 292.521C154.887 292.521 163.22 288.227 172.724 283.022C184.833 276.385 190.041 272.872 189.911 271.31C189.911 270.009 189.65 268.057 189.26 267.016Z" fill="#85195A" fill-opacity="0.2"/>
<path d="M284.304 267.667C283.783 265.845 282.612 265.064 280.138 265.194C278.055 265.324 269.462 269.228 260.869 274.043C247.198 281.59 245.245 283.152 244.984 286.275C244.724 288.878 245.375 290.179 247.588 291.22C250.062 292.391 252.796 291.35 266.988 283.672C276.362 278.728 283.914 273.783 284.304 272.612C284.695 271.31 284.695 269.098 284.304 267.667Z" fill="#85195A" fill-opacity="0.2"/>
<path d="M379.74 270.009C379.349 266.235 378.828 265.715 375.443 265.454C372.839 265.324 366.59 268.057 355.913 274.043C343.154 281.07 340.159 283.282 339.899 285.885C339.769 287.706 340.29 289.919 341.201 290.829C342.112 291.74 343.675 292.521 344.586 292.391C345.367 292.391 353.83 288.357 363.074 283.282L363.192 283.219C379.741 274.303 379.999 274.163 379.74 270.009Z" fill="#85195A" fill-opacity="0.2"/>
<path d="M15.8354 285.885C14.5334 283.803 12.4503 281.981 11.1483 281.981C9.8463 281.981 8.54434 283.022 8.15375 284.323C7.63295 285.494 8.15374 288.227 9.06513 290.309C10.1067 292.391 12.4503 294.863 14.5335 295.774C16.4864 296.815 20.132 297.596 22.7359 297.596C26.3815 297.596 28.4647 296.555 31.8498 293.042C34.3236 290.569 36.2766 287.316 36.2766 285.885C36.2766 284.453 35.235 282.892 34.0632 282.501C32.3706 281.851 30.8082 282.762 28.4647 285.754C26.2513 288.487 24.0379 289.788 21.6944 289.788C19.0904 289.788 17.3978 288.747 15.8354 285.885Z" fill="#85195A" fill-opacity="0.2"/>
<path d="M110.88 285.885C109.578 283.803 107.495 281.981 106.193 281.981C104.891 281.981 103.589 283.022 103.198 284.323C102.678 285.494 103.198 288.227 104.11 290.179C105.151 292.261 107.235 294.733 108.927 295.774C110.49 296.815 114.135 297.596 117 297.596C121.166 297.596 123.119 296.685 126.764 293.042C129.759 290.049 131.191 287.446 131.061 285.624C130.801 283.629 129.716 282.545 127.806 282.371C125.723 282.111 124.421 282.892 123.77 284.974C123.119 286.535 121.687 288.227 120.515 288.878C119.213 289.398 117.13 289.788 115.698 289.788C114.135 289.788 112.182 288.227 110.88 285.885Z" fill="#85195A" fill-opacity="0.2"/>
<path d="M204.883 285.885C203.712 283.542 201.889 281.981 200.326 281.981C198.243 281.981 197.722 282.892 197.722 285.885C197.722 288.487 199.024 291.09 201.628 293.692C204.623 296.685 206.706 297.596 210.742 297.596C213.607 297.596 217.513 296.555 219.335 295.384C221.288 294.083 223.632 291.22 224.673 289.138C225.715 287.056 226.236 284.453 225.845 283.672C225.455 282.762 223.892 281.981 222.46 281.981C220.898 281.981 219.335 283.152 218.815 284.974C218.164 286.535 216.731 288.227 215.56 288.878C214.258 289.398 211.914 289.788 210.091 289.788C207.748 289.788 206.315 288.617 204.883 285.885Z" fill="#85195A" fill-opacity="0.2"/>
<path d="M299.928 285.885C298.756 283.542 296.934 281.981 295.371 281.981C293.288 281.981 292.767 282.892 292.767 285.885C292.767 288.487 294.069 291.09 296.673 293.692C299.798 296.815 301.621 297.596 306.178 297.596C309.433 297.466 312.688 296.555 314.38 295.254C315.812 294.083 318.026 291.48 319.197 289.528C320.369 287.446 321.15 284.974 320.76 283.933C320.369 282.892 319.067 281.981 317.895 281.981C316.593 281.981 314.25 283.672 312.688 285.885C310.474 288.747 308.651 289.788 305.787 289.788C302.792 289.788 301.49 288.878 299.928 285.885Z" fill="#85195A" fill-opacity="0.2"/>
<path d="M222.07 314.903C221.549 313.992 220.377 313.212 219.596 313.212C218.684 313.212 212.695 316.074 206.185 319.458C199.806 322.841 191.343 327.396 187.697 329.478C183.921 331.69 180.797 333.772 180.797 334.422C180.797 334.943 181.578 335.724 182.489 336.114C183.27 336.504 186.005 335.854 188.348 334.813C190.562 333.642 192.775 332.731 193.165 332.731C193.556 332.731 193.556 334.162 193.165 335.984C192.775 337.806 193.165 339.497 193.816 339.888C194.598 340.278 203.061 336.244 212.695 331.169C225.064 324.403 230.272 321.019 230.272 319.458C230.272 318.156 229.751 317.115 228.97 317.115C228.319 317.115 225.975 318.026 223.762 319.067C221.679 320.108 219.466 320.759 218.945 320.369C218.294 319.978 219.075 318.937 220.377 318.026C221.679 317.245 222.46 315.684 222.07 314.903Z" fill="#85195A" fill-opacity="0.2"/>
<path d="M62.9672 318.417C61.7954 316.074 59.9727 314.513 58.4103 314.513C57.1083 314.513 55.6761 315.033 55.1553 315.814C54.7647 316.595 55.2855 319.067 56.1969 321.41C57.1083 323.622 59.3217 326.615 61.1444 327.916C62.837 329.087 66.2222 330.128 68.5658 330.128C70.7791 330.128 74.5549 329.217 76.638 328.176C78.7212 327.135 81.4554 324.403 82.4969 322.32C83.5385 320.238 84.1895 317.506 83.7989 316.465C83.4083 315.424 82.1064 314.513 80.9346 314.513C79.6326 314.513 77.289 316.204 75.7267 318.417C73.5133 321.279 71.6905 322.32 68.8261 322.32C65.8316 322.32 64.5296 321.41 62.9672 318.417Z" fill="#85195A" fill-opacity="0.2"/>
<path d="M133.665 318.417C133.405 315.814 132.493 315.033 129.368 314.773C126.504 314.513 121.296 316.855 110.49 322.971C102.287 327.526 94.7356 332.34 93.9544 333.642C92.6524 335.594 92.6524 336.504 94.2148 338.977C95.2564 340.538 97.0792 341.84 98.1208 341.84C99.1623 341.84 106.714 338.196 114.786 333.772C122.728 329.347 130.41 324.793 131.712 323.752C133.144 322.451 133.925 320.369 133.665 318.417Z" fill="#85195A" fill-opacity="0.2"/>
<path d="M158.012 318.417C156.97 316.204 155.017 314.513 153.715 314.513C152.413 314.513 150.851 314.903 150.2 315.424C149.549 315.814 149.158 317.376 149.289 318.677C149.419 319.978 151.632 323.101 154.106 325.574C157.621 329.087 159.705 330.128 163.22 330.128C165.694 330.128 169.339 329.347 171.422 328.306C173.375 327.396 175.719 324.923 176.76 322.841C177.672 320.759 178.062 318.026 177.672 316.855C177.281 315.554 175.979 314.513 174.938 314.513C173.896 314.513 171.813 316.335 170.381 318.417C168.428 321.279 166.735 322.32 163.871 322.32C160.876 322.32 159.574 321.41 158.012 318.417Z" fill="#85195A" fill-opacity="0.2"/>
<path d="M252.406 317.766C251.625 315.814 250.062 314.513 248.5 314.513C247.068 314.513 245.505 315.554 245.115 316.855C244.594 318.026 245.115 320.759 246.026 322.841C247.068 324.923 249.411 327.396 251.494 328.306C253.447 329.347 256.832 330.128 258.916 330.128C261.129 330.128 264.384 329.347 266.467 328.306C268.42 327.396 270.764 324.923 271.805 322.841C272.717 320.759 273.107 318.026 272.717 316.855C272.326 315.554 270.894 314.513 269.722 314.513C268.42 314.513 266.597 315.944 265.816 317.766C264.905 319.588 262.822 321.41 261.259 321.8C259.567 322.32 257.223 322.32 256.051 321.8C254.749 321.41 253.187 319.588 252.406 317.766Z" fill="#85195A" fill-opacity="0.2"/>
<path d="M323.754 318.417C323.494 315.814 322.583 315.033 319.458 314.773C316.724 314.643 311.646 316.725 301.881 322.32C294.33 326.485 287.169 330.649 285.997 331.429C284.695 332.08 283.653 334.032 283.653 335.724C283.653 337.285 284.304 339.367 285.216 340.278C286.127 341.189 287.689 341.84 288.601 341.84C289.382 341.84 297.064 338.066 305.527 333.512C313.859 328.827 321.541 324.403 322.452 323.362C323.364 322.451 323.885 320.238 323.754 318.417Z" fill="#85195A" fill-opacity="0.2"/>
<path d="M347.45 317.766C346.539 315.554 345.107 314.513 342.894 314.513C340.55 314.513 339.639 315.163 339.639 317.115C339.639 318.547 340.42 321.279 341.461 323.362C342.373 325.313 344.716 327.656 346.669 328.567C348.492 329.347 352.007 330.128 354.351 330.128C356.564 330.128 359.819 329.217 361.512 328.176C363.074 327.135 365.288 324.272 366.459 322.06C367.501 319.718 368.152 316.985 367.761 316.204C367.371 315.294 365.808 314.513 364.376 314.513C362.814 314.513 361.251 315.814 360.47 317.766C359.819 319.588 357.866 321.41 356.304 321.8C354.611 322.32 352.268 322.32 351.096 321.8C349.794 321.41 348.101 319.588 347.45 317.766Z" fill="#85195A" fill-opacity="0.2"/>
<path d="M36.9276 319.718C36.537 318.937 35.886 318.417 35.3652 318.547C34.7142 318.547 26.2513 322.841 16.4864 327.916C6.72155 333.121 -2.00174 338.066 -3.04333 338.977C-4.17171 340.018 -4.30191 340.972 -3.43392 341.84C-2.52253 342.881 -0.699754 342.49 2.6854 340.929C5.41957 339.628 8.02352 338.977 8.54431 339.497C9.1953 340.018 8.80473 341.319 8.02354 342.49C6.59136 344.052 6.72154 344.572 8.67452 345.353C10.1067 345.874 16.877 343.011 27.8137 337.285C37.0578 332.47 45.3904 327.916 46.0414 327.395C46.9528 326.745 46.8226 325.704 45.781 324.272C44.2187 322.581 43.6979 322.581 39.9221 324.793C37.5785 326.224 35.235 327.135 34.7142 326.745C34.0632 326.485 34.584 325.053 35.6256 323.622C36.6671 322.19 37.3181 320.499 36.9276 319.718Z" fill="#85195A" fill-opacity="0.2"/>
<path d="M50.989 348.346C48.9058 346.785 46.432 345.744 45.3904 345.744C44.3488 345.744 42.1355 346.524 40.5731 347.435C39.1409 348.346 37.0578 350.949 36.0162 353.291C34.4538 357.065 34.584 357.845 37.0578 361.099C39.1409 363.701 41.0939 364.742 44.8697 365.003C48.385 365.263 50.7286 364.612 52.291 363.051C53.7231 361.619 54.6345 358.887 54.5043 355.894C54.5043 351.99 53.7231 350.298 50.989 348.346Z" fill="#85195A" fill-opacity="0.2"/>
<path d="M146.034 348.346C143.951 346.785 141.477 345.613 140.305 345.744C139.133 345.744 136.659 346.915 134.706 348.476C131.842 350.558 131.061 352.12 131.191 355.894C131.191 358.756 132.233 361.619 133.535 362.921C134.837 364.222 137.961 365.263 140.435 365.263C143.169 365.263 145.904 364.482 147.205 363.051C148.507 361.749 149.549 358.626 149.549 355.894C149.549 351.99 148.768 350.428 146.034 348.346Z" fill="#85195A" fill-opacity="0.2"/>
<path d="M240.037 347.435C238.214 346.524 236.001 345.744 235.089 345.744C234.048 345.744 231.704 346.915 229.751 348.476C226.887 350.558 226.106 352.12 226.236 355.894C226.236 358.756 227.277 361.619 228.579 362.921C229.881 364.222 233.006 365.263 235.871 365.263C239.646 365.263 241.209 364.482 243.292 361.749C244.854 359.667 246.026 357.325 245.896 356.544C245.896 355.633 245.245 353.551 244.594 351.99C243.813 350.298 241.86 348.216 240.037 347.435Z" fill="#85195A" fill-opacity="0.2"/>
<path d="M335.082 347.435C333.259 346.524 331.046 345.744 330.134 345.744C329.093 345.744 326.749 346.915 324.796 348.476C321.932 350.558 321.15 352.12 321.281 355.633C321.411 358.236 322.452 361.099 324.015 362.66C325.577 364.222 328.442 365.263 330.915 365.263C333.259 365.393 335.993 364.352 337.165 363.051C338.337 361.749 339.639 359.407 340.159 357.845C340.55 356.154 340.29 353.551 339.639 351.99C338.857 350.298 336.904 348.216 335.082 347.435Z" fill="#85195A" fill-opacity="0.2"/>
<path d="M93.1732 372.42C92.392 371.249 90.439 370.338 89.0068 370.468C87.5747 370.468 79.3722 374.502 70.7791 379.317C56.5875 387.385 55.1553 388.426 55.1553 391.809C55.1553 393.891 56.0667 396.233 57.3687 397.014C59.0612 398.185 61.4048 397.404 69.0865 393.371C74.2945 390.508 82.1064 386.083 86.4029 383.611C90.6994 381.008 94.345 377.885 94.4752 376.584C94.7356 375.413 94.0846 373.461 93.1732 372.42Z" fill="#85195A" fill-opacity="0.2"/>
<path d="M189.65 374.372C189.39 371.769 188.478 370.988 185.354 370.728C182.489 370.468 177.281 372.81 165.824 379.317C153.455 386.474 150.07 388.946 149.809 391.419C149.679 393.11 150.2 395.322 151.111 396.233C152.023 397.144 153.585 397.925 154.497 397.795C155.278 397.795 162.96 394.021 171.422 389.467C179.755 384.782 187.437 380.358 188.348 379.317C189.26 378.406 189.78 376.194 189.65 374.372Z" fill="#85195A" fill-opacity="0.2"/>
<path d="M284.304 375.022C284.304 371.639 283.783 371.119 280.398 370.858C277.664 370.598 271.935 373.07 260.869 379.447C246.677 387.385 245.245 388.556 245.245 391.939C245.245 394.021 246.286 396.233 247.458 397.014C249.411 398.185 252.145 397.274 261.78 392.069C268.42 388.556 276.232 384.131 279.096 382.31C283.263 379.577 284.304 378.015 284.304 375.022Z" fill="#85195A" fill-opacity="0.2"/>
<path d="M379.74 375.413C379.349 371.639 378.828 371.119 375.443 370.728C373.1 370.598 369.454 371.639 366.329 373.461C363.465 375.153 356.304 379.317 350.315 382.83C342.112 387.515 339.508 389.727 339.508 391.809C339.639 393.37 340.29 395.322 341.201 396.233C342.112 397.144 343.805 397.795 344.846 397.795C345.888 397.795 354.221 393.631 363.465 388.686C379.74 379.707 380 379.447 379.74 375.413Z" fill="#85195A" fill-opacity="0.2"/>
<path d="M15.8354 391.288C14.5334 389.206 12.4503 387.385 11.1483 387.385C9.8463 387.385 8.54434 388.426 8.15375 389.727C7.63295 390.898 8.15374 393.631 9.06513 395.713C10.1067 397.795 12.4503 400.267 14.5335 401.178C16.4864 402.219 20.132 403 22.7359 403C26.3815 403 28.4647 401.959 31.8498 398.446C34.3236 395.973 36.2766 392.72 36.2766 391.288C36.2766 389.857 35.235 388.295 34.0632 387.905C32.3706 387.254 30.8082 388.165 28.4647 391.158C26.2513 393.891 24.0379 395.192 21.6944 395.192C19.0904 395.192 17.3978 394.151 15.8354 391.288Z" fill="#85195A" fill-opacity="0.2"/>
<path d="M110.88 391.288C109.578 389.206 107.495 387.385 106.193 387.385C104.891 387.385 103.589 388.426 103.198 389.727C102.678 390.898 103.198 393.631 104.11 395.713C105.151 397.795 107.495 400.267 109.578 401.178C111.531 402.219 114.656 403 116.739 403C118.692 403 122.338 401.699 124.811 400.007C127.285 398.445 129.889 395.453 130.67 393.501C131.538 391.158 131.538 389.51 130.67 388.556C129.889 387.775 128.197 387.515 126.764 387.905C125.332 388.295 123.64 389.987 122.858 391.549C121.947 393.631 120.254 394.672 117.39 394.932C113.875 395.192 112.703 394.542 110.88 391.288Z" fill="#85195A" fill-opacity="0.2"/>
<path d="M204.883 391.288C203.712 388.946 201.889 387.385 200.326 387.385C198.243 387.385 197.722 388.296 197.722 391.288C197.722 393.501 199.024 396.624 200.717 398.576C202.54 400.658 205.534 402.089 208.789 402.61C212.261 403.043 215.429 402.566 218.294 401.178C220.507 400.007 223.371 397.274 224.413 395.192C225.455 393.11 226.106 390.378 225.715 389.337C225.324 388.296 223.892 387.385 222.46 387.385C220.898 387.385 219.205 388.816 218.164 391.028C216.862 393.761 215.56 394.672 211.654 394.932C207.487 395.192 206.576 394.672 204.883 391.288Z" fill="#85195A" fill-opacity="0.2"/>
<path d="M299.928 391.288C298.756 388.946 296.934 387.385 295.371 387.385C293.288 387.385 292.767 388.296 292.767 391.288C292.767 393.501 294.069 396.624 295.762 398.576C297.585 400.658 300.579 402.089 303.834 402.61C307.306 403.043 310.474 402.566 313.339 401.178C315.552 400.007 318.416 397.274 319.458 395.192C320.499 393.11 321.15 390.378 320.76 389.337C320.369 388.296 319.067 387.385 317.895 387.385C316.593 387.385 314.25 389.076 312.688 391.288C310.474 394.151 308.651 395.192 305.787 395.192C302.792 395.192 301.49 394.281 299.928 391.288Z" fill="#85195A" fill-opacity="0.2"/>
<path d="M36.7974 407.952C35.7558 406.911 34.0632 406 33.282 406H33.1518C32.3706 406 24.0379 410.294 14.924 415.499C-1.09035 424.478 -1.74134 424.999 -1.35074 428.772C-1.09035 431.896 -0.309154 432.806 2.29481 433.067C4.37798 433.327 10.7577 430.594 19.481 425.91C27.2929 421.746 34.7142 417.321 36.1464 416.15C37.5786 414.849 38.7503 412.897 38.7503 411.856C38.7503 410.815 37.839 408.993 36.7974 407.952Z" fill="#85195A" fill-opacity="0.2"/>
<path d="M61.9256 408.212C61.4048 407.041 60.233 406 59.1915 406C58.1499 406 56.7177 406.911 55.9365 407.952C54.8949 409.383 55.0251 411.075 56.4573 414.458C57.6291 417.191 60.1029 419.794 62.5766 421.095C65.3108 422.526 68.4355 422.917 71.4301 422.526C73.9039 422.006 77.5494 420.054 79.6326 418.102C81.5856 416.15 83.4083 413.417 83.7989 412.116C84.1895 410.945 83.5385 408.993 82.3667 407.822C80.544 406 80.0232 406.26 76.2474 410.424C73.9039 412.897 70.9093 414.979 69.4771 415.109C68.0449 415.109 65.9618 414.198 64.79 412.897C63.6182 411.596 62.3162 409.513 61.9256 408.212Z" fill="#85195A" fill-opacity="0.2"/>
<path d="M157.231 408.863C156.58 407.301 155.278 406 154.366 406.13C153.585 406.13 151.893 406.521 150.981 406.911C149.94 407.171 149.158 408.472 149.289 409.644C149.419 410.815 150.591 413.678 151.893 415.76C153.195 417.842 155.929 420.444 158.142 421.355C160.355 422.396 163.871 422.787 166.735 422.396C169.99 421.876 172.724 420.314 174.938 417.712C176.761 415.629 178.193 412.376 178.193 410.554C178.193 408.733 177.412 407.041 176.5 406.781C175.719 406.521 174.287 406.651 173.506 407.041C172.724 407.562 171.422 409.253 170.511 410.815C169.73 412.506 167.647 414.068 165.824 414.458C164.001 414.849 161.658 414.328 160.486 413.417C159.314 412.637 157.752 410.554 157.231 408.863Z" fill="#85195A" fill-opacity="0.2"/>
<path d="M227.408 407.562C226.496 406.651 224.804 406 223.762 406C222.721 406 215.039 409.904 206.836 414.588C198.634 419.273 191.082 423.828 190.171 424.608C189.129 425.519 188.609 427.601 188.869 429.423C189.129 431.765 190.171 432.806 192.515 433.067C194.467 433.327 199.936 431.245 206.185 427.992C211.914 424.999 219.335 420.835 222.721 418.883C227.147 416.15 228.97 414.328 228.97 412.116C228.97 410.554 228.319 408.472 227.408 407.562Z" fill="#85195A" fill-opacity="0.2"/>
<path d="M252.015 410.294C251.234 408.342 249.411 406.521 248.239 406.26C247.068 406 245.635 406.911 245.115 408.212C244.724 409.513 244.984 411.986 245.766 413.808C246.547 415.629 248.37 418.232 249.932 419.663C251.885 421.485 254.489 422.266 259.176 422.266C264.775 422.266 266.077 421.746 269.462 417.972C271.545 415.76 273.237 412.376 273.237 410.554C273.237 408.733 272.326 407.041 271.284 406.651C270.243 406.26 268.42 406.911 267.379 407.952C266.337 408.993 265.426 410.554 265.426 411.205C265.426 411.856 264.124 413.157 262.431 413.938C260.869 414.719 258.265 414.979 256.572 414.588C255.01 414.198 252.926 412.246 252.015 410.294Z" fill="#85195A" fill-opacity="0.2"/>
<path d="M317.635 411.596C318.937 409.513 319.067 408.212 318.156 407.431C317.201 406.564 313.512 407.865 307.089 411.335C301.751 414.328 293.548 418.753 288.861 421.225C284.174 423.697 279.878 426.3 279.096 426.951C278.228 427.731 278.359 428.642 279.487 429.683C280.789 431.115 281.961 430.985 284.955 429.033C287.169 427.862 289.903 426.821 291.075 426.821C293.028 426.69 293.158 427.081 291.726 428.772C290.944 429.813 290.424 431.375 290.814 432.026C291.205 432.676 291.986 433.327 292.767 433.327C293.548 433.327 302.011 429.033 311.646 423.828C321.411 418.753 329.092 413.808 328.832 413.157C328.572 412.506 327.139 411.986 325.837 412.116C324.536 412.246 321.671 412.897 319.588 413.417C315.812 414.458 315.812 414.328 317.635 411.596Z" fill="#85195A" fill-opacity="0.2"/>
<path d="M347.06 410.294C346.279 408.342 344.456 406.521 343.284 406.26C342.112 406 340.68 406.911 340.159 408.212C339.769 409.513 339.639 411.856 340.159 413.547C340.55 415.109 342.112 417.581 343.544 419.013C344.977 420.444 348.362 422.006 350.966 422.396C354.351 422.917 357.346 422.526 360.08 421.095C362.423 419.924 365.418 416.931 366.59 414.458C368.673 410.294 368.673 409.644 366.98 407.822C365.157 405.87 364.637 406 360.47 410.554C356.694 414.588 355.262 415.239 352.268 414.588C350.185 414.068 348.101 412.376 347.06 410.294Z" fill="#85195A" fill-opacity="0.2"/>
<path d="M133.014 413.417C132.363 412.897 131.061 412.506 130.019 412.506C128.978 412.637 120.775 416.671 111.792 421.615C102.808 426.56 94.996 430.854 94.2148 431.115C93.4336 431.375 93.5638 432.416 94.6054 433.717C96.0376 435.669 96.5584 435.799 100.074 433.978C102.157 432.937 104.37 432.286 105.021 432.676C105.542 432.937 105.021 434.238 103.98 435.279C102.678 436.667 102.461 437.795 103.329 438.662C104.24 439.573 110.49 437.101 123.249 430.464C133.404 425.259 141.737 420.184 141.737 419.403C141.737 418.492 141.216 417.451 140.435 417.061C139.654 416.671 137.31 417.321 135.227 418.362C133.144 419.403 130.931 420.054 130.41 419.663C129.759 419.273 130.41 417.972 131.712 416.801C132.884 415.499 133.535 413.938 133.014 413.417Z" fill="#85195A" fill-opacity="0.2"/>
<path d="M51.9003 441.135C50.4682 439.703 47.6038 438.532 45.5206 438.532C43.4375 438.532 40.5731 439.573 39.0107 440.874C37.5785 442.046 35.886 444.778 35.4954 446.99C34.7142 450.113 35.235 451.545 37.9691 454.538C40.3127 456.75 42.7865 458.051 45.3904 458.051C47.6038 458.051 50.4682 456.88 51.9003 455.449C53.4627 453.887 54.5043 451.154 54.5043 448.292C54.5043 445.429 53.4627 442.696 51.9003 441.135Z" fill="#85195A" fill-opacity="0.2"/>
<path d="M146.945 441.135C145.513 439.703 142.649 438.532 140.435 438.532C138.222 438.532 135.357 439.703 133.925 441.135C132.363 442.696 131.321 445.429 131.321 448.292C131.321 451.154 132.363 453.887 133.925 455.449C135.357 456.88 138.222 458.051 140.435 458.051C142.649 458.051 145.513 456.88 146.945 455.449C148.507 453.887 149.549 451.154 149.549 448.292C149.549 445.429 148.507 442.696 146.945 441.135Z" fill="#85195A" fill-opacity="0.2"/>
<path d="M241.99 441.004C240.167 439.573 237.173 438.402 235.22 438.532C233.136 438.532 230.402 439.703 228.97 441.135C227.408 442.696 226.366 445.429 226.366 448.292C226.366 451.154 227.408 453.887 228.97 455.449C230.402 456.88 233.136 458.051 235.22 458.051C237.173 458.181 240.167 457.01 241.99 455.579C244.464 453.757 245.245 451.805 245.245 448.292C245.245 444.778 244.464 442.826 241.99 441.004Z" fill="#85195A" fill-opacity="0.2"/>
<path d="M337.035 441.004C335.212 439.573 332.217 438.402 330.394 438.532C328.572 438.532 325.707 439.833 324.015 441.525C321.932 443.477 321.02 445.819 321.15 448.422C321.281 450.504 322.713 453.497 324.275 455.058C325.968 456.75 328.702 458.051 330.525 458.051C332.347 458.181 335.212 457.01 337.035 455.579C339.508 453.757 340.29 451.805 340.29 448.292C340.29 444.778 339.508 442.826 337.035 441.004Z" fill="#85195A" fill-opacity="0.2"/>
<path d="M92.9128 463.907C91.8712 462.866 90.1787 461.955 89.3975 462.085C88.4861 462.085 82.3667 465.078 75.987 468.592C69.6073 472.105 62.0558 476.529 59.4519 478.221C55.9365 480.563 54.5043 482.385 54.5043 484.728C54.5043 486.679 55.5459 488.501 57.1083 489.282C59.1914 490.323 62.186 489.282 72.4717 483.947C79.3722 480.173 86.9237 476.009 89.0068 474.578C91.09 473.016 93.3034 471.194 93.8242 470.413C94.345 469.763 94.8658 468.331 94.8658 467.551C94.8658 466.64 93.9544 464.948 92.9128 463.907Z" fill="#85195A" fill-opacity="0.2"/>
<path d="M187.307 463.256C185.874 462.606 184.572 461.955 184.442 461.955C184.182 461.955 180.276 464.037 175.589 466.379C170.902 468.852 163.35 473.146 158.663 475.879C152.023 480.043 150.07 481.865 149.94 484.597C149.679 487.07 150.33 488.241 152.544 489.152C154.887 490.063 158.142 488.892 169.079 483.036C176.63 479.132 184.312 474.708 186.395 473.406C188.609 471.845 189.911 469.893 189.911 467.811C189.911 465.859 188.869 464.037 187.307 463.256Z" fill="#85195A" fill-opacity="0.2"/>
<path d="M282.351 463.256C280.919 462.606 279.617 461.955 279.487 461.955C279.227 461.955 274.409 464.558 268.681 467.551C262.952 470.674 255.4 474.968 251.755 477.05C246.807 480.043 245.115 481.865 244.984 484.467C244.724 486.94 245.375 488.371 247.198 489.282C249.281 490.323 252.536 489.152 263.863 483.296C271.545 479.132 279.357 474.838 281.44 473.537C283.653 471.975 284.955 469.893 284.955 467.811C284.955 465.859 283.914 464.037 282.351 463.256Z" fill="#85195A" fill-opacity="0.2"/>
<path d="M378.438 463.517C377.526 462.606 376.094 461.955 375.443 461.955C374.792 461.955 371.798 463.126 368.933 464.688C366.069 466.119 359.689 469.763 354.611 472.626C349.534 475.619 344.196 478.742 342.633 479.783C340.81 480.824 339.639 482.776 339.639 484.728C339.639 486.679 340.68 488.501 342.242 489.282C344.326 490.323 347.581 489.152 358.908 483.166C366.59 479.132 374.401 474.838 376.485 473.406C378.568 472.105 380 469.893 380 468.201C380 466.51 379.349 464.428 378.438 463.517Z" fill="#85195A" fill-opacity="0.2"/>
<path d="M15.8354 484.077C14.5334 481.995 12.8409 480.043 12.0597 479.783C11.2785 479.522 9.84633 479.522 8.80474 479.783C7.89336 480.173 7.24235 481.604 7.37254 483.166C7.50274 484.728 8.67452 487.59 10.2369 489.672C11.6691 491.624 15.0543 493.837 17.7884 494.617C21.6944 495.788 23.5171 495.658 27.5533 493.967C30.1572 492.796 33.282 490.583 34.3236 489.022C35.4954 487.33 36.2766 484.858 36.0162 483.426C35.7558 481.865 34.4538 480.694 32.631 480.563C31.0686 480.303 29.7666 480.824 29.7666 481.474C29.7666 482.125 28.5949 483.947 27.1627 485.378C25.7305 486.81 23.1265 487.981 21.3037 487.981C19.0904 487.981 17.3978 486.81 15.8354 484.077Z" fill="#85195A" fill-opacity="0.2"/>
<path d="M110.88 484.077C109.578 481.995 107.886 480.043 107.104 479.783C106.323 479.522 104.891 479.522 103.849 479.783C102.938 480.173 102.287 481.865 102.417 483.556C102.548 485.248 104.11 488.371 105.933 490.583C107.886 492.796 111.01 494.747 113.484 495.268C115.958 495.658 119.603 495.268 122.598 493.967C125.202 492.796 128.327 490.583 129.368 489.022C130.54 487.33 131.321 484.858 131.061 483.426C130.801 481.865 129.499 480.694 127.676 480.563C125.853 480.303 124.291 481.214 123.379 483.166C122.468 484.728 121.166 486.419 120.385 486.94C119.603 487.46 117.651 487.981 116.088 487.981C114.135 487.981 112.312 486.549 110.88 484.077Z" fill="#85195A" fill-opacity="0.2"/>
<path d="M204.623 483.426C203.972 481.604 202.93 479.913 202.149 479.653C201.368 479.392 199.936 479.522 198.894 479.783C197.983 480.173 197.332 481.995 197.462 484.207C197.592 486.289 199.155 489.412 200.977 491.234C202.8 493.056 206.185 494.878 208.529 495.268C211.306 495.788 214.388 495.268 217.773 493.706C220.637 492.275 223.632 489.542 224.673 487.33C225.715 485.118 226.236 482.646 225.845 481.865C225.455 480.954 223.892 480.173 222.46 480.173C220.898 480.173 219.205 481.604 218.294 483.556C217.382 485.378 215.429 487.2 213.997 487.59C212.565 487.981 210.091 487.851 208.529 487.46C206.836 487.07 205.144 485.248 204.623 483.426Z" fill="#85195A" fill-opacity="0.2"/>
<path d="M299.277 482.255C299.147 481.214 298.366 480.173 297.454 479.913C296.543 479.522 294.981 479.522 293.939 479.783C293.028 480.173 292.377 481.865 292.507 483.817C292.637 485.769 293.679 488.631 294.72 490.323C295.762 491.885 298.887 493.837 301.621 494.617C304.225 495.398 307.87 495.658 309.693 495.268C311.516 494.878 314.901 492.535 317.244 489.933C319.458 487.46 321.281 484.337 321.02 483.166C320.89 481.865 319.588 480.694 318.156 480.433C316.463 480.173 314.51 481.474 312.688 484.077C310.735 486.549 308.521 487.981 306.438 487.981C304.615 487.981 302.272 487.07 301.23 486.029C300.188 484.988 299.277 483.296 299.277 482.255Z" fill="#85195A" fill-opacity="0.2"/>
<path d="M62.3162 514.787C62.186 513.746 61.4048 512.705 60.233 512.185C59.1915 511.794 57.4989 512.315 56.4573 513.356C54.7647 515.047 54.7647 515.958 56.1969 519.472C56.9781 521.684 59.1914 524.417 61.0142 525.588C62.837 526.629 66.4826 527.54 69.0865 527.54C71.9509 527.67 75.3361 526.629 77.5494 524.937C79.5024 523.506 81.846 520.773 82.7573 519.081C83.5385 517.39 83.9291 515.178 83.6687 514.397C83.4083 513.486 82.1064 512.705 80.9346 512.705C79.6326 512.705 77.289 514.397 75.7267 516.609C73.7737 519.081 71.5603 520.513 69.4771 520.513C67.6543 520.513 65.3108 519.602 64.2692 518.561C63.2276 517.52 62.3162 515.828 62.3162 514.787Z" fill="#85195A" fill-opacity="0.2"/>
<path d="M131.842 513.096C130.54 512.185 129.108 511.404 128.717 511.404C128.327 511.404 125.072 512.965 121.556 514.787C117.911 516.609 110.359 520.643 104.631 523.766C98.9019 526.889 93.8242 530.403 93.4336 531.834C93.043 533.135 92.9128 534.957 93.1732 535.868C93.3034 536.649 94.7356 537.95 96.1678 538.731C98.1207 539.772 100.204 539.251 105.021 536.779C108.406 534.957 116.088 530.663 122.207 527.279C130.67 522.595 133.404 520.383 133.795 517.91C134.186 515.828 133.535 514.267 131.842 513.096Z" fill="#85195A" fill-opacity="0.2"/>
<path d="M155.538 512.445C154.757 511.924 153.846 511.404 153.455 511.404C153.064 511.404 152.023 511.924 151.111 512.445C149.94 512.965 149.549 514.657 150.07 517.26C150.46 519.472 151.893 522.204 153.064 523.376C154.366 524.677 157.231 526.238 159.314 526.889C161.788 527.67 165.043 527.67 168.167 526.889C170.902 526.238 174.026 524.287 175.589 522.204C177.151 520.122 178.323 517.26 178.193 515.698C178.193 513.356 177.411 512.705 174.938 512.705C172.768 512.705 171.466 513.573 171.032 515.308C170.641 516.739 169.079 518.561 167.516 519.342C165.824 520.122 163.22 520.383 161.658 519.992C159.965 519.602 158.272 517.91 157.882 516.349C157.361 514.657 156.319 512.965 155.538 512.445Z" fill="#85195A" fill-opacity="0.2"/>
<path d="M220.507 512.705C220.117 511.924 219.075 511.534 218.294 511.534C217.382 511.664 209.18 515.698 200.066 520.383C190.952 525.067 182.75 529.752 181.838 530.663C180.406 531.964 180.406 532.485 181.838 533.916C183.14 535.217 184.312 534.957 187.958 532.875C190.431 531.444 192.905 530.663 193.426 531.183C194.077 531.704 193.556 533.135 192.515 534.176C191.213 535.564 190.995 536.692 191.863 537.56C192.775 538.471 199.024 535.868 211.263 529.362C221.288 524.156 229.751 519.081 230.142 518.171C230.532 517.26 230.532 516.088 229.881 515.568C229.361 515.047 226.757 515.698 224.022 516.999C221.419 518.301 218.945 518.951 218.554 518.691C218.164 518.301 218.684 517.129 219.596 515.958C220.377 514.917 220.898 513.486 220.507 512.705Z" fill="#85195A" fill-opacity="0.2"/>
<path d="M252.145 515.698C251.234 513.876 249.932 512.054 249.151 511.794C248.5 511.664 247.068 511.924 246.156 512.445C244.984 512.965 244.594 514.657 245.115 517.26C245.505 519.472 246.937 522.204 248.109 523.376C249.411 524.547 252.015 526.108 254.098 526.889C256.442 527.93 259.306 527.93 262.822 527.019C265.946 526.238 269.071 524.287 270.633 522.204C272.196 520.122 273.368 517.26 273.237 515.698C273.237 513.356 272.456 512.705 269.982 512.705C267.812 512.705 266.51 513.573 266.077 515.308C265.686 516.739 264.124 518.561 262.561 519.342C260.869 520.122 258.265 520.383 256.702 519.992C255.01 519.602 252.926 517.65 252.145 515.698Z" fill="#85195A" fill-opacity="0.2"/>
<path d="M322.452 512.965C321.541 512.054 319.848 511.404 318.807 511.404C317.765 511.534 309.302 515.828 300.188 520.903C285.085 529.362 283.523 530.663 283.653 533.916C283.653 536.128 284.565 537.95 286.257 538.731C288.34 539.772 290.554 539.121 296.413 536.128C300.449 533.916 308.261 529.622 313.599 526.629C321.15 522.335 323.494 520.383 323.754 517.91C323.885 516.088 323.364 513.876 322.452 512.965Z" fill="#85195A" fill-opacity="0.2"/>
<path d="M347.19 515.698C346.279 513.746 344.456 511.924 343.284 511.664C342.112 511.404 340.68 512.315 340.159 513.616C339.639 514.917 339.769 517.39 340.42 519.081C341.071 520.773 343.284 523.376 345.237 524.937C347.581 526.629 350.705 527.67 353.7 527.54C356.304 527.54 359.949 526.499 361.772 525.458C363.595 524.287 365.808 521.684 366.85 519.602C367.761 517.65 368.152 515.178 367.761 514.397C367.371 513.486 365.939 512.705 364.767 512.705C363.465 512.705 360.991 514.657 359.168 516.869C356.434 520.253 355.262 520.773 352.398 519.992C350.185 519.602 348.101 517.78 347.19 515.698Z" fill="#85195A" fill-opacity="0.2"/>
<path d="M37.5785 518.561C37.5785 517.52 36.537 516.609 35.3652 516.739C34.0632 516.739 25.3399 521.033 15.8354 526.108L15.8341 526.109C6.46038 531.314 -1.74137 535.868 -2.39233 536.388C-2.91312 536.909 -3.04332 538.34 -2.39233 539.381C-1.61114 541.073 -0.829951 540.943 3.72699 538.731L8.93493 536.128C7.24235 542.895 7.50273 543.936 8.67452 543.936C9.45571 543.936 15.3146 541.333 21.6944 538.08C27.9439 534.827 35.6256 530.793 38.8805 528.971C42.1355 527.149 45.3904 525.067 46.0414 524.417C46.9094 523.549 46.9094 522.682 46.0414 521.814C45.13 520.773 43.3073 521.163 39.9221 522.725C37.188 524.026 34.584 524.547 34.0632 524.026C33.4122 523.376 34.0632 522.335 35.3652 521.684C36.537 521.033 37.5785 519.602 37.5785 518.561Z" fill="#85195A" fill-opacity="0.2"/>
<path d="M51.9003 546.538C50.4682 545.107 47.6038 543.936 45.5206 543.936C43.4375 543.936 40.4429 545.107 38.7503 546.408C36.537 548.23 35.6256 550.182 35.6256 553.435C35.6256 556.168 36.6671 559.031 38.2295 560.722C39.9221 562.544 42.3959 563.585 45.13 563.455C47.4736 563.455 50.338 562.414 51.9003 560.853C53.4627 559.291 54.5043 556.558 54.5043 553.696C54.5043 550.833 53.4627 548.1 51.9003 546.538Z" fill="#85195A" fill-opacity="0.2"/>
<path d="M146.945 546.538C145.513 545.107 142.649 543.936 140.435 543.936C138.222 543.936 135.357 545.107 133.925 546.538C132.363 548.1 131.321 550.833 131.321 553.696C131.321 556.558 132.363 559.291 133.925 560.853C135.357 562.284 138.222 563.455 140.435 563.455C142.649 563.455 145.513 562.284 146.945 560.853C148.507 559.291 149.549 556.558 149.549 553.696C149.549 550.833 148.507 548.1 146.945 546.538Z" fill="#85195A" fill-opacity="0.2"/>
<path d="M241.99 546.408C240.167 544.977 237.173 543.806 235.22 543.936C233.136 543.936 230.402 545.107 228.97 546.538C227.408 548.1 226.366 550.833 226.366 553.696C226.366 556.558 227.408 559.291 228.97 560.853C230.532 562.414 233.397 563.455 235.871 563.455C238.474 563.585 240.948 562.544 242.641 560.722C244.203 559.031 245.245 556.168 245.245 553.435C245.245 550.182 244.333 548.23 241.99 546.408Z" fill="#85195A" fill-opacity="0.2"/>
<path d="M336.384 545.628C334.951 544.717 332.608 543.936 331.045 543.936C329.483 543.936 326.749 545.107 324.796 546.669C322.062 548.621 321.15 550.442 321.281 553.435C321.281 555.778 322.583 558.901 324.015 560.592C325.447 562.154 328.051 563.455 329.874 563.455C331.696 563.455 334.04 563.065 335.212 562.544C336.384 561.894 338.206 559.942 339.118 557.99C340.29 555.647 340.55 553.045 340.029 550.833C339.378 549.011 337.816 546.669 336.384 545.628Z" fill="#85195A" fill-opacity="0.2"/>
<path d="M93.043 569.701C91.8712 568.4 90.5693 567.359 90.0485 567.359C89.3975 567.359 81.3252 571.393 72.0811 576.338C56.3271 584.666 55.1553 585.577 54.8949 589.351C54.6345 592.344 55.1553 593.775 57.1083 594.686C59.1914 595.727 62.837 594.296 77.0286 586.488C88.8767 579.981 94.345 576.338 94.6054 574.516C94.8658 573.085 94.2148 570.872 93.043 569.701Z" fill="#85195A" fill-opacity="0.2"/>
<path d="M187.827 569.051C186.525 568.14 185.093 567.359 184.703 567.359C184.312 567.359 176.24 571.523 166.605 576.598C150.07 585.317 149.158 585.967 149.289 589.611C149.419 591.953 150.591 593.905 152.153 594.686C154.106 595.727 156.189 595.206 161.007 592.734C164.392 590.912 172.073 586.748 178.193 583.235C186.525 578.55 189.39 576.338 189.78 573.865C190.171 571.783 189.52 570.222 187.827 569.051Z" fill="#85195A" fill-opacity="0.2"/>
<path d="M282.872 569.051C281.57 568.14 280.138 567.359 279.747 567.359C279.357 567.359 272.326 571.003 264.124 575.427C255.921 579.721 248.109 584.276 246.807 585.447C245.505 586.618 244.464 588.83 244.594 590.522C244.594 592.083 245.766 593.905 247.198 594.686C249.281 595.727 252.927 594.296 267.118 586.618C280.919 578.94 284.434 576.468 284.825 573.996C285.216 571.783 284.565 570.222 282.872 569.051Z" fill="#85195A" fill-opacity="0.2"/>
<path d="M377.917 569.051C376.615 568.14 375.183 567.359 374.792 567.359C374.401 567.359 367.631 570.872 359.819 575.167C352.007 579.461 344.977 582.974 344.326 582.974C343.675 582.974 342.373 584.015 341.461 585.317C340.55 586.488 339.639 588.83 339.639 590.522C339.639 592.083 340.81 593.905 342.242 594.686C343.935 595.597 345.888 595.597 347.841 594.686C349.403 594.035 357.215 589.741 365.027 585.317C376.094 578.94 379.479 576.338 379.87 573.865C380.26 571.783 379.609 570.222 377.917 569.051Z" fill="#85195A" fill-opacity="0.2"/>
<path d="M15.4448 588.83C14.2731 586.748 12.4503 584.796 11.4087 584.536C10.3671 584.406 8.93492 584.536 8.28393 585.056C7.76313 585.577 7.24235 587.399 7.37254 589.09C7.50274 590.652 9.06512 593.905 10.8879 595.987C13.1013 598.59 15.8354 600.151 19.0904 600.672C21.9548 601.062 25.4701 600.802 27.6835 599.631C29.7666 598.72 32.631 596.508 33.933 594.686C35.235 592.864 36.4068 590.131 36.2766 588.57C36.2766 586.878 35.4954 585.317 34.7142 585.056C33.8028 584.796 32.3706 584.926 31.7196 585.317C30.9384 585.837 29.376 587.789 28.0741 589.871C26.3815 592.604 24.9493 593.254 21.6944 593.124C18.6998 592.864 17.0072 591.693 15.4448 588.83Z" fill="#85195A" fill-opacity="0.2"/>
<path d="M110.49 588.83C109.057 586.358 107.104 584.276 106.193 584.276C105.151 584.276 103.98 584.666 103.329 585.187C102.678 585.577 102.287 587.399 102.417 589.09C102.548 590.652 104.11 593.905 105.933 595.987C107.755 598.199 110.75 600.281 112.833 600.672C114.786 601.062 118.562 600.802 121.296 600.021C123.9 599.24 127.285 597.028 128.717 595.076C130.28 592.994 131.452 590.131 131.321 588.57C131.321 586.878 130.41 585.317 129.368 584.926C128.327 584.536 126.374 585.447 125.202 586.748C123.9 588.179 122.077 590.262 121.296 591.303C120.385 592.474 118.171 593.385 116.349 593.385C114.005 593.385 112.312 592.083 110.49 588.83Z" fill="#85195A" fill-opacity="0.2"/>
<path d="M204.232 588.179C203.581 586.097 202.149 584.276 201.238 584.276C200.196 584.276 199.024 584.666 198.373 585.187C197.722 585.577 197.332 587.659 197.462 589.741C197.592 591.693 199.155 594.816 200.977 596.638C202.8 598.46 206.185 600.281 208.529 600.672C211.003 601.062 214.648 600.672 217.643 599.371C220.637 598.069 223.241 595.727 224.543 593.124C225.585 590.782 226.236 588.049 225.845 587.269C225.455 586.358 223.892 585.577 222.46 585.577C220.898 585.577 219.205 587.008 218.294 588.96C217.382 590.782 215.429 592.604 213.997 592.994C212.565 593.385 210.091 593.254 208.529 592.864C206.706 592.344 205.014 590.522 204.232 588.179Z" fill="#85195A" fill-opacity="0.2"/>
<path d="M299.277 588.179C298.626 586.097 297.194 584.276 296.283 584.276C295.241 584.276 294.069 584.666 293.418 585.187C292.767 585.577 292.377 587.529 292.507 589.351C292.637 591.172 293.548 593.905 294.46 595.337C295.501 596.768 297.975 598.72 300.058 599.631C302.272 600.802 305.787 601.062 308.782 600.672C312.167 600.151 314.771 598.46 317.505 595.337C319.718 592.864 321.411 589.871 321.411 588.83C321.411 587.789 320.239 586.358 318.807 585.707C317.244 585.056 315.682 584.796 315.161 585.317C314.64 585.837 313.599 587.399 312.818 588.83C312.036 590.262 310.474 591.953 309.563 592.604C308.521 593.254 306.178 593.385 304.225 592.864C301.751 592.344 300.188 590.912 299.277 588.179Z" fill="#85195A" fill-opacity="0.2"/>
<path d="M38.6201 623.184C38.3597 621.622 37.0577 619.54 35.6256 618.629C33.282 617.198 31.1988 617.849 17.3978 625.396C8.80472 630.081 0.732424 635.026 -0.439361 636.457C-1.87154 638.019 -2.39232 639.71 -1.74133 641.012C-1.22054 642.183 0.21165 643.744 1.51363 644.265C3.07601 645.176 7.50275 643.484 17.7884 638.019C25.4701 633.985 33.282 629.69 35.3652 628.259C37.5785 626.697 38.7503 625.006 38.6201 623.184Z" fill="#85195A" fill-opacity="0.2"/>
<path d="M62.7068 622.013C61.7954 620.191 60.4934 618.239 59.9727 617.719C59.4519 617.068 57.8895 617.588 56.5875 618.76C55.4157 619.931 54.3741 621.232 54.3741 621.753C54.5043 622.273 55.6761 624.615 57.1083 626.958C58.5405 629.17 61.1444 631.642 62.9672 632.423C64.79 633.204 67.6543 633.724 69.4771 633.724C71.2999 633.724 74.5549 632.813 76.638 631.772C78.7212 630.731 81.4554 628.129 82.4969 625.917C83.5385 623.835 84.1895 621.102 83.7989 620.061C83.4083 619.02 81.9762 618.109 80.544 618.109C78.9816 618.109 77.289 619.54 76.3776 621.492C75.4663 623.314 73.5133 625.136 72.0811 625.526C70.6489 625.787 68.3053 625.917 66.8732 625.656C65.441 625.526 63.6182 623.835 62.7068 622.013Z" fill="#85195A" fill-opacity="0.2"/>
<path d="M157.752 622.013C156.84 620.191 155.538 618.369 155.017 617.849C154.497 617.328 152.934 617.588 151.502 618.239C150.2 619.02 149.158 620.712 149.289 622.013C149.419 623.444 151.632 626.697 154.106 629.17C157.752 632.813 159.705 633.724 163.871 633.724C167.777 633.724 170.251 632.813 173.636 629.821C176.63 627.348 178.193 624.745 178.193 622.663C178.193 620.842 177.281 619.02 176.24 618.499C174.808 617.719 173.115 618.76 170.641 621.753C167.777 625.266 166.345 626.047 163.22 625.656C160.746 625.396 158.793 624.095 157.752 622.013Z" fill="#85195A" fill-opacity="0.2"/>
<path d="M226.757 619.15C225.455 617.849 224.153 616.938 223.762 616.938C223.371 616.938 216.731 620.581 208.789 624.876C200.977 629.04 193.166 633.464 191.603 634.505C189.78 635.546 188.609 637.628 188.609 639.58C188.609 641.532 189.65 643.354 191.213 644.135C193.296 645.176 196.681 643.874 209.18 637.498C217.513 633.074 225.455 628.519 226.757 627.348C228.059 626.177 229.1 624.355 229.1 623.314C229.1 622.273 228.059 620.321 226.757 619.15Z" fill="#85195A" fill-opacity="0.2"/>
<path d="M252.796 622.013C251.494 619.931 249.802 617.849 248.89 617.588C247.979 617.328 246.547 617.719 245.766 618.499C244.854 619.28 244.203 620.712 244.333 621.622C244.464 622.533 245.375 624.876 246.417 626.958C247.328 628.91 250.192 631.252 252.536 632.293C255.27 633.334 258.785 633.854 261.52 633.334C264.254 632.813 267.509 630.862 269.722 628.519C271.675 626.437 273.237 623.444 273.237 622.013C273.237 620.581 272.326 619.02 271.154 618.499C269.722 617.719 268.16 618.629 265.946 621.753C263.603 624.876 261.78 625.917 258.916 625.917C255.921 625.917 254.489 625.006 252.796 622.013Z" fill="#85195A" fill-opacity="0.2"/>
<path d="M347.841 622.013C346.539 619.931 344.846 617.979 344.065 617.719C343.284 617.458 341.852 617.458 340.81 617.719C339.899 618.109 339.248 619.931 339.378 622.143C339.508 624.225 341.071 627.348 342.894 629.17C344.716 630.992 347.711 632.813 349.794 633.204C351.747 633.724 355.262 633.724 357.606 633.204C360.08 632.683 363.074 630.731 365.157 628.259C366.98 625.917 368.282 622.794 368.022 621.362C367.761 619.931 366.459 618.629 365.027 618.369C363.291 618.109 361.685 619.323 360.21 622.013C358.387 625.006 356.955 625.917 353.96 625.917C350.966 625.917 349.534 625.006 347.841 622.013Z" fill="#85195A" fill-opacity="0.2"/>
<path d="M320.109 620.061C320.109 619.02 319.067 618.109 317.895 618.239C316.593 618.239 307.349 622.533 297.324 627.869C287.299 633.204 278.966 638.149 278.836 638.929C278.576 639.58 279.227 640.621 280.138 641.012C280.919 641.402 283.653 640.751 285.997 639.71C288.21 638.539 290.944 637.628 291.856 637.628C293.158 637.498 293.158 637.888 291.856 639.58C290.727 640.881 290.597 642.096 291.465 643.224C292.377 644.395 296.803 642.703 310.344 636.067C319.979 631.122 328.311 626.437 328.702 625.656C329.092 624.745 328.962 623.444 328.441 622.924C327.79 622.403 325.056 622.924 322.452 624.225C319.718 625.526 317.114 626.047 316.593 625.526C315.942 624.876 316.593 623.835 317.895 623.184C319.067 622.533 320.109 621.102 320.109 620.061Z" fill="#85195A" fill-opacity="0.2"/>
<path d="M132.363 625.396C131.712 624.225 130.931 623.314 130.41 623.444C129.759 623.574 121.166 627.869 111.141 633.074C101.115 638.409 92.7826 643.354 92.6524 644.004C92.392 644.785 93.043 645.826 93.9544 646.217C94.7356 646.607 97.4698 645.956 99.8133 644.915C102.027 643.744 104.37 643.094 105.021 643.484C105.542 643.874 105.151 644.915 104.24 645.826C103.329 646.607 102.678 648.169 102.678 649.079C102.678 649.86 103.459 650.641 104.37 650.641C105.151 650.641 113.875 646.607 123.509 641.532C133.144 636.457 141.347 632.033 141.737 631.642C142.128 631.382 141.737 630.341 140.826 629.43C139.524 628.259 138.352 628.259 135.227 629.821C133.144 630.862 130.931 631.252 130.28 630.731C129.759 630.211 130.28 629.17 131.321 628.519C132.493 627.869 132.884 626.697 132.363 625.396Z" fill="#85195A" fill-opacity="0.2"/>
<path d="M52.291 653.113C50.989 651.942 48.7756 650.641 47.3434 650.251C45.9112 649.86 43.4375 649.99 42.0053 650.641C40.4429 651.292 38.2295 653.113 37.0578 654.805C35.886 656.497 34.9746 658.709 34.9746 659.75C34.8444 660.791 36.0162 663.263 37.5785 665.346C39.5315 668.078 41.2241 668.859 45.13 668.859C48.1246 668.989 50.8588 668.078 52.1607 666.647C53.4627 665.345 54.5043 662.222 54.5043 659.75C54.5043 657.017 53.7231 654.415 52.291 653.113Z" fill="#85195A" fill-opacity="0.2"/>
<path d="M147.336 653.113C146.034 651.942 143.82 650.641 142.388 650.251C140.956 649.86 138.873 649.86 137.831 650.251C136.79 650.641 134.837 651.942 133.535 653.113C132.233 654.285 131.191 657.017 131.191 659.75C131.191 662.353 132.233 665.215 133.535 666.517C134.837 667.818 137.701 668.859 139.784 668.859C141.998 668.859 144.992 667.948 146.685 666.907C148.768 665.476 149.549 663.654 149.549 660.14C149.679 657.017 148.768 654.415 147.336 653.113Z" fill="#85195A" fill-opacity="0.2"/>
<path d="M243.031 654.024C241.339 652.333 238.865 650.511 237.433 650.251C236.001 649.86 233.918 649.86 232.876 650.251C231.834 650.641 229.881 651.942 228.579 653.113C227.277 654.285 226.236 657.017 226.236 659.75C226.236 662.353 227.277 665.215 228.579 666.517C229.881 667.818 233.006 668.859 235.871 668.859C239.646 668.859 241.209 668.078 243.292 665.346C244.854 663.263 246.026 660.661 245.896 659.49C245.896 658.188 244.594 655.716 243.031 654.024Z" fill="#85195A" fill-opacity="0.2"/>
<path d="M338.597 654.545C337.295 652.723 334.951 651.031 333.389 650.641C331.827 650.251 329.353 650.12 328.051 650.381C326.619 650.641 324.536 652.072 323.494 653.634C322.322 655.195 321.411 658.058 321.411 660.14C321.411 662.092 322.583 664.825 324.015 666.256C325.577 667.818 328.442 668.859 330.915 668.859C333.259 668.989 335.993 667.948 337.295 666.647C338.467 665.345 339.769 662.873 340.29 661.051C340.81 658.839 340.29 656.757 338.597 654.545Z" fill="#85195A" fill-opacity="0.2"/>
<path d="M93.3034 675.626C92.392 674.715 90.439 674.064 89.0068 674.064C87.5747 674.064 85.2311 674.845 83.7989 675.756C82.3668 676.797 75.8568 680.31 69.4771 683.824C63.0974 687.207 56.9781 690.72 56.0667 691.501C55.1553 692.282 54.3741 694.104 54.3741 695.535C54.3741 696.967 55.4157 699.049 56.5875 700.09C58.5405 701.912 60.2331 701.261 73.7737 694.234C81.9762 689.94 90.1786 685.385 91.8712 684.214C93.4336 682.913 94.8658 680.831 94.8658 679.66C94.8658 678.358 94.2148 676.537 93.3034 675.626Z" fill="#85195A" fill-opacity="0.2"/>
<path d="M189.26 676.016C188.869 674.845 187.176 674.064 185.093 674.194C183.01 674.194 174.417 678.228 165.824 683.043C153.064 690.07 150.07 692.282 149.809 694.885C149.679 696.706 150.2 698.919 151.111 699.829C152.023 700.74 153.325 701.521 154.106 701.521C154.887 701.521 163.22 697.227 172.724 692.022C184.833 685.385 190.041 681.872 189.911 680.31C189.911 679.009 189.65 677.057 189.26 676.016Z" fill="#85195A" fill-opacity="0.2"/>
<path d="M284.304 676.667C283.783 674.845 282.612 674.064 280.138 674.194C278.055 674.324 269.462 678.228 260.869 683.043C247.198 690.59 245.245 692.152 244.984 695.275C244.724 697.878 245.375 699.179 247.588 700.22C250.062 701.391 252.796 700.35 266.988 692.672C276.362 687.728 283.914 682.783 284.304 681.612C284.695 680.31 284.695 678.098 284.304 676.667Z" fill="#85195A" fill-opacity="0.2"/>
<path d="M379.74 679.009C379.349 675.235 378.828 674.715 375.443 674.454C372.839 674.324 366.59 677.057 355.913 683.043C343.154 690.07 340.159 692.282 339.899 694.885C339.769 696.706 340.29 698.919 341.201 699.829C342.112 700.74 343.675 701.521 344.586 701.391C345.367 701.391 353.83 697.357 363.074 692.282L363.192 692.219C379.741 683.303 379.999 683.163 379.74 679.009Z" fill="#85195A" fill-opacity="0.2"/>
<path d="M15.8354 694.885C14.5334 692.803 12.4503 690.981 11.1483 690.981C9.8463 690.981 8.54434 692.022 8.15375 693.323C7.63295 694.494 8.15374 697.227 9.06513 699.309C10.1067 701.391 12.4503 703.863 14.5335 704.774C16.4864 705.815 20.132 706.596 22.7359 706.596C26.3815 706.596 28.4647 705.555 31.8498 702.042C34.3236 699.569 36.2766 696.316 36.2766 694.885C36.2766 693.453 35.235 691.892 34.0632 691.501C32.3706 690.851 30.8082 691.762 28.4647 694.754C26.2513 697.487 24.0379 698.788 21.6944 698.788C19.0904 698.788 17.3978 697.747 15.8354 694.885Z" fill="#85195A" fill-opacity="0.2"/>
<path d="M110.88 694.885C109.578 692.803 107.495 690.981 106.193 690.981C104.891 690.981 103.589 692.022 103.198 693.323C102.678 694.494 103.198 697.227 104.11 699.179C105.151 701.261 107.235 703.733 108.927 704.774C110.49 705.815 114.135 706.596 117 706.596C121.166 706.596 123.119 705.685 126.764 702.042C129.759 699.049 131.191 696.446 131.061 694.624C130.801 692.629 129.716 691.545 127.806 691.371C125.723 691.111 124.421 691.892 123.77 693.974C123.119 695.535 121.687 697.227 120.515 697.878C119.213 698.398 117.13 698.788 115.698 698.788C114.135 698.788 112.182 697.227 110.88 694.885Z" fill="#85195A" fill-opacity="0.2"/>
<path d="M204.883 694.885C203.712 692.542 201.889 690.981 200.326 690.981C198.243 690.981 197.722 691.892 197.722 694.885C197.722 697.487 199.024 700.09 201.628 702.692C204.623 705.685 206.706 706.596 210.742 706.596C213.607 706.596 217.513 705.555 219.335 704.384C221.288 703.083 223.632 700.22 224.673 698.138C225.715 696.056 226.236 693.453 225.845 692.672C225.455 691.762 223.892 690.981 222.46 690.981C220.898 690.981 219.335 692.152 218.815 693.974C218.164 695.535 216.731 697.227 215.56 697.878C214.258 698.398 211.914 698.788 210.091 698.788C207.748 698.788 206.315 697.617 204.883 694.885Z" fill="#85195A" fill-opacity="0.2"/>
<path d="M299.928 694.885C298.756 692.542 296.934 690.981 295.371 690.981C293.288 690.981 292.767 691.892 292.767 694.885C292.767 697.487 294.069 700.09 296.673 702.692C299.798 705.815 301.621 706.596 306.178 706.596C309.433 706.466 312.688 705.555 314.38 704.254C315.812 703.083 318.026 700.48 319.197 698.528C320.369 696.446 321.15 693.974 320.76 692.933C320.369 691.892 319.067 690.981 317.895 690.981C316.593 690.981 314.25 692.672 312.688 694.885C310.474 697.747 308.651 698.788 305.787 698.788C302.792 698.788 301.49 697.878 299.928 694.885Z" fill="#85195A" fill-opacity="0.2"/>
<path d="M222.07 723.903C221.549 722.992 220.377 722.212 219.596 722.212C218.684 722.212 212.695 725.074 206.185 728.458C199.806 731.841 191.343 736.396 187.697 738.478C183.921 740.69 180.797 742.772 180.797 743.422C180.797 743.943 181.578 744.724 182.489 745.114C183.27 745.504 186.005 744.854 188.348 743.813C190.562 742.642 192.775 741.731 193.165 741.731C193.556 741.731 193.556 743.162 193.165 744.984C192.775 746.806 193.165 748.497 193.816 748.888C194.598 749.278 203.061 745.244 212.695 740.169C225.064 733.403 230.272 730.019 230.272 728.458C230.272 727.156 229.751 726.115 228.97 726.115C228.319 726.115 225.975 727.026 223.762 728.067C221.679 729.108 219.466 729.759 218.945 729.369C218.294 728.978 219.075 727.937 220.377 727.026C221.679 726.245 222.46 724.684 222.07 723.903Z" fill="#85195A" fill-opacity="0.2"/>
<path d="M62.9672 727.417C61.7954 725.074 59.9727 723.513 58.4103 723.513C57.1083 723.513 55.6761 724.033 55.1553 724.814C54.7647 725.595 55.2855 728.067 56.1969 730.41C57.1083 732.622 59.3217 735.615 61.1444 736.916C62.837 738.087 66.2222 739.128 68.5658 739.128C70.7791 739.128 74.5549 738.217 76.638 737.176C78.7212 736.135 81.4554 733.403 82.4969 731.32C83.5385 729.238 84.1895 726.506 83.7989 725.465C83.4083 724.424 82.1064 723.513 80.9346 723.513C79.6326 723.513 77.289 725.204 75.7267 727.417C73.5133 730.279 71.6905 731.32 68.8261 731.32C65.8316 731.32 64.5296 730.41 62.9672 727.417Z" fill="#85195A" fill-opacity="0.2"/>
<path d="M133.665 727.417C133.405 724.814 132.493 724.033 129.368 723.773C126.504 723.513 121.296 725.855 110.49 731.971C102.287 736.526 94.7356 741.34 93.9544 742.642C92.6524 744.594 92.6524 745.504 94.2148 747.977C95.2564 749.538 97.0792 750.84 98.1208 750.84C99.1623 750.84 106.714 747.196 114.786 742.772C122.728 738.347 130.41 733.793 131.712 732.752C133.144 731.451 133.925 729.369 133.665 727.417Z" fill="#85195A" fill-opacity="0.2"/>
<path d="M158.012 727.417C156.97 725.204 155.017 723.513 153.715 723.513C152.413 723.513 150.851 723.903 150.2 724.424C149.549 724.814 149.158 726.376 149.289 727.677C149.419 728.978 151.632 732.101 154.106 734.574C157.621 738.087 159.705 739.128 163.22 739.128C165.694 739.128 169.339 738.347 171.422 737.306C173.375 736.396 175.719 733.923 176.76 731.841C177.672 729.759 178.062 727.026 177.672 725.855C177.281 724.554 175.979 723.513 174.938 723.513C173.896 723.513 171.813 725.335 170.381 727.417C168.428 730.279 166.735 731.32 163.871 731.32C160.876 731.32 159.574 730.41 158.012 727.417Z" fill="#85195A" fill-opacity="0.2"/>
<path d="M252.406 726.766C251.625 724.814 250.062 723.513 248.5 723.513C247.068 723.513 245.505 724.554 245.115 725.855C244.594 727.026 245.115 729.759 246.026 731.841C247.068 733.923 249.411 736.396 251.494 737.306C253.447 738.347 256.832 739.128 258.916 739.128C261.129 739.128 264.384 738.347 266.467 737.306C268.42 736.396 270.764 733.923 271.805 731.841C272.717 729.759 273.107 727.026 272.717 725.855C272.326 724.554 270.894 723.513 269.722 723.513C268.42 723.513 266.597 724.944 265.816 726.766C264.905 728.588 262.822 730.41 261.259 730.8C259.567 731.32 257.223 731.32 256.051 730.8C254.749 730.41 253.187 728.588 252.406 726.766Z" fill="#85195A" fill-opacity="0.2"/>
<path d="M323.754 727.417C323.494 724.814 322.583 724.033 319.458 723.773C316.724 723.643 311.646 725.725 301.881 731.32C294.33 735.485 287.169 739.649 285.997 740.429C284.695 741.08 283.653 743.032 283.653 744.724C283.653 746.285 284.304 748.367 285.216 749.278C286.127 750.189 287.689 750.84 288.601 750.84C289.382 750.84 297.064 747.066 305.527 742.512C313.859 737.827 321.541 733.403 322.452 732.362C323.364 731.451 323.885 729.238 323.754 727.417Z" fill="#85195A" fill-opacity="0.2"/>
<path d="M347.45 726.766C346.539 724.554 345.107 723.513 342.894 723.513C340.55 723.513 339.639 724.163 339.639 726.115C339.639 727.547 340.42 730.279 341.461 732.362C342.373 734.313 344.716 736.656 346.669 737.567C348.492 738.347 352.007 739.128 354.351 739.128C356.564 739.128 359.819 738.217 361.512 737.176C363.074 736.135 365.288 733.272 366.459 731.06C367.501 728.718 368.152 725.985 367.761 725.204C367.371 724.294 365.808 723.513 364.376 723.513C362.814 723.513 361.251 724.814 360.47 726.766C359.819 728.588 357.866 730.41 356.304 730.8C354.611 731.32 352.268 731.32 351.096 730.8C349.794 730.41 348.101 728.588 347.45 726.766Z" fill="#85195A" fill-opacity="0.2"/>
<path d="M36.9276 728.718C36.537 727.937 35.886 727.417 35.3652 727.547C34.7142 727.547 26.2513 731.841 16.4864 736.916C6.72155 742.121 -2.00174 747.066 -3.04333 747.977C-4.17171 749.018 -4.30191 749.972 -3.43392 750.84C-2.52253 751.881 -0.699754 751.49 2.6854 749.929C5.41957 748.628 8.02352 747.977 8.54431 748.497C9.1953 749.018 8.80473 750.319 8.02354 751.49C6.59136 753.052 6.72154 753.572 8.67452 754.353C10.1067 754.874 16.877 752.011 27.8137 746.285C37.0578 741.47 45.3904 736.916 46.0414 736.395C46.9528 735.745 46.8226 734.704 45.781 733.272C44.2187 731.581 43.6979 731.581 39.9221 733.793C37.5785 735.224 35.235 736.135 34.7142 735.745C34.0632 735.485 34.584 734.053 35.6256 732.622C36.6671 731.19 37.3181 729.499 36.9276 728.718Z" fill="#85195A" fill-opacity="0.2"/>
<path d="M50.989 757.346C48.9058 755.785 46.432 754.744 45.3904 754.744C44.3488 754.744 42.1355 755.524 40.5731 756.435C39.1409 757.346 37.0578 759.949 36.0162 762.291C34.4538 766.065 34.584 766.845 37.0578 770.099C39.1409 772.701 41.0939 773.742 44.8697 774.003C48.385 774.263 50.7286 773.612 52.291 772.051C53.7231 770.619 54.6345 767.887 54.5043 764.894C54.5043 760.99 53.7231 759.298 50.989 757.346Z" fill="#85195A" fill-opacity="0.2"/>
<path d="M146.034 757.346C143.951 755.785 141.477 754.613 140.305 754.744C139.133 754.744 136.659 755.915 134.706 757.476C131.842 759.558 131.061 761.12 131.191 764.894C131.191 767.756 132.233 770.619 133.535 771.921C134.837 773.222 137.961 774.263 140.435 774.263C143.169 774.263 145.904 773.482 147.205 772.051C148.507 770.749 149.549 767.626 149.549 764.894C149.549 760.99 148.768 759.428 146.034 757.346Z" fill="#85195A" fill-opacity="0.2"/>
<path d="M240.037 756.435C238.214 755.524 236.001 754.744 235.089 754.744C234.048 754.744 231.704 755.915 229.751 757.476C226.887 759.558 226.106 761.12 226.236 764.894C226.236 767.756 227.277 770.619 228.579 771.921C229.881 773.222 233.006 774.263 235.871 774.263C239.646 774.263 241.209 773.482 243.292 770.749C244.854 768.667 246.026 766.325 245.896 765.544C245.896 764.633 245.245 762.551 244.594 760.99C243.813 759.298 241.86 757.216 240.037 756.435Z" fill="#85195A" fill-opacity="0.2"/>
<path d="M335.082 756.435C333.259 755.524 331.046 754.744 330.134 754.744C329.093 754.744 326.749 755.915 324.796 757.476C321.932 759.558 321.15 761.12 321.281 764.633C321.411 767.236 322.452 770.099 324.015 771.66C325.577 773.222 328.442 774.263 330.915 774.263C333.259 774.393 335.993 773.352 337.165 772.051C338.337 770.749 339.639 768.407 340.159 766.845C340.55 765.154 340.29 762.551 339.639 760.99C338.857 759.298 336.904 757.216 335.082 756.435Z" fill="#85195A" fill-opacity="0.2"/>
<path d="M93.1732 781.42C92.392 780.249 90.439 779.338 89.0068 779.468C87.5747 779.468 79.3722 783.502 70.7791 788.317C56.5875 796.385 55.1553 797.426 55.1553 800.809C55.1553 802.891 56.0667 805.233 57.3687 806.014C59.0612 807.185 61.4048 806.404 69.0865 802.371C74.2945 799.508 82.1064 795.083 86.4029 792.611C90.6994 790.008 94.345 786.885 94.4752 785.584C94.7356 784.413 94.0846 782.461 93.1732 781.42Z" fill="#85195A" fill-opacity="0.2"/>
<path d="M189.65 783.372C189.39 780.769 188.478 779.988 185.354 779.728C182.489 779.468 177.281 781.81 165.824 788.317C153.455 795.474 150.07 797.946 149.809 800.419C149.679 802.11 150.2 804.322 151.111 805.233C152.023 806.144 153.585 806.925 154.497 806.795C155.278 806.795 162.96 803.021 171.422 798.467C179.755 793.782 187.437 789.358 188.348 788.317C189.26 787.406 189.78 785.194 189.65 783.372Z" fill="#85195A" fill-opacity="0.2"/>
<path d="M284.304 784.022C284.304 780.639 283.783 780.119 280.398 779.858C277.664 779.598 271.935 782.07 260.869 788.447C246.677 796.385 245.245 797.556 245.245 800.939C245.245 803.021 246.286 805.233 247.458 806.014C249.411 807.185 252.145 806.274 261.78 801.069C268.42 797.556 276.232 793.131 279.096 791.31C283.263 788.577 284.304 787.015 284.304 784.022Z" fill="#85195A" fill-opacity="0.2"/>
<path d="M379.74 784.413C379.349 780.639 378.828 780.119 375.443 779.728C373.1 779.598 369.454 780.639 366.329 782.461C363.465 784.153 356.304 788.317 350.315 791.83C342.112 796.515 339.508 798.727 339.508 800.809C339.639 802.37 340.29 804.322 341.201 805.233C342.112 806.144 343.805 806.795 344.846 806.795C345.888 806.795 354.221 802.631 363.465 797.686C379.74 788.707 380 788.447 379.74 784.413Z" fill="#85195A" fill-opacity="0.2"/>
<path d="M15.8354 800.288C14.5334 798.206 12.4503 796.385 11.1483 796.385C9.8463 796.385 8.54434 797.426 8.15375 798.727C7.63295 799.898 8.15374 802.631 9.06513 804.713C10.1067 806.795 12.4503 809.267 14.5335 810.178C16.4864 811.219 20.132 812 22.7359 812C26.3815 812 28.4647 810.959 31.8498 807.446C34.3236 804.973 36.2766 801.72 36.2766 800.288C36.2766 798.857 35.235 797.295 34.0632 796.905C32.3706 796.254 30.8082 797.165 28.4647 800.158C26.2513 802.891 24.0379 804.192 21.6944 804.192C19.0904 804.192 17.3978 803.151 15.8354 800.288Z" fill="#85195A" fill-opacity="0.2"/>
<path d="M110.88 800.288C109.578 798.206 107.495 796.385 106.193 796.385C104.891 796.385 103.589 797.426 103.198 798.727C102.678 799.898 103.198 802.631 104.11 804.713C105.151 806.795 107.495 809.267 109.578 810.178C111.531 811.219 114.656 812 116.739 812C118.692 812 122.338 810.699 124.811 809.007C127.285 807.445 129.889 804.453 130.67 802.501C131.538 800.158 131.538 798.51 130.67 797.556C129.889 796.775 128.197 796.515 126.764 796.905C125.332 797.295 123.64 798.987 122.858 800.549C121.947 802.631 120.254 803.672 117.39 803.932C113.875 804.192 112.703 803.542 110.88 800.288Z" fill="#85195A" fill-opacity="0.2"/>
<path d="M204.883 800.288C203.712 797.946 201.889 796.385 200.326 796.385C198.243 796.385 197.722 797.296 197.722 800.288C197.722 802.501 199.024 805.624 200.717 807.576C202.54 809.658 205.534 811.089 208.789 811.61C212.261 812.043 215.429 811.566 218.294 810.178C220.507 809.007 223.371 806.274 224.413 804.192C225.455 802.11 226.106 799.378 225.715 798.337C225.324 797.296 223.892 796.385 222.46 796.385C220.898 796.385 219.205 797.816 218.164 800.028C216.862 802.761 215.56 803.672 211.654 803.932C207.487 804.192 206.576 803.672 204.883 800.288Z" fill="#85195A" fill-opacity="0.2"/>
<path d="M299.928 800.288C298.756 797.946 296.934 796.385 295.371 796.385C293.288 796.385 292.767 797.296 292.767 800.288C292.767 802.501 294.069 805.624 295.762 807.576C297.585 809.658 300.579 811.089 303.834 811.61C307.306 812.043 310.474 811.566 313.339 810.178C315.552 809.007 318.416 806.274 319.458 804.192C320.499 802.11 321.15 799.378 320.76 798.337C320.369 797.296 319.067 796.385 317.895 796.385C316.593 796.385 314.25 798.076 312.688 800.288C310.474 803.151 308.651 804.192 305.787 804.192C302.792 804.192 301.49 803.281 299.928 800.288Z" fill="#85195A" fill-opacity="0.2"/>
</svg>
