<svg width="71" height="70" viewBox="0 0 71 70" fill="none" xmlns="http://www.w3.org/2000/svg">
<path fill-rule="evenodd" clip-rule="evenodd" d="M9.53777 0.338256C8.42693 0.606908 6.68787 1.54917 5.7359 2.39847C4.60865 3.4039 3.60814 4.92449 3.15013 6.32804C2.83158 7.30435 2.78263 7.68347 2.77634 9.22853C2.76978 10.8136 2.80793 11.1143 3.12867 12.0087C3.65066 13.4637 4.26138 14.4169 5.4265 15.5954C6.22699 16.405 6.71439 16.7635 7.614 17.204C9.19884 17.98 10.1009 18.1836 11.9547 18.1836H13.5082L13.4813 40.3662L13.4544 62.5488L13.7465 63.3134C14.2928 64.7432 15.3442 65.9144 16.5837 66.474C17.1954 66.7501 17.5679 66.7833 21.2812 66.8932C23.4995 66.9588 29.5356 66.9802 34.695 66.9407C43.4673 66.8734 44.1197 66.8519 44.7567 66.6099C47.0203 65.7498 48.2148 63.8315 48.2148 61.0567C48.2148 60.2539 48.1529 59.7219 48.0439 59.587C47.95 59.4708 47.4424 59.2643 46.916 59.1281C46.0275 58.8985 44.8696 58.8766 30.749 58.8224H16.9998V55.0004C16.9939 52.9957 17.0278 44.0475 16.9998 34.7078L17.4196 16.1532L16.1952 17.073C17.3325 16.432 19.0552 14.636 19.6807 13.4395C22.4029 8.23158 19.6005 1.81496 13.9623 0.346323C12.9798 0.0905217 10.5809 0.0861467 9.53777 0.338256ZM10.7186 1.9246C8.84912 2.1346 6.77947 3.48771 5.61654 5.26054C4.29187 7.2796 4.14162 10.1346 5.24125 12.3896C6.04324 14.0343 7.90863 15.6102 9.69609 16.1532C10.4536 16.3833 10.885 16.4261 11.9577 16.3781C13.5938 16.3047 14.5353 16.0105 15.7567 15.1911C17.6419 13.9263 18.8053 11.8876 18.925 9.63869C19.0062 8.11468 18.8106 7.12675 18.1769 5.85992C17.6116 4.72994 16.3536 3.38175 15.3459 2.82585C13.9776 2.07103 12.3091 1.74605 10.7186 1.9246ZM18.9539 2.63185C20.0164 3.70605 20.8309 5.28871 21.2155 7.02695C21.4013 7.86681 21.436 8.44363 21.3716 9.6246C21.3261 10.4594 21.2492 11.3117 21.2007 11.5186L21.1127 11.8945H33.6383H44.2327L44.4998 22.5004C44.4998 28.3841 44.4998 32.2639 44.9998 32.5004C45.0185 32.4995 46.5948 32.4885 47.0378 32.2639C47.4808 32.0392 47.9268 31.8555 48.029 31.8555C48.1843 31.8555 48.2148 29.7764 48.2148 19.2095C48.2148 6.6522 48.2128 6.55759 47.9227 5.70857C47.5419 4.59404 46.8884 3.71015 45.9845 3.08767C44.6381 2.16044 45.1425 2.19093 31.1429 2.18915L18.5145 2.18751L18.9539 2.63185ZM25.6378 5.15499C25.111 5.23607 24.2297 6.04996 24.0559 6.6157C23.7631 7.56999 24.2013 8.55136 25.1456 9.05585C25.7175 9.36142 25.7878 9.36525 30.8515 9.36525H35.9785L36.6148 8.99119C38.223 8.04578 38.1058 6.09302 36.3943 5.31564C35.8885 5.08581 35.4256 5.06613 30.9199 5.08212C28.2129 5.09169 25.8359 5.12451 25.6378 5.15499ZM12.795 8.12986L10.3072 10.6541L9.19748 9.63581C7.99422 8.53154 7.56738 8.38183 7.06248 8.88673C6.54609 9.40312 6.73736 9.71675 8.63187 11.4596C9.64113 12.3882 10.0911 12.7149 10.3612 12.7149C10.6568 12.7149 11.2761 12.1513 13.6113 9.75722C16.6478 6.64413 16.7847 6.44097 16.2226 5.87892C15.6535 5.30976 15.4287 5.45728 12.795 8.12986ZM25.3828 6.56251C25.2324 6.7129 25.1094 6.93234 25.1094 7.05005C25.1094 7.31324 25.3708 7.82593 25.5742 7.96183C25.6569 8.01706 28.0353 8.06314 30.8596 8.06437C34.9729 8.06601 36.0451 8.02951 36.2486 7.88076C36.617 7.61128 36.5847 6.85988 36.1912 6.54119C35.901 6.30617 35.5321 6.28908 30.768 6.28908C25.8385 6.28908 25.6465 6.29878 25.3828 6.56251ZM28.5656 16.9516C24.6768 18.0999 21.7115 21.3228 21.1325 25.0309C20.4652 29.3035 23.04 33.5502 27.3424 35.273C30.0217 36.3459 33.7418 36.101 35.9334 34.7078L36.572 34.3019L36.2415 33.5803C35.7805 32.5733 35.6967 31.7786 35.9573 30.8851C36.2567 29.8577 36.8728 28.9456 37.6462 28.3841C38.4631 27.7908 39.279 27.5505 40.4061 27.5709L41.2789 27.5867L41.2013 26.0639C41.0812 23.7075 40.4193 22.0328 38.9189 20.2909C37.5039 18.6479 35.4934 17.4035 33.4404 16.8998C32.1897 16.593 29.6904 16.6195 28.5656 16.9516ZM34.4512 20.3662C34.288 20.4348 33.8912 20.8793 33.5694 21.354C32.9301 22.2971 28.5522 28.4393 28.3948 28.614C28.3412 28.6735 27.9109 28.1359 27.4384 27.4194C26.9659 26.7028 26.4361 25.9621 26.2611 25.7731C25.8155 25.2924 25.2038 25.3143 24.6887 25.8293C23.9827 26.5353 24.0912 26.9121 25.6774 29.2626C27.1042 31.377 27.6596 31.9922 28.1412 31.9922C28.8118 31.9922 29.2964 31.5479 30.5698 29.7655C31.2795 28.7719 32.7734 26.6853 33.8894 25.1286C36.0257 22.149 36.3565 21.5715 36.1841 21.1231C35.9386 20.4838 35.0718 20.1052 34.4512 20.3662ZM39.1233 29.6099C38.2268 30.0775 37.6949 30.9373 37.6919 31.9238C37.6895 32.6595 37.8673 33.0123 41.3789 39.2383C46.2041 47.7937 46.3008 48.018 46.3008 50.6518V52.2074L45.8888 52.0893C45.335 51.9304 43.989 51.0124 43.6693 50.5754C43.2718 50.032 43.1587 49.276 43.2492 47.7676L43.3322 46.3847L41.9007 43.8711C41.1134 42.4886 40.203 40.8652 39.8777 40.2637C38.7818 38.2367 38.3928 37.9268 37.0814 38.0356C35.7725 38.1441 34.9043 39.0848 34.8988 40.4004C34.8957 41.1376 35.2678 41.9282 37.3908 45.6939C38.3527 47.4001 38.3711 47.451 38.3711 48.4086C38.3711 50.4118 39.1889 52.3276 40.7437 53.9666C42.6029 55.9263 43.7083 56.4109 51.1258 58.5174L53.1483 59.0918L56.3211 55.8759C59.7846 52.3658 60.3906 51.9058 61.7628 51.7466L62.5561 51.6545L62.6969 50.9493C63.4081 47.3878 63.225 44.2101 62.1616 41.6556C61.3603 39.7308 59.3567 36.8206 57.0332 34.2068C56.1537 33.2173 54.9128 32.8353 53.8634 33.231C52.9531 33.5743 52.0551 34.8514 52.0429 35.8203L52.0369 36.2988L51.7669 35.7038C50.9255 33.8495 49.3708 33.0701 47.8718 33.7511C46.929 34.1794 46.4017 34.9349 46.0987 36.2913C46.0158 36.6621 45.868 36.4572 44.2327 33.7038C43.256 32.0591 42.3322 30.5383 42.1798 30.3244C41.5837 29.4872 40.0474 29.1281 39.1233 29.6099ZM24.5625 41.3574V42.3828H28.9527H33.343L33.251 41.8701C33.2004 41.5882 33.0989 41.1268 33.0254 40.8447L32.8918 40.332H28.7271H24.5625V41.3574ZM19.6406 41.6309V42.3828H20.2558H20.8711V41.6309V40.8789H20.2558H19.6406V41.6309ZM21.4588 44.7016C20.663 45.1868 20.3936 46.1418 20.7873 47.0836C21.1902 48.048 22.5497 48.5203 23.4687 48.0152C24.7289 47.3227 24.815 45.2642 23.61 44.641C23.042 44.3473 21.9912 44.3769 21.4588 44.7016ZM28.1855 45.4105C27.4872 45.7957 27.361 46.561 27.9059 47.1058L28.2414 47.4414H32.2126C34.3967 47.4414 36.1836 47.3892 36.1836 47.3255C36.1836 47.2616 35.9516 46.7849 35.6679 46.2659L35.1522 45.3223L31.8056 45.291C29.5649 45.2699 28.3686 45.3094 28.1855 45.4105ZM19.7773 50.4492C19.6269 50.5996 19.5039 50.8457 19.5039 50.9961C19.5039 51.3018 19.9566 51.8164 20.2253 51.8164C20.6 51.8164 21.0078 51.3889 21.0078 50.9961C21.0078 50.7433 20.8985 50.525 20.7039 50.3887C20.3023 50.1073 20.1064 50.1202 19.7773 50.4492ZM24.4258 51.2012V52.2266H30.9135H37.4012L37.0325 51.2012L36.6636 50.1758H30.5447H24.4258V51.2012ZM61.7597 53.4726C61.502 53.5506 61.0405 53.7872 60.7343 53.9986C60.0056 54.5017 52.5908 62.1116 52.2879 62.6672C51.8489 63.4725 52.0944 64.7247 52.8195 65.3806C53.1944 65.7195 54.0166 66.0352 54.5247 66.0352C55.4926 66.0352 56.0205 65.5856 60.9595 60.5549C63.6125 57.8527 65.8395 55.5174 65.9084 55.3655C66.0092 55.1436 65.9419 54.9936 65.5666 54.6027C64.6362 53.6335 62.9166 53.123 61.7597 53.4726ZM29.7589 60.7279C28.2782 61.4923 27.9731 63.421 29.1471 64.5951C30.6374 66.0855 33.1763 64.9983 33.1755 62.87C33.1749 61.094 31.312 59.9262 29.7589 60.7279ZM30.0418 62.0141C29.7201 62.2848 29.6211 62.4803 29.6211 62.845C29.6211 63.48 30.2392 64.1211 30.8515 64.1211C31.4397 64.1211 32.082 63.4788 32.082 62.8906C32.082 62.5964 31.9551 62.3326 31.6824 62.0598C31.1728 61.5504 30.6115 61.5347 30.0418 62.0141Z" fill="#8D1B60"/>
</svg>
