<svg width="29" height="28" viewBox="0 0 29 28" fill="none" xmlns="http://www.w3.org/2000/svg">
<path d="M18.1666 7.00001C18.1666 9.02505 16.525 10.6667 14.5 10.6667V12.6667C17.6296 12.6667 20.1666 10.1296 20.1666 7.00001H18.1666ZM14.5 10.6667C12.4749 10.6667 10.8333 9.02505 10.8333 7.00001H8.83331C8.83331 10.1296 11.3704 12.6667 14.5 12.6667V10.6667ZM10.8333 7.00001C10.8333 4.97497 12.4749 3.33334 14.5 3.33334V1.33334C11.3704 1.33334 8.83331 3.8704 8.83331 7.00001H10.8333ZM14.5 3.33334C16.525 3.33334 18.1666 4.97497 18.1666 7.00001H20.1666C20.1666 3.8704 17.6296 1.33334 14.5 1.33334V3.33334ZM11 16.1667H18V14.1667H11V16.1667ZM18 23.5H11V25.5H18V23.5ZM11 23.5C8.97494 23.5 7.33331 21.8584 7.33331 19.8333H5.33331C5.33331 22.963 7.87037 25.5 11 25.5V23.5ZM21.6666 19.8333C21.6666 21.8584 20.025 23.5 18 23.5V25.5C21.1296 25.5 23.6666 22.963 23.6666 19.8333H21.6666ZM18 16.1667C20.025 16.1667 21.6666 17.8083 21.6666 19.8333H23.6666C23.6666 16.7037 21.1296 14.1667 18 14.1667V16.1667ZM11 14.1667C7.87037 14.1667 5.33331 16.7037 5.33331 19.8333H7.33331C7.33331 17.8083 8.97494 16.1667 11 16.1667V14.1667Z" fill="#585858"/>
</svg>
