<svg width="259" height="259" viewBox="0 0 259 259" fill="none" xmlns="http://www.w3.org/2000/svg">
<g style="mix-blend-mode:multiply" opacity="0.28">
<path d="M172.19 29.0004H19.2531V180.401H172.19V29.0004Z" fill="#7B1854"/>
</g>
<path d="M182.944 18.2806H30.007V169.681H182.944V18.2806Z" fill="#F8DBED"/>
<path d="M165.063 116.232H170.139V101.696H165.063V116.232Z" fill="#7B1854"/>
<path d="M160.017 85.923H165.092V70.565H160.017V85.923Z" fill="#7B1854"/>
<path d="M160.016 96.1929H165.092V80.8348H160.016V96.1929Z" fill="#7B1854"/>
<path d="M170.132 75.6248V70.565H144.745V75.6248H170.132Z" fill="#7B1854"/>
<path d="M139.67 75.6322V70.5724H114.283V75.6322H139.67Z" fill="#7B1854"/>
<path d="M134.587 80.6635V75.6037H119.23V80.6635H134.587Z" fill="#7B1854"/>
<path d="M129.439 85.7377V80.6779H119.223V85.7377H129.439Z" fill="#7B1854"/>
<path d="M149.879 116.118V80.6779H144.817V116.118H149.879Z" fill="#7B1854"/>
<path d="M88.918 156.689V121.249H83.8564V156.689H88.918Z" fill="#7B1854"/>
<path d="M149.879 85.802V80.6779H134.486V85.802H149.879Z" fill="#7B1854"/>
<path d="M160.052 116.125V111.38H144.817V116.125H160.052Z" fill="#7B1854"/>
<path d="M139.72 116.118V111.372H124.485V116.118H139.72Z" fill="#7B1854"/>
<path d="M104.038 116.118V131.411H114.419V116.118H104.038Z" fill="#7B1854"/>
<path d="M109.307 131.411V111.372H104.038V131.411H109.307Z" fill="#7B1854"/>
<path d="M109.307 126.387V121.256H94.008V126.387H109.307Z" fill="#7B1854"/>
<path d="M149.814 105.998V101.252H114.268V105.998H149.814Z" fill="#7B1854"/>
<path d="M104.117 105.998V101.067H78.68V105.998H104.117Z" fill="#7B1854"/>
<path d="M73.5822 105.998V101.067H58.3402V105.998H73.5822Z" fill="#7B1854"/>
<path d="M73.5822 105.998V95.4352H68.4776V105.998H73.5822Z" fill="#7B1854"/>
<path d="M63.3804 110.972V95.4352H58.2758V110.972H63.3804Z" fill="#7B1854"/>
<path d="M154.818 110.972V126.352H159.744V110.972H154.818Z" fill="#7B1854"/>
<path d="M154.818 121.228V126.345H169.931V121.228H154.818Z" fill="#7B1854"/>
<path d="M154.811 136.471V141.588H169.924V136.471H154.811Z" fill="#7B1854"/>
<path d="M48.1812 110.972V100.938H43.0766V110.972H48.1812Z" fill="#7B1854"/>
<path d="M170.011 156.81V131.418H164.906V156.81H170.011Z" fill="#7B1854"/>
<path d="M164.906 156.811V151.679H139.462V156.811H164.906Z" fill="#7B1854"/>
<path d="M144.559 146.798V131.418H139.454V146.798H144.559Z" fill="#7B1854"/>
<path d="M139.454 146.798V151.679H154.747V146.798H139.454Z" fill="#7B1854"/>
<path d="M109.078 146.798V151.679H119.23V146.798H109.078Z" fill="#7B1854"/>
<path d="M88.8675 146.798V151.679H99.0193V146.798H88.8675Z" fill="#7B1854"/>
<path d="M114.269 146.798V156.76H119.194V146.798H114.269Z" fill="#7B1854"/>
<path d="M114.139 146.791V141.752H98.9189V146.791H114.139Z" fill="#7B1854"/>
<path d="M53.2789 106.098V90.8399H48.1743V106.098H53.2789Z" fill="#7B1854"/>
<path d="M68.4925 106.005V111.022H78.6873V106.005H68.4925Z" fill="#7B1854"/>
<path d="M139.612 95.528V90.7827H119.294V95.528H139.612Z" fill="#7B1854"/>
<path d="M83.8058 95.528V90.7827H73.568V95.528H83.8058Z" fill="#7B1854"/>
<path d="M53.1854 95.528V90.7827H42.9476V95.528H53.1854Z" fill="#7B1854"/>
<path d="M58.3044 100.181V95.4352H48.1669V100.181H58.3044Z" fill="#7B1854"/>
<path d="M119.287 105.998V95.521H114.261V105.998H119.287Z" fill="#7B1854"/>
<path d="M109.078 80.785V95.5285H114.276V80.785H109.078Z" fill="#7B1854"/>
<path d="M88.8101 80.785V95.5285H94.0079V80.785H88.8101Z" fill="#7B1854"/>
<path d="M73.4824 85.7087V95.521H78.673V85.7087H73.4824Z" fill="#7B1854"/>
<path d="M63.3517 85.7087V95.521H68.5423V85.7087H63.3517Z" fill="#7B1854"/>
<path d="M63.3517 85.716V80.7705H58.3905V85.716H63.3517Z" fill="#7B1854"/>
<path d="M83.7054 75.6752V70.7298H78.7442V75.6752H83.7054Z" fill="#7B1854"/>
<path d="M99.0263 75.6752V70.7298H94.0651V75.6752H99.0263Z" fill="#7B1854"/>
<path d="M104.124 70.7294V65.6339H99.0267V70.7294H104.124Z" fill="#7B1854"/>
<path d="M99.0194 65.634V55.4501H94.0582V65.634H99.0194Z" fill="#7B1854"/>
<path d="M83.7054 60.4815V70.7298H88.9176V60.4815H83.7054Z" fill="#7B1854"/>
<path d="M104.088 60.4815V55.3431H88.9175V60.4815H104.088Z" fill="#7B1854"/>
<path d="M104.095 60.4744V75.7181H109.107V60.4744H104.095Z" fill="#7B1854"/>
<path d="M83.7628 50.319V55.3431H88.9176V50.319H83.7628Z" fill="#7B1854"/>
<path d="M99.055 50.319V55.3431H109.207V50.319H99.055Z" fill="#7B1854"/>
<path d="M114.233 50.312V35.1111H109.2V50.312H114.233Z" fill="#7B1854"/>
<path d="M129.554 65.584V55.3929H124.521V65.584H129.554Z" fill="#7B1854"/>
<path d="M119.402 65.577V50.3119H114.233V65.577H119.402Z" fill="#7B1854"/>
<path d="M124.427 40.2562V30.208H119.394V40.2562H124.427Z" fill="#7B1854"/>
<path d="M114.233 40.271V35.1111H99.2275V40.271H114.233Z" fill="#7B1854"/>
<path d="M94.0726 40.271V35.1111H83.8132V40.271H94.0726Z" fill="#7B1854"/>
<path d="M94.0295 40.271V30.1657H88.9608V40.271H94.0295Z" fill="#7B1854"/>
<path d="M119.33 40.2708V45.2663H124.428V40.2708H119.33Z" fill="#7B1854"/>
<path d="M119.402 35.2751V40.2705H129.597V35.2751H119.402Z" fill="#7B1854"/>
<path d="M119.402 45.2663V50.3119H129.597V45.2663H119.402Z" fill="#7B1854"/>
<path d="M88.918 45.2947V50.3187H94.0727V45.2947H88.918Z" fill="#7B1854"/>
<path d="M94.0726 40.2708V45.2949H99.2273V40.2708H94.0726Z" fill="#7B1854"/>
<path d="M104.153 30.1151V35.1392H109.308V30.1151H104.153Z" fill="#7B1854"/>
<path d="M68.4705 70.6507V85.7729H73.6611V70.6507H68.4705Z" fill="#7B1854"/>
<path d="M43.0696 70.6578V85.78H48.2603V70.6578H43.0696Z" fill="#7B1854"/>
<path d="M53.2792 95.9648V80.7782H48.1889V95.9648H53.2792Z" fill="#7B1854"/>
<path d="M109.071 101.089V95.5285H93.9579V101.089H109.071Z" fill="#7B1854"/>
<path d="M88.8176 101.081V95.521H83.756V101.081H88.8176Z" fill="#7B1854"/>
<path d="M104.203 80.7848V85.716H114.268V80.7848H104.203Z" fill="#7B1854"/>
<path d="M104.124 105.991V116.125H109.322V105.991H104.124Z" fill="#7B1854"/>
<path d="M99.2559 105.998V110.929H109.322V105.998H99.2559Z" fill="#7B1854"/>
<path d="M149.714 116.082V110.929H113.824V116.082H149.714Z" fill="#7B1854"/>
<path d="M149.721 116.089V136.593H154.818V116.089H149.721Z" fill="#7B1854"/>
<path d="M124.248 116.089V136.593H129.346V116.089H124.248Z" fill="#7B1854"/>
<path d="M144.616 116.089V136.593H149.714V116.089H144.616Z" fill="#7B1854"/>
<path d="M119.108 131.404V136.593H149.721V131.404H119.108Z" fill="#7B1854"/>
<path d="M99.0481 141.745V136.593H83.9064V141.745H99.0481Z" fill="#7B1854"/>
<path d="M78.6725 80.7922V85.7234H93.9146V80.7922H78.6725Z" fill="#7B1854"/>
<path d="M129.446 105.998V90.7827H124.42V105.998H129.446Z" fill="#7B1854"/>
<path d="M119.438 156.768V131.405H114.412V156.768H119.438Z" fill="#7B1854"/>
<path d="M119.438 151.715V146.598H104.138V151.715H119.438Z" fill="#7B1854"/>
<path d="M109.121 156.775V141.531H104.095V156.775H109.121Z" fill="#7B1854"/>
<path d="M154.876 111.401V106.656H144.81V111.401H154.876Z" fill="#7B1854"/>
<path d="M149.871 90.7901V85.7303H139.605V90.7901H149.871Z" fill="#7B1854"/>
<path d="M124.406 90.7832V85.7234H109.085V90.7832H124.406Z" fill="#7B1854"/>
<path d="M99.0624 90.7832V85.7234H83.7415V90.7832H99.0624Z" fill="#7B1854"/>
<path d="M170.132 85.959V80.8992H154.969V85.959H170.132Z" fill="#7B1854"/>
<path d="M48.0238 30.1582H42.9479V65.5911H48.0238V30.1582Z" fill="#7B1854"/>
<path d="M78.4866 30.1582H73.4106V65.5911H78.4866V30.1582Z" fill="#7B1854"/>
<path d="M78.4866 35.2112V30.1514L42.9409 30.1514V35.2112H78.4866Z" fill="#7B1854"/>
<path d="M78.4866 65.584V60.5242H42.9409V65.584H78.4866Z" fill="#7B1854"/>
<path d="M68.3275 40.1132H53.0138V55.3784H68.3275V40.1132Z" fill="#7B1854"/>
<path d="M48.0238 121.385H42.9479V156.818H48.0238V121.385Z" fill="#7B1854"/>
<path d="M78.4866 121.385H73.4106V156.818H78.4866V121.385Z" fill="#7B1854"/>
<path d="M78.4866 126.445V121.385H42.9409V126.445H78.4866Z" fill="#7B1854"/>
<path d="M78.4935 156.818V151.758H42.9478V156.818H78.4935Z" fill="#7B1854"/>
<path d="M68.3277 131.34H53.014V146.605H68.3277V131.34Z" fill="#7B1854"/>
<path d="M139.419 30.1582H134.343V65.5911H139.419V30.1582Z" fill="#7B1854"/>
<path d="M169.881 30.1582H164.805V65.5911H169.881V30.1582Z" fill="#7B1854"/>
<path d="M169.881 35.2112V30.1514L134.336 30.1514V35.2112H169.881Z" fill="#7B1854"/>
<path d="M169.881 65.584V60.5242H134.336V65.584H169.881Z" fill="#7B1854"/>
<path d="M159.722 40.1132H144.409V55.3784H159.722V40.1132Z" fill="#7B1854"/>
<path d="M88.8675 131.404V126.466H83.9063V131.404H88.8675Z" fill="#7B1854"/>
<path d="M139.411 126.316V121.371H134.45V126.316H139.411Z" fill="#7B1854"/>
<path d="M154.747 146.748V141.803H149.785V146.748H154.747Z" fill="#7B1854"/>
<path d="M229.738 38.3409H149.169C142.374 38.3409 136.866 43.8315 136.866 50.6044V220.108C136.866 226.881 142.374 232.371 149.169 232.371H229.738C236.533 232.371 242.041 226.881 242.041 220.108V50.6044C242.041 43.8315 236.533 38.3409 229.738 38.3409Z" fill="#58113C"/>
<path d="M229.738 41.95H149.169C144.374 41.95 140.487 45.8248 140.487 50.6045V210.81C140.487 215.59 144.374 219.465 149.169 219.465H229.738C234.533 219.465 238.42 215.59 238.42 210.81V50.6045C238.42 45.8248 234.533 41.95 229.738 41.95Z" fill="#B12278"/>
<path d="M238.421 56.7935V50.6117C238.417 48.3156 237.5 46.1147 235.871 44.4911C234.243 42.8675 232.035 41.9538 229.731 41.95H149.184C146.88 41.9538 144.672 42.8675 143.043 44.4911C141.415 46.1147 140.498 48.3156 140.494 50.6117V56.7935H238.421Z" fill="#6A1448"/>
<path d="M227.265 78.8334H151.642V153.694H227.265V78.8334Z" fill="white"/>
<path d="M218.425 127.266H220.934V120.077H218.425V127.266Z" fill="#7B1854"/>
<path d="M215.93 112.279H218.44V104.683H215.93V112.279Z" fill="#7B1854"/>
<path d="M215.93 117.361H218.44V109.764H215.93V117.361Z" fill="#7B1854"/>
<path d="M220.927 107.191V104.69H208.374V107.191H220.927Z" fill="#7B1854"/>
<path d="M205.864 107.191V104.69H193.311V107.191H205.864Z" fill="#7B1854"/>
<path d="M203.355 109.685V107.184H195.763V109.685H203.355Z" fill="#7B1854"/>
<path d="M200.81 112.194V109.693H195.763V112.194H200.81Z" fill="#7B1854"/>
<path d="M210.912 127.216V109.693H208.409V127.216H210.912Z" fill="#7B1854"/>
<path d="M180.765 147.276V129.753H178.262V147.276H180.765Z" fill="#7B1854"/>
<path d="M210.912 112.223V109.686H203.298V112.223H210.912Z" fill="#7B1854"/>
<path d="M215.944 127.216V124.872H208.409V127.216H215.944Z" fill="#7B1854"/>
<path d="M205.893 127.209V124.865H198.358V127.209H205.893Z" fill="#7B1854"/>
<path d="M188.249 127.216V134.777H193.382V127.216H188.249Z" fill="#7B1854"/>
<path d="M190.852 134.777V124.865H188.249V134.777H190.852Z" fill="#7B1854"/>
<path d="M190.852 132.29V129.753H183.288V132.29H190.852Z" fill="#7B1854"/>
<path d="M210.883 122.206V119.862H193.304V122.206H210.883Z" fill="#7B1854"/>
<path d="M188.285 122.213V119.776H175.71V122.213H188.285Z" fill="#7B1854"/>
<path d="M173.186 122.206V119.769H165.651V122.206H173.186Z" fill="#7B1854"/>
<path d="M173.186 122.213V116.989H170.663V122.213H173.186Z" fill="#7B1854"/>
<path d="M168.139 124.672V116.989H165.616V124.672H168.139Z" fill="#7B1854"/>
<path d="M213.349 124.665V132.269H215.787V124.665H213.349Z" fill="#7B1854"/>
<path d="M213.356 129.739V132.269H220.827V129.739H213.356Z" fill="#7B1854"/>
<path d="M213.356 137.279V139.809H220.827V137.279H213.356Z" fill="#7B1854"/>
<path d="M160.625 124.665V119.705H158.102V124.665H160.625Z" fill="#7B1854"/>
<path d="M220.87 147.334V134.777H218.346V147.334H220.87Z" fill="#7B1854"/>
<path d="M218.339 147.334V144.797H205.757V147.334H218.339Z" fill="#7B1854"/>
<path d="M208.28 142.381V134.777H205.757V142.381H208.28Z" fill="#7B1854"/>
<path d="M205.764 142.381V144.797H213.328V142.381H205.764Z" fill="#7B1854"/>
<path d="M190.737 142.381V144.797H195.755V142.381H190.737Z" fill="#7B1854"/>
<path d="M180.75 142.381V144.797H185.769V142.381H180.75Z" fill="#7B1854"/>
<path d="M193.304 142.388V147.312H195.741V142.388H193.304Z" fill="#7B1854"/>
<path d="M193.239 142.381V139.887H185.711V142.381H193.239Z" fill="#7B1854"/>
<path d="M163.149 122.264V114.717H160.626V122.264H163.149Z" fill="#7B1854"/>
<path d="M170.67 122.206V124.686H175.71V122.206H170.67Z" fill="#7B1854"/>
<path d="M205.836 117.032V114.688H195.791V117.032H205.836Z" fill="#7B1854"/>
<path d="M178.241 117.025V114.681H173.179V117.025H178.241Z" fill="#7B1854"/>
<path d="M163.099 117.025V114.681H158.038V117.025H163.099Z" fill="#7B1854"/>
<path d="M165.637 119.326V116.982H160.626V119.326H165.637Z" fill="#7B1854"/>
<path d="M195.784 122.206V117.025H193.304V122.206H195.784Z" fill="#7B1854"/>
<path d="M190.737 109.742V117.032H193.303V109.742H190.737Z" fill="#7B1854"/>
<path d="M180.714 109.743V117.032H183.281V109.743H180.714Z" fill="#7B1854"/>
<path d="M173.143 112.179V117.032H175.71V112.179H173.143Z" fill="#7B1854"/>
<path d="M168.132 112.173V117.025H170.699V112.173H168.132Z" fill="#7B1854"/>
<path d="M168.125 112.18V109.735H165.673V112.18H168.125Z" fill="#7B1854"/>
<path d="M178.198 107.22V104.776H175.746V107.22H178.198Z" fill="#7B1854"/>
<path d="M185.769 107.213V104.769H183.317V107.213H185.769Z" fill="#7B1854"/>
<path d="M188.285 104.762V102.246H185.769V104.762H188.285Z" fill="#7B1854"/>
<path d="M185.769 102.253V97.2148H183.317V102.253H185.769Z" fill="#7B1854"/>
<path d="M178.198 99.7019V104.769H180.771V99.7019H178.198Z" fill="#7B1854"/>
<path d="M188.271 99.7018V97.1576H180.765V99.7018H188.271Z" fill="#7B1854"/>
<path d="M188.271 99.7016V107.241H190.751V99.7016H188.271Z" fill="#7B1854"/>
<path d="M178.226 94.6775V97.1645H180.771V94.6775H178.226Z" fill="#7B1854"/>
<path d="M185.776 94.6706V97.1576H190.794V94.6706H185.776Z" fill="#7B1854"/>
<path d="M193.289 94.6705V87.1523H190.802V94.6705H193.289Z" fill="#7B1854"/>
<path d="M200.86 102.225V97.1862H198.372V102.225H200.86Z" fill="#7B1854"/>
<path d="M195.841 102.225V94.6777H193.289V102.225H195.841Z" fill="#7B1854"/>
<path d="M198.329 89.7034V84.7365H195.842V89.7034H198.329Z" fill="#7B1854"/>
<path d="M193.289 89.7105V87.1592H185.869V89.7105H193.289Z" fill="#7B1854"/>
<path d="M183.317 89.7105V87.1592H178.241V89.7105H183.317Z" fill="#7B1854"/>
<path d="M183.302 89.7108V84.7153H180.793V89.7108H183.302Z" fill="#7B1854"/>
<path d="M195.806 89.7108V92.1835H198.322V89.7108H195.806Z" fill="#7B1854"/>
<path d="M195.841 87.2378V89.7105H200.882V87.2378H195.841Z" fill="#7B1854"/>
<path d="M195.849 92.1836V94.6777H200.889V92.1836H195.849Z" fill="#7B1854"/>
<path d="M180.765 92.1907V94.6777H183.31V92.1907H180.765Z" fill="#7B1854"/>
<path d="M183.317 89.7108V92.1978H185.869V89.7108H183.317Z" fill="#7B1854"/>
<path d="M188.306 84.6796V87.1666H190.852V84.6796H188.306Z" fill="#7B1854"/>
<path d="M170.663 104.726V112.208H173.23V104.726H170.663Z" fill="#7B1854"/>
<path d="M158.102 104.726V112.208H160.669V104.726H158.102Z" fill="#7B1854"/>
<path d="M163.149 117.247V109.735H160.633V117.247H163.149Z" fill="#7B1854"/>
<path d="M190.737 119.783V117.032H183.266V119.783H190.737Z" fill="#7B1854"/>
<path d="M180.721 119.777V117.025H178.219V119.777H180.721Z" fill="#7B1854"/>
<path d="M188.328 109.735V112.172H193.304V109.735H188.328Z" fill="#7B1854"/>
<path d="M188.292 122.213V127.223H190.859V122.213H188.292Z" fill="#7B1854"/>
<path d="M185.884 122.214V124.651H190.859V122.214H185.884Z" fill="#7B1854"/>
<path d="M210.833 127.195V124.643H193.089V127.195H210.833Z" fill="#7B1854"/>
<path d="M210.833 127.194V137.336H213.357V127.194H210.833Z" fill="#7B1854"/>
<path d="M198.243 127.194V137.336H200.767V127.194H198.243Z" fill="#7B1854"/>
<path d="M208.309 127.194V137.336H210.833V127.194H208.309Z" fill="#7B1854"/>
<path d="M195.698 134.77V137.336H210.833V134.77H195.698Z" fill="#7B1854"/>
<path d="M185.783 139.887V137.336H178.298V139.887H185.783Z" fill="#7B1854"/>
<path d="M175.71 109.75V112.187H183.245V109.75H175.71Z" fill="#7B1854"/>
<path d="M200.81 122.206V114.681H198.33V122.206H200.81Z" fill="#7B1854"/>
<path d="M195.863 147.312V134.77H193.383V147.312H195.863Z" fill="#7B1854"/>
<path d="M195.863 144.818V142.288H188.3V144.818H195.863Z" fill="#7B1854"/>
<path d="M190.759 147.312V139.772H188.278V147.312H190.759Z" fill="#7B1854"/>
<path d="M213.385 124.872V122.528H208.409V124.872H213.385Z" fill="#7B1854"/>
<path d="M210.912 114.688V112.187H205.836V114.688H210.912Z" fill="#7B1854"/>
<path d="M198.322 114.688V112.187H190.744V114.688H198.322Z" fill="#7B1854"/>
<path d="M185.79 114.688V112.187H178.212V114.688H185.79Z" fill="#7B1854"/>
<path d="M220.927 112.301V109.8H213.428V112.301H220.927Z" fill="#7B1854"/>
<path d="M160.547 84.7079H158.038V102.224H160.547V84.7079Z" fill="#7B1854"/>
<path d="M175.61 84.7079H173.1V102.224H175.61V84.7079Z" fill="#7B1854"/>
<path d="M175.617 87.2092V84.7079H158.045V87.2092H175.617Z" fill="#7B1854"/>
<path d="M175.61 102.225V99.7233H158.038V102.225H175.61Z" fill="#7B1854"/>
<path d="M170.591 89.6322H163.02V97.179H170.591V89.6322Z" fill="#7B1854"/>
<path d="M160.547 129.818H158.038V147.334H160.547V129.818Z" fill="#7B1854"/>
<path d="M175.61 129.818H173.1V147.334H175.61V129.818Z" fill="#7B1854"/>
<path d="M175.61 132.319V129.818H158.038V132.319H175.61Z" fill="#7B1854"/>
<path d="M175.61 147.341V144.84H158.038V147.341H175.61Z" fill="#7B1854"/>
<path d="M170.591 134.741H163.02V142.288H170.591V134.741Z" fill="#7B1854"/>
<path d="M205.742 84.7079H203.233V102.224H205.742V84.7079Z" fill="#7B1854"/>
<path d="M220.806 84.7079H218.296V102.224H220.806V84.7079Z" fill="#7B1854"/>
<path d="M220.805 87.2092V84.7079H203.233V87.2092H220.805Z" fill="#7B1854"/>
<path d="M220.805 102.225V99.7233H203.233V102.225H220.805Z" fill="#7B1854"/>
<path d="M215.779 89.6322H208.209V97.179H215.779V89.6322Z" fill="#7B1854"/>
<path d="M180.75 134.77V132.326H178.298V134.77H180.75Z" fill="#7B1854"/>
<path d="M205.735 132.254V129.81H203.283V132.254H205.735Z" fill="#7B1854"/>
<path d="M213.321 142.36V139.915H210.869V142.36H213.321Z" fill="#7B1854"/>
<path d="M218.726 199.74H160.196C158.904 199.74 157.625 199.486 156.431 198.993C155.238 198.501 154.154 197.778 153.24 196.868C152.327 195.957 151.602 194.876 151.108 193.687C150.614 192.497 150.359 191.222 150.359 189.935C150.359 187.334 151.396 184.84 153.24 183.001C155.085 181.162 157.587 180.129 160.196 180.129H218.726C220.018 180.129 221.297 180.383 222.49 180.876C223.684 181.369 224.768 182.091 225.682 183.001C226.595 183.912 227.32 184.993 227.814 186.182C228.308 187.372 228.563 188.647 228.563 189.935C228.563 191.222 228.308 192.497 227.814 193.687C227.32 194.876 226.595 195.957 225.682 196.868C224.768 197.778 223.684 198.501 222.49 198.993C221.297 199.486 220.018 199.74 218.726 199.74Z" fill="#F8DBED"/>
<path d="M170.943 193.737L172.219 192.221C172.881 192.827 173.731 193.188 174.628 193.243C175.552 193.243 176.011 192.879 176.011 192.293C176.011 191.707 175.452 191.478 174.577 191.128L173.301 190.585C172.734 190.401 172.239 190.045 171.885 189.567C171.53 189.09 171.333 188.513 171.323 187.919C171.323 186.297 172.756 185.003 174.821 185.003C176.001 185.006 177.133 185.467 177.976 186.29L176.872 187.669C176.305 187.181 175.584 186.908 174.836 186.897C174.068 186.897 173.581 187.219 173.581 187.776C173.581 188.334 174.219 188.598 175.079 188.934L176.327 189.441C176.902 189.606 177.405 189.957 177.758 190.438C178.111 190.919 178.294 191.504 178.277 192.1C178.277 193.729 176.915 195.137 174.577 195.137C173.234 195.135 171.938 194.636 170.943 193.737Z" fill="#B12278"/>
<path d="M180.09 190.135C180.09 186.89 182.241 185.003 184.722 185.003C185.274 185.008 185.821 185.122 186.328 185.341C186.835 185.559 187.294 185.877 187.675 186.276L186.507 187.705C186.283 187.468 186.015 187.277 185.717 187.143C185.419 187.009 185.098 186.935 184.772 186.926C183.424 186.926 182.363 188.112 182.363 190.07C182.363 192.029 183.302 193.258 184.736 193.258C185.103 193.248 185.463 193.162 185.795 193.005C186.126 192.847 186.42 192.622 186.657 192.343L187.826 193.729C187.437 194.187 186.951 194.553 186.403 194.8C185.855 195.048 185.259 195.17 184.657 195.159C182.162 195.152 180.09 193.429 180.09 190.135Z" fill="#B12278"/>
<path d="M191.748 185.182H194.401L197.483 194.973H195.132L193.849 190.014C193.576 189.034 193.318 187.87 193.053 186.855H192.995C192.759 187.891 192.494 189.034 192.221 190.014L190.931 194.973H188.665L191.748 185.182ZM190.694 190.9H195.419V192.672H190.694V190.9Z" fill="#B12278"/>
<path d="M199.032 185.182H201.305L203.864 190.049L204.839 192.193H204.896C204.796 191.157 204.617 189.785 204.617 188.62V185.161H206.732V194.952H204.452L201.892 190.07L200.925 187.926H200.86C200.968 189.006 201.147 190.313 201.147 191.5V194.973H198.996L199.032 185.182Z" fill="#B12278"/>
<path d="M140.487 99.9801H238.42" stroke="#FFD500" stroke-width="2" stroke-miterlimit="10"/>
<g opacity="0.86">
<path d="M140.487 104.19H238.42" stroke="#FFDB24" stroke-width="1.79" stroke-miterlimit="10"/>
</g>
<g opacity="0.71">
<path d="M140.487 108.399H238.42" stroke="#FFE149" stroke-width="1.57" stroke-miterlimit="10"/>
</g>
<g opacity="0.57">
<path d="M140.487 112.608H238.42" stroke="#FFE76D" stroke-width="1.36" stroke-miterlimit="10"/>
</g>
<g opacity="0.43">
<path d="M140.487 116.818H238.42" stroke="#FFED92" stroke-width="1.14" stroke-miterlimit="10"/>
</g>
<g opacity="0.29">
<path d="M140.487 121.027H238.42" stroke="#FFF3B6" stroke-width="0.93" stroke-miterlimit="10"/>
</g>
<g opacity="0.14">
<path d="M140.487 125.236H238.42" stroke="#FFF9DB" stroke-width="0.71" stroke-miterlimit="10"/>
</g>
<path d="M179.373 49.3753H199.534" stroke="#F8DBED" stroke-width="2" stroke-linecap="round" stroke-linejoin="round"/>
<path d="M183.639 226.083H195.26" stroke="#F8DBED" stroke-linecap="round" stroke-linejoin="round"/>
<path d="M207.37 49.375C207.369 49.6729 207.279 49.9638 207.112 50.2108C206.945 50.4578 206.708 50.65 206.431 50.763C206.155 50.8761 205.851 50.9049 205.558 50.8459C205.265 50.7869 204.996 50.6428 204.785 50.4316C204.574 50.2204 204.431 49.9517 204.373 49.6594C204.315 49.3671 204.346 49.0643 204.461 48.7891C204.575 48.514 204.769 48.2789 205.018 48.1136C205.266 47.9482 205.558 47.8599 205.857 47.8599C206.057 47.8599 206.254 47.8991 206.438 47.9754C206.622 48.0516 206.789 48.1633 206.93 48.3041C207.07 48.4449 207.181 48.612 207.257 48.7957C207.333 48.9795 207.371 49.1764 207.37 49.375Z" fill="#F8DBED"/>
<path d="M63.4787 210.014L57.1247 208.916C56.8727 208.868 56.6807 208.754 56.5487 208.574C56.4167 208.406 56.3747 208.178 56.4227 207.89C56.5307 207.29 56.8727 207.038 57.4487 207.134L63.7847 208.214C64.3367 208.31 64.5587 208.658 64.4507 209.258C64.3427 209.846 64.0187 210.098 63.4787 210.014ZM58.3127 206.198C56.3927 206.198 54.8627 205.622 53.7227 204.47C52.5947 203.306 52.0307 201.836 52.0307 200.06C52.0307 198.332 52.6307 196.874 53.8307 195.686C55.0427 194.498 56.5427 193.904 58.3307 193.904C60.1427 193.904 61.6367 194.498 62.8127 195.686C63.9887 196.862 64.5767 198.32 64.5767 200.06C64.5767 201.812 63.9887 203.276 62.8127 204.452C61.6367 205.616 60.1367 206.198 58.3127 206.198ZM58.3307 195.704C57.1187 195.704 56.1227 196.124 55.3427 196.964C54.5627 197.792 54.1727 198.824 54.1727 200.06C54.1727 201.332 54.5507 202.382 55.3067 203.21C56.0627 204.026 57.0707 204.434 58.3307 204.434C59.5667 204.434 60.5627 204.014 61.3187 203.174C62.0867 202.334 62.4707 201.296 62.4707 200.06C62.4707 198.836 62.0867 197.804 61.3187 196.964C60.5507 196.124 59.5547 195.704 58.3307 195.704ZM73.7763 205.748L70.7883 201.806C70.6923 201.674 70.6443 201.56 70.6443 201.464C70.6443 201.356 70.7163 201.278 70.8603 201.23C71.6163 201.026 72.2463 200.66 72.7503 200.132C73.2663 199.592 73.5243 198.956 73.5243 198.224C73.5243 197.564 73.2963 196.982 72.8403 196.478C72.3963 195.974 71.8083 195.722 71.0763 195.722C70.3203 195.722 69.7323 195.974 69.3123 196.478C68.9043 196.982 68.7003 197.618 68.7003 198.386V205.226C68.7003 205.802 68.3583 206.09 67.6743 206.09C67.3503 206.09 67.0983 206.018 66.9183 205.874C66.7383 205.718 66.6483 205.502 66.6483 205.226V198.296C66.6483 197.108 67.0443 196.088 67.8363 195.236C68.6403 194.372 69.7083 193.94 71.0403 193.94C72.3483 193.94 73.4283 194.342 74.2803 195.146C75.1443 195.938 75.5762 196.94 75.5762 198.152C75.5762 198.872 75.3663 199.568 74.9463 200.24C74.5263 200.912 73.9383 201.44 73.1823 201.824L75.5403 204.812C75.7323 205.052 75.7863 205.304 75.7023 205.568C75.6303 205.82 75.4563 205.994 75.1803 206.09C74.5563 206.306 74.0883 206.192 73.7763 205.748ZM81.7905 200.114C81.7905 198.362 82.3725 196.892 83.5365 195.704C84.7125 194.504 86.2065 193.904 88.0185 193.904C88.2825 193.904 88.5645 193.922 88.8645 193.958C89.1765 193.982 89.5305 194.03 89.9265 194.102C90.3225 194.162 90.6465 194.282 90.8985 194.462C91.1625 194.63 91.2945 194.834 91.2945 195.074C91.2945 195.338 91.2225 195.572 91.0785 195.776C90.9345 195.98 90.7425 196.082 90.5025 196.082C90.4905 196.082 90.4665 196.082 90.4305 196.082C90.4065 196.07 90.3885 196.064 90.3765 196.064L89.9085 195.992C89.3325 195.824 88.7625 195.74 88.1985 195.74C86.9625 195.74 85.9425 196.13 85.1385 196.91C84.3465 197.69 83.9505 198.764 83.9505 200.132C83.9505 201.452 84.3105 202.49 85.0305 203.246C85.7625 204.002 86.7705 204.38 88.0545 204.38C88.6545 204.38 89.3385 204.242 90.1065 203.966L90.7185 203.786C90.7545 203.774 90.8085 203.768 90.8805 203.768C91.0965 203.768 91.2705 203.864 91.4025 204.056C91.5465 204.248 91.6185 204.458 91.6185 204.686C91.6185 205.118 91.2585 205.478 90.5385 205.766C89.8185 206.042 88.9665 206.18 87.9825 206.18C86.0265 206.18 84.5025 205.616 83.4105 204.488C82.3305 203.36 81.7905 201.902 81.7905 200.114ZM96.9545 206.18C95.6105 206.18 94.5425 205.79 93.7505 205.01C92.9705 204.218 92.5805 203.21 92.5805 201.986C92.5805 200.798 92.9945 199.802 93.8225 198.998C94.6625 198.182 95.7065 197.774 96.9545 197.774C98.2385 197.774 99.2825 198.176 100.086 198.98C100.89 199.772 101.292 200.774 101.292 201.986C101.292 203.198 100.884 204.2 100.068 204.992C99.2645 205.784 98.2265 206.18 96.9545 206.18ZM96.9725 199.304C96.2405 199.304 95.6405 199.562 95.1725 200.078C94.7165 200.594 94.4885 201.224 94.4885 201.968C94.4885 202.772 94.7045 203.426 95.1365 203.93C95.5805 204.422 96.1925 204.668 96.9725 204.668C97.7285 204.668 98.3285 204.41 98.7725 203.894C99.2285 203.378 99.4565 202.736 99.4565 201.968C99.4565 201.224 99.2285 200.594 98.7725 200.078C98.3165 199.562 97.7165 199.304 96.9725 199.304ZM109.456 198.71L109.528 198.674V193.85C109.528 193.586 109.612 193.376 109.78 193.22C109.948 193.052 110.182 192.968 110.482 192.968C111.13 192.968 111.454 193.262 111.454 193.85V201.572C111.454 202.808 111.076 203.888 110.32 204.812C109.576 205.724 108.472 206.18 107.008 206.18C105.7 206.18 104.656 205.784 103.876 204.992C103.096 204.188 102.706 203.192 102.706 202.004C102.706 200.78 103.114 199.772 103.93 198.98C104.746 198.176 105.736 197.774 106.9 197.774C108.028 197.774 108.88 198.086 109.456 198.71ZM107.098 199.304C106.366 199.304 105.766 199.562 105.298 200.078C104.83 200.594 104.596 201.218 104.596 201.95C104.596 202.754 104.812 203.408 105.244 203.912C105.688 204.416 106.3 204.668 107.08 204.668C107.836 204.668 108.436 204.41 108.88 203.894C109.324 203.378 109.546 202.73 109.546 201.95C109.546 201.218 109.324 200.594 108.88 200.078C108.436 199.562 107.842 199.304 107.098 199.304ZM117.539 206.198C116.135 206.198 115.049 205.808 114.281 205.028C113.525 204.248 113.147 203.228 113.147 201.968C113.147 200.78 113.525 199.784 114.281 198.98C115.049 198.164 116.021 197.756 117.197 197.756C118.337 197.756 119.261 198.104 119.969 198.8C120.677 199.496 121.031 200.354 121.031 201.374C121.031 202.034 120.725 202.364 120.113 202.364H115.055C115.079 203.132 115.319 203.702 115.775 204.074C116.243 204.446 116.843 204.632 117.575 204.632C118.199 204.632 118.871 204.47 119.591 204.146C119.867 204.026 120.101 204.05 120.293 204.218C120.497 204.386 120.599 204.608 120.599 204.884C120.599 205.148 120.461 205.364 120.185 205.532C119.453 205.976 118.571 206.198 117.539 206.198ZM117.233 199.25C116.669 199.25 116.201 199.412 115.829 199.736C115.457 200.048 115.223 200.486 115.127 201.05H119.231C119.171 200.498 118.955 200.06 118.583 199.736C118.223 199.412 117.773 199.25 117.233 199.25Z" fill="#F8DBED"/>
</svg>
