<svg width="71" height="70" viewBox="0 0 71 70" fill="none" xmlns="http://www.w3.org/2000/svg">
<g clip-path="url(#clip0_1_769)">
<path fill-rule="evenodd" clip-rule="evenodd" d="M31.7403 0.681132L21.4864 0.751952L20.5435 1.19848C19.4432 1.71951 18.011 3.0893 17.4235 4.18277C16.6445 5.63226 16.6328 5.7817 16.6328 14.3158V22.1484H17.097C17.8181 22.1484 19.2242 22.6384 20.0285 23.17C20.4299 23.4354 20.7836 23.6523 20.8147 23.6523C20.8457 23.6523 20.8711 20.7398 20.8711 17.1801V10.7078L24.2549 10.6179C26.1161 10.5684 32.5451 10.5278 38.542 10.5276L49.4453 10.5273V17.8702V25.2131L50.0264 24.6552C50.8585 23.8562 51.7467 23.3911 52.8182 23.1932L53.752 23.0208L53.7008 14.6892C53.6604 8.10182 53.6094 6.20225 53.4572 5.61654C53.0034 3.86873 51.719 2.22318 50.1616 1.3948C48.8428 0.693163 47.8687 0.547284 44.7285 0.580917C43.2246 0.59705 37.3799 0.64203 31.7403 0.681132ZM33.077 4.10156C28.2898 4.1676 28.115 4.17935 27.8402 4.45443C27.6308 4.66389 27.5516 4.92707 27.5396 5.45316C27.5258 6.05842 27.5796 6.22371 27.8916 6.53584L28.26 6.9043L34.9999 6.94326C41.6583 6.98182 41.7444 6.97881 42.103 6.69676C42.9788 6.00783 42.8368 4.57023 41.8521 4.15885C41.4819 4.00422 40.9425 3.96265 39.6939 3.99287C38.7784 4.01502 35.8007 4.06396 33.077 4.10156ZM5.6803 11.8258C5.05317 12.0519 4.21003 12.588 3.82339 13.0065C3.65851 13.1849 3.36005 13.688 3.1603 14.1247C2.10374 16.4322 2.96808 18.9621 5.21683 20.1447L6.03714 20.5762L10.5147 20.6173L14.9922 20.6583V16.1364V11.6145L10.583 11.6311C7.34185 11.6434 6.04315 11.6949 5.6803 11.8258ZM24.6271 16.9821C24.5882 17.0833 24.5733 18.3947 24.5937 19.8964L24.6309 22.627H25.5196H26.4082L26.4461 20.6787L26.4841 18.7305H29.3514H32.2188V17.8418V16.9531L31.2959 16.9511C30.7883 16.9498 29.0961 16.9151 27.5353 16.8737C25.2329 16.8126 24.6843 16.8331 24.6271 16.9821ZM38.0181 17.0014C37.9782 17.1056 37.9642 17.5219 37.9874 17.9264L38.0293 18.6621L40.8662 18.699L43.7032 18.7361L43.7227 19.9979C43.7335 20.692 43.749 21.5828 43.7569 21.9775L43.7715 22.6953H44.7655H45.7594L45.7225 19.79L45.6856 16.8848L41.8882 16.8484C38.7543 16.8185 38.0781 16.8451 38.0181 17.0014ZM40.0117 24.8828V26.6602H38.3028H36.5938V28.3008V29.9414H38.3711H40.1485V31.8594V33.7775L41.96 33.7393L43.7715 33.7012V31.7187V29.7363L42.0967 29.6979L40.4219 29.6595V28.2324V26.8053L42.0967 26.7669L43.7715 26.7285L43.8097 24.917L43.8478 23.1055H41.9298H40.0117V24.8828ZM27.0235 27.5509V31.7227L31.1592 31.6866L35.295 31.6504L35.3312 27.5146L35.3673 23.3789H31.1954H27.0235V27.5509ZM10.0189 24.1444C8.72188 24.5528 7.70757 25.4253 7.17409 26.5918C6.79319 27.4247 6.76325 28.9945 7.11052 29.921C7.46585 30.8686 8.3697 31.8387 9.31333 32.285L10.1387 32.6755L13.997 32.6756C17.7884 32.6758 17.8686 32.67 18.6084 32.3427C19.4792 31.9577 20.3219 31.1317 20.7643 30.2299C20.9892 29.7713 21.087 29.2899 21.1234 28.4628C21.1696 27.412 21.1407 27.2598 20.743 26.4519C20.2354 25.4207 19.4929 24.7349 18.421 24.3072C17.7122 24.0245 17.4115 24.0006 14.1719 23.9687C11.3465 23.941 10.5592 23.9743 10.0189 24.1444ZM53.0339 24.9432C51.9756 25.1996 51.0973 25.8027 50.4825 26.695C49.9951 27.4025 49.9419 27.568 49.8849 28.553C49.8034 29.9597 50.0469 30.6901 51.069 32.1054C52.2296 33.7125 52.6124 34.6559 52.6954 36.1133C52.8312 38.4945 52.2185 40.165 50.6065 41.8087L49.5755 42.8598L49.4881 49.1155L49.4008 55.3711H35.1359H20.8711V44.2285C20.8711 38.1001 20.8389 33.0859 20.7995 33.0859C20.7601 33.0859 20.4297 33.291 20.0652 33.5418C19.7008 33.7924 19.1024 34.0752 18.7354 34.1704C18.3686 34.2654 17.9813 34.3699 17.8749 34.4025C17.7336 34.4459 17.7955 34.5804 18.1048 34.9018C19.3839 36.2314 19.8466 38.8973 19.155 40.954C18.8793 41.7744 18.1469 42.8351 17.4253 43.4591L16.8922 43.9201L17.6402 44.6504C19.4328 46.4006 19.9775 49.1951 19.0015 51.6335C18.7115 52.3578 18.4143 52.7792 17.6344 53.5717L16.638 54.5846L16.6246 58.7791C16.6096 63.5492 16.6873 64.1015 17.5877 65.6299C18.2889 66.8199 19.2893 67.728 20.5708 68.3374L21.6231 68.8379H34.9532H48.2832L49.1485 68.5252C50.8112 67.9243 52.0553 66.8661 52.8364 65.3885C53.4419 64.2428 53.6784 63.0178 53.6813 61.0116L53.6836 59.3374L54.516 58.2148C57.1888 54.61 59.781 48.6082 60.911 43.4082C61.7982 39.3251 61.8418 36.0838 61.0524 32.8809C60.5298 30.7612 58.5936 27.398 57.1486 26.1006C55.9775 25.0491 54.4134 24.6092 53.0339 24.9432ZM36.4571 32.6758V33.7695H37.4141H38.3711V32.6758V31.582H37.4141H36.4571V32.6758ZM49.4453 36.7773C49.4453 39.0258 49.495 40.332 49.5803 40.332C49.7799 40.332 50.4241 39.2699 50.6999 38.4863C51.0037 37.6227 51.024 35.93 50.7402 35.1255C50.4988 34.4412 49.748 33.2227 49.5678 33.2227C49.4988 33.2227 49.4453 34.7746 49.4453 36.7773ZM38.1889 34.1342C38.1387 34.1842 38.0977 34.8917 38.0977 35.7064V37.1875H39.8067H41.5157V35.6152V34.043H39.8979C39.008 34.043 38.2389 34.084 38.1889 34.1342ZM27.0235 38.6914V43.0664H31.125H35.2266V38.6914V34.3164H31.125H27.0235V38.6914ZM5.19276 34.6456C3.3729 35.2285 2.29556 36.6473 2.17798 38.6165C2.12343 39.5299 2.16431 39.8561 2.41915 40.5371C2.86294 41.7233 3.8361 42.6599 5.03458 43.0545C5.90644 43.3415 6.12929 43.3527 10.1615 43.313L14.377 43.2715L15.1289 42.9148C18.0684 41.5201 18.6754 37.7593 16.3125 35.5812C15.168 34.5264 15.2043 34.5328 10.2071 34.4958C6.79894 34.4705 5.63067 34.5054 5.19276 34.6456ZM40.3764 37.4154C40.3262 37.4654 40.2852 38.0192 40.2852 38.6459V39.7852H38.918H37.5508V41.3574V42.9297H39.4649H41.3789V41.5625V40.1953H42.4727H43.5664V38.7598V37.3242H42.017C41.1647 37.3242 40.4264 37.3652 40.3764 37.4154ZM24.6992 46.2109V49.082H28.459H32.2188V48.1934V47.3047H29.3477H26.4766V45.3223V43.3398H25.5879H24.6992V46.2109ZM43.8399 45.3223V47.3047H40.9004H37.961V48.1934V49.082H41.7891H45.6172V46.2109V43.3398H44.7285H43.8399V45.3223ZM0.551162 44.224C0.398037 44.6232 0.576865 44.6779 0.978545 44.3548L1.3887 44.0248L1.00849 44.0241C0.799306 44.0237 0.593545 44.1137 0.551162 44.224ZM4.46487 45.1083C2.2246 45.7922 1.02653 48.0514 1.66091 50.3952C2.10019 52.0179 3.21431 53.0596 5.00765 53.5243C5.7503 53.7168 6.51224 53.7443 10.0612 53.7065L14.2403 53.6621L15.0766 53.2756C16.1169 52.7949 16.9191 51.9892 17.3942 50.948C17.7191 50.2362 17.7528 50.0236 17.7003 49.0213C17.6536 48.1317 17.5608 47.7393 17.2589 47.1554C16.7326 46.1374 16.4215 45.8272 15.4707 45.3727L14.6504 44.9807L9.72854 44.9924C7.02151 44.9988 4.65286 45.0509 4.46487 45.1083ZM59.7094 52.1868C59.0427 54.0527 57.3655 57.1304 55.76 59.4337C55.3698 59.9936 55.3564 60.0672 55.2906 62.0313C55.2324 63.7696 55.1707 64.2035 54.8497 65.1299C54.5635 65.9557 54.5162 66.2316 54.6468 66.3124C54.7406 66.3704 54.7817 66.5103 54.7383 66.6235C54.6262 66.9155 52.5165 68.7354 51.4939 69.422L50.633 70H60.5666H70.5V66.4346V62.8693L69.4176 61.6837C68.1404 60.2846 65.1121 56.8805 63.1856 54.6782C62.4336 53.8185 61.4185 52.6974 60.9297 52.1868L60.041 51.2585L59.7094 52.1868ZM8.56644 55.5774C8.56644 55.6578 14.7322 62.3438 14.8063 62.3438C14.8333 62.3438 14.8555 60.8057 14.8555 58.9258V55.5078H11.711C9.98147 55.5078 8.56644 55.5391 8.56644 55.5774ZM33.2442 57.42C30.4987 58.5036 29.4054 62.2434 31.1058 64.7348C31.9944 66.0369 33.9373 66.9607 35.491 66.8199C37.0839 66.6754 38.6749 65.5398 39.4211 64.0146C39.7554 63.3315 39.8009 63.0822 39.8012 61.9366C39.8015 60.3596 39.5451 59.6936 38.5214 58.6111C37.4915 57.5222 36.805 57.2249 35.2266 57.1838C34.1981 57.1572 33.7854 57.2064 33.2442 57.42ZM34.0898 59.0648C32.924 59.4147 32.1605 60.55 32.1605 61.9336C32.1605 63.0435 32.5142 63.773 33.3247 64.3345C33.8582 64.7042 33.9998 64.7363 35.0997 64.7363C36.229 64.7363 36.3235 64.7132 36.8114 64.3182C37.5519 63.719 37.8043 63.3255 37.9511 62.5412C38.3823 60.2383 36.3316 58.3919 34.0898 59.0648Z" fill="#8D1B60"/>
</g>
<defs>
<clipPath id="clip0_1_769">
<rect width="70" height="70" fill="white" transform="translate(0.5)"/>
</clipPath>
</defs>
</svg>
