<svg width="375" height="824" viewBox="0 0 375 824" fill="none" xmlns="http://www.w3.org/2000/svg">
<path d="M329.298 306.692C329.298 306.327 329.298 306.144 329.227 306.004C329.165 305.881 329.066 305.782 328.944 305.719C328.805 305.648 328.623 305.648 328.26 305.648H320.602C320.238 305.648 320.057 305.648 319.918 305.719C319.796 305.782 319.696 305.881 319.634 306.004C319.563 306.144 319.563 306.327 319.563 306.692V373.765C319.563 374.131 319.563 374.314 319.634 374.453C319.696 374.576 319.796 374.676 319.918 374.738C320.057 374.809 320.238 374.809 320.602 374.809H328.26C328.623 374.809 328.805 374.809 328.944 374.738C329.066 374.676 329.165 374.576 329.227 374.453C329.298 374.314 329.298 374.131 329.298 373.765V306.692Z" fill="url(#paint0_linear_46_30)"/>
<path d="M329.298 370.242H320.212V373.765C320.212 374.131 320.212 374.314 320.283 374.453C320.345 374.576 320.445 374.676 320.567 374.738C320.706 374.809 320.887 374.809 321.251 374.809H328.26C328.623 374.809 328.805 374.809 328.944 374.738C329.066 374.676 329.165 374.576 329.227 374.453C329.298 374.314 329.298 374.131 329.298 373.765V370.242Z" fill="url(#paint1_linear_46_30)"/>
<path d="M329.298 310.215H320.212V306.692C320.212 306.327 320.212 306.144 320.283 306.004C320.345 305.881 320.445 305.782 320.567 305.719C320.706 305.648 320.887 305.648 321.251 305.648H328.26C328.623 305.648 328.805 305.648 328.944 305.719C329.066 305.782 329.165 305.881 329.227 306.004C329.298 306.144 329.298 306.327 329.298 306.692V310.215Z" fill="url(#paint2_linear_46_30)"/>
<path fill-rule="evenodd" clip-rule="evenodd" d="M319.705 374.749C319.563 374.47 319.563 374.105 319.563 373.374V307.083C319.563 306.353 319.563 305.987 319.705 305.708C319.829 305.462 320.028 305.263 320.272 305.138C320.55 304.996 320.913 304.996 321.64 304.996H327.87C328.597 304.996 328.961 304.996 329.238 305.138C329.482 305.263 329.681 305.462 329.805 305.708C329.947 305.987 329.947 306.353 329.947 307.083V373.374C329.947 374.105 329.947 374.47 329.805 374.749C329.681 374.995 329.482 375.195 329.238 375.32C328.961 375.462 328.597 375.462 327.87 375.462H321.64C320.913 375.462 320.55 375.462 320.272 375.32C320.028 375.195 319.829 374.995 319.705 374.749ZM320.283 374.453C320.212 374.314 320.212 374.131 320.212 373.765V306.692C320.212 306.327 320.212 306.144 320.283 306.004C320.345 305.881 320.445 305.782 320.567 305.719C320.706 305.648 320.887 305.648 321.251 305.648H328.26C328.623 305.648 328.805 305.648 328.944 305.719C329.066 305.782 329.165 305.881 329.227 306.004C329.298 306.144 329.298 306.327 329.298 306.692V373.765C329.298 374.131 329.298 374.314 329.227 374.453C329.165 374.576 329.066 374.676 328.944 374.738C328.805 374.809 328.623 374.809 328.26 374.809H321.251C320.887 374.809 320.706 374.809 320.567 374.738C320.445 374.676 320.345 374.576 320.283 374.453Z" fill="#353638"/>
<path d="M45.7021 331.486C45.7021 331.12 45.7021 330.938 45.7728 330.798C45.835 330.675 45.9343 330.575 46.0564 330.513C46.1952 330.442 46.377 330.442 46.7404 330.442H54.3982C54.7616 330.442 54.9433 330.442 55.0822 330.513C55.2043 330.575 55.3035 330.675 55.3658 330.798C55.4365 330.938 55.4365 331.12 55.4365 331.486V372.461C55.4365 372.826 55.4365 373.009 55.3658 373.148C55.3035 373.271 55.2043 373.371 55.0822 373.433C54.9433 373.504 54.7616 373.504 54.3982 373.504H46.7404C46.377 373.504 46.1952 373.504 46.0564 373.433C45.9343 373.371 45.835 373.271 45.7728 373.148C45.7021 373.009 45.7021 372.826 45.7021 372.461V331.486Z" fill="url(#paint3_linear_46_30)"/>
<path d="M45.7021 368.937H54.7875V372.461C54.7875 372.826 54.7875 373.009 54.7168 373.148C54.6546 373.271 54.5553 373.371 54.4332 373.433C54.2944 373.504 54.1126 373.504 53.7492 373.504H46.7404C46.377 373.504 46.1952 373.504 46.0564 373.433C45.9343 373.371 45.835 373.271 45.7728 373.148C45.7021 373.009 45.7021 372.826 45.7021 372.461V368.937Z" fill="url(#paint4_linear_46_30)"/>
<path d="M45.7021 335.009H54.7875V331.486C54.7875 331.12 54.7875 330.938 54.7168 330.798C54.6546 330.675 54.5553 330.575 54.4332 330.513C54.2944 330.442 54.1126 330.442 53.7492 330.442H46.7404C46.377 330.442 46.1952 330.442 46.0564 330.513C45.9343 330.575 45.835 330.675 45.7728 330.798C45.7021 330.938 45.7021 331.12 45.7021 331.486V335.009Z" fill="url(#paint5_linear_46_30)"/>
<path fill-rule="evenodd" clip-rule="evenodd" d="M45.1946 373.444C45.0531 373.165 45.0531 372.8 45.0531 372.069V331.877C45.0531 331.146 45.0531 330.781 45.1946 330.502C45.319 330.256 45.5176 330.057 45.7618 329.931C46.0394 329.789 46.4029 329.789 47.1298 329.789H53.3598C54.0867 329.789 54.4502 329.789 54.7278 329.931C54.972 330.057 55.1706 330.256 55.295 330.502C55.4365 330.781 55.4365 331.146 55.4365 331.877V372.069C55.4365 372.8 55.4365 373.165 55.295 373.444C55.1706 373.69 54.972 373.89 54.7278 374.015C54.4502 374.157 54.0867 374.157 53.3598 374.157H47.1298C46.4029 374.157 46.0394 374.157 45.7618 374.015C45.5176 373.89 45.319 373.69 45.1946 373.444ZM45.7728 373.148C45.7021 373.009 45.7021 372.826 45.7021 372.461V331.486C45.7021 331.12 45.7021 330.938 45.7728 330.798C45.835 330.675 45.9343 330.575 46.0564 330.513C46.1952 330.442 46.377 330.442 46.7404 330.442H53.7492C54.1126 330.442 54.2944 330.442 54.4332 330.513C54.5553 330.575 54.6546 330.675 54.7168 330.798C54.7875 330.938 54.7875 331.12 54.7875 331.486V372.461C54.7875 372.826 54.7875 373.009 54.7168 373.148C54.6546 373.271 54.5553 373.371 54.4332 373.433C54.2944 373.504 54.1126 373.504 53.7492 373.504H46.7404C46.377 373.504 46.1952 373.504 46.0564 373.433C45.9343 373.371 45.835 373.271 45.7728 373.148Z" fill="#353638"/>
<path d="M45.7021 276.678C45.7021 276.313 45.7021 276.13 45.7728 275.991C45.835 275.868 45.9343 275.768 46.0564 275.706C46.1952 275.635 46.377 275.635 46.7404 275.635H54.3982C54.7616 275.635 54.9433 275.635 55.0822 275.706C55.2043 275.768 55.3035 275.868 55.3658 275.991C55.4365 276.13 55.4365 276.313 55.4365 276.678V317.653C55.4365 318.019 55.4365 318.201 55.3658 318.341C55.3035 318.464 55.2043 318.564 55.0822 318.626C54.9433 318.697 54.7616 318.697 54.3982 318.697H46.7404C46.377 318.697 46.1952 318.697 46.0564 318.626C45.9343 318.564 45.835 318.464 45.7728 318.341C45.7021 318.201 45.7021 318.019 45.7021 317.653V276.678Z" fill="url(#paint6_linear_46_30)"/>
<path d="M45.7021 314.13H54.7875V317.653C54.7875 318.019 54.7875 318.201 54.7168 318.341C54.6546 318.464 54.5553 318.564 54.4332 318.626C54.2944 318.697 54.1126 318.697 53.7492 318.697H46.7404C46.377 318.697 46.1952 318.697 46.0564 318.626C45.9343 318.564 45.835 318.464 45.7728 318.341C45.7021 318.201 45.7021 318.019 45.7021 317.653V314.13Z" fill="url(#paint7_linear_46_30)"/>
<path d="M45.7021 280.202H54.7875V276.678C54.7875 276.313 54.7875 276.13 54.7168 275.991C54.6546 275.868 54.5553 275.768 54.4332 275.706C54.2944 275.635 54.1126 275.635 53.7492 275.635H46.7404C46.377 275.635 46.1952 275.635 46.0564 275.706C45.9343 275.768 45.835 275.868 45.7728 275.991C45.7021 276.13 45.7021 276.313 45.7021 276.678V280.202Z" fill="url(#paint8_linear_46_30)"/>
<path fill-rule="evenodd" clip-rule="evenodd" d="M45.1946 318.637C45.0531 318.358 45.0531 317.993 45.0531 317.262V277.07C45.0531 276.339 45.0531 275.974 45.1946 275.695C45.319 275.449 45.5176 275.249 45.7618 275.124C46.0394 274.982 46.4029 274.982 47.1298 274.982H53.3598C54.0867 274.982 54.4502 274.982 54.7278 275.124C54.972 275.249 55.1706 275.449 55.295 275.695C55.4365 275.974 55.4365 276.339 55.4365 277.07V317.262C55.4365 317.993 55.4365 318.358 55.295 318.637C55.1706 318.883 54.972 319.082 54.7278 319.208C54.4502 319.35 54.0867 319.35 53.3598 319.35H47.1298C46.4029 319.35 46.0394 319.35 45.7618 319.208C45.5176 319.082 45.319 318.883 45.1946 318.637ZM45.7728 318.341C45.7021 318.201 45.7021 318.019 45.7021 317.653V276.678C45.7021 276.313 45.7021 276.13 45.7728 275.991C45.835 275.868 45.9343 275.768 46.0564 275.706C46.1952 275.635 46.377 275.635 46.7404 275.635H53.7492C54.1126 275.635 54.2944 275.635 54.4332 275.706C54.5553 275.768 54.6546 275.868 54.7168 275.991C54.7875 276.13 54.7875 276.313 54.7875 276.678V317.653C54.7875 318.019 54.7875 318.201 54.7168 318.341C54.6546 318.464 54.5553 318.564 54.4332 318.626C54.2944 318.697 54.1126 318.697 53.7492 318.697H46.7404C46.377 318.697 46.1952 318.697 46.0564 318.626C45.9343 318.564 45.835 318.464 45.7728 318.341Z" fill="#353638"/>
<path d="M45.7021 234.921C45.7021 234.555 45.7021 234.373 45.7728 234.233C45.835 234.11 45.9343 234.01 46.0564 233.948C46.1952 233.877 46.377 233.877 46.7404 233.877H54.3982C54.7616 233.877 54.9433 233.877 55.0822 233.948C55.2043 234.01 55.3035 234.11 55.3658 234.233C55.4365 234.373 55.4365 234.555 55.4365 234.921V255.017C55.4365 255.382 55.4365 255.565 55.3658 255.704C55.3035 255.827 55.2043 255.927 55.0822 255.989C54.9433 256.061 54.7616 256.061 54.3982 256.061H46.7404C46.377 256.061 46.1952 256.061 46.0564 255.989C45.9343 255.927 45.835 255.827 45.7728 255.704C45.7021 255.565 45.7021 255.382 45.7021 255.017V234.921Z" fill="url(#paint9_linear_46_30)"/>
<path d="M45.7021 238.444H54.7875V234.921C54.7875 234.555 54.7875 234.373 54.7168 234.233C54.6546 234.11 54.5553 234.01 54.4332 233.948C54.2944 233.877 54.1126 233.877 53.7492 233.877H46.7404C46.377 233.877 46.1952 233.877 46.0564 233.948C45.9343 234.01 45.835 234.11 45.7728 234.233C45.7021 234.373 45.7021 234.555 45.7021 234.921V238.444Z" fill="url(#paint10_linear_46_30)"/>
<path d="M45.7021 252.146H54.7875V255.669C54.7875 256.034 54.7875 256.217 54.7168 256.357C54.6546 256.48 54.5553 256.579 54.4332 256.642C54.2944 256.713 54.1126 256.713 53.7492 256.713H46.7404C46.377 256.713 46.1952 256.713 46.0564 256.642C45.9343 256.579 45.835 256.48 45.7728 256.357C45.7021 256.217 45.7021 256.034 45.7021 255.669V252.146Z" fill="url(#paint11_linear_46_30)"/>
<path fill-rule="evenodd" clip-rule="evenodd" d="M45.1946 256C45.0531 255.721 45.0531 255.356 45.0531 254.625V235.312C45.0531 234.581 45.0531 234.216 45.1946 233.937C45.319 233.691 45.5176 233.492 45.7618 233.366C46.0394 233.224 46.4029 233.224 47.1298 233.224H53.3598C54.0867 233.224 54.4502 233.224 54.7278 233.366C54.972 233.492 55.1706 233.691 55.295 233.937C55.4365 234.216 55.4365 234.581 55.4365 235.312V254.625C55.4365 255.356 55.4365 255.721 55.295 256C55.1706 256.246 54.972 256.446 54.7278 256.571C54.4502 256.713 54.0867 256.713 53.3598 256.713H47.1298C46.4029 256.713 46.0394 256.713 45.7618 256.571C45.5176 256.446 45.319 256.246 45.1946 256ZM45.7728 255.704C45.7021 255.565 45.7021 255.382 45.7021 255.017V234.921C45.7021 234.555 45.7021 234.373 45.7728 234.233C45.835 234.11 45.9343 234.01 46.0564 233.948C46.1952 233.877 46.377 233.877 46.7404 233.877H53.7492C54.1126 233.877 54.2944 233.877 54.4332 233.948C54.5553 234.01 54.6546 234.11 54.7168 234.233C54.7875 234.373 54.7875 234.555 54.7875 234.921V255.017C54.7875 255.382 54.7875 255.565 54.7168 255.704C54.6546 255.827 54.5553 255.927 54.4332 255.989C54.2944 256.061 54.1126 256.061 53.7492 256.061H46.7404C46.377 256.061 46.1952 256.061 46.0564 255.989C45.9343 255.927 45.835 255.827 45.7728 255.704Z" fill="#353638"/>
<path fill-rule="evenodd" clip-rule="evenodd" d="M56.5647 150.861C51.5427 160.771 51.5427 173.743 51.5427 199.687V624.313C51.5427 650.257 51.5427 663.229 56.5647 673.139C60.9822 681.855 68.031 688.942 76.7008 693.384C86.557 698.433 99.4596 698.433 125.265 698.433H249.735C275.54 698.433 288.443 698.433 298.299 693.384C306.969 688.942 314.018 681.855 318.435 673.139C323.457 663.229 323.457 650.257 323.457 624.313V199.687C323.457 173.743 323.457 160.771 318.435 150.861C314.018 142.145 306.969 135.058 298.299 130.616C288.443 125.567 275.54 125.567 249.735 125.567H125.265C99.4596 125.567 86.557 125.567 76.7008 130.616C68.031 135.058 60.9822 142.145 56.5647 150.861ZM63.9402 153.999C59.9792 161.815 59.9792 172.047 59.9792 192.51V631.49C59.9792 651.953 59.9792 662.185 63.9402 670C67.4244 676.876 72.984 682.465 79.8222 685.968C87.5961 689.951 97.7728 689.951 118.126 689.951H256.874C277.227 689.951 287.404 689.951 295.178 685.968C302.016 682.465 307.576 676.876 311.06 670C315.021 662.185 315.021 651.953 315.021 631.49V192.51C315.021 172.047 315.021 161.815 311.06 153.999C307.576 147.124 302.016 141.535 295.178 138.032C287.404 134.049 277.227 134.049 256.874 134.049H118.126C97.7728 134.049 87.5961 134.049 79.8222 138.032C72.984 141.535 67.4244 147.124 63.9402 153.999Z" fill="black"/>
<path fill-rule="evenodd" clip-rule="evenodd" d="M55.845 149.852C50.8938 159.622 50.8938 172.412 50.8938 197.991V626.009C50.8938 651.588 50.8938 664.378 55.845 674.148C60.2003 682.741 67.1498 689.728 75.6975 694.107C85.4149 699.085 98.1357 699.085 123.577 699.085H251.423C276.864 699.085 289.585 699.085 299.302 694.107C307.85 689.728 314.8 682.741 319.155 674.148C324.106 664.378 324.106 651.588 324.106 626.009V197.991C324.106 172.412 324.106 159.622 319.155 149.852C314.8 141.259 307.85 134.272 299.302 129.893C289.585 124.915 276.864 124.915 251.423 124.915H123.577C98.1357 124.915 85.4149 124.915 75.6975 129.893C67.1498 134.272 60.2003 141.259 55.845 149.852ZM56.5648 150.861C51.5428 160.771 51.5428 173.743 51.5428 199.687V624.313C51.5428 650.257 51.5428 663.229 56.5648 673.139C60.9822 681.855 68.031 688.942 76.7008 693.384C86.557 698.433 99.4596 698.433 125.265 698.433H249.735C275.54 698.433 288.443 698.433 298.299 693.384C306.969 688.942 314.018 681.855 318.435 673.139C323.457 663.229 323.457 650.257 323.457 624.313V199.687C323.457 173.743 323.457 160.771 318.435 150.861C314.018 142.145 306.969 135.058 298.299 130.616C288.443 125.567 275.54 125.567 249.735 125.567H125.265C99.4596 125.567 86.557 125.567 76.7008 130.616C68.031 135.058 60.9822 142.145 56.5648 150.861Z" fill="#474747"/>
<path fill-rule="evenodd" clip-rule="evenodd" d="M54.6886 149.26C49.5958 159.309 49.5958 172.464 49.5958 198.774V625.226C49.5958 651.536 49.5958 664.691 54.6886 674.74C59.1683 683.579 66.3163 690.766 75.1082 695.27C85.1033 700.39 98.1876 700.39 124.356 700.39H250.644C276.812 700.39 289.897 700.39 299.892 695.27C308.684 690.766 315.832 683.579 320.311 674.74C325.404 664.691 325.404 651.536 325.404 625.226V198.774C325.404 172.464 325.404 159.309 320.311 149.26C315.832 140.421 308.684 133.234 299.892 128.73C289.897 123.61 276.812 123.61 250.644 123.61H124.356C98.1876 123.61 85.1033 123.61 75.1082 128.73C66.3163 133.234 59.1683 140.421 54.6886 149.26ZM55.845 149.852C50.8938 159.622 50.8938 172.412 50.8938 197.991V626.009C50.8938 651.588 50.8938 664.378 55.845 674.148C60.2003 682.741 67.1498 689.728 75.6975 694.107C85.4149 699.085 98.1357 699.085 123.577 699.085H251.423C276.864 699.085 289.585 699.085 299.303 694.107C307.85 689.728 314.8 682.741 319.155 674.148C324.106 664.378 324.106 651.588 324.106 626.009V197.991C324.106 172.412 324.106 159.622 319.155 149.852C314.8 141.259 307.85 134.272 299.303 129.893C289.585 124.915 276.864 124.915 251.423 124.915H123.577C98.1357 124.915 85.4149 124.915 75.6975 129.893C67.1498 134.272 60.2003 141.259 55.845 149.852Z" fill="#A6A6A4"/>
<path fill-rule="evenodd" clip-rule="evenodd" d="M53.5321 148.668C48.2979 158.996 48.2979 172.516 48.2979 199.557V624.443C48.2979 651.484 48.2979 665.004 53.5321 675.332C58.1363 684.417 65.4829 691.804 74.519 696.433C84.7917 701.695 98.2394 701.695 125.135 701.695H249.865C276.761 701.695 290.208 701.695 300.481 696.433C309.517 691.804 316.864 684.417 321.468 675.332C326.702 665.004 326.702 651.484 326.702 624.443V199.557C326.702 172.516 326.702 158.996 321.468 148.668C316.864 139.583 309.517 132.196 300.481 127.567C290.208 122.305 276.761 122.305 249.865 122.305H125.135C98.2394 122.305 84.7917 122.305 74.519 127.567C65.4829 132.196 58.1363 139.583 53.5321 148.668ZM54.6886 149.26C49.5958 159.309 49.5958 172.464 49.5958 198.774V625.226C49.5958 651.536 49.5958 664.691 54.6886 674.74C59.1683 683.579 66.3163 690.766 75.1082 695.27C85.1033 700.39 98.1876 700.39 124.356 700.39H250.644C276.812 700.39 289.897 700.39 299.892 695.27C308.684 690.766 315.832 683.579 320.311 674.74C325.404 664.691 325.404 651.536 325.404 625.226V198.774C325.404 172.464 325.404 159.309 320.311 149.26C315.832 140.421 308.684 133.234 299.892 128.73C289.897 123.61 276.812 123.61 250.644 123.61H124.356C98.1876 123.61 85.1033 123.61 75.1082 128.73C66.3163 133.234 59.1683 140.421 54.6886 149.26Z" fill="#F0F0F0"/>
<path fill-rule="evenodd" clip-rule="evenodd" d="M52.9539 148.371C47.649 158.839 47.649 172.542 47.649 199.948V624.052C47.649 651.458 47.649 665.161 52.9539 675.629C57.6202 684.836 65.0661 692.322 74.2244 697.014C84.6359 702.348 98.2653 702.348 125.524 702.348H249.476C276.735 702.348 290.364 702.348 300.776 697.014C309.934 692.322 317.38 684.836 322.046 675.629C327.351 665.161 327.351 651.458 327.351 624.052V199.948C327.351 172.542 327.351 158.839 322.046 148.371C317.38 139.164 309.934 131.678 300.776 126.986C290.364 121.652 276.735 121.652 249.476 121.652H125.524C98.2653 121.652 84.6359 121.652 74.2244 126.986C65.0661 131.678 57.6202 139.164 52.9539 148.371ZM53.5321 148.668C48.2979 158.996 48.2979 172.516 48.2979 199.557V624.443C48.2979 651.484 48.2979 665.004 53.5321 675.332C58.1363 684.417 65.4829 691.804 74.519 696.433C84.7917 701.695 98.2394 701.695 125.135 701.695H249.865C276.761 701.695 290.208 701.695 300.481 696.433C309.517 691.804 316.864 684.417 321.468 675.332C326.702 665.004 326.702 651.484 326.702 624.443V199.557C326.702 172.516 326.702 158.996 321.468 148.668C316.864 139.583 309.517 132.196 300.481 127.567C290.208 122.305 276.761 122.305 249.865 122.305H125.135C98.2394 122.305 84.7917 122.305 74.519 127.567C65.4829 132.196 58.1363 139.583 53.5321 148.668Z" fill="#AFAFAD"/>
<path fill-rule="evenodd" clip-rule="evenodd" d="M52.3757 148.075C47 158.683 47 172.568 47 200.34V623.66C47 651.432 47 665.317 52.3757 675.925C57.1042 685.255 64.6494 692.841 73.9297 697.595C84.4801 703 98.2913 703 125.914 703H249.086C276.709 703 290.52 703 301.07 697.595C310.351 692.841 317.896 685.255 322.624 675.925C328 665.317 328 651.432 328 623.66V200.34C328 172.568 328 158.683 322.624 148.075C317.896 138.745 310.351 131.159 301.07 126.405C290.52 121 276.709 121 249.086 121H125.914C98.2913 121 84.4801 121 73.9297 126.405C64.6494 131.159 57.1042 138.745 52.3757 148.075ZM52.9539 148.371C47.649 158.839 47.649 172.542 47.649 199.948V624.052C47.649 651.458 47.649 665.161 52.9539 675.629C57.6203 684.836 65.0661 692.322 74.2244 697.014C84.6359 702.348 98.2653 702.348 125.524 702.348H249.476C276.735 702.348 290.364 702.348 300.776 697.014C309.934 692.322 317.38 684.836 322.046 675.629C327.351 665.161 327.351 651.458 327.351 624.052V199.948C327.351 172.542 327.351 158.839 322.046 148.371C317.38 139.164 309.934 131.678 300.776 126.986C290.364 121.652 276.735 121.652 249.476 121.652H125.524C98.2653 121.652 84.6359 121.652 74.2244 126.986C65.0661 131.678 57.6203 139.164 52.9539 148.371Z" fill="#656564"/>
<rect opacity="0.5" x="261.806" y="121" width="4.54273" height="4.56726" fill="#A6A6A4"/>
<rect opacity="0.5" x="47" y="182.332" width="4.54273" height="3.9148" fill="#A6A6A4"/>
<rect opacity="0.5" x="47" y="637.753" width="4.54273" height="3.9148" fill="#A6A6A4"/>
<rect opacity="0.5" x="323.457" y="637.753" width="4.54273" height="3.9148" fill="#A6A6A4"/>
<rect opacity="0.5" x="106.055" y="698.433" width="3.89376" height="4.56726" fill="#A6A6A4"/>
<path opacity="0.5" d="M215.877 126.067C215.873 126.45 215.861 126.643 215.822 126.804C215.645 127.529 215.078 128.095 214.353 128.273C214.134 128.326 213.855 128.33 213.116 128.33H161.884C161.145 128.33 160.866 128.326 160.647 128.273C159.922 128.095 159.355 127.529 159.178 126.804C159.139 126.643 159.127 126.45 159.123 126.067H215.877Z" fill="#0F1013" stroke="url(#paint12_linear_46_30)"/>
<path opacity="0.8" fill-rule="evenodd" clip-rule="evenodd" d="M159.919 126.872C159.919 126.512 160.211 126.22 160.572 126.22H214.428C214.789 126.22 215.081 126.512 215.081 126.872C215.081 127.233 214.789 127.525 214.428 127.525H160.572C160.211 127.525 159.919 127.233 159.919 126.872Z" fill="#1F2224"/>
<g clip-path="url(#clip0_46_30)">
<path d="M146.94 153.623C146.94 147.137 152.17 141.879 158.621 141.879H216.379C222.83 141.879 228.06 147.137 228.06 153.623C228.06 160.11 222.83 165.368 216.379 165.368H158.621C152.17 165.368 146.94 160.11 146.94 153.623Z" fill="black"/>
<path fill-rule="evenodd" clip-rule="evenodd" d="M216.379 158.191C218.888 158.191 220.921 156.146 220.921 153.623C220.921 151.101 218.888 149.056 216.379 149.056C213.87 149.056 211.836 151.101 211.836 153.623C211.836 156.146 213.87 158.191 216.379 158.191ZM216.379 157.538C218.529 157.538 220.273 155.785 220.273 153.623C220.273 151.461 218.529 149.709 216.379 149.709C214.228 149.709 212.485 151.461 212.485 153.623C212.485 155.785 214.228 157.538 216.379 157.538Z" fill="url(#paint13_linear_46_30)"/>
<g filter="url(#filter0_i_46_30)">
<ellipse cx="216.379" cy="155.292" rx="1.01578" ry="1.94688" transform="rotate(90 216.379 155.292)" fill="url(#paint14_radial_46_30)"/>
</g>
<g filter="url(#filter1_i_46_30)">
<ellipse cx="1.01578" cy="1.94688" rx="1.01578" ry="1.94688" transform="matrix(-1.18608e-08 -1 -1 1.19893e-08 218.326 153.045)" fill="url(#paint15_radial_46_30)"/>
</g>
</g>
<path opacity="0.5" fill-rule="evenodd" clip-rule="evenodd" d="M375 -7H0V832H375V-7ZM311 267H64V564H311V267Z" fill="#1B1E28"/>
<defs>
<filter id="filter0_i_46_30" x="214.432" y="154.276" width="3.89377" height="2.03156" filterUnits="userSpaceOnUse" color-interpolation-filters="sRGB">
<feFlood flood-opacity="0" result="BackgroundImageFix"/>
<feBlend mode="normal" in="SourceGraphic" in2="BackgroundImageFix" result="shape"/>
<feColorMatrix in="SourceAlpha" type="matrix" values="0 0 0 0 0 0 0 0 0 0 0 0 0 0 0 0 0 0 127 0" result="hardAlpha"/>
<feOffset/>
<feGaussianBlur stdDeviation="0.5"/>
<feComposite in2="hardAlpha" operator="arithmetic" k2="-1" k3="1"/>
<feColorMatrix type="matrix" values="0 0 0 0 0 0 0 0 0 0 0 0 0 0 0 0 0 0 0.5 0"/>
<feBlend mode="normal" in2="shape" result="effect1_innerShadow_46_30"/>
</filter>
<filter id="filter1_i_46_30" x="214.432" y="151.013" width="3.89377" height="2.03156" filterUnits="userSpaceOnUse" color-interpolation-filters="sRGB">
<feFlood flood-opacity="0" result="BackgroundImageFix"/>
<feBlend mode="normal" in="SourceGraphic" in2="BackgroundImageFix" result="shape"/>
<feColorMatrix in="SourceAlpha" type="matrix" values="0 0 0 0 0 0 0 0 0 0 0 0 0 0 0 0 0 0 127 0" result="hardAlpha"/>
<feOffset/>
<feGaussianBlur stdDeviation="0.5"/>
<feComposite in2="hardAlpha" operator="arithmetic" k2="-1" k3="1"/>
<feColorMatrix type="matrix" values="0 0 0 0 0 0 0 0 0 0 0 0 0 0 0 0 0 0 0.5 0"/>
<feBlend mode="normal" in2="shape" result="effect1_innerShadow_46_30"/>
</filter>
<linearGradient id="paint0_linear_46_30" x1="324.431" y1="305.648" x2="324.431" y2="374.809" gradientUnits="userSpaceOnUse">
<stop stop-color="#474747"/>
<stop offset="0.484375" stop-color="#A6A6A4"/>
<stop offset="1" stop-color="#474747"/>
</linearGradient>
<linearGradient id="paint1_linear_46_30" x1="324.755" y1="370.699" x2="324.755" y2="374.353" gradientUnits="userSpaceOnUse">
<stop stop-color="#3C3631"/>
<stop offset="0.249443" stop-color="#050000"/>
<stop offset="0.475668" stop-color="#C1BDB9"/>
<stop offset="0.740898" stop-color="#C1BDB9"/>
<stop offset="1" stop-color="#736F6B"/>
</linearGradient>
<linearGradient id="paint2_linear_46_30" x1="324.755" y1="309.759" x2="324.755" y2="306.105" gradientUnits="userSpaceOnUse">
<stop stop-color="#3C3631"/>
<stop offset="0.249443" stop-color="#050000"/>
<stop offset="0.475668" stop-color="#C1BDB9"/>
<stop offset="0.740898" stop-color="#C1BDB9"/>
<stop offset="1" stop-color="#736F6B"/>
</linearGradient>
<linearGradient id="paint3_linear_46_30" x1="50.5693" y1="330.442" x2="50.5693" y2="373.504" gradientUnits="userSpaceOnUse">
<stop stop-color="#474747"/>
<stop offset="0.484375" stop-color="#A6A6A4"/>
<stop offset="1" stop-color="#474747"/>
</linearGradient>
<linearGradient id="paint4_linear_46_30" x1="50.2448" y1="369.394" x2="50.2448" y2="373.048" gradientUnits="userSpaceOnUse">
<stop stop-color="#3C3631"/>
<stop offset="0.249443" stop-color="#050000"/>
<stop offset="0.475668" stop-color="#C1BDB9"/>
<stop offset="0.740898" stop-color="#C1BDB9"/>
<stop offset="1" stop-color="#736F6B"/>
</linearGradient>
<linearGradient id="paint5_linear_46_30" x1="50.2448" y1="334.552" x2="50.2448" y2="330.898" gradientUnits="userSpaceOnUse">
<stop stop-color="#3C3631"/>
<stop offset="0.249443" stop-color="#050000"/>
<stop offset="0.475668" stop-color="#C1BDB9"/>
<stop offset="0.740898" stop-color="#C1BDB9"/>
<stop offset="1" stop-color="#736F6B"/>
</linearGradient>
<linearGradient id="paint6_linear_46_30" x1="50.5693" y1="275.635" x2="50.5693" y2="318.697" gradientUnits="userSpaceOnUse">
<stop stop-color="#474747"/>
<stop offset="0.484375" stop-color="#A6A6A4"/>
<stop offset="1" stop-color="#474747"/>
</linearGradient>
<linearGradient id="paint7_linear_46_30" x1="50.2448" y1="314.587" x2="50.2448" y2="318.241" gradientUnits="userSpaceOnUse">
<stop stop-color="#3C3631"/>
<stop offset="0.249443" stop-color="#050000"/>
<stop offset="0.475668" stop-color="#C1BDB9"/>
<stop offset="0.740898" stop-color="#C1BDB9"/>
<stop offset="1" stop-color="#736F6B"/>
</linearGradient>
<linearGradient id="paint8_linear_46_30" x1="50.2448" y1="279.745" x2="50.2448" y2="276.091" gradientUnits="userSpaceOnUse">
<stop stop-color="#3C3631"/>
<stop offset="0.249443" stop-color="#050000"/>
<stop offset="0.475668" stop-color="#C1BDB9"/>
<stop offset="0.740898" stop-color="#C1BDB9"/>
<stop offset="1" stop-color="#736F6B"/>
</linearGradient>
<linearGradient id="paint9_linear_46_30" x1="50.5693" y1="233.877" x2="50.5693" y2="256.061" gradientUnits="userSpaceOnUse">
<stop stop-color="#474747"/>
<stop offset="0.484375" stop-color="#A6A6A4"/>
<stop offset="1" stop-color="#474747"/>
</linearGradient>
<linearGradient id="paint10_linear_46_30" x1="50.2448" y1="237.987" x2="50.2448" y2="234.333" gradientUnits="userSpaceOnUse">
<stop stop-color="#3C3631"/>
<stop offset="0.249443" stop-color="#050000"/>
<stop offset="0.475668" stop-color="#C1BDB9"/>
<stop offset="0.740898" stop-color="#C1BDB9"/>
<stop offset="1" stop-color="#736F6B"/>
</linearGradient>
<linearGradient id="paint11_linear_46_30" x1="50.2448" y1="252.602" x2="50.2448" y2="256.256" gradientUnits="userSpaceOnUse">
<stop stop-color="#3C3631"/>
<stop offset="0.249443" stop-color="#050000"/>
<stop offset="0.475668" stop-color="#C1BDB9"/>
<stop offset="0.740898" stop-color="#C1BDB9"/>
<stop offset="1" stop-color="#736F6B"/>
</linearGradient>
<linearGradient id="paint12_linear_46_30" x1="158.621" y1="125.567" x2="158.621" y2="128.83" gradientUnits="userSpaceOnUse">
<stop stop-color="#101112"/>
<stop offset="1" stop-color="#232425"/>
</linearGradient>
<linearGradient id="paint13_linear_46_30" x1="217.136" y1="148.295" x2="210.675" y2="153.209" gradientUnits="userSpaceOnUse">
<stop stop-color="#010005"/>
<stop offset="1" stop-color="#2E2D31"/>
</linearGradient>
<radialGradient id="paint14_radial_46_30" cx="0" cy="0" r="1" gradientUnits="userSpaceOnUse" gradientTransform="translate(215.867 155.292) rotate(90) scale(2.49658 1.03197)">
<stop stop-color="#1F85DE"/>
<stop offset="0.257948" stop-color="#1B75C9"/>
<stop offset="1" stop-color="#000232"/>
</radialGradient>
<radialGradient id="paint15_radial_46_30" cx="0" cy="0" r="1" gradientUnits="userSpaceOnUse" gradientTransform="translate(0.503884 1.94688) rotate(90) scale(2.49658 1.03197)">
<stop stop-color="#1F85DE"/>
<stop offset="0.257948" stop-color="#1B75C9"/>
<stop offset="1" stop-color="#000232"/>
</radialGradient>
<clipPath id="clip0_46_30">
<rect x="146.94" y="141.879" width="81.1201" height="23.4888" rx="11.7444" fill="white"/>
</clipPath>
</defs>
</svg>
