<svg width="28" height="27" viewBox="0 0 28 27" fill="none" xmlns="http://www.w3.org/2000/svg">
<path d="M9.00909 4.20728C7.86818 4.20728 6.774 4.6605 5.96725 5.46725C5.1605 6.274 4.70728 7.36818 4.70728 8.50909V10.2907C4.70728 10.554 4.81187 10.8065 4.99804 10.9927C5.18421 11.1788 5.43672 11.2834 5.7 11.2834C5.96329 11.2834 6.21579 11.1788 6.40197 10.9927C6.58814 10.8065 6.69273 10.554 6.69273 10.2907V8.50909C6.69273 7.23046 7.73046 6.19273 9.00909 6.19273H10.7907C11.054 6.19273 11.3065 6.08814 11.4927 5.90197C11.6788 5.71579 11.7834 5.46329 11.7834 5.2C11.7834 4.93672 11.6788 4.68421 11.4927 4.49804C11.3065 4.31187 11.054 4.20728 10.7907 4.20728H9.00909ZM17.1548 4.20728C16.8915 4.20728 16.639 4.31187 16.4528 4.49804C16.2666 4.68421 16.162 4.93672 16.162 5.2C16.162 5.46329 16.2666 5.71579 16.4528 5.90197C16.639 6.08814 16.8915 6.19273 17.1548 6.19273H18.9364C20.215 6.19273 21.2527 7.23046 21.2527 8.50909V10.2907C21.2527 10.554 21.3573 10.8065 21.5435 10.9927C21.7297 11.1788 21.9822 11.2834 22.2455 11.2834C22.5087 11.2834 22.7612 11.1788 22.9474 10.9927C23.1336 10.8065 23.2382 10.554 23.2382 10.2907V8.50909C23.2382 7.36818 22.785 6.274 21.9782 5.46725C21.1715 4.6605 20.0773 4.20728 18.9364 4.20728H17.1548ZM6.69273 16.6548C6.69273 16.3915 6.58814 16.139 6.40197 15.9528C6.21579 15.7666 5.96329 15.662 5.7 15.662C5.43672 15.662 5.18421 15.7666 4.99804 15.9528C4.81187 16.139 4.70728 16.3915 4.70728 16.6548V18.4364C4.70728 19.5773 5.1605 20.6715 5.96725 21.4782C6.774 22.285 7.86818 22.7382 9.00909 22.7382H10.7907C11.054 22.7382 11.3065 22.6336 11.4927 22.4474C11.6788 22.2612 11.7834 22.0087 11.7834 21.7455C11.7834 21.4822 11.6788 21.2297 11.4927 21.0435C11.3065 20.8573 11.054 20.7527 10.7907 20.7527H9.00909C8.39476 20.7527 7.80558 20.5087 7.37118 20.0743C6.93677 19.6399 6.69273 19.0507 6.69273 18.4364V16.6548ZM23.2382 16.6548C23.2382 16.3915 23.1336 16.139 22.9474 15.9528C22.7612 15.7666 22.5087 15.662 22.2455 15.662C21.9822 15.662 21.7297 15.7666 21.5435 15.9528C21.3573 16.139 21.2527 16.3915 21.2527 16.6548V18.4364C21.2527 19.0507 21.0087 19.6399 20.5743 20.0743C20.1399 20.5087 19.5507 20.7527 18.9364 20.7527H17.1548C16.8915 20.7527 16.639 20.8573 16.4528 21.0435C16.2666 21.2297 16.162 21.4822 16.162 21.7455C16.162 22.0087 16.2666 22.2612 16.4528 22.4474C16.639 22.6336 16.8915 22.7382 17.1548 22.7382H18.9364C20.0773 22.7382 21.1715 22.285 21.9782 21.4782C22.785 20.6715 23.2382 19.5773 23.2382 18.4364V16.6548ZM9.67091 12.48C9.40762 12.48 9.15512 12.5846 8.96895 12.7708C8.78277 12.9569 8.67818 13.2094 8.67818 13.4727C8.67818 13.736 8.78277 13.9885 8.96895 14.1747C9.15512 14.3609 9.40762 14.4655 9.67091 14.4655H18.2745C18.5378 14.4655 18.7903 14.3609 18.9765 14.1747C19.1627 13.9885 19.2673 13.736 19.2673 13.4727C19.2673 13.2094 19.1627 12.9569 18.9765 12.7708C18.7903 12.5846 18.5378 12.48 18.2745 12.48H9.67091Z" fill="white"/>
</svg>
