<svg width="369" height="448" viewBox="0 0 369 448" fill="none" xmlns="http://www.w3.org/2000/svg">
<path opacity="0.9" d="M116.73 188.027C156.47 115.834 72.4771 31.6656 36 -4H372V441.607C162.733 459.813 57.578 295.486 116.73 188.027Z" fill="#6A1448" fill-opacity="0.9"/>
<mask id="mask0_29_2" style="mask-type:alpha" maskUnits="userSpaceOnUse" x="0" y="-35" width="456" height="483">
<path d="M48.4469 -32.6779C47.21 -33.9163 45.2 -35 44.2724 -35H44.1178C43.1901 -35 33.295 -29.8913 22.4723 -23.699C3.45521 -13.0173 2.68216 -12.3981 3.14599 -7.90866C3.45521 -4.19327 4.38288 -3.10962 7.47509 -2.8C9.94886 -2.49039 17.5248 -5.74135 27.8837 -11.3144C37.1603 -16.2683 45.9731 -21.5317 47.6738 -22.925C49.3745 -24.4731 50.766 -26.7952 50.766 -28.0337C50.766 -29.2721 49.6838 -31.4394 48.4469 -32.6779Z" fill="#85195A"/>
<path d="M78.2867 -32.3683C77.6682 -33.7615 76.2767 -35 75.0398 -35C73.803 -35 72.1023 -33.9163 71.1746 -32.6779C69.9377 -30.975 70.0923 -28.9625 71.793 -24.9375C73.1845 -21.6865 76.1221 -18.5904 79.0597 -17.0423C82.3066 -15.3394 86.0172 -14.875 89.5732 -15.3394C92.5108 -15.9587 96.84 -18.2808 99.3137 -20.6029C101.633 -22.925 103.797 -26.176 104.261 -27.724C104.725 -29.1173 103.952 -31.4394 102.56 -32.8327C100.396 -35 99.7775 -34.6904 95.2938 -29.7365C92.5108 -26.7952 88.9548 -24.3183 87.2541 -24.1635C85.5534 -24.1635 83.0796 -25.2471 81.6881 -26.7952C80.2966 -28.3433 78.7505 -30.8202 78.2867 -32.3683Z" fill="#85195A"/>
<path d="M191.462 -31.5942C190.688 -33.4519 189.142 -35 188.06 -34.8452C187.132 -34.8452 185.122 -34.3808 184.04 -33.9163C182.803 -33.6067 181.876 -32.0587 182.03 -30.6654C182.185 -29.2721 183.576 -25.8663 185.123 -23.3894C186.669 -20.9125 189.915 -17.8163 192.544 -16.7327C195.172 -15.4942 199.347 -15.0298 202.748 -15.4942C206.613 -16.1135 209.86 -17.9712 212.489 -21.0673C214.653 -23.5442 216.354 -27.4144 216.354 -29.5817C216.354 -31.749 215.426 -33.7615 214.344 -34.0712C213.416 -34.3808 211.715 -34.226 210.788 -33.7615C209.86 -33.1423 208.314 -31.1298 207.232 -29.2721C206.304 -27.2596 203.83 -25.4019 201.666 -24.9375C199.501 -24.4731 196.718 -25.0923 195.327 -26.176C193.935 -27.1048 192.08 -29.5817 191.462 -31.5942Z" fill="#85195A"/>
<path d="M274.797 -33.1423C273.714 -34.226 271.704 -35 270.467 -35C269.231 -35 260.109 -30.3558 250.368 -24.7827C240.628 -19.2096 231.66 -13.7913 230.578 -12.8625C229.341 -11.7788 228.723 -9.30192 229.032 -7.13462C229.341 -4.34808 230.578 -3.10962 233.361 -2.8C235.68 -2.49039 242.174 -4.96731 249.595 -8.8375C256.398 -12.3981 265.211 -17.3519 269.231 -19.674C274.487 -22.925 276.652 -25.0923 276.652 -27.724C276.652 -29.5817 275.879 -32.0587 274.797 -33.1423Z" fill="#85195A"/>
<path d="M304.018 -29.8913C303.09 -32.2135 300.926 -34.3808 299.534 -34.6904C298.143 -35 296.442 -33.9163 295.824 -32.3683C295.36 -30.8202 295.669 -27.8788 296.597 -25.7115C297.524 -23.5442 299.689 -20.4481 301.544 -18.7452C303.863 -16.5779 306.956 -15.649 312.522 -15.649C319.17 -15.649 320.716 -16.2683 324.736 -20.7577C327.21 -23.3894 329.219 -27.4144 329.219 -29.5817C329.219 -31.749 328.137 -33.7615 326.9 -34.226C325.663 -34.6904 323.499 -33.9163 322.262 -32.6779C321.025 -31.4394 319.943 -29.5817 319.943 -28.8077C319.943 -28.0337 318.397 -26.4856 316.387 -25.5567C314.531 -24.6279 311.439 -24.3183 309.429 -24.7827C307.574 -25.2471 305.1 -27.5692 304.018 -29.8913Z" fill="#85195A"/>
<path d="M381.942 -28.3433C383.488 -30.8202 383.642 -32.3683 382.56 -33.2971C381.426 -34.3292 377.046 -32.7811 369.418 -28.6529C363.079 -25.0923 353.339 -19.8288 347.773 -16.8875C342.207 -13.9462 337.105 -10.85 336.177 -10.076C335.146 -9.14712 335.301 -8.06346 336.641 -6.825C338.187 -5.12212 339.578 -5.27692 343.134 -7.59904C345.763 -8.99231 349.01 -10.2308 350.401 -10.2308C352.72 -10.3856 352.875 -9.92115 351.174 -7.90866C350.246 -6.67019 349.628 -4.8125 350.092 -4.03846C350.556 -3.26443 351.483 -2.49039 352.411 -2.49039C353.339 -2.49039 363.388 -7.59904 374.829 -13.7913C386.425 -19.8288 395.547 -25.7115 395.238 -26.4856C394.929 -27.2596 393.228 -27.8788 391.682 -27.724C390.136 -27.5692 386.735 -26.7952 384.261 -26.176C379.777 -24.9375 379.777 -25.0923 381.942 -28.3433Z" fill="#85195A"/>
<path d="M416.884 -29.8913C415.956 -32.2135 413.791 -34.3808 412.4 -34.6904C411.008 -35 409.308 -33.9163 408.689 -32.3683C408.225 -30.8202 408.071 -28.0337 408.689 -26.0212C409.153 -24.1635 411.008 -21.2221 412.709 -19.5192C414.41 -17.8163 418.43 -15.9587 421.522 -15.4942C425.542 -14.875 429.098 -15.3394 432.345 -17.0423C435.128 -18.4356 438.684 -21.9962 440.075 -24.9375C442.549 -29.8913 442.549 -30.6654 440.539 -32.8327C438.374 -35.1548 437.756 -35 432.808 -29.5817C428.325 -24.7827 426.624 -24.0087 423.068 -24.7827C420.594 -25.4019 418.12 -27.4144 416.884 -29.8913Z" fill="#85195A"/>
<path d="M162.704 -26.176C161.931 -26.7952 160.385 -27.2596 159.148 -27.2596C157.911 -27.1048 148.171 -22.3058 137.502 -16.4231C126.834 -10.5404 117.558 -5.43173 116.63 -5.12212C115.702 -4.8125 115.857 -3.57404 117.094 -2.02596C118.795 0.296154 119.413 0.450962 123.588 -1.71635C126.061 -2.95481 128.69 -3.72885 129.463 -3.26442C130.081 -2.95481 129.463 -1.40673 128.226 -0.16827C126.68 1.48301 126.422 2.82468 127.453 3.85673C128.535 4.94038 135.956 1.99903 151.108 -5.89616C163.168 -12.0885 173.063 -18.126 173.063 -19.0548C173.063 -20.1385 172.444 -21.3769 171.517 -21.8413C170.589 -22.3058 167.806 -21.5317 165.332 -20.2933C162.859 -19.0548 160.23 -18.2808 159.612 -18.7452C158.839 -19.2096 159.612 -20.7577 161.158 -22.151C162.549 -23.699 163.322 -25.5567 162.704 -26.176Z" fill="#85195A"/>
<path d="M66.3817 6.79808C64.6809 5.09519 61.2795 3.70192 58.8058 3.70192C56.332 3.70192 52.9306 4.94038 51.0752 6.48846C49.3745 7.88173 47.3646 11.1327 46.9008 13.7644C45.9731 17.4798 46.5915 19.1827 49.8384 22.7433C52.6213 25.375 55.5589 26.9231 58.6511 26.9231C61.2795 26.9231 64.6809 25.5298 66.3817 23.8269C68.237 21.9692 69.4739 18.7183 69.4739 15.3125C69.4739 11.9067 68.237 8.65577 66.3817 6.79808Z" fill="#85195A"/>
<path d="M179.247 6.79808C177.547 5.09519 174.145 3.70192 171.517 3.70192C168.888 3.70192 165.487 5.09519 163.786 6.79808C161.931 8.65577 160.694 11.9067 160.694 15.3125C160.694 18.7183 161.931 21.9692 163.786 23.8269C165.487 25.5298 168.888 26.9231 171.517 26.9231C174.145 26.9231 177.547 25.5298 179.247 23.8269C181.103 21.9692 182.34 18.7183 182.34 15.3125C182.34 11.9067 181.103 8.65577 179.247 6.79808Z" fill="#85195A"/>
<path d="M292.113 6.64327C289.948 4.94038 286.392 3.54712 284.073 3.70192C281.599 3.70192 278.353 5.09519 276.652 6.79808C274.797 8.65577 273.56 11.9067 273.56 15.3125C273.56 18.7183 274.797 21.9692 276.652 23.8269C278.353 25.5298 281.599 26.9231 284.073 26.9231C286.392 27.0779 289.948 25.6846 292.113 23.9817C295.051 21.8144 295.978 19.4923 295.978 15.3125C295.978 11.1327 295.051 8.81057 292.113 6.64327Z" fill="#85195A"/>
<path d="M404.979 6.64327C402.814 4.94038 399.258 3.54712 397.093 3.70192C394.929 3.70192 391.527 5.25 389.517 7.2625C387.044 9.58461 385.962 12.3712 386.116 15.4673C386.271 17.9442 387.971 21.5048 389.827 23.3625C391.837 25.375 395.083 26.9231 397.248 26.9231C399.413 27.0779 402.814 25.6846 404.979 23.9817C407.916 21.8144 408.844 19.4923 408.844 15.3125C408.844 11.1327 407.916 8.81057 404.979 6.64327Z" fill="#85195A"/>
<path d="M115.084 33.8894C113.847 32.651 111.837 31.5673 110.91 31.7221C109.827 31.7221 102.561 35.2827 94.9846 39.4625C87.4087 43.6423 78.4413 48.9058 75.3491 50.9183C71.1746 53.7048 69.4739 55.8721 69.4739 58.6586C69.4739 60.9808 70.7108 63.1481 72.5661 64.0769C75.0398 65.3154 78.5959 64.0769 90.8101 57.7298C99.0045 53.2404 107.972 48.2865 110.446 46.5836C112.919 44.726 115.548 42.5587 116.166 41.6298C116.785 40.8558 117.403 39.1529 117.403 38.224C117.403 37.1404 116.321 35.1279 115.084 33.8894Z" fill="#85195A"/>
<path d="M227.177 33.1154C225.476 32.3413 223.93 31.5673 223.775 31.5673C223.466 31.5673 218.828 34.0442 213.262 36.8308C207.696 39.7721 198.728 44.8808 193.162 48.1317C185.277 53.0856 182.958 55.2529 182.803 58.5038C182.494 61.4452 183.267 62.8385 185.896 63.9221C188.679 65.0058 192.544 63.6125 205.531 56.6462C214.499 52.0019 223.621 46.7385 226.094 45.1904C228.723 43.3327 230.269 41.0106 230.269 38.5337C230.269 36.2115 229.032 34.0442 227.177 33.1154Z" fill="#85195A"/>
<path d="M340.042 33.1154C338.341 32.3413 336.795 31.5673 336.641 31.5673C336.332 31.5673 330.611 34.6635 323.808 38.224C317.005 41.9394 308.038 47.0481 303.709 49.525C297.833 53.0856 295.824 55.2529 295.669 58.349C295.36 61.2904 296.133 62.9933 298.297 64.0769C300.771 65.3154 304.636 63.9221 318.088 56.9558C327.21 52.0019 336.486 46.8933 338.96 45.3452C341.588 43.4875 343.134 41.0106 343.134 38.5337C343.134 36.2115 341.897 34.0442 340.042 33.1154Z" fill="#85195A"/>
<path d="M454.145 33.425C453.062 32.3413 451.362 31.5673 450.589 31.5673C449.816 31.5673 446.26 32.9606 442.858 34.8183C439.457 36.5211 431.881 40.8558 425.851 44.2615C419.821 47.8221 413.482 51.5375 411.627 52.776C409.462 54.0144 408.071 56.3365 408.071 58.6586C408.071 60.9808 409.308 63.1481 411.163 64.0769C413.637 65.3154 417.502 63.9221 430.953 56.801C440.075 52.0019 449.352 46.8933 451.826 45.1904C454.299 43.6423 456 41.0106 456 38.9981C456 36.9856 455.227 34.5087 454.145 33.425Z" fill="#85195A"/>
<path d="M23.5546 57.8846C22.0085 55.4077 19.9985 53.0856 19.0709 52.776C18.1432 52.4663 16.4425 52.4663 15.2056 52.776C14.1234 53.2404 13.3503 54.9433 13.5049 56.801C13.6595 58.6587 15.051 62.0644 16.9063 64.5414C18.607 66.8635 22.6269 69.4952 25.8737 70.424C30.5121 71.8173 32.6766 71.6625 37.4695 69.65C40.5617 68.2567 44.2724 65.625 45.5093 63.7673C46.9008 61.7548 47.8284 58.8135 47.5192 57.1106C47.21 55.2529 45.6639 53.8596 43.4993 53.7048C41.644 53.3952 40.0979 54.0144 40.0979 54.7885C40.0979 55.5625 38.7064 57.7298 37.0057 59.4327C35.305 61.1356 32.2127 62.5288 30.0482 62.5288C27.4198 62.5288 25.4099 61.1356 23.5546 57.8846Z" fill="#85195A"/>
<path d="M136.42 57.8846C134.874 55.4077 132.864 53.0856 131.937 52.776C131.009 52.4663 129.308 52.4663 128.071 52.776C126.989 53.2404 126.216 55.2529 126.371 57.2654C126.525 59.2779 128.38 62.9933 130.545 65.625C132.864 68.2567 136.575 70.5788 139.512 71.1981C142.45 71.6625 146.779 71.1981 150.335 69.65C153.427 68.2567 157.138 65.625 158.375 63.7673C159.766 61.7548 160.694 58.8135 160.385 57.1106C160.076 55.2529 158.53 53.8596 156.365 53.7048C154.2 53.3952 152.345 54.4788 151.263 56.801C150.181 58.6587 148.634 60.6712 147.707 61.2904C146.779 61.9096 144.46 62.5288 142.605 62.5288C140.285 62.5288 138.121 60.826 136.42 57.8846Z" fill="#85195A"/>
<path d="M247.74 57.1106C246.967 54.9433 245.73 52.9308 244.802 52.6211C243.874 52.3115 242.174 52.4663 240.937 52.776C239.855 53.2404 239.082 55.4077 239.236 58.0394C239.391 60.5163 241.246 64.2317 243.411 66.399C245.575 68.5663 249.595 70.7337 252.378 71.1981C255.676 71.8173 259.336 71.1981 263.355 69.3404C266.757 67.6375 270.313 64.3865 271.55 61.7548C272.787 59.1231 273.405 56.1817 272.941 55.2529C272.477 54.1692 270.622 53.2404 268.921 53.2404C267.066 53.2404 265.056 54.9433 263.974 57.2654C262.892 59.4327 260.572 61.6 258.872 62.0644C257.171 62.5288 254.233 62.374 252.378 61.9096C250.368 61.4452 248.358 59.2779 247.74 57.1106Z" fill="#85195A"/>
<path d="M360.142 55.7173C359.987 54.4788 359.059 53.2404 357.977 52.9308C356.895 52.4663 355.039 52.4663 353.803 52.776C352.72 53.2404 351.947 55.2529 352.102 57.575C352.256 59.8971 353.493 63.3029 354.73 65.3154C355.967 67.1731 359.678 69.4952 362.925 70.424C366.017 71.3529 370.346 71.6625 372.51 71.1981C374.675 70.7337 378.695 67.9471 381.478 64.851C384.106 61.9096 386.271 58.1942 385.962 56.801C385.807 55.2529 384.261 53.8596 382.56 53.55C380.55 53.2404 378.231 54.7885 376.066 57.8846C373.747 60.826 371.119 62.5288 368.645 62.5288C366.481 62.5288 363.698 61.4452 362.461 60.2067C361.224 58.9683 360.142 56.9558 360.142 55.7173Z" fill="#85195A"/>
<path d="M78.7505 94.4192C78.5959 93.1808 77.6682 91.9423 76.2767 91.3231C75.0398 90.8587 73.0299 91.4779 71.793 92.7163C69.7831 94.7288 69.7831 95.8125 71.4838 99.9923C72.4115 102.624 75.0398 105.875 77.2044 107.268C79.3689 108.507 83.698 109.59 86.7903 109.59C90.1917 109.745 94.2116 108.507 96.84 106.494C99.1591 104.791 101.942 101.54 103.024 99.5279C103.952 97.5154 104.416 94.8837 104.107 93.9548C103.797 92.8712 102.251 91.9423 100.86 91.9423C99.3137 91.9423 96.5307 93.9548 94.6754 96.5865C92.3563 99.5279 89.7278 101.231 87.2541 101.231C85.0895 101.231 82.3065 100.147 81.0697 98.9086C79.8328 97.6702 78.7505 95.6577 78.7505 94.4192Z" fill="#85195A"/>
<path d="M161.312 92.4067C159.766 91.3231 158.066 90.3942 157.602 90.3942C157.138 90.3942 153.273 92.2519 149.098 94.4192C144.769 96.5865 135.802 101.386 128.999 105.101C122.196 108.816 116.166 112.996 115.702 114.699C115.239 116.247 115.084 118.414 115.393 119.498C115.548 120.427 117.248 121.975 118.949 122.904C121.268 124.142 123.742 123.523 129.463 120.582C133.483 118.414 142.605 113.306 149.871 109.281C159.921 103.708 163.168 101.076 163.632 98.1346C164.095 95.6577 163.322 93.8 161.312 92.4067Z" fill="#85195A"/>
<path d="M189.452 91.6327C188.524 91.0135 187.442 90.3942 186.978 90.3942C186.514 90.3942 185.277 91.0135 184.195 91.6327C182.803 92.2519 182.339 94.2644 182.958 97.3606C183.422 99.9923 185.123 103.243 186.514 104.637C188.06 106.185 191.462 108.042 193.935 108.816C196.873 109.745 200.738 109.745 204.449 108.816C207.696 108.042 211.406 105.72 213.262 103.243C215.117 100.766 216.508 97.3606 216.354 95.5029C216.354 92.7163 215.426 91.9423 212.489 91.9423C209.912 91.9423 208.366 92.9743 207.85 95.0385C207.386 96.7413 205.531 98.9086 203.676 99.8375C201.666 100.766 198.574 101.076 196.718 100.612C194.708 100.147 192.698 98.1346 192.235 96.2769C191.616 94.2644 190.379 92.2519 189.452 91.6327Z" fill="#85195A"/>
<path d="M266.602 91.9423C266.138 91.0135 264.902 90.549 263.974 90.549C262.892 90.7038 253.151 95.5029 242.328 101.076C231.506 106.649 221.765 112.222 220.683 113.306C218.982 114.854 218.982 115.473 220.683 117.176C222.229 118.724 223.62 118.414 227.95 115.938C230.887 114.235 233.825 113.306 234.443 113.925C235.216 114.544 234.598 116.247 233.361 117.486C231.815 119.137 231.557 120.479 232.588 121.511C233.67 122.594 241.091 119.498 255.625 111.758C267.53 105.565 277.58 99.5279 278.043 98.4442C278.507 97.3606 278.507 95.9673 277.734 95.3481C277.116 94.7288 274.024 95.5029 270.777 97.051C267.685 98.599 264.747 99.3731 264.283 99.0635C263.819 98.599 264.438 97.2058 265.52 95.8125C266.448 94.574 267.066 92.8712 266.602 91.9423Z" fill="#85195A"/>
<path d="M304.173 95.5029C303.09 93.3356 301.544 91.1683 300.617 90.8587C299.843 90.7038 298.143 91.0135 297.06 91.6327C295.669 92.2519 295.205 94.2644 295.824 97.3606C296.287 99.9923 297.988 103.243 299.38 104.637C300.926 106.03 304.018 107.887 306.492 108.816C309.275 110.055 312.676 110.055 316.851 108.971C320.561 108.042 324.272 105.72 326.127 103.243C327.983 100.766 329.374 97.3606 329.219 95.5029C329.219 92.7163 328.292 91.9423 325.354 91.9423C322.777 91.9423 321.231 92.9743 320.716 95.0385C320.252 96.7413 318.397 98.9086 316.541 99.8375C314.531 100.766 311.439 101.076 309.584 100.612C307.574 100.147 305.1 97.825 304.173 95.5029Z" fill="#85195A"/>
<path d="M387.662 92.2519C386.58 91.1683 384.57 90.3942 383.333 90.3942C382.096 90.549 372.047 95.6577 361.224 101.695C343.289 111.758 341.434 113.306 341.588 117.176C341.588 119.808 342.671 121.975 344.68 122.904C347.154 124.142 349.783 123.368 356.74 119.808C361.533 117.176 370.81 112.067 377.149 108.507C386.116 103.398 388.899 101.076 389.208 98.1346C389.363 95.9673 388.744 93.3356 387.662 92.2519Z" fill="#85195A"/>
<path d="M417.038 95.5029C415.956 93.1808 413.791 91.0135 412.4 90.7038C411.008 90.3942 409.308 91.4779 408.689 93.026C408.071 94.574 408.225 97.5154 408.998 99.5279C409.771 101.54 412.4 104.637 414.719 106.494C417.502 108.507 421.213 109.745 424.769 109.59C427.861 109.59 432.19 108.352 434.355 107.113C436.519 105.72 439.147 102.624 440.384 100.147C441.467 97.825 441.93 94.8837 441.467 93.9548C441.003 92.8712 439.302 91.9423 437.911 91.9423C436.365 91.9423 433.427 94.2644 431.262 96.8961C428.016 100.921 426.624 101.54 423.223 100.612C420.594 100.147 418.12 97.9798 417.038 95.5029Z" fill="#85195A"/>
<path d="M49.3745 98.9086C49.3745 97.6702 48.1376 96.5865 46.7461 96.7413C45.2 96.7413 34.8411 101.85 23.5546 107.887L23.5481 107.891C12.4188 114.082 2.68201 119.498 1.90911 120.117C1.29067 120.737 1.13605 122.439 1.90911 123.678C2.83677 125.69 3.76443 125.536 9.1758 122.904L15.3602 119.808C13.3503 127.858 13.6595 129.096 15.051 129.096C15.9787 129.096 22.9361 126 30.5121 122.13C37.9334 118.26 47.0554 113.461 50.9206 111.293C54.7859 109.126 58.6511 106.649 59.4242 105.875C60.4549 104.843 60.4549 103.811 59.4242 102.779C58.3419 101.54 56.1774 102.005 52.1575 103.862C48.9107 105.411 45.8185 106.03 45.2001 105.411C44.427 104.637 45.2 103.398 46.7461 102.624C48.1376 101.85 49.3745 100.147 49.3745 98.9086Z" fill="#85195A"/>
<path d="M66.3817 132.192C64.6809 130.489 61.2795 129.096 58.8058 129.096C56.332 129.096 52.776 130.489 50.766 132.038C48.1377 134.205 47.0554 136.527 47.0554 140.397C47.0554 143.648 48.2922 147.054 50.1476 149.066C52.1575 151.234 55.0951 152.472 58.3419 152.317C61.1249 152.317 64.5263 151.079 66.3817 149.221C68.237 147.363 69.4739 144.112 69.4739 140.707C69.4739 137.301 68.237 134.05 66.3817 132.192Z" fill="#85195A"/>
<path d="M179.247 132.192C177.547 130.489 174.145 129.096 171.517 129.096C168.888 129.096 165.487 130.489 163.786 132.192C161.931 134.05 160.694 137.301 160.694 140.707C160.694 144.112 161.931 147.363 163.786 149.221C165.487 150.924 168.888 152.317 171.517 152.317C174.145 152.317 177.547 150.924 179.247 149.221C181.103 147.363 182.34 144.112 182.34 140.707C182.34 137.301 181.103 134.05 179.247 132.192Z" fill="#85195A"/>
<path d="M292.113 132.038C289.948 130.335 286.392 128.941 284.073 129.096C281.599 129.096 278.353 130.489 276.652 132.192C274.797 134.05 273.56 137.301 273.56 140.707C273.56 144.112 274.797 147.363 276.652 149.221C278.507 151.079 281.909 152.317 284.846 152.317C287.938 152.472 290.876 151.234 292.886 149.066C294.741 147.054 295.978 143.648 295.978 140.397C295.978 136.527 294.896 134.205 292.113 132.038Z" fill="#85195A"/>
<path d="M404.206 131.109C402.505 130.025 399.722 129.096 397.866 129.096C396.011 129.096 392.764 130.489 390.445 132.347C387.198 134.669 386.116 136.837 386.271 140.397C386.271 143.184 387.817 146.899 389.517 148.912C391.218 150.769 394.31 152.317 396.475 152.317C398.64 152.317 401.423 151.853 402.814 151.234C404.205 150.46 406.37 148.137 407.452 145.815C408.844 143.029 409.153 139.933 408.535 137.301C407.762 135.134 405.906 132.347 404.206 131.109Z" fill="#85195A"/>
<path d="M115.239 159.748C113.847 158.2 112.301 156.962 111.683 156.962C110.909 156.962 101.324 161.761 90.3463 167.643C71.6384 177.551 70.2469 178.635 69.9377 183.124C69.6285 186.685 70.2469 188.387 72.5661 189.471C75.0398 190.71 79.369 189.007 96.2215 179.718C110.291 171.978 116.785 167.643 117.094 165.476C117.403 163.773 116.63 161.141 115.239 159.748Z" fill="#85195A"/>
<path d="M227.795 158.974C226.249 157.89 224.548 156.962 224.084 156.962C223.62 156.962 214.035 161.915 202.593 167.953C182.958 178.325 181.876 179.099 182.03 183.434C182.185 186.22 183.576 188.542 185.432 189.471C187.751 190.71 190.225 190.09 195.945 187.149C199.965 184.982 209.087 180.028 216.354 175.848C226.249 170.275 229.65 167.643 230.114 164.702C230.578 162.225 229.805 160.367 227.795 158.974Z" fill="#85195A"/>
<path d="M340.661 158.974C339.115 157.89 337.414 156.962 336.95 156.962C336.486 156.962 328.137 161.296 318.397 166.56C308.656 171.668 299.38 177.087 297.834 178.48C296.287 179.873 295.051 182.505 295.205 184.517C295.205 186.375 296.597 188.542 298.297 189.471C300.771 190.71 305.1 189.007 321.953 179.873C338.341 170.739 342.516 167.798 342.98 164.857C343.444 162.225 342.671 160.367 340.661 158.974Z" fill="#85195A"/>
<path d="M453.526 158.974C451.98 157.89 450.279 156.962 449.816 156.962C449.352 156.962 441.312 161.141 432.035 166.25C422.759 171.359 414.41 175.538 413.637 175.538C412.864 175.538 411.318 176.777 410.235 178.325C409.153 179.718 408.071 182.505 408.071 184.517C408.071 186.375 409.462 188.542 411.163 189.471C413.173 190.555 415.492 190.555 417.811 189.471C419.667 188.697 428.943 183.588 438.22 178.325C451.362 170.739 455.382 167.643 455.845 164.702C456.309 162.225 455.536 160.367 453.526 158.974Z" fill="#85195A"/>
<path d="M23.0907 182.505C21.6992 180.028 19.5347 177.706 18.2978 177.396C17.0609 177.241 15.3602 177.396 14.5872 178.015C13.9687 178.635 13.3503 180.802 13.5049 182.814C13.6595 184.672 15.5148 188.542 17.6794 191.019C20.3078 194.115 23.5546 195.973 27.4198 196.592C30.8213 197.057 34.9957 196.747 37.6241 195.354C40.0979 194.27 43.4993 191.638 45.0454 189.471C46.5915 187.304 47.983 184.053 47.8284 182.195C47.8284 180.183 46.9007 178.325 45.9731 178.015C44.8908 177.706 43.1901 177.861 42.417 178.325C41.4894 178.944 39.6341 181.266 38.0879 183.743C36.078 186.994 34.3773 187.768 30.5121 187.613C26.956 187.304 24.9461 185.911 23.0907 182.505Z" fill="#85195A"/>
<path d="M135.956 182.505C134.256 179.563 131.937 177.087 130.854 177.087C129.617 177.087 128.226 177.551 127.453 178.17C126.68 178.635 126.216 180.802 126.371 182.814C126.525 184.672 128.38 188.542 130.545 191.019C132.71 193.651 136.266 196.128 138.739 196.592C141.059 197.057 145.542 196.747 148.789 195.818C151.881 194.889 155.901 192.258 157.602 189.936C159.457 187.459 160.849 184.053 160.694 182.195C160.694 180.183 159.612 178.325 158.375 177.861C157.138 177.396 154.819 178.48 153.427 180.028C151.881 181.731 149.717 184.208 148.789 185.446C147.707 186.839 145.078 187.923 142.914 187.923C140.131 187.923 138.121 186.375 135.956 182.505Z" fill="#85195A"/>
<path d="M247.276 181.731C246.503 179.254 244.802 177.087 243.72 177.087C242.483 177.087 241.091 177.551 240.318 178.17C239.545 178.635 239.082 181.112 239.236 183.588C239.391 185.911 241.246 189.626 243.411 191.793C245.575 193.961 249.595 196.128 252.378 196.592C255.316 197.057 259.645 196.592 263.201 195.044C266.757 193.496 269.849 190.71 271.395 187.613C272.632 184.827 273.405 181.576 272.941 180.647C272.477 179.563 270.622 178.635 268.921 178.635C267.066 178.635 265.056 180.338 263.974 182.66C262.892 184.827 260.572 186.994 258.872 187.459C257.171 187.923 254.233 187.768 252.378 187.304C250.214 186.685 248.204 184.517 247.276 181.731Z" fill="#85195A"/>
<path d="M360.142 181.731C359.368 179.254 357.668 177.087 356.586 177.087C355.349 177.087 353.957 177.551 353.184 178.17C352.411 178.635 351.947 180.957 352.102 183.124C352.256 185.291 353.339 188.542 354.421 190.245C355.658 191.948 358.595 194.27 361.069 195.354C363.698 196.747 367.872 197.057 371.428 196.592C375.448 195.973 378.54 193.961 381.787 190.245C384.415 187.304 386.425 183.743 386.425 182.505C386.425 181.266 385.034 179.563 383.333 178.789C381.478 178.015 379.622 177.706 379.004 178.325C378.386 178.944 377.149 180.802 376.221 182.505C375.293 184.208 373.438 186.22 372.356 186.994C371.119 187.768 368.336 187.923 366.017 187.304C363.079 186.685 361.224 184.982 360.142 181.731Z" fill="#85195A"/>
<path d="M50.6114 223.374C50.3022 221.516 48.7561 219.039 47.0554 217.956C44.2724 216.253 41.7986 217.027 25.4099 226.006C15.2056 231.579 5.61975 237.462 4.22826 239.164C2.52754 241.022 1.90911 243.035 2.68217 244.583C3.30061 245.976 5.00133 247.834 6.54744 248.453C8.40276 249.537 13.6595 247.524 25.8737 241.022C34.9958 236.223 44.2724 231.114 46.7461 229.412C49.3745 227.554 50.766 225.541 50.6114 223.374Z" fill="#85195A"/>
<path d="M79.2144 221.981C78.1321 219.813 76.586 217.491 75.9675 216.872C75.3491 216.098 73.4937 216.717 71.9476 218.111C70.5561 219.504 69.3193 221.052 69.3193 221.671C69.4739 222.29 70.8654 225.077 72.5661 227.863C74.2668 230.495 77.359 233.437 79.5236 234.365C81.6881 235.294 85.0895 235.913 87.2541 235.913C89.4186 235.913 93.2839 234.83 95.7577 233.591C98.2314 232.353 101.478 229.257 102.715 226.625C103.952 224.148 104.725 220.897 104.261 219.659C103.797 218.42 102.097 217.337 100.396 217.337C98.5406 217.337 96.5307 219.039 95.4484 221.362C94.3662 223.529 92.047 225.696 90.3463 226.161C88.6456 226.47 85.8626 226.625 84.1619 226.315C82.4612 226.161 80.2966 224.148 79.2144 221.981Z" fill="#85195A"/>
<path d="M192.08 221.981C190.998 219.813 189.452 217.646 188.833 217.027C188.215 216.408 186.359 216.717 184.659 217.491C183.113 218.42 181.876 220.433 182.03 221.981C182.185 223.684 184.813 227.554 187.751 230.495C192.08 234.83 194.399 235.913 199.347 235.913C203.985 235.913 206.923 234.83 210.942 231.269C214.498 228.328 216.354 225.232 216.354 222.755C216.354 220.587 215.272 218.42 214.035 217.801C212.334 216.872 210.324 218.111 207.386 221.671C203.985 225.851 202.284 226.78 198.574 226.315C195.636 226.006 193.317 224.458 192.08 221.981Z" fill="#85195A"/>
<path d="M274.024 218.575C272.477 217.027 270.931 215.943 270.467 215.943C270.004 215.943 262.119 220.278 252.687 225.387C243.411 230.34 234.134 235.604 232.279 236.842C230.114 238.081 228.723 240.558 228.723 242.88C228.723 245.202 229.96 247.369 231.815 248.298C234.289 249.537 238.309 247.988 253.151 240.403C263.046 235.139 272.477 229.721 274.024 228.328C275.57 226.935 276.807 224.767 276.807 223.529C276.807 222.29 275.57 219.968 274.024 218.575Z" fill="#85195A"/>
<path d="M304.946 221.981C303.4 219.504 301.39 217.027 300.307 216.717C299.225 216.408 297.524 216.872 296.597 217.801C295.514 218.73 294.741 220.433 294.896 221.516C295.051 222.6 296.133 225.387 297.37 227.863C298.452 230.186 301.853 232.972 304.636 234.211C307.883 235.449 312.058 236.068 315.305 235.449C318.551 234.83 322.417 232.508 325.045 229.721C327.364 227.244 329.219 223.684 329.219 221.981C329.219 220.278 328.137 218.42 326.746 217.801C325.045 216.872 323.19 217.956 320.561 221.671C317.778 225.387 315.614 226.625 312.212 226.625C308.656 226.625 306.956 225.541 304.946 221.981Z" fill="#85195A"/>
<path d="M417.811 221.981C416.265 219.504 414.255 217.182 413.327 216.872C412.4 216.562 410.699 216.562 409.462 216.872C408.38 217.337 407.607 219.504 407.762 222.136C407.916 224.613 409.771 228.328 411.936 230.495C414.101 232.663 417.657 234.83 420.13 235.294C422.45 235.913 426.624 235.913 429.407 235.294C432.345 234.675 435.901 232.353 438.374 229.412C440.539 226.625 442.085 222.91 441.776 221.207C441.467 219.504 439.921 217.956 438.22 217.646C436.158 217.337 434.251 218.781 432.499 221.981C430.335 225.541 428.634 226.625 425.078 226.625C421.522 226.625 419.821 225.541 417.811 221.981Z" fill="#85195A"/>
<path d="M384.879 219.659C384.879 218.42 383.642 217.337 382.251 217.491C380.705 217.491 369.727 222.6 357.822 228.947C345.917 235.294 336.022 241.177 335.868 242.106C335.558 242.88 336.332 244.118 337.414 244.583C338.341 245.047 341.588 244.273 344.371 243.035C347 241.641 350.246 240.558 351.329 240.558C352.875 240.403 352.875 240.867 351.329 242.88C349.989 244.428 349.834 245.873 350.865 247.214C351.947 248.608 357.204 246.595 373.283 238.7C384.725 232.817 394.62 227.244 395.083 226.315C395.547 225.232 395.393 223.684 394.774 223.064C394.001 222.445 390.754 223.064 387.662 224.612C384.415 226.161 381.323 226.78 380.705 226.161C379.932 225.387 380.705 224.148 382.251 223.374C383.642 222.6 384.879 220.897 384.879 219.659Z" fill="#85195A"/>
<path d="M161.931 226.006C161.158 224.613 160.23 223.529 159.612 223.684C158.839 223.838 148.634 228.947 136.729 235.139C124.824 241.487 114.929 247.369 114.775 248.143C114.466 249.072 115.239 250.311 116.321 250.775C117.249 251.239 120.495 250.465 123.278 249.227C125.907 247.834 128.69 247.06 129.463 247.524C130.081 247.988 129.617 249.227 128.535 250.311C127.453 251.239 126.68 253.097 126.68 254.181C126.68 255.11 127.607 256.038 128.69 256.038C129.617 256.038 139.976 251.239 151.417 245.202C162.859 239.164 172.599 233.901 173.063 233.437C173.527 233.127 173.063 231.888 171.981 230.805C170.435 229.412 169.043 229.412 165.332 231.269C162.859 232.508 160.23 232.972 159.457 232.353C158.839 231.734 159.457 230.495 160.694 229.721C162.086 228.947 162.549 227.554 161.931 226.006Z" fill="#85195A"/>
<path d="M66.8455 258.98C65.2994 257.587 62.671 256.038 60.9703 255.574C59.2696 255.11 56.332 255.264 54.6313 256.038C52.776 256.812 50.1476 258.98 48.7561 260.992C47.3646 263.005 46.2823 265.637 46.2823 266.875C46.1277 268.113 47.5192 271.055 49.3745 273.532C51.6937 276.783 53.7036 277.712 58.3419 277.712C61.898 277.866 65.1448 276.783 66.6909 275.08C68.237 273.532 69.4739 269.816 69.4739 266.875C69.4739 263.624 68.5462 260.528 66.8455 258.98Z" fill="#85195A"/>
<path d="M179.711 258.98C178.165 257.587 175.537 256.038 173.836 255.574C172.135 255.11 169.661 255.11 168.425 255.574C167.188 256.038 164.869 257.587 163.322 258.98C161.776 260.373 160.539 263.624 160.539 266.875C160.539 269.971 161.776 273.377 163.322 274.925C164.869 276.473 168.27 277.712 170.744 277.712C173.372 277.712 176.928 276.628 178.938 275.389C181.412 273.687 182.34 271.519 182.34 267.339C182.494 263.624 181.412 260.528 179.711 258.98Z" fill="#85195A"/>
<path d="M293.35 260.063C291.34 258.051 288.402 255.884 286.702 255.574C285.001 255.11 282.527 255.11 281.29 255.574C280.053 256.038 277.734 257.587 276.188 258.98C274.642 260.373 273.405 263.624 273.405 266.875C273.405 269.971 274.642 273.377 276.188 274.925C277.734 276.473 281.445 277.712 284.846 277.712C289.33 277.712 291.185 276.783 293.659 273.532C295.514 271.055 296.906 267.959 296.751 266.565C296.751 265.017 295.205 262.076 293.35 260.063Z" fill="#85195A"/>
<path d="M406.834 260.683C405.288 258.515 402.505 256.503 400.649 256.038C398.794 255.574 395.857 255.419 394.31 255.729C392.61 256.038 390.136 257.741 388.899 259.599C387.508 261.457 386.425 264.862 386.425 267.339C386.425 269.662 387.817 272.912 389.517 274.615C391.373 276.473 394.774 277.712 397.712 277.712C400.495 277.866 403.742 276.628 405.288 275.08C406.679 273.532 408.225 270.59 408.844 268.423C409.462 265.791 408.844 263.314 406.834 260.683Z" fill="#85195A"/>
<path d="M115.548 285.762C114.466 284.678 112.146 283.904 110.446 283.904C108.745 283.904 105.962 284.833 104.261 285.916C102.561 287.155 94.83 291.335 87.2541 295.514C79.6782 299.539 72.4115 303.719 71.3292 304.648C70.2469 305.577 69.3193 307.744 69.3193 309.447C69.3193 311.15 70.5561 313.627 71.9476 314.865C74.2668 317.033 76.2767 316.259 92.3562 307.899C102.097 302.79 111.837 297.372 113.847 295.979C115.702 294.431 117.403 291.954 117.403 290.561C117.403 289.013 116.63 286.845 115.548 285.762Z" fill="#85195A"/>
<path d="M229.496 286.226C229.032 284.833 227.022 283.904 224.548 284.059C222.074 284.059 211.87 288.858 201.666 294.586C186.514 302.945 182.958 305.577 182.649 308.673C182.494 310.84 183.113 313.472 184.195 314.556C185.277 315.639 186.823 316.568 187.751 316.568C188.679 316.568 198.574 311.46 209.86 305.267C224.239 297.372 230.423 293.192 230.269 291.335C230.269 289.787 229.96 287.464 229.496 286.226Z" fill="#85195A"/>
<path d="M342.361 287C341.743 284.833 340.351 283.904 337.414 284.059C334.94 284.213 324.736 288.858 314.531 294.586C298.297 303.564 295.978 305.422 295.669 309.137C295.36 312.234 296.133 313.782 298.761 315.02C301.699 316.413 304.946 315.175 321.798 306.041C332.93 300.159 341.897 294.276 342.361 292.883C342.825 291.335 342.825 288.703 342.361 287Z" fill="#85195A"/>
<path d="M455.691 289.787C455.227 285.297 454.609 284.678 450.589 284.368C447.496 284.213 440.075 287.464 427.397 294.586C412.245 302.945 408.689 305.577 408.38 308.673C408.225 310.84 408.844 313.472 409.926 314.556C411.008 315.639 412.864 316.568 413.946 316.413C414.874 316.413 424.923 311.614 435.901 305.577L436.04 305.502C455.692 294.894 455.999 294.729 455.691 289.787Z" fill="#85195A"/>
<path d="M23.5546 308.673C22.0085 306.196 19.5347 304.029 17.9886 304.029C16.4425 304.029 14.8964 305.267 14.4326 306.815C13.8141 308.209 14.4326 311.46 15.5148 313.937C16.7517 316.413 19.5347 319.355 22.0085 320.438C24.3276 321.677 28.6567 322.606 31.7489 322.606C36.078 322.606 38.5518 321.367 42.5717 317.188C45.5093 314.246 47.8284 310.376 47.8284 308.673C47.8284 306.97 46.5915 305.112 45.2001 304.648C43.1901 303.874 41.3348 304.958 38.5518 308.518C35.9234 311.769 33.295 313.317 30.5121 313.317C27.4198 313.317 25.4099 312.079 23.5546 308.673Z" fill="#85195A"/>
<path d="M136.42 308.673C134.874 306.196 132.4 304.029 130.854 304.029C129.308 304.029 127.762 305.267 127.298 306.815C126.68 308.209 127.298 311.46 128.38 313.782C129.617 316.259 132.091 319.2 134.101 320.438C135.956 321.677 140.285 322.606 143.687 322.606C148.634 322.606 150.954 321.522 155.283 317.188C158.839 313.627 160.539 310.531 160.385 308.363C160.076 305.99 158.787 304.7 156.52 304.493C154.046 304.184 152.5 305.113 151.727 307.589C150.954 309.447 149.253 311.46 147.861 312.234C146.315 312.853 143.842 313.317 142.141 313.317C140.285 313.317 137.966 311.46 136.42 308.673Z" fill="#85195A"/>
<path d="M248.049 308.673C246.657 305.887 244.493 304.029 242.638 304.029C240.164 304.029 239.545 305.112 239.545 308.673C239.545 311.769 241.092 314.865 244.184 317.962C247.74 321.522 250.214 322.606 255.006 322.606C258.408 322.606 263.046 321.367 265.211 319.974C267.53 318.426 270.313 315.02 271.55 312.543C272.787 310.066 273.405 306.97 272.941 306.041C272.477 304.958 270.622 304.029 268.921 304.029C267.066 304.029 265.211 305.422 264.592 307.589C263.819 309.447 262.118 311.46 260.727 312.234C259.181 312.853 256.398 313.317 254.233 313.317C251.45 313.317 249.75 311.924 248.049 308.673Z" fill="#85195A"/>
<path d="M360.915 308.673C359.523 305.887 357.359 304.029 355.503 304.029C353.029 304.029 352.411 305.112 352.411 308.673C352.411 311.769 353.957 314.865 357.049 317.962C360.76 321.677 362.925 322.606 368.336 322.606C372.201 322.451 376.066 321.367 378.076 319.819C379.777 318.426 382.405 315.33 383.797 313.008C385.188 310.531 386.116 307.589 385.652 306.351C385.188 305.112 383.642 304.029 382.251 304.029C380.705 304.029 377.922 306.041 376.066 308.673C373.438 312.079 371.273 313.317 367.872 313.317C364.316 313.317 362.77 312.234 360.915 308.673Z" fill="#85195A"/>
<path d="M268.458 343.195C267.839 342.112 266.448 341.183 265.52 341.183C264.438 341.183 257.326 344.588 249.595 348.613C242.019 352.638 231.97 358.057 227.64 360.534C223.157 363.165 219.446 365.642 219.446 366.416C219.446 367.036 220.374 367.964 221.456 368.429C222.384 368.893 225.63 368.119 228.413 366.881C231.042 365.487 233.67 364.404 234.134 364.404C234.598 364.404 234.598 366.107 234.134 368.274C233.67 370.441 234.134 372.454 234.907 372.918C235.835 373.383 245.884 368.584 257.326 362.546C272.014 354.496 278.198 350.471 278.198 348.613C278.198 347.065 277.58 345.827 276.652 345.827C275.879 345.827 273.096 346.911 270.467 348.149C267.994 349.387 265.365 350.162 264.747 349.697C263.974 349.233 264.901 347.994 266.448 346.911C267.994 345.982 268.921 344.124 268.458 343.195Z" fill="#85195A"/>
<path d="M79.5236 347.375C78.1321 344.588 75.9675 342.731 74.1122 342.731C72.5661 342.731 70.8654 343.35 70.2469 344.279C69.7831 345.208 70.4015 348.149 71.4838 350.936C72.5661 353.567 75.1945 357.128 77.359 358.676C79.369 360.069 83.3889 361.308 86.1718 361.308C88.8002 361.308 93.2839 360.224 95.7577 358.986C98.2314 357.747 101.478 354.496 102.715 352.019C103.952 349.542 104.725 346.291 104.261 345.053C103.797 343.814 102.251 342.731 100.86 342.731C99.3137 342.731 96.5307 344.743 94.6754 347.375C92.047 350.781 89.8824 352.019 86.481 352.019C82.925 352.019 81.3789 350.936 79.5236 347.375Z" fill="#85195A"/>
<path d="M163.477 347.375C163.168 344.279 162.086 343.35 158.375 343.04C154.973 342.731 148.789 345.517 135.956 352.793C126.216 358.212 117.249 363.939 116.321 365.487C114.775 367.81 114.775 368.893 116.63 371.835C117.867 373.692 120.032 375.24 121.268 375.24C122.505 375.24 131.473 370.906 141.059 365.642C150.49 360.379 159.612 354.961 161.158 353.722C162.859 352.174 163.786 349.697 163.477 347.375Z" fill="#85195A"/>
<path d="M192.389 347.375C191.152 344.743 188.833 342.731 187.287 342.731C185.741 342.731 183.886 343.195 183.113 343.814C182.34 344.279 181.876 346.137 182.03 347.685C182.185 349.233 184.813 352.948 187.751 355.889C191.925 360.069 194.399 361.308 198.574 361.308C201.511 361.308 205.84 360.379 208.314 359.14C210.633 358.057 213.416 355.115 214.653 352.638C215.735 350.161 216.199 346.911 215.735 345.517C215.272 343.969 213.725 342.731 212.489 342.731C211.252 342.731 208.778 344.898 207.077 347.375C204.758 350.781 202.748 352.019 199.347 352.019C195.791 352.019 194.244 350.936 192.389 347.375Z" fill="#85195A"/>
<path d="M304.482 346.601C303.554 344.279 301.699 342.731 299.843 342.731C298.143 342.731 296.287 343.969 295.824 345.517C295.205 346.911 295.824 350.161 296.906 352.638C298.143 355.115 300.926 358.057 303.4 359.14C305.719 360.379 309.738 361.308 312.212 361.308C314.841 361.308 318.706 360.379 321.18 359.14C323.499 358.057 326.282 355.115 327.519 352.638C328.601 350.161 329.065 346.911 328.601 345.517C328.137 343.969 326.436 342.731 325.045 342.731C323.499 342.731 321.334 344.434 320.407 346.601C319.324 348.768 316.851 350.936 314.995 351.4C312.985 352.019 310.202 352.019 308.811 351.4C307.265 350.936 305.409 348.768 304.482 346.601Z" fill="#85195A"/>
<path d="M389.208 347.375C388.899 344.279 387.817 343.35 384.106 343.04C380.859 342.886 374.83 345.362 363.234 352.019C354.266 356.973 345.763 361.927 344.371 362.856C342.825 363.63 341.588 365.952 341.588 367.964C341.588 369.822 342.361 372.299 343.444 373.383C344.526 374.466 346.381 375.24 347.464 375.24C348.391 375.24 357.513 370.751 367.563 365.333C377.458 359.76 386.58 354.496 387.662 353.258C388.744 352.174 389.363 349.542 389.208 347.375Z" fill="#85195A"/>
<path d="M417.347 346.601C416.265 343.969 414.564 342.731 411.936 342.731C409.153 342.731 408.071 343.505 408.071 345.827C408.071 347.53 408.998 350.781 410.235 353.258C411.318 355.58 414.101 358.366 416.42 359.45C418.584 360.379 422.759 361.308 425.542 361.308C428.17 361.308 432.035 360.224 434.045 358.986C435.901 357.747 438.529 354.341 439.921 351.71C441.157 348.923 441.93 345.672 441.467 344.743C441.003 343.66 439.147 342.731 437.447 342.731C435.591 342.731 433.736 344.279 432.808 346.601C432.035 348.768 429.716 350.936 427.861 351.4C425.851 352.019 423.068 352.019 421.677 351.4C420.13 350.936 418.12 348.768 417.347 346.601Z" fill="#85195A"/>
<path d="M48.6015 348.923C48.1376 347.994 47.3646 347.375 46.7461 347.53C45.9731 347.53 35.9234 352.638 24.3276 358.676C12.7318 364.868 2.37293 370.751 1.13605 371.835C-0.20391 373.073 -0.358514 374.208 0.672222 375.24C1.7545 376.479 3.91904 376.014 7.93891 374.157C11.1857 372.609 14.2779 371.835 14.8964 372.454C15.6694 373.073 15.2056 374.621 14.278 376.014C12.5772 377.872 12.7318 378.491 15.051 379.42C16.7517 380.039 24.7915 376.634 37.7787 369.822C48.7561 364.094 58.6511 358.676 59.4242 358.057C60.5065 357.283 60.3519 356.044 59.115 354.341C57.2597 352.329 56.6412 352.329 52.1575 354.961C49.3745 356.663 46.5915 357.747 45.9731 357.283C45.2 356.973 45.8185 355.27 47.0554 353.567C48.2922 351.864 49.0653 349.852 48.6015 348.923Z" fill="#85195A"/>
<path d="M65.2994 382.981C62.8256 381.123 59.888 379.885 58.6511 379.885C57.4143 379.885 54.7859 380.813 52.9306 381.897C51.2299 382.981 48.7561 386.077 47.5192 388.863C45.6639 393.353 45.8185 394.282 48.7561 398.152C51.2299 401.248 53.549 402.487 58.0327 402.796C62.2072 403.106 64.9902 402.332 66.8455 400.474C68.5462 398.771 69.6285 395.52 69.4739 391.96C69.4739 387.315 68.5462 385.303 65.2994 382.981Z" fill="#85195A"/>
<path d="M178.165 382.981C175.691 381.123 172.754 379.73 171.362 379.885C169.971 379.885 167.033 381.278 164.714 383.136C161.312 385.612 160.385 387.47 160.539 391.96C160.539 395.365 161.776 398.771 163.322 400.319C164.869 401.867 168.579 403.106 171.517 403.106C174.764 403.106 178.01 402.177 179.557 400.474C181.103 398.926 182.34 395.211 182.34 391.96C182.34 387.315 181.412 385.458 178.165 382.981Z" fill="#85195A"/>
<path d="M289.794 381.897C287.629 380.813 285.001 379.885 283.919 379.885C282.682 379.885 279.899 381.278 277.58 383.136C274.178 385.612 273.25 387.47 273.405 391.96C273.405 395.365 274.642 398.771 276.188 400.319C277.734 401.867 281.445 403.106 284.846 403.106C289.33 403.106 291.185 402.177 293.659 398.926C295.514 396.449 296.906 393.662 296.751 392.734C296.751 391.65 295.978 389.173 295.205 387.315C294.277 385.303 291.958 382.826 289.794 381.897Z" fill="#85195A"/>
<path d="M402.659 381.897C400.495 380.813 397.867 379.885 396.784 379.885C395.547 379.885 392.764 381.278 390.445 383.136C387.044 385.612 386.116 387.47 386.271 391.65C386.425 394.746 387.662 398.152 389.517 400.01C391.373 401.867 394.774 403.106 397.712 403.106C400.495 403.261 403.742 402.022 405.133 400.474C406.525 398.926 408.071 396.139 408.689 394.282C409.153 392.269 408.844 389.173 408.071 387.315C407.143 385.303 404.824 382.826 402.659 381.897Z" fill="#85195A"/>
<path d="M115.393 411.62C114.466 410.227 112.146 409.143 110.446 409.298C108.745 409.298 99.0045 414.097 88.8002 419.825C71.9476 429.423 70.2469 430.661 70.2469 434.686C70.2469 437.163 71.3292 439.95 72.8753 440.879C74.8852 442.272 77.6682 441.343 86.7903 436.544C92.9747 433.138 102.251 427.875 107.353 424.934C112.456 421.837 116.785 418.122 116.939 416.574C117.249 415.181 116.475 412.859 115.393 411.62Z" fill="#85195A"/>
<path d="M229.96 413.942C229.65 410.846 228.568 409.917 224.857 409.608C221.456 409.298 215.272 412.085 201.666 419.825C186.978 428.339 182.958 431.281 182.649 434.222C182.494 436.235 183.113 438.866 184.195 439.95C185.277 441.034 187.132 441.962 188.215 441.808C189.142 441.808 198.264 437.318 208.314 431.9C218.209 426.327 227.331 421.063 228.413 419.825C229.496 418.741 230.114 416.11 229.96 413.942Z" fill="#85195A"/>
<path d="M342.361 414.716C342.361 410.691 341.743 410.072 337.723 409.762C334.476 409.453 327.673 412.394 314.531 419.98C297.679 429.423 295.978 430.816 295.978 434.841C295.978 437.318 297.215 439.95 298.607 440.879C300.926 442.272 304.173 441.188 315.614 434.996C323.499 430.816 332.775 425.553 336.177 423.386C341.124 420.135 342.361 418.277 342.361 414.716Z" fill="#85195A"/>
<path d="M455.691 415.181C455.227 410.691 454.609 410.072 450.589 409.608C447.806 409.453 443.477 410.691 439.766 412.859C436.365 414.871 427.861 419.825 420.749 424.005C411.008 429.578 407.916 432.21 407.916 434.686C408.071 436.544 408.844 438.866 409.926 439.95C411.008 441.034 413.018 441.808 414.255 441.808C415.492 441.808 425.387 436.854 436.365 430.971C455.691 420.289 456 419.98 455.691 415.181Z" fill="#85195A"/>
<path d="M23.5546 434.067C22.0085 431.59 19.5347 429.423 17.9886 429.423C16.4425 429.423 14.8964 430.661 14.4326 432.21C13.8141 433.603 14.4326 436.854 15.5148 439.331C16.7517 441.808 19.5347 444.749 22.0085 445.833C24.3276 447.071 28.6567 448 31.7489 448C36.078 448 38.5518 446.762 42.5717 442.582C45.5093 439.64 47.8284 435.77 47.8284 434.067C47.8284 432.364 46.5915 430.507 45.2001 430.042C43.1901 429.268 41.3348 430.352 38.5518 433.912C35.9234 437.163 33.295 438.712 30.5121 438.712C27.4198 438.712 25.4099 437.473 23.5546 434.067Z" fill="#85195A"/>
<path d="M136.42 434.067C134.874 431.59 132.4 429.423 130.854 429.423C129.308 429.423 127.762 430.661 127.298 432.21C126.68 433.603 127.298 436.854 128.38 439.331C129.617 441.808 132.4 444.749 134.874 445.833C137.193 447.071 140.904 448 143.378 448C145.697 448 150.026 446.452 152.964 444.439C155.901 442.582 158.993 439.021 159.921 436.699C160.952 433.913 160.952 431.952 159.921 430.816C158.993 429.888 156.983 429.578 155.283 430.042C153.582 430.507 151.572 432.519 150.644 434.377C149.562 436.854 147.552 438.092 144.151 438.402C139.976 438.711 138.585 437.938 136.42 434.067Z" fill="#85195A"/>
<path d="M248.049 434.067C246.657 431.281 244.493 429.423 242.638 429.423C240.164 429.423 239.545 430.507 239.545 434.067C239.545 436.699 241.092 440.414 243.101 442.737C245.266 445.213 248.822 446.916 252.687 447.536C256.81 448.052 260.572 447.484 263.974 445.833C266.602 444.439 270.004 441.188 271.241 438.712C272.477 436.235 273.25 432.984 272.787 431.745C272.323 430.507 270.622 429.423 268.921 429.423C267.066 429.423 265.056 431.126 263.819 433.758C262.273 437.009 260.727 438.092 256.089 438.402C251.141 438.711 250.059 438.092 248.049 434.067Z" fill="#85195A"/>
<path d="M360.915 434.067C359.523 431.281 357.359 429.423 355.503 429.423C353.029 429.423 352.411 430.507 352.411 434.067C352.411 436.699 353.957 440.414 355.967 442.737C358.132 445.213 361.688 446.916 365.553 447.536C369.676 448.052 373.438 447.484 376.839 445.833C379.468 444.439 382.869 441.188 384.106 438.712C385.343 436.235 386.116 432.984 385.652 431.745C385.188 430.507 383.642 429.423 382.251 429.423C380.705 429.423 377.922 431.436 376.066 434.067C373.438 437.473 371.273 438.712 367.872 438.712C364.316 438.712 362.77 437.628 360.915 434.067Z" fill="#85195A"/>
<path d="M48.4469 -32.6779C47.21 -33.9163 45.2 -35 44.2724 -35H44.1178C43.1901 -35 33.295 -29.8913 22.4723 -23.699C3.45521 -13.0173 2.68216 -12.3981 3.14599 -7.90866C3.45521 -4.19327 4.38288 -3.10962 7.47509 -2.8C9.94886 -2.49039 17.5248 -5.74135 27.8837 -11.3144C37.1603 -16.2683 45.9731 -21.5317 47.6738 -22.925C49.3745 -24.4731 50.766 -26.7952 50.766 -28.0337C50.766 -29.2721 49.6838 -31.4394 48.4469 -32.6779Z" stroke="white"/>
<path d="M78.2867 -32.3683C77.6682 -33.7615 76.2767 -35 75.0398 -35C73.803 -35 72.1023 -33.9163 71.1746 -32.6779C69.9377 -30.975 70.0923 -28.9625 71.793 -24.9375C73.1845 -21.6865 76.1221 -18.5904 79.0597 -17.0423C82.3066 -15.3394 86.0172 -14.875 89.5732 -15.3394C92.5108 -15.9587 96.84 -18.2808 99.3137 -20.6029C101.633 -22.925 103.797 -26.176 104.261 -27.724C104.725 -29.1173 103.952 -31.4394 102.56 -32.8327C100.396 -35 99.7775 -34.6904 95.2938 -29.7365C92.5108 -26.7952 88.9548 -24.3183 87.2541 -24.1635C85.5534 -24.1635 83.0796 -25.2471 81.6881 -26.7952C80.2966 -28.3433 78.7505 -30.8202 78.2867 -32.3683Z" stroke="white"/>
<path d="M191.462 -31.5942C190.688 -33.4519 189.142 -35 188.06 -34.8452C187.132 -34.8452 185.122 -34.3808 184.04 -33.9163C182.803 -33.6067 181.876 -32.0587 182.03 -30.6654C182.185 -29.2721 183.576 -25.8663 185.123 -23.3894C186.669 -20.9125 189.915 -17.8163 192.544 -16.7327C195.172 -15.4942 199.347 -15.0298 202.748 -15.4942C206.613 -16.1135 209.86 -17.9712 212.489 -21.0673C214.653 -23.5442 216.354 -27.4144 216.354 -29.5817C216.354 -31.749 215.426 -33.7615 214.344 -34.0712C213.416 -34.3808 211.715 -34.226 210.788 -33.7615C209.86 -33.1423 208.314 -31.1298 207.232 -29.2721C206.304 -27.2596 203.83 -25.4019 201.666 -24.9375C199.501 -24.4731 196.718 -25.0923 195.327 -26.176C193.935 -27.1048 192.08 -29.5817 191.462 -31.5942Z" stroke="white"/>
<path d="M274.797 -33.1423C273.714 -34.226 271.704 -35 270.467 -35C269.231 -35 260.109 -30.3558 250.368 -24.7827C240.628 -19.2096 231.66 -13.7913 230.578 -12.8625C229.341 -11.7788 228.723 -9.30192 229.032 -7.13462C229.341 -4.34808 230.578 -3.10962 233.361 -2.8C235.68 -2.49039 242.174 -4.96731 249.595 -8.8375C256.398 -12.3981 265.211 -17.3519 269.231 -19.674C274.487 -22.925 276.652 -25.0923 276.652 -27.724C276.652 -29.5817 275.879 -32.0587 274.797 -33.1423Z" stroke="white"/>
<path d="M304.018 -29.8913C303.09 -32.2135 300.926 -34.3808 299.534 -34.6904C298.143 -35 296.442 -33.9163 295.824 -32.3683C295.36 -30.8202 295.669 -27.8788 296.597 -25.7115C297.524 -23.5442 299.689 -20.4481 301.544 -18.7452C303.863 -16.5779 306.956 -15.649 312.522 -15.649C319.17 -15.649 320.716 -16.2683 324.736 -20.7577C327.21 -23.3894 329.219 -27.4144 329.219 -29.5817C329.219 -31.749 328.137 -33.7615 326.9 -34.226C325.663 -34.6904 323.499 -33.9163 322.262 -32.6779C321.025 -31.4394 319.943 -29.5817 319.943 -28.8077C319.943 -28.0337 318.397 -26.4856 316.387 -25.5567C314.531 -24.6279 311.439 -24.3183 309.429 -24.7827C307.574 -25.2471 305.1 -27.5692 304.018 -29.8913Z" stroke="white"/>
<path d="M381.942 -28.3433C383.488 -30.8202 383.642 -32.3683 382.56 -33.2971C381.426 -34.3292 377.046 -32.7811 369.418 -28.6529C363.079 -25.0923 353.339 -19.8288 347.773 -16.8875C342.207 -13.9462 337.105 -10.85 336.177 -10.076C335.146 -9.14712 335.301 -8.06346 336.641 -6.825C338.187 -5.12212 339.578 -5.27692 343.134 -7.59904C345.763 -8.99231 349.01 -10.2308 350.401 -10.2308C352.72 -10.3856 352.875 -9.92115 351.174 -7.90866C350.246 -6.67019 349.628 -4.8125 350.092 -4.03846C350.556 -3.26443 351.483 -2.49039 352.411 -2.49039C353.339 -2.49039 363.388 -7.59904 374.829 -13.7913C386.425 -19.8288 395.547 -25.7115 395.238 -26.4856C394.929 -27.2596 393.228 -27.8788 391.682 -27.724C390.136 -27.5692 386.735 -26.7952 384.261 -26.176C379.777 -24.9375 379.777 -25.0923 381.942 -28.3433Z" stroke="white"/>
<path d="M416.884 -29.8913C415.956 -32.2135 413.791 -34.3808 412.4 -34.6904C411.008 -35 409.308 -33.9163 408.689 -32.3683C408.225 -30.8202 408.071 -28.0337 408.689 -26.0212C409.153 -24.1635 411.008 -21.2221 412.709 -19.5192C414.41 -17.8163 418.43 -15.9587 421.522 -15.4942C425.542 -14.875 429.098 -15.3394 432.345 -17.0423C435.128 -18.4356 438.684 -21.9962 440.075 -24.9375C442.549 -29.8913 442.549 -30.6654 440.539 -32.8327C438.374 -35.1548 437.756 -35 432.808 -29.5817C428.325 -24.7827 426.624 -24.0087 423.068 -24.7827C420.594 -25.4019 418.12 -27.4144 416.884 -29.8913Z" stroke="white"/>
<path d="M162.704 -26.176C161.931 -26.7952 160.385 -27.2596 159.148 -27.2596C157.911 -27.1048 148.171 -22.3058 137.502 -16.4231C126.834 -10.5404 117.558 -5.43173 116.63 -5.12212C115.702 -4.8125 115.857 -3.57404 117.094 -2.02596C118.795 0.296154 119.413 0.450962 123.588 -1.71635C126.061 -2.95481 128.69 -3.72885 129.463 -3.26442C130.081 -2.95481 129.463 -1.40673 128.226 -0.16827C126.68 1.48301 126.422 2.82468 127.453 3.85673C128.535 4.94038 135.956 1.99903 151.108 -5.89616C163.168 -12.0885 173.063 -18.126 173.063 -19.0548C173.063 -20.1385 172.444 -21.3769 171.517 -21.8413C170.589 -22.3058 167.806 -21.5317 165.332 -20.2933C162.859 -19.0548 160.23 -18.2808 159.612 -18.7452C158.839 -19.2096 159.612 -20.7577 161.158 -22.151C162.549 -23.699 163.322 -25.5567 162.704 -26.176Z" stroke="white"/>
<path d="M66.3817 6.79808C64.6809 5.09519 61.2795 3.70192 58.8058 3.70192C56.332 3.70192 52.9306 4.94038 51.0752 6.48846C49.3745 7.88173 47.3646 11.1327 46.9008 13.7644C45.9731 17.4798 46.5915 19.1827 49.8384 22.7433C52.6213 25.375 55.5589 26.9231 58.6511 26.9231C61.2795 26.9231 64.6809 25.5298 66.3817 23.8269C68.237 21.9692 69.4739 18.7183 69.4739 15.3125C69.4739 11.9067 68.237 8.65577 66.3817 6.79808Z" stroke="white"/>
<path d="M179.247 6.79808C177.547 5.09519 174.145 3.70192 171.517 3.70192C168.888 3.70192 165.487 5.09519 163.786 6.79808C161.931 8.65577 160.694 11.9067 160.694 15.3125C160.694 18.7183 161.931 21.9692 163.786 23.8269C165.487 25.5298 168.888 26.9231 171.517 26.9231C174.145 26.9231 177.547 25.5298 179.247 23.8269C181.103 21.9692 182.34 18.7183 182.34 15.3125C182.34 11.9067 181.103 8.65577 179.247 6.79808Z" stroke="white"/>
<path d="M292.113 6.64327C289.948 4.94038 286.392 3.54712 284.073 3.70192C281.599 3.70192 278.353 5.09519 276.652 6.79808C274.797 8.65577 273.56 11.9067 273.56 15.3125C273.56 18.7183 274.797 21.9692 276.652 23.8269C278.353 25.5298 281.599 26.9231 284.073 26.9231C286.392 27.0779 289.948 25.6846 292.113 23.9817C295.051 21.8144 295.978 19.4923 295.978 15.3125C295.978 11.1327 295.051 8.81057 292.113 6.64327Z" stroke="white"/>
<path d="M404.979 6.64327C402.814 4.94038 399.258 3.54712 397.093 3.70192C394.929 3.70192 391.527 5.25 389.517 7.2625C387.044 9.58461 385.962 12.3712 386.116 15.4673C386.271 17.9442 387.971 21.5048 389.827 23.3625C391.837 25.375 395.083 26.9231 397.248 26.9231C399.413 27.0779 402.814 25.6846 404.979 23.9817C407.916 21.8144 408.844 19.4923 408.844 15.3125C408.844 11.1327 407.916 8.81057 404.979 6.64327Z" stroke="white"/>
<path d="M115.084 33.8894C113.847 32.651 111.837 31.5673 110.91 31.7221C109.827 31.7221 102.561 35.2827 94.9846 39.4625C87.4087 43.6423 78.4413 48.9058 75.3491 50.9183C71.1746 53.7048 69.4739 55.8721 69.4739 58.6586C69.4739 60.9808 70.7108 63.1481 72.5661 64.0769C75.0398 65.3154 78.5959 64.0769 90.8101 57.7298C99.0045 53.2404 107.972 48.2865 110.446 46.5836C112.919 44.726 115.548 42.5587 116.166 41.6298C116.785 40.8558 117.403 39.1529 117.403 38.224C117.403 37.1404 116.321 35.1279 115.084 33.8894Z" stroke="white"/>
<path d="M227.177 33.1154C225.476 32.3413 223.93 31.5673 223.775 31.5673C223.466 31.5673 218.828 34.0442 213.262 36.8308C207.696 39.7721 198.728 44.8808 193.162 48.1317C185.277 53.0856 182.958 55.2529 182.803 58.5038C182.494 61.4452 183.267 62.8385 185.896 63.9221C188.679 65.0058 192.544 63.6125 205.531 56.6462C214.499 52.0019 223.621 46.7385 226.094 45.1904C228.723 43.3327 230.269 41.0106 230.269 38.5337C230.269 36.2115 229.032 34.0442 227.177 33.1154Z" stroke="white"/>
<path d="M340.042 33.1154C338.341 32.3413 336.795 31.5673 336.641 31.5673C336.332 31.5673 330.611 34.6635 323.808 38.224C317.005 41.9394 308.038 47.0481 303.709 49.525C297.833 53.0856 295.824 55.2529 295.669 58.349C295.36 61.2904 296.133 62.9933 298.297 64.0769C300.771 65.3154 304.636 63.9221 318.088 56.9558C327.21 52.0019 336.486 46.8933 338.96 45.3452C341.588 43.4875 343.134 41.0106 343.134 38.5337C343.134 36.2115 341.897 34.0442 340.042 33.1154Z" stroke="white"/>
<path d="M454.145 33.425C453.062 32.3413 451.362 31.5673 450.589 31.5673C449.816 31.5673 446.26 32.9606 442.858 34.8183C439.457 36.5211 431.881 40.8558 425.851 44.2615C419.821 47.8221 413.482 51.5375 411.627 52.776C409.462 54.0144 408.071 56.3365 408.071 58.6586C408.071 60.9808 409.308 63.1481 411.163 64.0769C413.637 65.3154 417.502 63.9221 430.953 56.801C440.075 52.0019 449.352 46.8933 451.826 45.1904C454.299 43.6423 456 41.0106 456 38.9981C456 36.9856 455.227 34.5087 454.145 33.425Z" stroke="white"/>
<path d="M23.5546 57.8846C22.0085 55.4077 19.9985 53.0856 19.0709 52.776C18.1432 52.4663 16.4425 52.4663 15.2056 52.776C14.1234 53.2404 13.3503 54.9433 13.5049 56.801C13.6595 58.6587 15.051 62.0644 16.9063 64.5414C18.607 66.8635 22.6269 69.4952 25.8737 70.424C30.5121 71.8173 32.6766 71.6625 37.4695 69.65C40.5617 68.2567 44.2724 65.625 45.5093 63.7673C46.9008 61.7548 47.8284 58.8135 47.5192 57.1106C47.21 55.2529 45.6639 53.8596 43.4993 53.7048C41.644 53.3952 40.0979 54.0144 40.0979 54.7885C40.0979 55.5625 38.7064 57.7298 37.0057 59.4327C35.305 61.1356 32.2127 62.5288 30.0482 62.5288C27.4198 62.5288 25.4099 61.1356 23.5546 57.8846Z" stroke="white"/>
<path d="M136.42 57.8846C134.874 55.4077 132.864 53.0856 131.937 52.776C131.009 52.4663 129.308 52.4663 128.071 52.776C126.989 53.2404 126.216 55.2529 126.371 57.2654C126.525 59.2779 128.38 62.9933 130.545 65.625C132.864 68.2567 136.575 70.5788 139.512 71.1981C142.45 71.6625 146.779 71.1981 150.335 69.65C153.427 68.2567 157.138 65.625 158.375 63.7673C159.766 61.7548 160.694 58.8135 160.385 57.1106C160.076 55.2529 158.53 53.8596 156.365 53.7048C154.2 53.3952 152.345 54.4788 151.263 56.801C150.181 58.6587 148.634 60.6712 147.707 61.2904C146.779 61.9096 144.46 62.5288 142.605 62.5288C140.285 62.5288 138.121 60.826 136.42 57.8846Z" stroke="white"/>
<path d="M247.74 57.1106C246.967 54.9433 245.73 52.9308 244.802 52.6211C243.874 52.3115 242.174 52.4663 240.937 52.776C239.855 53.2404 239.082 55.4077 239.236 58.0394C239.391 60.5163 241.246 64.2317 243.411 66.399C245.575 68.5663 249.595 70.7337 252.378 71.1981C255.676 71.8173 259.336 71.1981 263.355 69.3404C266.757 67.6375 270.313 64.3865 271.55 61.7548C272.787 59.1231 273.405 56.1817 272.941 55.2529C272.477 54.1692 270.622 53.2404 268.921 53.2404C267.066 53.2404 265.056 54.9433 263.974 57.2654C262.892 59.4327 260.572 61.6 258.872 62.0644C257.171 62.5288 254.233 62.374 252.378 61.9096C250.368 61.4452 248.358 59.2779 247.74 57.1106Z" stroke="white"/>
<path d="M360.142 55.7173C359.987 54.4788 359.059 53.2404 357.977 52.9308C356.895 52.4663 355.039 52.4663 353.803 52.776C352.72 53.2404 351.947 55.2529 352.102 57.575C352.256 59.8971 353.493 63.3029 354.73 65.3154C355.967 67.1731 359.678 69.4952 362.925 70.424C366.017 71.3529 370.346 71.6625 372.51 71.1981C374.675 70.7337 378.695 67.9471 381.478 64.851C384.106 61.9096 386.271 58.1942 385.962 56.801C385.807 55.2529 384.261 53.8596 382.56 53.55C380.55 53.2404 378.231 54.7885 376.066 57.8846C373.747 60.826 371.119 62.5288 368.645 62.5288C366.481 62.5288 363.698 61.4452 362.461 60.2067C361.224 58.9683 360.142 56.9558 360.142 55.7173Z" stroke="white"/>
<path d="M78.7505 94.4192C78.5959 93.1808 77.6682 91.9423 76.2767 91.3231C75.0398 90.8587 73.0299 91.4779 71.793 92.7163C69.7831 94.7288 69.7831 95.8125 71.4838 99.9923C72.4115 102.624 75.0398 105.875 77.2044 107.268C79.3689 108.507 83.698 109.59 86.7903 109.59C90.1917 109.745 94.2116 108.507 96.84 106.494C99.1591 104.791 101.942 101.54 103.024 99.5279C103.952 97.5154 104.416 94.8837 104.107 93.9548C103.797 92.8712 102.251 91.9423 100.86 91.9423C99.3137 91.9423 96.5307 93.9548 94.6754 96.5865C92.3563 99.5279 89.7278 101.231 87.2541 101.231C85.0895 101.231 82.3065 100.147 81.0697 98.9086C79.8328 97.6702 78.7505 95.6577 78.7505 94.4192Z" stroke="white"/>
<path d="M161.312 92.4067C159.766 91.3231 158.066 90.3942 157.602 90.3942C157.138 90.3942 153.273 92.2519 149.098 94.4192C144.769 96.5865 135.802 101.386 128.999 105.101C122.196 108.816 116.166 112.996 115.702 114.699C115.239 116.247 115.084 118.414 115.393 119.498C115.548 120.427 117.248 121.975 118.949 122.904C121.268 124.142 123.742 123.523 129.463 120.582C133.483 118.414 142.605 113.306 149.871 109.281C159.921 103.708 163.168 101.076 163.632 98.1346C164.095 95.6577 163.322 93.8 161.312 92.4067Z" stroke="white"/>
<path d="M189.452 91.6327C188.524 91.0135 187.442 90.3942 186.978 90.3942C186.514 90.3942 185.277 91.0135 184.195 91.6327C182.803 92.2519 182.339 94.2644 182.958 97.3606C183.422 99.9923 185.123 103.243 186.514 104.637C188.06 106.185 191.462 108.042 193.935 108.816C196.873 109.745 200.738 109.745 204.449 108.816C207.696 108.042 211.406 105.72 213.262 103.243C215.117 100.766 216.508 97.3606 216.354 95.5029C216.354 92.7163 215.426 91.9423 212.489 91.9423C209.912 91.9423 208.366 92.9743 207.85 95.0385C207.386 96.7413 205.531 98.9086 203.676 99.8375C201.666 100.766 198.574 101.076 196.718 100.612C194.708 100.147 192.698 98.1346 192.235 96.2769C191.616 94.2644 190.379 92.2519 189.452 91.6327Z" stroke="white"/>
<path d="M266.602 91.9423C266.138 91.0135 264.902 90.549 263.974 90.549C262.892 90.7038 253.151 95.5029 242.328 101.076C231.506 106.649 221.765 112.222 220.683 113.306C218.982 114.854 218.982 115.473 220.683 117.176C222.229 118.724 223.62 118.414 227.95 115.938C230.887 114.235 233.825 113.306 234.443 113.925C235.216 114.544 234.598 116.247 233.361 117.486C231.815 119.137 231.557 120.479 232.588 121.511C233.67 122.594 241.091 119.498 255.625 111.758C267.53 105.565 277.58 99.5279 278.043 98.4442C278.507 97.3606 278.507 95.9673 277.734 95.3481C277.116 94.7288 274.024 95.5029 270.777 97.051C267.685 98.599 264.747 99.3731 264.283 99.0635C263.819 98.599 264.438 97.2058 265.52 95.8125C266.448 94.574 267.066 92.8712 266.602 91.9423Z" stroke="white"/>
<path d="M304.173 95.5029C303.09 93.3356 301.544 91.1683 300.617 90.8587C299.843 90.7038 298.143 91.0135 297.06 91.6327C295.669 92.2519 295.205 94.2644 295.824 97.3606C296.287 99.9923 297.988 103.243 299.38 104.637C300.926 106.03 304.018 107.887 306.492 108.816C309.275 110.055 312.676 110.055 316.851 108.971C320.561 108.042 324.272 105.72 326.127 103.243C327.983 100.766 329.374 97.3606 329.219 95.5029C329.219 92.7163 328.292 91.9423 325.354 91.9423C322.777 91.9423 321.231 92.9743 320.716 95.0385C320.252 96.7413 318.397 98.9086 316.541 99.8375C314.531 100.766 311.439 101.076 309.584 100.612C307.574 100.147 305.1 97.825 304.173 95.5029Z" stroke="white"/>
<path d="M387.662 92.2519C386.58 91.1683 384.57 90.3942 383.333 90.3942C382.096 90.549 372.047 95.6577 361.224 101.695C343.289 111.758 341.434 113.306 341.588 117.176C341.588 119.808 342.671 121.975 344.68 122.904C347.154 124.142 349.783 123.368 356.74 119.808C361.533 117.176 370.81 112.067 377.149 108.507C386.116 103.398 388.899 101.076 389.208 98.1346C389.363 95.9673 388.744 93.3356 387.662 92.2519Z" stroke="white"/>
<path d="M417.038 95.5029C415.956 93.1808 413.791 91.0135 412.4 90.7038C411.008 90.3942 409.308 91.4779 408.689 93.026C408.071 94.574 408.225 97.5154 408.998 99.5279C409.771 101.54 412.4 104.637 414.719 106.494C417.502 108.507 421.213 109.745 424.769 109.59C427.861 109.59 432.19 108.352 434.355 107.113C436.519 105.72 439.147 102.624 440.384 100.147C441.467 97.825 441.93 94.8837 441.467 93.9548C441.003 92.8712 439.302 91.9423 437.911 91.9423C436.365 91.9423 433.427 94.2644 431.262 96.8961C428.016 100.921 426.624 101.54 423.223 100.612C420.594 100.147 418.12 97.9798 417.038 95.5029Z" stroke="white"/>
<path d="M49.3745 98.9086C49.3745 97.6702 48.1376 96.5865 46.7461 96.7413C45.2 96.7413 34.8411 101.85 23.5546 107.887L23.5481 107.891C12.4188 114.082 2.68201 119.498 1.90911 120.117C1.29067 120.737 1.13605 122.439 1.90911 123.678C2.83677 125.69 3.76443 125.536 9.1758 122.904L15.3602 119.808C13.3503 127.858 13.6595 129.096 15.051 129.096C15.9787 129.096 22.9361 126 30.5121 122.13C37.9334 118.26 47.0554 113.461 50.9206 111.293C54.7859 109.126 58.6511 106.649 59.4242 105.875C60.4549 104.843 60.4549 103.811 59.4242 102.779C58.3419 101.54 56.1774 102.005 52.1575 103.862C48.9107 105.411 45.8185 106.03 45.2001 105.411C44.427 104.637 45.2 103.398 46.7461 102.624C48.1376 101.85 49.3745 100.147 49.3745 98.9086Z" stroke="white"/>
<path d="M66.3817 132.192C64.6809 130.489 61.2795 129.096 58.8058 129.096C56.332 129.096 52.776 130.489 50.766 132.038C48.1377 134.205 47.0554 136.527 47.0554 140.397C47.0554 143.648 48.2922 147.054 50.1476 149.066C52.1575 151.234 55.0951 152.472 58.3419 152.317C61.1249 152.317 64.5263 151.079 66.3817 149.221C68.237 147.363 69.4739 144.112 69.4739 140.707C69.4739 137.301 68.237 134.05 66.3817 132.192Z" stroke="white"/>
<path d="M179.247 132.192C177.547 130.489 174.145 129.096 171.517 129.096C168.888 129.096 165.487 130.489 163.786 132.192C161.931 134.05 160.694 137.301 160.694 140.707C160.694 144.112 161.931 147.363 163.786 149.221C165.487 150.924 168.888 152.317 171.517 152.317C174.145 152.317 177.547 150.924 179.247 149.221C181.103 147.363 182.34 144.112 182.34 140.707C182.34 137.301 181.103 134.05 179.247 132.192Z" stroke="white"/>
<path d="M292.113 132.038C289.948 130.335 286.392 128.941 284.073 129.096C281.599 129.096 278.353 130.489 276.652 132.192C274.797 134.05 273.56 137.301 273.56 140.707C273.56 144.112 274.797 147.363 276.652 149.221C278.507 151.079 281.909 152.317 284.846 152.317C287.938 152.472 290.876 151.234 292.886 149.066C294.741 147.054 295.978 143.648 295.978 140.397C295.978 136.527 294.896 134.205 292.113 132.038Z" stroke="white"/>
<path d="M404.206 131.109C402.505 130.025 399.722 129.096 397.866 129.096C396.011 129.096 392.764 130.489 390.445 132.347C387.198 134.669 386.116 136.837 386.271 140.397C386.271 143.184 387.817 146.899 389.517 148.912C391.218 150.769 394.31 152.317 396.475 152.317C398.64 152.317 401.423 151.853 402.814 151.234C404.205 150.46 406.37 148.137 407.452 145.815C408.844 143.029 409.153 139.933 408.535 137.301C407.762 135.134 405.906 132.347 404.206 131.109Z" stroke="white"/>
<path d="M115.239 159.748C113.847 158.2 112.301 156.962 111.683 156.962C110.909 156.962 101.324 161.761 90.3463 167.643C71.6384 177.551 70.2469 178.635 69.9377 183.124C69.6285 186.685 70.2469 188.387 72.5661 189.471C75.0398 190.71 79.369 189.007 96.2215 179.718C110.291 171.978 116.785 167.643 117.094 165.476C117.403 163.773 116.63 161.141 115.239 159.748Z" stroke="white"/>
<path d="M227.795 158.974C226.249 157.89 224.548 156.962 224.084 156.962C223.62 156.962 214.035 161.915 202.593 167.953C182.958 178.325 181.876 179.099 182.03 183.434C182.185 186.22 183.576 188.542 185.432 189.471C187.751 190.71 190.225 190.09 195.945 187.149C199.965 184.982 209.087 180.028 216.354 175.848C226.249 170.275 229.65 167.643 230.114 164.702C230.578 162.225 229.805 160.367 227.795 158.974Z" stroke="white"/>
<path d="M340.661 158.974C339.115 157.89 337.414 156.962 336.95 156.962C336.486 156.962 328.137 161.296 318.397 166.56C308.656 171.668 299.38 177.087 297.834 178.48C296.287 179.873 295.051 182.505 295.205 184.517C295.205 186.375 296.597 188.542 298.297 189.471C300.771 190.71 305.1 189.007 321.953 179.873C338.341 170.739 342.516 167.798 342.98 164.857C343.444 162.225 342.671 160.367 340.661 158.974Z" stroke="white"/>
<path d="M453.526 158.974C451.98 157.89 450.279 156.962 449.816 156.962C449.352 156.962 441.312 161.141 432.035 166.25C422.759 171.359 414.41 175.538 413.637 175.538C412.864 175.538 411.318 176.777 410.235 178.325C409.153 179.718 408.071 182.505 408.071 184.517C408.071 186.375 409.462 188.542 411.163 189.471C413.173 190.555 415.492 190.555 417.811 189.471C419.667 188.697 428.943 183.588 438.22 178.325C451.362 170.739 455.382 167.643 455.845 164.702C456.309 162.225 455.536 160.367 453.526 158.974Z" stroke="white"/>
<path d="M23.0907 182.505C21.6992 180.028 19.5347 177.706 18.2978 177.396C17.0609 177.241 15.3602 177.396 14.5872 178.015C13.9687 178.635 13.3503 180.802 13.5049 182.814C13.6595 184.672 15.5148 188.542 17.6794 191.019C20.3078 194.115 23.5546 195.973 27.4198 196.592C30.8213 197.057 34.9957 196.747 37.6241 195.354C40.0979 194.27 43.4993 191.638 45.0454 189.471C46.5915 187.304 47.983 184.053 47.8284 182.195C47.8284 180.183 46.9007 178.325 45.9731 178.015C44.8908 177.706 43.1901 177.861 42.417 178.325C41.4894 178.944 39.6341 181.266 38.0879 183.743C36.078 186.994 34.3773 187.768 30.5121 187.613C26.956 187.304 24.9461 185.911 23.0907 182.505Z" stroke="white"/>
<path d="M135.956 182.505C134.256 179.563 131.937 177.087 130.854 177.087C129.617 177.087 128.226 177.551 127.453 178.17C126.68 178.635 126.216 180.802 126.371 182.814C126.525 184.672 128.38 188.542 130.545 191.019C132.71 193.651 136.266 196.128 138.739 196.592C141.059 197.057 145.542 196.747 148.789 195.818C151.881 194.889 155.901 192.258 157.602 189.936C159.457 187.459 160.849 184.053 160.694 182.195C160.694 180.183 159.612 178.325 158.375 177.861C157.138 177.396 154.819 178.48 153.427 180.028C151.881 181.731 149.717 184.208 148.789 185.446C147.707 186.839 145.078 187.923 142.914 187.923C140.131 187.923 138.121 186.375 135.956 182.505Z" stroke="white"/>
<path d="M247.276 181.731C246.503 179.254 244.802 177.087 243.72 177.087C242.483 177.087 241.091 177.551 240.318 178.17C239.545 178.635 239.082 181.112 239.236 183.588C239.391 185.911 241.246 189.626 243.411 191.793C245.575 193.961 249.595 196.128 252.378 196.592C255.316 197.057 259.645 196.592 263.201 195.044C266.757 193.496 269.849 190.71 271.395 187.613C272.632 184.827 273.405 181.576 272.941 180.647C272.477 179.563 270.622 178.635 268.921 178.635C267.066 178.635 265.056 180.338 263.974 182.66C262.892 184.827 260.572 186.994 258.872 187.459C257.171 187.923 254.233 187.768 252.378 187.304C250.214 186.685 248.204 184.517 247.276 181.731Z" stroke="white"/>
<path d="M360.142 181.731C359.368 179.254 357.668 177.087 356.586 177.087C355.349 177.087 353.957 177.551 353.184 178.17C352.411 178.635 351.947 180.957 352.102 183.124C352.256 185.291 353.339 188.542 354.421 190.245C355.658 191.948 358.595 194.27 361.069 195.354C363.698 196.747 367.872 197.057 371.428 196.592C375.448 195.973 378.54 193.961 381.787 190.245C384.415 187.304 386.425 183.743 386.425 182.505C386.425 181.266 385.034 179.563 383.333 178.789C381.478 178.015 379.622 177.706 379.004 178.325C378.386 178.944 377.149 180.802 376.221 182.505C375.293 184.208 373.438 186.22 372.356 186.994C371.119 187.768 368.336 187.923 366.017 187.304C363.079 186.685 361.224 184.982 360.142 181.731Z" stroke="white"/>
<path d="M50.6114 223.374C50.3022 221.516 48.7561 219.039 47.0554 217.956C44.2724 216.253 41.7986 217.027 25.4099 226.006C15.2056 231.579 5.61975 237.462 4.22826 239.164C2.52754 241.022 1.90911 243.035 2.68217 244.583C3.30061 245.976 5.00133 247.834 6.54744 248.453C8.40276 249.537 13.6595 247.524 25.8737 241.022C34.9958 236.223 44.2724 231.114 46.7461 229.412C49.3745 227.554 50.766 225.541 50.6114 223.374Z" stroke="white"/>
<path d="M79.2144 221.981C78.1321 219.813 76.586 217.491 75.9675 216.872C75.3491 216.098 73.4937 216.717 71.9476 218.111C70.5561 219.504 69.3193 221.052 69.3193 221.671C69.4739 222.29 70.8654 225.077 72.5661 227.863C74.2668 230.495 77.359 233.437 79.5236 234.365C81.6881 235.294 85.0895 235.913 87.2541 235.913C89.4186 235.913 93.2839 234.83 95.7577 233.591C98.2314 232.353 101.478 229.257 102.715 226.625C103.952 224.148 104.725 220.897 104.261 219.659C103.797 218.42 102.097 217.337 100.396 217.337C98.5406 217.337 96.5307 219.039 95.4484 221.362C94.3662 223.529 92.047 225.696 90.3463 226.161C88.6456 226.47 85.8626 226.625 84.1619 226.315C82.4612 226.161 80.2966 224.148 79.2144 221.981Z" stroke="white"/>
<path d="M192.08 221.981C190.998 219.813 189.452 217.646 188.833 217.027C188.215 216.408 186.359 216.717 184.659 217.491C183.113 218.42 181.876 220.433 182.03 221.981C182.185 223.684 184.813 227.554 187.751 230.495C192.08 234.83 194.399 235.913 199.347 235.913C203.985 235.913 206.923 234.83 210.942 231.269C214.498 228.328 216.354 225.232 216.354 222.755C216.354 220.587 215.272 218.42 214.035 217.801C212.334 216.872 210.324 218.111 207.386 221.671C203.985 225.851 202.284 226.78 198.574 226.315C195.636 226.006 193.317 224.458 192.08 221.981Z" stroke="white"/>
<path d="M274.024 218.575C272.477 217.027 270.931 215.943 270.467 215.943C270.004 215.943 262.119 220.278 252.687 225.387C243.411 230.34 234.134 235.604 232.279 236.842C230.114 238.081 228.723 240.558 228.723 242.88C228.723 245.202 229.96 247.369 231.815 248.298C234.289 249.537 238.309 247.988 253.151 240.403C263.046 235.139 272.477 229.721 274.024 228.328C275.57 226.935 276.807 224.767 276.807 223.529C276.807 222.29 275.57 219.968 274.024 218.575Z" stroke="white"/>
<path d="M304.946 221.981C303.4 219.504 301.39 217.027 300.307 216.717C299.225 216.408 297.524 216.872 296.597 217.801C295.514 218.73 294.741 220.433 294.896 221.516C295.051 222.6 296.133 225.387 297.37 227.863C298.452 230.186 301.853 232.972 304.636 234.211C307.883 235.449 312.058 236.068 315.305 235.449C318.551 234.83 322.417 232.508 325.045 229.721C327.364 227.244 329.219 223.684 329.219 221.981C329.219 220.278 328.137 218.42 326.746 217.801C325.045 216.872 323.19 217.956 320.561 221.671C317.778 225.387 315.614 226.625 312.212 226.625C308.656 226.625 306.956 225.541 304.946 221.981Z" stroke="white"/>
<path d="M417.811 221.981C416.265 219.504 414.255 217.182 413.327 216.872C412.4 216.562 410.699 216.562 409.462 216.872C408.38 217.337 407.607 219.504 407.762 222.136C407.916 224.613 409.771 228.328 411.936 230.495C414.101 232.663 417.657 234.83 420.13 235.294C422.45 235.913 426.624 235.913 429.407 235.294C432.345 234.675 435.901 232.353 438.374 229.412C440.539 226.625 442.085 222.91 441.776 221.207C441.467 219.504 439.921 217.956 438.22 217.646C436.158 217.337 434.251 218.781 432.499 221.981C430.335 225.541 428.634 226.625 425.078 226.625C421.522 226.625 419.821 225.541 417.811 221.981Z" stroke="white"/>
<path d="M384.879 219.659C384.879 218.42 383.642 217.337 382.251 217.491C380.705 217.491 369.727 222.6 357.822 228.947C345.917 235.294 336.022 241.177 335.868 242.106C335.558 242.88 336.332 244.118 337.414 244.583C338.341 245.047 341.588 244.273 344.371 243.035C347 241.641 350.246 240.558 351.329 240.558C352.875 240.403 352.875 240.867 351.329 242.88C349.989 244.428 349.834 245.873 350.865 247.214C351.947 248.608 357.204 246.595 373.283 238.7C384.725 232.817 394.62 227.244 395.083 226.315C395.547 225.232 395.393 223.684 394.774 223.064C394.001 222.445 390.754 223.064 387.662 224.612C384.415 226.161 381.323 226.78 380.705 226.161C379.932 225.387 380.705 224.148 382.251 223.374C383.642 222.6 384.879 220.897 384.879 219.659Z" stroke="white"/>
<path d="M161.931 226.006C161.158 224.613 160.23 223.529 159.612 223.684C158.839 223.838 148.634 228.947 136.729 235.139C124.824 241.487 114.929 247.369 114.775 248.143C114.466 249.072 115.239 250.311 116.321 250.775C117.249 251.239 120.495 250.465 123.278 249.227C125.907 247.834 128.69 247.06 129.463 247.524C130.081 247.988 129.617 249.227 128.535 250.311C127.453 251.239 126.68 253.097 126.68 254.181C126.68 255.11 127.607 256.038 128.69 256.038C129.617 256.038 139.976 251.239 151.417 245.202C162.859 239.164 172.599 233.901 173.063 233.437C173.527 233.127 173.063 231.888 171.981 230.805C170.435 229.412 169.043 229.412 165.332 231.269C162.859 232.508 160.23 232.972 159.457 232.353C158.839 231.734 159.457 230.495 160.694 229.721C162.086 228.947 162.549 227.554 161.931 226.006Z" stroke="white"/>
<path d="M66.8455 258.98C65.2994 257.587 62.671 256.038 60.9703 255.574C59.2696 255.11 56.332 255.264 54.6313 256.038C52.776 256.812 50.1476 258.98 48.7561 260.992C47.3646 263.005 46.2823 265.637 46.2823 266.875C46.1277 268.113 47.5192 271.055 49.3745 273.532C51.6937 276.783 53.7036 277.712 58.3419 277.712C61.898 277.866 65.1448 276.783 66.6909 275.08C68.237 273.532 69.4739 269.816 69.4739 266.875C69.4739 263.624 68.5462 260.528 66.8455 258.98Z" stroke="white"/>
<path d="M179.711 258.98C178.165 257.587 175.537 256.038 173.836 255.574C172.135 255.11 169.661 255.11 168.425 255.574C167.188 256.038 164.869 257.587 163.322 258.98C161.776 260.373 160.539 263.624 160.539 266.875C160.539 269.971 161.776 273.377 163.322 274.925C164.869 276.473 168.27 277.712 170.744 277.712C173.372 277.712 176.928 276.628 178.938 275.389C181.412 273.687 182.34 271.519 182.34 267.339C182.494 263.624 181.412 260.528 179.711 258.98Z" stroke="white"/>
<path d="M293.35 260.063C291.34 258.051 288.402 255.884 286.702 255.574C285.001 255.11 282.527 255.11 281.29 255.574C280.053 256.038 277.734 257.587 276.188 258.98C274.642 260.373 273.405 263.624 273.405 266.875C273.405 269.971 274.642 273.377 276.188 274.925C277.734 276.473 281.445 277.712 284.846 277.712C289.33 277.712 291.185 276.783 293.659 273.532C295.514 271.055 296.906 267.959 296.751 266.565C296.751 265.017 295.205 262.076 293.35 260.063Z" stroke="white"/>
<path d="M406.834 260.683C405.288 258.515 402.505 256.503 400.649 256.038C398.794 255.574 395.857 255.419 394.31 255.729C392.61 256.038 390.136 257.741 388.899 259.599C387.508 261.457 386.425 264.862 386.425 267.339C386.425 269.662 387.817 272.912 389.517 274.615C391.373 276.473 394.774 277.712 397.712 277.712C400.495 277.866 403.742 276.628 405.288 275.08C406.679 273.532 408.225 270.59 408.844 268.423C409.462 265.791 408.844 263.314 406.834 260.683Z" stroke="white"/>
<path d="M115.548 285.762C114.466 284.678 112.146 283.904 110.446 283.904C108.745 283.904 105.962 284.833 104.261 285.916C102.561 287.155 94.83 291.335 87.2541 295.514C79.6782 299.539 72.4115 303.719 71.3292 304.648C70.2469 305.577 69.3193 307.744 69.3193 309.447C69.3193 311.15 70.5561 313.627 71.9476 314.865C74.2668 317.033 76.2767 316.259 92.3562 307.899C102.097 302.79 111.837 297.372 113.847 295.979C115.702 294.431 117.403 291.954 117.403 290.561C117.403 289.013 116.63 286.845 115.548 285.762Z" stroke="white"/>
<path d="M229.496 286.226C229.032 284.833 227.022 283.904 224.548 284.059C222.074 284.059 211.87 288.858 201.666 294.586C186.514 302.945 182.958 305.577 182.649 308.673C182.494 310.84 183.113 313.472 184.195 314.556C185.277 315.639 186.823 316.568 187.751 316.568C188.679 316.568 198.574 311.46 209.86 305.267C224.239 297.372 230.423 293.192 230.269 291.335C230.269 289.787 229.96 287.464 229.496 286.226Z" stroke="white"/>
<path d="M342.361 287C341.743 284.833 340.351 283.904 337.414 284.059C334.94 284.213 324.736 288.858 314.531 294.586C298.297 303.564 295.978 305.422 295.669 309.137C295.36 312.234 296.133 313.782 298.761 315.02C301.699 316.413 304.946 315.175 321.798 306.041C332.93 300.159 341.897 294.276 342.361 292.883C342.825 291.335 342.825 288.703 342.361 287Z" stroke="white"/>
<path d="M455.691 289.787C455.227 285.297 454.609 284.678 450.589 284.368C447.496 284.213 440.075 287.464 427.397 294.586C412.245 302.945 408.689 305.577 408.38 308.673C408.225 310.84 408.844 313.472 409.926 314.556C411.008 315.639 412.864 316.568 413.946 316.413C414.874 316.413 424.923 311.614 435.901 305.577L436.04 305.502C455.692 294.894 455.999 294.729 455.691 289.787Z" stroke="white"/>
<path d="M23.5546 308.673C22.0085 306.196 19.5347 304.029 17.9886 304.029C16.4425 304.029 14.8964 305.267 14.4326 306.815C13.8141 308.209 14.4326 311.46 15.5148 313.937C16.7517 316.413 19.5347 319.355 22.0085 320.438C24.3276 321.677 28.6567 322.606 31.7489 322.606C36.078 322.606 38.5518 321.367 42.5717 317.188C45.5093 314.246 47.8284 310.376 47.8284 308.673C47.8284 306.97 46.5915 305.112 45.2001 304.648C43.1901 303.874 41.3348 304.958 38.5518 308.518C35.9234 311.769 33.295 313.317 30.5121 313.317C27.4198 313.317 25.4099 312.079 23.5546 308.673Z" stroke="white"/>
<path d="M136.42 308.673C134.874 306.196 132.4 304.029 130.854 304.029C129.308 304.029 127.762 305.267 127.298 306.815C126.68 308.209 127.298 311.46 128.38 313.782C129.617 316.259 132.091 319.2 134.101 320.438C135.956 321.677 140.285 322.606 143.687 322.606C148.634 322.606 150.954 321.522 155.283 317.188C158.839 313.627 160.539 310.531 160.385 308.363C160.076 305.99 158.787 304.7 156.52 304.493C154.046 304.184 152.5 305.113 151.727 307.589C150.954 309.447 149.253 311.46 147.861 312.234C146.315 312.853 143.842 313.317 142.141 313.317C140.285 313.317 137.966 311.46 136.42 308.673Z" stroke="white"/>
<path d="M248.049 308.673C246.657 305.887 244.493 304.029 242.638 304.029C240.164 304.029 239.545 305.112 239.545 308.673C239.545 311.769 241.092 314.865 244.184 317.962C247.74 321.522 250.214 322.606 255.006 322.606C258.408 322.606 263.046 321.367 265.211 319.974C267.53 318.426 270.313 315.02 271.55 312.543C272.787 310.066 273.405 306.97 272.941 306.041C272.477 304.958 270.622 304.029 268.921 304.029C267.066 304.029 265.211 305.422 264.592 307.589C263.819 309.447 262.118 311.46 260.727 312.234C259.181 312.853 256.398 313.317 254.233 313.317C251.45 313.317 249.75 311.924 248.049 308.673Z" stroke="white"/>
<path d="M360.915 308.673C359.523 305.887 357.359 304.029 355.503 304.029C353.029 304.029 352.411 305.112 352.411 308.673C352.411 311.769 353.957 314.865 357.049 317.962C360.76 321.677 362.925 322.606 368.336 322.606C372.201 322.451 376.066 321.367 378.076 319.819C379.777 318.426 382.405 315.33 383.797 313.008C385.188 310.531 386.116 307.589 385.652 306.351C385.188 305.112 383.642 304.029 382.251 304.029C380.705 304.029 377.922 306.041 376.066 308.673C373.438 312.079 371.273 313.317 367.872 313.317C364.316 313.317 362.77 312.234 360.915 308.673Z" stroke="white"/>
<path d="M268.458 343.195C267.839 342.112 266.448 341.183 265.52 341.183C264.438 341.183 257.326 344.588 249.595 348.613C242.019 352.638 231.97 358.057 227.64 360.534C223.157 363.165 219.446 365.642 219.446 366.416C219.446 367.036 220.374 367.964 221.456 368.429C222.384 368.893 225.63 368.119 228.413 366.881C231.042 365.487 233.67 364.404 234.134 364.404C234.598 364.404 234.598 366.107 234.134 368.274C233.67 370.441 234.134 372.454 234.907 372.918C235.835 373.383 245.884 368.584 257.326 362.546C272.014 354.496 278.198 350.471 278.198 348.613C278.198 347.065 277.58 345.827 276.652 345.827C275.879 345.827 273.096 346.911 270.467 348.149C267.994 349.387 265.365 350.162 264.747 349.697C263.974 349.233 264.901 347.994 266.448 346.911C267.994 345.982 268.921 344.124 268.458 343.195Z" stroke="white"/>
<path d="M79.5236 347.375C78.1321 344.588 75.9675 342.731 74.1122 342.731C72.5661 342.731 70.8654 343.35 70.2469 344.279C69.7831 345.208 70.4015 348.149 71.4838 350.936C72.5661 353.567 75.1945 357.128 77.359 358.676C79.369 360.069 83.3889 361.308 86.1718 361.308C88.8002 361.308 93.2839 360.224 95.7577 358.986C98.2314 357.747 101.478 354.496 102.715 352.019C103.952 349.542 104.725 346.291 104.261 345.053C103.797 343.814 102.251 342.731 100.86 342.731C99.3137 342.731 96.5307 344.743 94.6754 347.375C92.047 350.781 89.8824 352.019 86.481 352.019C82.925 352.019 81.3789 350.936 79.5236 347.375Z" stroke="white"/>
<path d="M163.477 347.375C163.168 344.279 162.086 343.35 158.375 343.04C154.973 342.731 148.789 345.517 135.956 352.793C126.216 358.212 117.249 363.939 116.321 365.487C114.775 367.81 114.775 368.893 116.63 371.835C117.867 373.692 120.032 375.24 121.268 375.24C122.505 375.24 131.473 370.906 141.059 365.642C150.49 360.379 159.612 354.961 161.158 353.722C162.859 352.174 163.786 349.697 163.477 347.375Z" stroke="white"/>
<path d="M192.389 347.375C191.152 344.743 188.833 342.731 187.287 342.731C185.741 342.731 183.886 343.195 183.113 343.814C182.34 344.279 181.876 346.137 182.03 347.685C182.185 349.233 184.813 352.948 187.751 355.889C191.925 360.069 194.399 361.308 198.574 361.308C201.511 361.308 205.84 360.379 208.314 359.14C210.633 358.057 213.416 355.115 214.653 352.638C215.735 350.161 216.199 346.911 215.735 345.517C215.272 343.969 213.725 342.731 212.489 342.731C211.252 342.731 208.778 344.898 207.077 347.375C204.758 350.781 202.748 352.019 199.347 352.019C195.791 352.019 194.244 350.936 192.389 347.375Z" stroke="white"/>
<path d="M304.482 346.601C303.554 344.279 301.699 342.731 299.843 342.731C298.143 342.731 296.287 343.969 295.824 345.517C295.205 346.911 295.824 350.161 296.906 352.638C298.143 355.115 300.926 358.057 303.4 359.14C305.719 360.379 309.738 361.308 312.212 361.308C314.841 361.308 318.706 360.379 321.18 359.14C323.499 358.057 326.282 355.115 327.519 352.638C328.601 350.161 329.065 346.911 328.601 345.517C328.137 343.969 326.436 342.731 325.045 342.731C323.499 342.731 321.334 344.434 320.407 346.601C319.324 348.768 316.851 350.936 314.995 351.4C312.985 352.019 310.202 352.019 308.811 351.4C307.265 350.936 305.409 348.768 304.482 346.601Z" stroke="white"/>
<path d="M389.208 347.375C388.899 344.279 387.817 343.35 384.106 343.04C380.859 342.886 374.83 345.362 363.234 352.019C354.266 356.973 345.763 361.927 344.371 362.856C342.825 363.63 341.588 365.952 341.588 367.964C341.588 369.822 342.361 372.299 343.444 373.383C344.526 374.466 346.381 375.24 347.464 375.24C348.391 375.24 357.513 370.751 367.563 365.333C377.458 359.76 386.58 354.496 387.662 353.258C388.744 352.174 389.363 349.542 389.208 347.375Z" stroke="white"/>
<path d="M417.347 346.601C416.265 343.969 414.564 342.731 411.936 342.731C409.153 342.731 408.071 343.505 408.071 345.827C408.071 347.53 408.998 350.781 410.235 353.258C411.318 355.58 414.101 358.366 416.42 359.45C418.584 360.379 422.759 361.308 425.542 361.308C428.17 361.308 432.035 360.224 434.045 358.986C435.901 357.747 438.529 354.341 439.921 351.71C441.157 348.923 441.93 345.672 441.467 344.743C441.003 343.66 439.147 342.731 437.447 342.731C435.591 342.731 433.736 344.279 432.808 346.601C432.035 348.768 429.716 350.936 427.861 351.4C425.851 352.019 423.068 352.019 421.677 351.4C420.13 350.936 418.12 348.768 417.347 346.601Z" stroke="white"/>
<path d="M48.6015 348.923C48.1376 347.994 47.3646 347.375 46.7461 347.53C45.9731 347.53 35.9234 352.638 24.3276 358.676C12.7318 364.868 2.37293 370.751 1.13605 371.835C-0.20391 373.073 -0.358514 374.208 0.672222 375.24C1.7545 376.479 3.91904 376.014 7.93891 374.157C11.1857 372.609 14.2779 371.835 14.8964 372.454C15.6694 373.073 15.2056 374.621 14.278 376.014C12.5772 377.872 12.7318 378.491 15.051 379.42C16.7517 380.039 24.7915 376.634 37.7787 369.822C48.7561 364.094 58.6511 358.676 59.4242 358.057C60.5065 357.283 60.3519 356.044 59.115 354.341C57.2597 352.329 56.6412 352.329 52.1575 354.961C49.3745 356.663 46.5915 357.747 45.9731 357.283C45.2 356.973 45.8185 355.27 47.0554 353.567C48.2922 351.864 49.0653 349.852 48.6015 348.923Z" stroke="white"/>
<path d="M65.2994 382.981C62.8256 381.123 59.888 379.885 58.6511 379.885C57.4143 379.885 54.7859 380.813 52.9306 381.897C51.2299 382.981 48.7561 386.077 47.5192 388.863C45.6639 393.353 45.8185 394.282 48.7561 398.152C51.2299 401.248 53.549 402.487 58.0327 402.796C62.2072 403.106 64.9902 402.332 66.8455 400.474C68.5462 398.771 69.6285 395.52 69.4739 391.96C69.4739 387.315 68.5462 385.303 65.2994 382.981Z" stroke="white"/>
<path d="M178.165 382.981C175.691 381.123 172.754 379.73 171.362 379.885C169.971 379.885 167.033 381.278 164.714 383.136C161.312 385.612 160.385 387.47 160.539 391.96C160.539 395.365 161.776 398.771 163.322 400.319C164.869 401.867 168.579 403.106 171.517 403.106C174.764 403.106 178.01 402.177 179.557 400.474C181.103 398.926 182.34 395.211 182.34 391.96C182.34 387.315 181.412 385.458 178.165 382.981Z" stroke="white"/>
<path d="M289.794 381.897C287.629 380.813 285.001 379.885 283.919 379.885C282.682 379.885 279.899 381.278 277.58 383.136C274.178 385.612 273.25 387.47 273.405 391.96C273.405 395.365 274.642 398.771 276.188 400.319C277.734 401.867 281.445 403.106 284.846 403.106C289.33 403.106 291.185 402.177 293.659 398.926C295.514 396.449 296.906 393.662 296.751 392.734C296.751 391.65 295.978 389.173 295.205 387.315C294.277 385.303 291.958 382.826 289.794 381.897Z" stroke="white"/>
<path d="M402.659 381.897C400.495 380.813 397.867 379.885 396.784 379.885C395.547 379.885 392.764 381.278 390.445 383.136C387.044 385.612 386.116 387.47 386.271 391.65C386.425 394.746 387.662 398.152 389.517 400.01C391.373 401.867 394.774 403.106 397.712 403.106C400.495 403.261 403.742 402.022 405.133 400.474C406.525 398.926 408.071 396.139 408.689 394.282C409.153 392.269 408.844 389.173 408.071 387.315C407.143 385.303 404.824 382.826 402.659 381.897Z" stroke="white"/>
<path d="M115.393 411.62C114.466 410.227 112.146 409.143 110.446 409.298C108.745 409.298 99.0045 414.097 88.8002 419.825C71.9476 429.423 70.2469 430.661 70.2469 434.686C70.2469 437.163 71.3292 439.95 72.8753 440.879C74.8852 442.272 77.6682 441.343 86.7903 436.544C92.9747 433.138 102.251 427.875 107.353 424.934C112.456 421.837 116.785 418.122 116.939 416.574C117.249 415.181 116.475 412.859 115.393 411.62Z" stroke="white"/>
<path d="M229.96 413.942C229.65 410.846 228.568 409.917 224.857 409.608C221.456 409.298 215.272 412.085 201.666 419.825C186.978 428.339 182.958 431.281 182.649 434.222C182.494 436.235 183.113 438.866 184.195 439.95C185.277 441.034 187.132 441.962 188.215 441.808C189.142 441.808 198.264 437.318 208.314 431.9C218.209 426.327 227.331 421.063 228.413 419.825C229.496 418.741 230.114 416.11 229.96 413.942Z" stroke="white"/>
<path d="M342.361 414.716C342.361 410.691 341.743 410.072 337.723 409.762C334.476 409.453 327.673 412.394 314.531 419.98C297.679 429.423 295.978 430.816 295.978 434.841C295.978 437.318 297.215 439.95 298.607 440.879C300.926 442.272 304.173 441.188 315.614 434.996C323.499 430.816 332.775 425.553 336.177 423.386C341.124 420.135 342.361 418.277 342.361 414.716Z" stroke="white"/>
<path d="M455.691 415.181C455.227 410.691 454.609 410.072 450.589 409.608C447.806 409.453 443.477 410.691 439.766 412.859C436.365 414.871 427.861 419.825 420.749 424.005C411.008 429.578 407.916 432.21 407.916 434.686C408.071 436.544 408.844 438.866 409.926 439.95C411.008 441.034 413.018 441.808 414.255 441.808C415.492 441.808 425.387 436.854 436.365 430.971C455.691 420.289 456 419.98 455.691 415.181Z" stroke="white"/>
<path d="M23.5546 434.067C22.0085 431.59 19.5347 429.423 17.9886 429.423C16.4425 429.423 14.8964 430.661 14.4326 432.21C13.8141 433.603 14.4326 436.854 15.5148 439.331C16.7517 441.808 19.5347 444.749 22.0085 445.833C24.3276 447.071 28.6567 448 31.7489 448C36.078 448 38.5518 446.762 42.5717 442.582C45.5093 439.64 47.8284 435.77 47.8284 434.067C47.8284 432.364 46.5915 430.507 45.2001 430.042C43.1901 429.268 41.3348 430.352 38.5518 433.912C35.9234 437.163 33.295 438.712 30.5121 438.712C27.4198 438.712 25.4099 437.473 23.5546 434.067Z" stroke="white"/>
<path d="M136.42 434.067C134.874 431.59 132.4 429.423 130.854 429.423C129.308 429.423 127.762 430.661 127.298 432.21C126.68 433.603 127.298 436.854 128.38 439.331C129.617 441.808 132.4 444.749 134.874 445.833C137.193 447.071 140.904 448 143.378 448C145.697 448 150.026 446.452 152.964 444.439C155.901 442.582 158.993 439.021 159.921 436.699C160.952 433.913 160.952 431.952 159.921 430.816C158.993 429.888 156.983 429.578 155.283 430.042C153.582 430.507 151.572 432.519 150.644 434.377C149.562 436.854 147.552 438.092 144.151 438.402C139.976 438.711 138.585 437.938 136.42 434.067Z" stroke="white"/>
<path d="M248.049 434.067C246.657 431.281 244.493 429.423 242.638 429.423C240.164 429.423 239.545 430.507 239.545 434.067C239.545 436.699 241.092 440.414 243.101 442.737C245.266 445.213 248.822 446.916 252.687 447.536C256.81 448.052 260.572 447.484 263.974 445.833C266.602 444.439 270.004 441.188 271.241 438.712C272.477 436.235 273.25 432.984 272.787 431.745C272.323 430.507 270.622 429.423 268.921 429.423C267.066 429.423 265.056 431.126 263.819 433.758C262.273 437.009 260.727 438.092 256.089 438.402C251.141 438.711 250.059 438.092 248.049 434.067Z" stroke="white"/>
<path d="M360.915 434.067C359.523 431.281 357.359 429.423 355.503 429.423C353.029 429.423 352.411 430.507 352.411 434.067C352.411 436.699 353.957 440.414 355.967 442.737C358.132 445.213 361.688 446.916 365.553 447.536C369.676 448.052 373.438 447.484 376.839 445.833C379.468 444.439 382.869 441.188 384.106 438.712C385.343 436.235 386.116 432.984 385.652 431.745C385.188 430.507 383.642 429.423 382.251 429.423C380.705 429.423 377.922 431.436 376.066 434.067C373.438 437.473 371.273 438.712 367.872 438.712C364.316 438.712 362.77 437.628 360.915 434.067Z" stroke="white"/>
</mask>
<g mask="url(#mask0_29_2)">
<path opacity="0.08" d="M116.73 188.027C156.47 115.834 72.4771 31.6656 36 -4H372V441.607C162.733 459.813 57.578 295.486 116.73 188.027Z" fill="#F1B7DA"/>
</g>
</svg>
