<svg width="328" height="483" viewBox="0 0 328 483" fill="none" xmlns="http://www.w3.org/2000/svg">
<mask id="mask0_2_425" style="mask-type:alpha" maskUnits="userSpaceOnUse" x="0" y="0" width="456" height="483">
<path d="M48.4469 2.32212C47.21 1.08365 45.2 0 44.2724 0H44.1178C43.1901 0 33.295 5.10865 22.4723 11.301C3.45521 21.9827 2.68216 22.6019 3.14599 27.0913C3.45521 30.8067 4.38288 31.8904 7.47509 32.2C9.94886 32.5096 17.5248 29.2587 27.8837 23.6856C37.1603 18.7317 45.9731 13.4683 47.6738 12.075C49.3745 10.5269 50.766 8.20481 50.766 6.96635C50.766 5.72788 49.6838 3.56058 48.4469 2.32212Z" fill="#85195A"/>
<path d="M78.2867 2.63173C77.6682 1.23846 76.2767 0 75.0398 0C73.803 0 72.1023 1.08365 71.1746 2.32212C69.9377 4.025 70.0923 6.0375 71.793 10.0625C73.1845 13.3135 76.1221 16.4096 79.0597 17.9577C82.3066 19.6606 86.0172 20.125 89.5732 19.6606C92.5108 19.0413 96.84 16.7192 99.3137 14.3971C101.633 12.075 103.797 8.82404 104.261 7.27596C104.725 5.88269 103.952 3.56058 102.56 2.16731C100.396 0 99.7775 0.309615 95.2938 5.26346C92.5108 8.20481 88.9548 10.6817 87.2541 10.8365C85.5534 10.8365 83.0796 9.75288 81.6881 8.20481C80.2966 6.65673 78.7505 4.17981 78.2867 2.63173Z" fill="#85195A"/>
<path d="M191.462 3.40577C190.688 1.54808 189.142 0 188.06 0.154808C187.132 0.154808 185.122 0.619231 184.04 1.08365C182.803 1.39327 181.876 2.94135 182.03 4.33462C182.185 5.72788 183.576 9.13365 185.123 11.6106C186.669 14.0875 189.915 17.1837 192.544 18.2673C195.172 19.5058 199.347 19.9702 202.748 19.5058C206.613 18.8865 209.86 17.0288 212.489 13.9327C214.653 11.4558 216.354 7.58558 216.354 5.41827C216.354 3.25096 215.426 1.23846 214.344 0.928846C213.416 0.619231 211.715 0.774038 210.788 1.23846C209.86 1.85769 208.314 3.87019 207.232 5.72788C206.304 7.74038 203.83 9.59808 201.666 10.0625C199.501 10.5269 196.718 9.90769 195.327 8.82404C193.935 7.89519 192.08 5.41827 191.462 3.40577Z" fill="#85195A"/>
<path d="M274.797 1.85769C273.714 0.774039 271.704 0 270.467 0C269.231 0 260.109 4.64423 250.368 10.2173C240.628 15.7904 231.66 21.2087 230.578 22.1375C229.341 23.2212 228.723 25.6981 229.032 27.8654C229.341 30.6519 230.578 31.8904 233.361 32.2C235.68 32.5096 242.174 30.0327 249.595 26.1625C256.398 22.6019 265.211 17.6481 269.231 15.326C274.487 12.075 276.652 9.90769 276.652 7.27596C276.652 5.41827 275.879 2.94135 274.797 1.85769Z" fill="#85195A"/>
<path d="M304.018 5.10865C303.09 2.78654 300.926 0.619231 299.534 0.309615C298.143 0 296.442 1.08365 295.824 2.63173C295.36 4.17981 295.669 7.12115 296.597 9.28846C297.524 11.4558 299.689 14.5519 301.544 16.2548C303.863 18.4221 306.956 19.351 312.522 19.351C319.17 19.351 320.716 18.7317 324.736 14.2423C327.21 11.6106 329.219 7.58558 329.219 5.41827C329.219 3.25096 328.137 1.23846 326.9 0.774038C325.663 0.309615 323.499 1.08365 322.262 2.32212C321.025 3.56058 319.943 5.41827 319.943 6.19231C319.943 6.96635 318.397 8.51442 316.387 9.44327C314.531 10.3721 311.439 10.6817 309.429 10.2173C307.574 9.75288 305.1 7.43077 304.018 5.10865Z" fill="#85195A"/>
<path d="M381.942 6.65673C383.488 4.17981 383.642 2.63173 382.56 1.70288C381.426 0.670833 377.046 2.21891 369.418 6.34712C363.079 9.90769 353.339 15.1712 347.773 18.1125C342.207 21.0538 337.105 24.15 336.177 24.924C335.146 25.8529 335.301 26.9365 336.641 28.175C338.187 29.8779 339.578 29.7231 343.134 27.401C345.763 26.0077 349.01 24.7692 350.401 24.7692C352.72 24.6144 352.875 25.0788 351.174 27.0913C350.246 28.3298 349.628 30.1875 350.092 30.9615C350.556 31.7356 351.483 32.5096 352.411 32.5096C353.339 32.5096 363.388 27.401 374.829 21.2087C386.425 15.1712 395.547 9.28846 395.238 8.51442C394.929 7.74038 393.228 7.12115 391.682 7.27596C390.136 7.43077 386.735 8.20481 384.261 8.82404C379.777 10.0625 379.777 9.90769 381.942 6.65673Z" fill="#85195A"/>
<path d="M416.884 5.10865C415.956 2.78654 413.791 0.619231 412.4 0.309615C411.008 0 409.308 1.08365 408.689 2.63173C408.225 4.17981 408.071 6.96635 408.689 8.97885C409.153 10.8365 411.008 13.7779 412.709 15.4808C414.41 17.1837 418.43 19.0413 421.522 19.5058C425.542 20.125 429.098 19.6606 432.345 17.9577C435.128 16.5644 438.684 13.0038 440.075 10.0625C442.549 5.10865 442.549 4.33462 440.539 2.16731C438.374 -0.154808 437.756 0 432.808 5.41827C428.325 10.2173 426.624 10.9913 423.068 10.2173C420.594 9.59808 418.12 7.58558 416.884 5.10865Z" fill="#85195A"/>
<path d="M162.704 8.82404C161.931 8.20481 160.385 7.74038 159.148 7.74038C157.911 7.89519 148.171 12.6942 137.502 18.5769C126.834 24.4596 117.558 29.5683 116.63 29.8779C115.702 30.1875 115.857 31.426 117.094 32.974C118.795 35.2962 119.413 35.451 123.588 33.2837C126.061 32.0452 128.69 31.2712 129.463 31.7356C130.081 32.0452 129.463 33.5933 128.226 34.8317C126.68 36.483 126.422 37.8247 127.453 38.8567C128.535 39.9404 135.956 36.999 151.108 29.1038C163.168 22.9115 173.063 16.874 173.063 15.9452C173.063 14.8615 172.444 13.6231 171.517 13.1587C170.589 12.6942 167.806 13.4683 165.332 14.7067C162.859 15.9452 160.23 16.7192 159.612 16.2548C158.839 15.7904 159.612 14.2423 161.158 12.849C162.549 11.301 163.322 9.44327 162.704 8.82404Z" fill="#85195A"/>
<path d="M66.3817 41.7981C64.6809 40.0952 61.2795 38.7019 58.8058 38.7019C56.332 38.7019 52.9306 39.9404 51.0752 41.4885C49.3745 42.8817 47.3646 46.1327 46.9008 48.7644C45.9731 52.4798 46.5915 54.1827 49.8384 57.7433C52.6213 60.375 55.5589 61.9231 58.6511 61.9231C61.2795 61.9231 64.6809 60.5298 66.3817 58.8269C68.237 56.9692 69.4739 53.7183 69.4739 50.3125C69.4739 46.9067 68.237 43.6558 66.3817 41.7981Z" fill="#85195A"/>
<path d="M179.247 41.7981C177.547 40.0952 174.145 38.7019 171.517 38.7019C168.888 38.7019 165.487 40.0952 163.786 41.7981C161.931 43.6558 160.694 46.9067 160.694 50.3125C160.694 53.7183 161.931 56.9692 163.786 58.8269C165.487 60.5298 168.888 61.9231 171.517 61.9231C174.145 61.9231 177.547 60.5298 179.247 58.8269C181.103 56.9692 182.34 53.7183 182.34 50.3125C182.34 46.9067 181.103 43.6558 179.247 41.7981Z" fill="#85195A"/>
<path d="M292.113 41.6433C289.948 39.9404 286.392 38.5471 284.073 38.7019C281.599 38.7019 278.353 40.0952 276.652 41.7981C274.797 43.6558 273.56 46.9067 273.56 50.3125C273.56 53.7183 274.797 56.9692 276.652 58.8269C278.353 60.5298 281.599 61.9231 284.073 61.9231C286.392 62.0779 289.948 60.6846 292.113 58.9817C295.051 56.8144 295.978 54.4923 295.978 50.3125C295.978 46.1327 295.051 43.8106 292.113 41.6433Z" fill="#85195A"/>
<path d="M404.979 41.6433C402.814 39.9404 399.258 38.5471 397.093 38.7019C394.929 38.7019 391.527 40.25 389.517 42.2625C387.044 44.5846 385.962 47.3712 386.116 50.4673C386.271 52.9442 387.971 56.5048 389.827 58.3625C391.837 60.375 395.083 61.9231 397.248 61.9231C399.413 62.0779 402.814 60.6846 404.979 58.9817C407.916 56.8144 408.844 54.4923 408.844 50.3125C408.844 46.1327 407.916 43.8106 404.979 41.6433Z" fill="#85195A"/>
<path d="M115.084 68.8894C113.847 67.651 111.837 66.5673 110.91 66.7221C109.827 66.7221 102.561 70.2827 94.9846 74.4625C87.4087 78.6423 78.4413 83.9058 75.3491 85.9183C71.1746 88.7048 69.4739 90.8721 69.4739 93.6586C69.4739 95.9808 70.7108 98.1481 72.5661 99.0769C75.0398 100.315 78.5959 99.0769 90.8101 92.7298C99.0045 88.2404 107.972 83.2865 110.446 81.5836C112.919 79.726 115.548 77.5587 116.166 76.6298C116.785 75.8558 117.403 74.1529 117.403 73.224C117.403 72.1404 116.321 70.1279 115.084 68.8894Z" fill="#85195A"/>
<path d="M227.177 68.1154C225.476 67.3413 223.93 66.5673 223.775 66.5673C223.466 66.5673 218.828 69.0442 213.262 71.8308C207.696 74.7721 198.728 79.8808 193.162 83.1317C185.277 88.0856 182.958 90.2529 182.803 93.5038C182.494 96.4452 183.267 97.8385 185.896 98.9221C188.679 100.006 192.544 98.6125 205.531 91.6462C214.499 87.0019 223.621 81.7385 226.094 80.1904C228.723 78.3327 230.269 76.0106 230.269 73.5337C230.269 71.2115 229.032 69.0442 227.177 68.1154Z" fill="#85195A"/>
<path d="M340.042 68.1154C338.341 67.3413 336.795 66.5673 336.641 66.5673C336.332 66.5673 330.611 69.6635 323.808 73.224C317.005 76.9394 308.038 82.0481 303.709 84.525C297.833 88.0856 295.824 90.2529 295.669 93.349C295.36 96.2904 296.133 97.9933 298.297 99.0769C300.771 100.315 304.636 98.9221 318.088 91.9558C327.21 87.0019 336.486 81.8933 338.96 80.3452C341.588 78.4875 343.134 76.0106 343.134 73.5337C343.134 71.2115 341.897 69.0442 340.042 68.1154Z" fill="#85195A"/>
<path d="M454.145 68.425C453.062 67.3413 451.362 66.5673 450.589 66.5673C449.816 66.5673 446.26 67.9606 442.858 69.8183C439.457 71.5211 431.881 75.8558 425.851 79.2615C419.821 82.8221 413.482 86.5375 411.627 87.776C409.462 89.0144 408.071 91.3365 408.071 93.6586C408.071 95.9808 409.308 98.1481 411.163 99.0769C413.637 100.315 417.502 98.9221 430.953 91.801C440.075 87.0019 449.352 81.8933 451.826 80.1904C454.299 78.6423 456 76.0106 456 73.9981C456 71.9856 455.227 69.5087 454.145 68.425Z" fill="#85195A"/>
<path d="M23.5546 92.8846C22.0085 90.4077 19.9985 88.0856 19.0709 87.776C18.1432 87.4663 16.4425 87.4663 15.2056 87.776C14.1234 88.2404 13.3503 89.9433 13.5049 91.801C13.6595 93.6587 15.051 97.0644 16.9063 99.5414C18.607 101.863 22.6269 104.495 25.8737 105.424C30.5121 106.817 32.6766 106.662 37.4695 104.65C40.5617 103.257 44.2724 100.625 45.5093 98.7673C46.9008 96.7548 47.8284 93.8135 47.5192 92.1106C47.21 90.2529 45.6639 88.8596 43.4993 88.7048C41.644 88.3952 40.0979 89.0144 40.0979 89.7885C40.0979 90.5625 38.7064 92.7298 37.0057 94.4327C35.305 96.1356 32.2127 97.5288 30.0482 97.5288C27.4198 97.5288 25.4099 96.1356 23.5546 92.8846Z" fill="#85195A"/>
<path d="M136.42 92.8846C134.874 90.4077 132.864 88.0856 131.937 87.776C131.009 87.4663 129.308 87.4663 128.071 87.776C126.989 88.2404 126.216 90.2529 126.371 92.2654C126.525 94.2779 128.38 97.9933 130.545 100.625C132.864 103.257 136.575 105.579 139.512 106.198C142.45 106.662 146.779 106.198 150.335 104.65C153.427 103.257 157.138 100.625 158.375 98.7673C159.766 96.7548 160.694 93.8135 160.385 92.1106C160.076 90.2529 158.53 88.8596 156.365 88.7048C154.2 88.3952 152.345 89.4788 151.263 91.801C150.181 93.6587 148.634 95.6712 147.707 96.2904C146.779 96.9096 144.46 97.5288 142.605 97.5288C140.285 97.5288 138.121 95.826 136.42 92.8846Z" fill="#85195A"/>
<path d="M247.74 92.1106C246.967 89.9433 245.73 87.9308 244.802 87.6211C243.874 87.3115 242.174 87.4663 240.937 87.776C239.855 88.2404 239.082 90.4077 239.236 93.0394C239.391 95.5163 241.246 99.2317 243.411 101.399C245.575 103.566 249.595 105.734 252.378 106.198C255.676 106.817 259.336 106.198 263.355 104.34C266.757 102.638 270.313 99.3865 271.55 96.7548C272.787 94.1231 273.405 91.1817 272.941 90.2529C272.477 89.1692 270.622 88.2404 268.921 88.2404C267.066 88.2404 265.056 89.9433 263.974 92.2654C262.892 94.4327 260.572 96.6 258.872 97.0644C257.171 97.5288 254.233 97.374 252.378 96.9096C250.368 96.4452 248.358 94.2779 247.74 92.1106Z" fill="#85195A"/>
<path d="M360.142 90.7173C359.987 89.4788 359.059 88.2404 357.977 87.9308C356.895 87.4663 355.039 87.4663 353.803 87.776C352.72 88.2404 351.947 90.2529 352.102 92.575C352.256 94.8971 353.493 98.3029 354.73 100.315C355.967 102.173 359.678 104.495 362.925 105.424C366.017 106.353 370.346 106.662 372.51 106.198C374.675 105.734 378.695 102.947 381.478 99.851C384.106 96.9096 386.271 93.1942 385.962 91.801C385.807 90.2529 384.261 88.8596 382.56 88.55C380.55 88.2404 378.231 89.7885 376.066 92.8846C373.747 95.826 371.119 97.5288 368.645 97.5288C366.481 97.5288 363.698 96.4452 362.461 95.2067C361.224 93.9683 360.142 91.9558 360.142 90.7173Z" fill="#85195A"/>
<path d="M78.7505 129.419C78.5959 128.181 77.6682 126.942 76.2767 126.323C75.0398 125.859 73.0299 126.478 71.793 127.716C69.7831 129.729 69.7831 130.812 71.4838 134.992C72.4115 137.624 75.0398 140.875 77.2044 142.268C79.3689 143.507 83.698 144.59 86.7903 144.59C90.1917 144.745 94.2116 143.507 96.84 141.494C99.1591 139.791 101.942 136.54 103.024 134.528C103.952 132.515 104.416 129.884 104.107 128.955C103.797 127.871 102.251 126.942 100.86 126.942C99.3137 126.942 96.5307 128.955 94.6754 131.587C92.3563 134.528 89.7278 136.231 87.2541 136.231C85.0895 136.231 82.3065 135.147 81.0697 133.909C79.8328 132.67 78.7505 130.658 78.7505 129.419Z" fill="#85195A"/>
<path d="M161.312 127.407C159.766 126.323 158.066 125.394 157.602 125.394C157.138 125.394 153.273 127.252 149.098 129.419C144.769 131.587 135.802 136.386 128.999 140.101C122.196 143.816 116.166 147.996 115.702 149.699C115.239 151.247 115.084 153.414 115.393 154.498C115.548 155.427 117.248 156.975 118.949 157.904C121.268 159.142 123.742 158.523 129.463 155.582C133.483 153.414 142.605 148.306 149.871 144.281C159.921 138.708 163.168 136.076 163.632 133.135C164.095 130.658 163.322 128.8 161.312 127.407Z" fill="#85195A"/>
<path d="M189.452 126.633C188.524 126.013 187.442 125.394 186.978 125.394C186.514 125.394 185.277 126.013 184.195 126.633C182.803 127.252 182.339 129.264 182.958 132.361C183.422 134.992 185.123 138.243 186.514 139.637C188.06 141.185 191.462 143.042 193.935 143.816C196.873 144.745 200.738 144.745 204.449 143.816C207.696 143.042 211.406 140.72 213.262 138.243C215.117 135.766 216.508 132.361 216.354 130.503C216.354 127.716 215.426 126.942 212.489 126.942C209.912 126.942 208.366 127.974 207.85 130.038C207.386 131.741 205.531 133.909 203.676 134.837C201.666 135.766 198.574 136.076 196.718 135.612C194.708 135.147 192.698 133.135 192.235 131.277C191.616 129.264 190.379 127.252 189.452 126.633Z" fill="#85195A"/>
<path d="M266.602 126.942C266.138 126.013 264.902 125.549 263.974 125.549C262.892 125.704 253.151 130.503 242.328 136.076C231.506 141.649 221.765 147.222 220.683 148.306C218.982 149.854 218.982 150.473 220.683 152.176C222.229 153.724 223.62 153.414 227.95 150.938C230.887 149.235 233.825 148.306 234.443 148.925C235.216 149.544 234.598 151.247 233.361 152.486C231.815 154.137 231.557 155.479 232.588 156.511C233.67 157.594 241.091 154.498 255.625 146.758C267.53 140.565 277.58 134.528 278.043 133.444C278.507 132.361 278.507 130.967 277.734 130.348C277.116 129.729 274.024 130.503 270.777 132.051C267.685 133.599 264.747 134.373 264.283 134.063C263.819 133.599 264.438 132.206 265.52 130.812C266.448 129.574 267.066 127.871 266.602 126.942Z" fill="#85195A"/>
<path d="M304.173 130.503C303.09 128.336 301.544 126.168 300.617 125.859C299.843 125.704 298.143 126.013 297.06 126.633C295.669 127.252 295.205 129.264 295.824 132.361C296.287 134.992 297.988 138.243 299.38 139.637C300.926 141.03 304.018 142.887 306.492 143.816C309.275 145.055 312.676 145.055 316.851 143.971C320.561 143.042 324.272 140.72 326.127 138.243C327.983 135.766 329.374 132.361 329.219 130.503C329.219 127.716 328.292 126.942 325.354 126.942C322.777 126.942 321.231 127.974 320.716 130.038C320.252 131.741 318.397 133.909 316.541 134.837C314.531 135.766 311.439 136.076 309.584 135.612C307.574 135.147 305.1 132.825 304.173 130.503Z" fill="#85195A"/>
<path d="M387.662 127.252C386.58 126.168 384.57 125.394 383.333 125.394C382.096 125.549 372.047 130.658 361.224 136.695C343.289 146.758 341.434 148.306 341.588 152.176C341.588 154.808 342.671 156.975 344.68 157.904C347.154 159.142 349.783 158.368 356.74 154.808C361.533 152.176 370.81 147.067 377.149 143.507C386.116 138.398 388.899 136.076 389.208 133.135C389.363 130.967 388.744 128.336 387.662 127.252Z" fill="#85195A"/>
<path d="M417.038 130.503C415.956 128.181 413.791 126.013 412.4 125.704C411.008 125.394 409.308 126.478 408.689 128.026C408.071 129.574 408.225 132.515 408.998 134.528C409.771 136.54 412.4 139.637 414.719 141.494C417.502 143.507 421.213 144.745 424.769 144.59C427.861 144.59 432.19 143.352 434.355 142.113C436.519 140.72 439.147 137.624 440.384 135.147C441.467 132.825 441.93 129.884 441.467 128.955C441.003 127.871 439.302 126.942 437.911 126.942C436.365 126.942 433.427 129.264 431.262 131.896C428.016 135.921 426.624 136.54 423.223 135.612C420.594 135.147 418.12 132.98 417.038 130.503Z" fill="#85195A"/>
<path d="M49.3745 133.909C49.3745 132.67 48.1376 131.587 46.7461 131.741C45.2 131.741 34.8411 136.85 23.5546 142.887L23.5481 142.891C12.4188 149.082 2.68201 154.498 1.90911 155.117C1.29067 155.737 1.13605 157.439 1.90911 158.678C2.83677 160.69 3.76443 160.536 9.1758 157.904L15.3602 154.808C13.3503 162.858 13.6595 164.096 15.051 164.096C15.9787 164.096 22.9361 161 30.5121 157.13C37.9334 153.26 47.0554 148.461 50.9206 146.293C54.7859 144.126 58.6511 141.649 59.4242 140.875C60.4549 139.843 60.4549 138.811 59.4242 137.779C58.3419 136.54 56.1774 137.005 52.1575 138.862C48.9107 140.411 45.8185 141.03 45.2001 140.411C44.427 139.637 45.2 138.398 46.7461 137.624C48.1376 136.85 49.3745 135.147 49.3745 133.909Z" fill="#85195A"/>
<path d="M66.3817 167.192C64.6809 165.489 61.2795 164.096 58.8058 164.096C56.332 164.096 52.776 165.489 50.766 167.038C48.1377 169.205 47.0554 171.527 47.0554 175.397C47.0554 178.648 48.2922 182.054 50.1476 184.066C52.1575 186.234 55.0951 187.472 58.3419 187.317C61.1249 187.317 64.5263 186.079 66.3817 184.221C68.237 182.363 69.4739 179.112 69.4739 175.707C69.4739 172.301 68.237 169.05 66.3817 167.192Z" fill="#85195A"/>
<path d="M179.247 167.192C177.547 165.489 174.145 164.096 171.517 164.096C168.888 164.096 165.487 165.489 163.786 167.192C161.931 169.05 160.694 172.301 160.694 175.707C160.694 179.112 161.931 182.363 163.786 184.221C165.487 185.924 168.888 187.317 171.517 187.317C174.145 187.317 177.547 185.924 179.247 184.221C181.103 182.363 182.34 179.112 182.34 175.707C182.34 172.301 181.103 169.05 179.247 167.192Z" fill="#85195A"/>
<path d="M292.113 167.038C289.948 165.335 286.392 163.941 284.073 164.096C281.599 164.096 278.353 165.489 276.652 167.192C274.797 169.05 273.56 172.301 273.56 175.707C273.56 179.112 274.797 182.363 276.652 184.221C278.507 186.079 281.909 187.317 284.846 187.317C287.938 187.472 290.876 186.234 292.886 184.066C294.741 182.054 295.978 178.648 295.978 175.397C295.978 171.527 294.896 169.205 292.113 167.038Z" fill="#85195A"/>
<path d="M404.206 166.109C402.505 165.025 399.722 164.096 397.866 164.096C396.011 164.096 392.764 165.489 390.445 167.347C387.198 169.669 386.116 171.837 386.271 175.397C386.271 178.184 387.817 181.899 389.517 183.912C391.218 185.769 394.31 187.317 396.475 187.317C398.64 187.317 401.423 186.853 402.814 186.234C404.205 185.46 406.37 183.137 407.452 180.815C408.844 178.029 409.153 174.933 408.535 172.301C407.762 170.134 405.906 167.347 404.206 166.109Z" fill="#85195A"/>
<path d="M115.239 194.748C113.847 193.2 112.301 191.962 111.683 191.962C110.909 191.962 101.324 196.761 90.3463 202.643C71.6384 212.551 70.2469 213.635 69.9377 218.124C69.6285 221.685 70.2469 223.387 72.5661 224.471C75.0398 225.71 79.369 224.007 96.2215 214.718C110.291 206.978 116.785 202.643 117.094 200.476C117.403 198.773 116.63 196.141 115.239 194.748Z" fill="#85195A"/>
<path d="M227.795 193.974C226.249 192.89 224.548 191.962 224.084 191.962C223.62 191.962 214.035 196.915 202.593 202.953C182.958 213.325 181.876 214.099 182.03 218.434C182.185 221.22 183.576 223.542 185.432 224.471C187.751 225.71 190.225 225.09 195.945 222.149C199.965 219.982 209.087 215.028 216.354 210.848C226.249 205.275 229.65 202.643 230.114 199.702C230.578 197.225 229.805 195.367 227.795 193.974Z" fill="#85195A"/>
<path d="M340.661 193.974C339.115 192.89 337.414 191.962 336.95 191.962C336.486 191.962 328.137 196.296 318.397 201.56C308.656 206.668 299.38 212.087 297.834 213.48C296.287 214.873 295.051 217.505 295.205 219.517C295.205 221.375 296.597 223.542 298.297 224.471C300.771 225.71 305.1 224.007 321.953 214.873C338.341 205.739 342.516 202.798 342.98 199.857C343.444 197.225 342.671 195.367 340.661 193.974Z" fill="#85195A"/>
<path d="M453.526 193.974C451.98 192.89 450.279 191.962 449.816 191.962C449.352 191.962 441.312 196.141 432.035 201.25C422.759 206.359 414.41 210.538 413.637 210.538C412.864 210.538 411.318 211.777 410.235 213.325C409.153 214.718 408.071 217.505 408.071 219.517C408.071 221.375 409.462 223.542 411.163 224.471C413.173 225.555 415.492 225.555 417.811 224.471C419.667 223.697 428.943 218.588 438.22 213.325C451.362 205.739 455.382 202.643 455.845 199.702C456.309 197.225 455.536 195.367 453.526 193.974Z" fill="#85195A"/>
<path d="M23.0907 217.505C21.6992 215.028 19.5347 212.706 18.2978 212.396C17.0609 212.241 15.3602 212.396 14.5872 213.015C13.9687 213.635 13.3503 215.802 13.5049 217.814C13.6595 219.672 15.5148 223.542 17.6794 226.019C20.3078 229.115 23.5546 230.973 27.4198 231.592C30.8213 232.057 34.9957 231.747 37.6241 230.354C40.0979 229.27 43.4993 226.638 45.0454 224.471C46.5915 222.304 47.983 219.053 47.8284 217.195C47.8284 215.183 46.9007 213.325 45.9731 213.015C44.8908 212.706 43.1901 212.861 42.417 213.325C41.4894 213.944 39.6341 216.266 38.0879 218.743C36.078 221.994 34.3773 222.768 30.5121 222.613C26.956 222.304 24.9461 220.911 23.0907 217.505Z" fill="#85195A"/>
<path d="M135.956 217.505C134.256 214.563 131.937 212.087 130.854 212.087C129.617 212.087 128.226 212.551 127.453 213.17C126.68 213.635 126.216 215.802 126.371 217.814C126.525 219.672 128.38 223.542 130.545 226.019C132.71 228.651 136.266 231.128 138.739 231.592C141.059 232.057 145.542 231.747 148.789 230.818C151.881 229.889 155.901 227.258 157.602 224.936C159.457 222.459 160.849 219.053 160.694 217.195C160.694 215.183 159.612 213.325 158.375 212.861C157.138 212.396 154.819 213.48 153.427 215.028C151.881 216.731 149.717 219.208 148.789 220.446C147.707 221.839 145.078 222.923 142.914 222.923C140.131 222.923 138.121 221.375 135.956 217.505Z" fill="#85195A"/>
<path d="M247.276 216.731C246.503 214.254 244.802 212.087 243.72 212.087C242.483 212.087 241.091 212.551 240.318 213.17C239.545 213.635 239.082 216.112 239.236 218.588C239.391 220.911 241.246 224.626 243.411 226.793C245.575 228.961 249.595 231.128 252.378 231.592C255.316 232.057 259.645 231.592 263.201 230.044C266.757 228.496 269.849 225.71 271.395 222.613C272.632 219.827 273.405 216.576 272.941 215.647C272.477 214.563 270.622 213.635 268.921 213.635C267.066 213.635 265.056 215.338 263.974 217.66C262.892 219.827 260.572 221.994 258.872 222.459C257.171 222.923 254.233 222.768 252.378 222.304C250.214 221.685 248.204 219.517 247.276 216.731Z" fill="#85195A"/>
<path d="M360.142 216.731C359.368 214.254 357.668 212.087 356.586 212.087C355.349 212.087 353.957 212.551 353.184 213.17C352.411 213.635 351.947 215.957 352.102 218.124C352.256 220.291 353.339 223.542 354.421 225.245C355.658 226.948 358.595 229.27 361.069 230.354C363.698 231.747 367.872 232.057 371.428 231.592C375.448 230.973 378.54 228.961 381.787 225.245C384.415 222.304 386.425 218.743 386.425 217.505C386.425 216.266 385.034 214.563 383.333 213.789C381.478 213.015 379.622 212.706 379.004 213.325C378.386 213.944 377.149 215.802 376.221 217.505C375.293 219.208 373.438 221.22 372.356 221.994C371.119 222.768 368.336 222.923 366.017 222.304C363.079 221.685 361.224 219.982 360.142 216.731Z" fill="#85195A"/>
<path d="M50.6114 258.374C50.3022 256.516 48.7561 254.039 47.0554 252.956C44.2724 251.253 41.7986 252.027 25.4099 261.006C15.2056 266.579 5.61975 272.462 4.22826 274.164C2.52754 276.022 1.90911 278.035 2.68217 279.583C3.30061 280.976 5.00133 282.834 6.54744 283.453C8.40276 284.537 13.6595 282.524 25.8737 276.022C34.9958 271.223 44.2724 266.114 46.7461 264.412C49.3745 262.554 50.766 260.541 50.6114 258.374Z" fill="#85195A"/>
<path d="M79.2144 256.981C78.1321 254.813 76.586 252.491 75.9675 251.872C75.3491 251.098 73.4937 251.717 71.9476 253.111C70.5561 254.504 69.3193 256.052 69.3193 256.671C69.4739 257.29 70.8654 260.077 72.5661 262.863C74.2668 265.495 77.359 268.437 79.5236 269.365C81.6881 270.294 85.0895 270.913 87.2541 270.913C89.4186 270.913 93.2839 269.83 95.7577 268.591C98.2314 267.353 101.478 264.257 102.715 261.625C103.952 259.148 104.725 255.897 104.261 254.659C103.797 253.42 102.097 252.337 100.396 252.337C98.5406 252.337 96.5307 254.039 95.4484 256.362C94.3662 258.529 92.047 260.696 90.3463 261.161C88.6456 261.47 85.8626 261.625 84.1619 261.315C82.4612 261.161 80.2966 259.148 79.2144 256.981Z" fill="#85195A"/>
<path d="M192.08 256.981C190.998 254.813 189.452 252.646 188.833 252.027C188.215 251.408 186.359 251.717 184.659 252.491C183.113 253.42 181.876 255.433 182.03 256.981C182.185 258.684 184.813 262.554 187.751 265.495C192.08 269.83 194.399 270.913 199.347 270.913C203.985 270.913 206.923 269.83 210.942 266.269C214.498 263.328 216.354 260.232 216.354 257.755C216.354 255.587 215.272 253.42 214.035 252.801C212.334 251.872 210.324 253.111 207.386 256.671C203.985 260.851 202.284 261.78 198.574 261.315C195.636 261.006 193.317 259.458 192.08 256.981Z" fill="#85195A"/>
<path d="M274.024 253.575C272.477 252.027 270.931 250.943 270.467 250.943C270.004 250.943 262.119 255.278 252.687 260.387C243.411 265.34 234.134 270.604 232.279 271.842C230.114 273.081 228.723 275.558 228.723 277.88C228.723 280.202 229.96 282.369 231.815 283.298C234.289 284.537 238.309 282.988 253.151 275.403C263.046 270.139 272.477 264.721 274.024 263.328C275.57 261.935 276.807 259.767 276.807 258.529C276.807 257.29 275.57 254.968 274.024 253.575Z" fill="#85195A"/>
<path d="M304.946 256.981C303.4 254.504 301.39 252.027 300.307 251.717C299.225 251.408 297.524 251.872 296.597 252.801C295.514 253.73 294.741 255.433 294.896 256.516C295.051 257.6 296.133 260.387 297.37 262.863C298.452 265.186 301.853 267.972 304.636 269.211C307.883 270.449 312.058 271.068 315.305 270.449C318.551 269.83 322.417 267.508 325.045 264.721C327.364 262.244 329.219 258.684 329.219 256.981C329.219 255.278 328.137 253.42 326.746 252.801C325.045 251.872 323.19 252.956 320.561 256.671C317.778 260.387 315.614 261.625 312.212 261.625C308.656 261.625 306.956 260.541 304.946 256.981Z" fill="#85195A"/>
<path d="M417.811 256.981C416.265 254.504 414.255 252.182 413.327 251.872C412.4 251.562 410.699 251.562 409.462 251.872C408.38 252.337 407.607 254.504 407.762 257.136C407.916 259.613 409.771 263.328 411.936 265.495C414.101 267.663 417.657 269.83 420.13 270.294C422.45 270.913 426.624 270.913 429.407 270.294C432.345 269.675 435.901 267.353 438.374 264.412C440.539 261.625 442.085 257.91 441.776 256.207C441.467 254.504 439.921 252.956 438.22 252.646C436.158 252.337 434.251 253.781 432.499 256.981C430.335 260.541 428.634 261.625 425.078 261.625C421.522 261.625 419.821 260.541 417.811 256.981Z" fill="#85195A"/>
<path d="M384.879 254.659C384.879 253.42 383.642 252.337 382.251 252.491C380.705 252.491 369.727 257.6 357.822 263.947C345.917 270.294 336.022 276.177 335.868 277.106C335.558 277.88 336.332 279.118 337.414 279.583C338.341 280.047 341.588 279.273 344.371 278.035C347 276.641 350.246 275.558 351.329 275.558C352.875 275.403 352.875 275.867 351.329 277.88C349.989 279.428 349.834 280.873 350.865 282.214C351.947 283.608 357.204 281.595 373.283 273.7C384.725 267.817 394.62 262.244 395.083 261.315C395.547 260.232 395.393 258.684 394.774 258.064C394.001 257.445 390.754 258.064 387.662 259.612C384.415 261.161 381.323 261.78 380.705 261.161C379.932 260.387 380.705 259.148 382.251 258.374C383.642 257.6 384.879 255.897 384.879 254.659Z" fill="#85195A"/>
<path d="M161.931 261.006C161.158 259.613 160.23 258.529 159.612 258.684C158.839 258.838 148.634 263.947 136.729 270.139C124.824 276.487 114.929 282.369 114.775 283.143C114.466 284.072 115.239 285.311 116.321 285.775C117.249 286.239 120.495 285.465 123.278 284.227C125.907 282.834 128.69 282.06 129.463 282.524C130.081 282.988 129.617 284.227 128.535 285.311C127.453 286.239 126.68 288.097 126.68 289.181C126.68 290.11 127.607 291.038 128.69 291.038C129.617 291.038 139.976 286.239 151.417 280.202C162.859 274.164 172.599 268.901 173.063 268.437C173.527 268.127 173.063 266.888 171.981 265.805C170.435 264.412 169.043 264.412 165.332 266.269C162.859 267.508 160.23 267.972 159.457 267.353C158.839 266.734 159.457 265.495 160.694 264.721C162.086 263.947 162.549 262.554 161.931 261.006Z" fill="#85195A"/>
<path d="M66.8455 293.98C65.2994 292.587 62.671 291.038 60.9703 290.574C59.2696 290.11 56.332 290.264 54.6313 291.038C52.776 291.812 50.1476 293.98 48.7561 295.992C47.3646 298.005 46.2823 300.637 46.2823 301.875C46.1277 303.113 47.5192 306.055 49.3745 308.532C51.6937 311.783 53.7036 312.712 58.3419 312.712C61.898 312.866 65.1448 311.783 66.6909 310.08C68.237 308.532 69.4739 304.816 69.4739 301.875C69.4739 298.624 68.5462 295.528 66.8455 293.98Z" fill="#85195A"/>
<path d="M179.711 293.98C178.165 292.587 175.537 291.038 173.836 290.574C172.135 290.11 169.661 290.11 168.425 290.574C167.188 291.038 164.869 292.587 163.322 293.98C161.776 295.373 160.539 298.624 160.539 301.875C160.539 304.971 161.776 308.377 163.322 309.925C164.869 311.473 168.27 312.712 170.744 312.712C173.372 312.712 176.928 311.628 178.938 310.389C181.412 308.687 182.34 306.519 182.34 302.339C182.494 298.624 181.412 295.528 179.711 293.98Z" fill="#85195A"/>
<path d="M293.35 295.063C291.34 293.051 288.402 290.884 286.702 290.574C285.001 290.11 282.527 290.11 281.29 290.574C280.053 291.038 277.734 292.587 276.188 293.98C274.642 295.373 273.405 298.624 273.405 301.875C273.405 304.971 274.642 308.377 276.188 309.925C277.734 311.473 281.445 312.712 284.846 312.712C289.33 312.712 291.185 311.783 293.659 308.532C295.514 306.055 296.906 302.959 296.751 301.565C296.751 300.017 295.205 297.076 293.35 295.063Z" fill="#85195A"/>
<path d="M406.834 295.683C405.288 293.515 402.505 291.503 400.649 291.038C398.794 290.574 395.857 290.419 394.31 290.729C392.61 291.038 390.136 292.741 388.899 294.599C387.508 296.457 386.425 299.862 386.425 302.339C386.425 304.662 387.817 307.912 389.517 309.615C391.373 311.473 394.774 312.712 397.712 312.712C400.495 312.866 403.742 311.628 405.288 310.08C406.679 308.532 408.225 305.59 408.844 303.423C409.462 300.791 408.844 298.314 406.834 295.683Z" fill="#85195A"/>
<path d="M115.548 320.762C114.466 319.678 112.146 318.904 110.446 318.904C108.745 318.904 105.962 319.833 104.261 320.916C102.561 322.155 94.83 326.335 87.2541 330.514C79.6782 334.539 72.4115 338.719 71.3292 339.648C70.2469 340.577 69.3193 342.744 69.3193 344.447C69.3193 346.15 70.5561 348.627 71.9476 349.865C74.2668 352.033 76.2767 351.259 92.3562 342.899C102.097 337.79 111.837 332.372 113.847 330.979C115.702 329.431 117.403 326.954 117.403 325.561C117.403 324.013 116.63 321.845 115.548 320.762Z" fill="#85195A"/>
<path d="M229.496 321.226C229.032 319.833 227.022 318.904 224.548 319.059C222.074 319.059 211.87 323.858 201.666 329.586C186.514 337.945 182.958 340.577 182.649 343.673C182.494 345.84 183.113 348.472 184.195 349.556C185.277 350.639 186.823 351.568 187.751 351.568C188.679 351.568 198.574 346.46 209.86 340.267C224.239 332.372 230.423 328.192 230.269 326.335C230.269 324.787 229.96 322.464 229.496 321.226Z" fill="#85195A"/>
<path d="M342.361 322C341.743 319.833 340.351 318.904 337.414 319.059C334.94 319.213 324.736 323.858 314.531 329.586C298.297 338.564 295.978 340.422 295.669 344.137C295.36 347.234 296.133 348.782 298.761 350.02C301.699 351.413 304.946 350.175 321.798 341.041C332.93 335.159 341.897 329.276 342.361 327.883C342.825 326.335 342.825 323.703 342.361 322Z" fill="#85195A"/>
<path d="M455.691 324.787C455.227 320.297 454.609 319.678 450.589 319.368C447.496 319.213 440.075 322.464 427.397 329.586C412.245 337.945 408.689 340.577 408.38 343.673C408.225 345.84 408.844 348.472 409.926 349.556C411.008 350.639 412.864 351.568 413.946 351.413C414.874 351.413 424.923 346.614 435.901 340.577L436.04 340.502C455.692 329.894 455.999 329.729 455.691 324.787Z" fill="#85195A"/>
<path d="M23.5546 343.673C22.0085 341.196 19.5347 339.029 17.9886 339.029C16.4425 339.029 14.8964 340.267 14.4326 341.815C13.8141 343.209 14.4326 346.46 15.5148 348.937C16.7517 351.413 19.5347 354.355 22.0085 355.438C24.3276 356.677 28.6567 357.606 31.7489 357.606C36.078 357.606 38.5518 356.367 42.5717 352.188C45.5093 349.246 47.8284 345.376 47.8284 343.673C47.8284 341.97 46.5915 340.112 45.2001 339.648C43.1901 338.874 41.3348 339.958 38.5518 343.518C35.9234 346.769 33.295 348.317 30.5121 348.317C27.4198 348.317 25.4099 347.079 23.5546 343.673Z" fill="#85195A"/>
<path d="M136.42 343.673C134.874 341.196 132.4 339.029 130.854 339.029C129.308 339.029 127.762 340.267 127.298 341.815C126.68 343.209 127.298 346.46 128.38 348.782C129.617 351.259 132.091 354.2 134.101 355.438C135.956 356.677 140.285 357.606 143.687 357.606C148.634 357.606 150.954 356.522 155.283 352.188C158.839 348.627 160.539 345.531 160.385 343.363C160.076 340.99 158.787 339.7 156.52 339.493C154.046 339.184 152.5 340.113 151.727 342.589C150.954 344.447 149.253 346.46 147.861 347.234C146.315 347.853 143.842 348.317 142.141 348.317C140.285 348.317 137.966 346.46 136.42 343.673Z" fill="#85195A"/>
<path d="M248.049 343.673C246.657 340.887 244.493 339.029 242.638 339.029C240.164 339.029 239.545 340.112 239.545 343.673C239.545 346.769 241.092 349.865 244.184 352.962C247.74 356.522 250.214 357.606 255.006 357.606C258.408 357.606 263.046 356.367 265.211 354.974C267.53 353.426 270.313 350.02 271.55 347.543C272.787 345.066 273.405 341.97 272.941 341.041C272.477 339.958 270.622 339.029 268.921 339.029C267.066 339.029 265.211 340.422 264.592 342.589C263.819 344.447 262.118 346.46 260.727 347.234C259.181 347.853 256.398 348.317 254.233 348.317C251.45 348.317 249.75 346.924 248.049 343.673Z" fill="#85195A"/>
<path d="M360.915 343.673C359.523 340.887 357.359 339.029 355.503 339.029C353.029 339.029 352.411 340.112 352.411 343.673C352.411 346.769 353.957 349.865 357.049 352.962C360.76 356.677 362.925 357.606 368.336 357.606C372.201 357.451 376.066 356.367 378.076 354.819C379.777 353.426 382.405 350.33 383.797 348.008C385.188 345.531 386.116 342.589 385.652 341.351C385.188 340.112 383.642 339.029 382.251 339.029C380.705 339.029 377.922 341.041 376.066 343.673C373.438 347.079 371.273 348.317 367.872 348.317C364.316 348.317 362.77 347.234 360.915 343.673Z" fill="#85195A"/>
<path d="M268.458 378.195C267.839 377.112 266.448 376.183 265.52 376.183C264.438 376.183 257.326 379.588 249.595 383.613C242.019 387.638 231.97 393.057 227.64 395.534C223.157 398.165 219.446 400.642 219.446 401.416C219.446 402.036 220.374 402.964 221.456 403.429C222.384 403.893 225.63 403.119 228.413 401.881C231.042 400.487 233.67 399.404 234.134 399.404C234.598 399.404 234.598 401.107 234.134 403.274C233.67 405.441 234.134 407.454 234.907 407.918C235.835 408.383 245.884 403.584 257.326 397.546C272.014 389.496 278.198 385.471 278.198 383.613C278.198 382.065 277.58 380.827 276.652 380.827C275.879 380.827 273.096 381.911 270.467 383.149C267.994 384.387 265.365 385.162 264.747 384.697C263.974 384.233 264.901 382.994 266.448 381.911C267.994 380.982 268.921 379.124 268.458 378.195Z" fill="#85195A"/>
<path d="M79.5236 382.375C78.1321 379.588 75.9675 377.731 74.1122 377.731C72.5661 377.731 70.8654 378.35 70.2469 379.279C69.7831 380.208 70.4015 383.149 71.4838 385.936C72.5661 388.567 75.1945 392.128 77.359 393.676C79.369 395.069 83.3889 396.308 86.1718 396.308C88.8002 396.308 93.2839 395.224 95.7577 393.986C98.2314 392.747 101.478 389.496 102.715 387.019C103.952 384.542 104.725 381.291 104.261 380.053C103.797 378.814 102.251 377.731 100.86 377.731C99.3137 377.731 96.5307 379.743 94.6754 382.375C92.047 385.781 89.8824 387.019 86.481 387.019C82.925 387.019 81.3789 385.936 79.5236 382.375Z" fill="#85195A"/>
<path d="M163.477 382.375C163.168 379.279 162.086 378.35 158.375 378.04C154.973 377.731 148.789 380.517 135.956 387.793C126.216 393.212 117.249 398.939 116.321 400.487C114.775 402.81 114.775 403.893 116.63 406.835C117.867 408.692 120.032 410.24 121.268 410.24C122.505 410.24 131.473 405.906 141.059 400.642C150.49 395.379 159.612 389.961 161.158 388.722C162.859 387.174 163.786 384.697 163.477 382.375Z" fill="#85195A"/>
<path d="M192.389 382.375C191.152 379.743 188.833 377.731 187.287 377.731C185.741 377.731 183.886 378.195 183.113 378.814C182.34 379.279 181.876 381.137 182.03 382.685C182.185 384.233 184.813 387.948 187.751 390.889C191.925 395.069 194.399 396.308 198.574 396.308C201.511 396.308 205.84 395.379 208.314 394.14C210.633 393.057 213.416 390.115 214.653 387.638C215.735 385.161 216.199 381.911 215.735 380.517C215.272 378.969 213.725 377.731 212.489 377.731C211.252 377.731 208.778 379.898 207.077 382.375C204.758 385.781 202.748 387.019 199.347 387.019C195.791 387.019 194.244 385.936 192.389 382.375Z" fill="#85195A"/>
<path d="M304.482 381.601C303.554 379.279 301.699 377.731 299.843 377.731C298.143 377.731 296.287 378.969 295.824 380.517C295.205 381.911 295.824 385.161 296.906 387.638C298.143 390.115 300.926 393.057 303.4 394.14C305.719 395.379 309.738 396.308 312.212 396.308C314.841 396.308 318.706 395.379 321.18 394.14C323.499 393.057 326.282 390.115 327.519 387.638C328.601 385.161 329.065 381.911 328.601 380.517C328.137 378.969 326.436 377.731 325.045 377.731C323.499 377.731 321.334 379.434 320.407 381.601C319.324 383.768 316.851 385.936 314.995 386.4C312.985 387.019 310.202 387.019 308.811 386.4C307.265 385.936 305.409 383.768 304.482 381.601Z" fill="#85195A"/>
<path d="M389.208 382.375C388.899 379.279 387.817 378.35 384.106 378.04C380.859 377.886 374.83 380.362 363.234 387.019C354.266 391.973 345.763 396.927 344.371 397.856C342.825 398.63 341.588 400.952 341.588 402.964C341.588 404.822 342.361 407.299 343.444 408.383C344.526 409.466 346.381 410.24 347.464 410.24C348.391 410.24 357.513 405.751 367.563 400.333C377.458 394.76 386.58 389.496 387.662 388.258C388.744 387.174 389.363 384.542 389.208 382.375Z" fill="#85195A"/>
<path d="M417.347 381.601C416.265 378.969 414.564 377.731 411.936 377.731C409.153 377.731 408.071 378.505 408.071 380.827C408.071 382.53 408.998 385.781 410.235 388.258C411.318 390.58 414.101 393.366 416.42 394.45C418.584 395.379 422.759 396.308 425.542 396.308C428.17 396.308 432.035 395.224 434.045 393.986C435.901 392.747 438.529 389.341 439.921 386.71C441.157 383.923 441.93 380.672 441.467 379.743C441.003 378.66 439.147 377.731 437.447 377.731C435.591 377.731 433.736 379.279 432.808 381.601C432.035 383.768 429.716 385.936 427.861 386.4C425.851 387.019 423.068 387.019 421.677 386.4C420.13 385.936 418.12 383.768 417.347 381.601Z" fill="#85195A"/>
<path d="M48.6015 383.923C48.1376 382.994 47.3646 382.375 46.7461 382.53C45.9731 382.53 35.9234 387.638 24.3276 393.676C12.7318 399.868 2.37293 405.751 1.13605 406.835C-0.20391 408.073 -0.358514 409.208 0.672222 410.24C1.7545 411.479 3.91904 411.014 7.93891 409.157C11.1857 407.609 14.2779 406.835 14.8964 407.454C15.6694 408.073 15.2056 409.621 14.278 411.014C12.5772 412.872 12.7318 413.491 15.051 414.42C16.7517 415.039 24.7915 411.634 37.7787 404.822C48.7561 399.094 58.6511 393.676 59.4242 393.057C60.5065 392.283 60.3519 391.044 59.115 389.341C57.2597 387.329 56.6412 387.329 52.1575 389.961C49.3745 391.663 46.5915 392.747 45.9731 392.283C45.2 391.973 45.8185 390.27 47.0554 388.567C48.2922 386.864 49.0653 384.852 48.6015 383.923Z" fill="#85195A"/>
<path d="M65.2994 417.981C62.8256 416.123 59.888 414.885 58.6511 414.885C57.4143 414.885 54.7859 415.813 52.9306 416.897C51.2299 417.981 48.7561 421.077 47.5192 423.863C45.6639 428.353 45.8185 429.282 48.7561 433.152C51.2299 436.248 53.549 437.487 58.0327 437.796C62.2072 438.106 64.9902 437.332 66.8455 435.474C68.5462 433.771 69.6285 430.52 69.4739 426.96C69.4739 422.315 68.5462 420.303 65.2994 417.981Z" fill="#85195A"/>
<path d="M178.165 417.981C175.691 416.123 172.754 414.73 171.362 414.885C169.971 414.885 167.033 416.278 164.714 418.136C161.312 420.612 160.385 422.47 160.539 426.96C160.539 430.365 161.776 433.771 163.322 435.319C164.869 436.867 168.579 438.106 171.517 438.106C174.764 438.106 178.01 437.177 179.557 435.474C181.103 433.926 182.34 430.211 182.34 426.96C182.34 422.315 181.412 420.458 178.165 417.981Z" fill="#85195A"/>
<path d="M289.794 416.897C287.629 415.813 285.001 414.885 283.919 414.885C282.682 414.885 279.899 416.278 277.58 418.136C274.178 420.612 273.25 422.47 273.405 426.96C273.405 430.365 274.642 433.771 276.188 435.319C277.734 436.867 281.445 438.106 284.846 438.106C289.33 438.106 291.185 437.177 293.659 433.926C295.514 431.449 296.906 428.662 296.751 427.734C296.751 426.65 295.978 424.173 295.205 422.315C294.277 420.303 291.958 417.826 289.794 416.897Z" fill="#85195A"/>
<path d="M402.659 416.897C400.495 415.813 397.867 414.885 396.784 414.885C395.547 414.885 392.764 416.278 390.445 418.136C387.044 420.612 386.116 422.47 386.271 426.65C386.425 429.746 387.662 433.152 389.517 435.01C391.373 436.867 394.774 438.106 397.712 438.106C400.495 438.261 403.742 437.022 405.133 435.474C406.525 433.926 408.071 431.139 408.689 429.282C409.153 427.269 408.844 424.173 408.071 422.315C407.143 420.303 404.824 417.826 402.659 416.897Z" fill="#85195A"/>
<path d="M115.393 446.62C114.466 445.227 112.146 444.143 110.446 444.298C108.745 444.298 99.0045 449.097 88.8002 454.825C71.9476 464.423 70.2469 465.661 70.2469 469.686C70.2469 472.163 71.3292 474.95 72.8753 475.879C74.8852 477.272 77.6682 476.343 86.7903 471.544C92.9747 468.138 102.251 462.875 107.353 459.934C112.456 456.837 116.785 453.122 116.939 451.574C117.249 450.181 116.475 447.859 115.393 446.62Z" fill="#85195A"/>
<path d="M229.96 448.942C229.65 445.846 228.568 444.917 224.857 444.608C221.456 444.298 215.272 447.085 201.666 454.825C186.978 463.339 182.958 466.281 182.649 469.222C182.494 471.235 183.113 473.866 184.195 474.95C185.277 476.034 187.132 476.962 188.215 476.808C189.142 476.808 198.264 472.318 208.314 466.9C218.209 461.327 227.331 456.063 228.413 454.825C229.496 453.741 230.114 451.11 229.96 448.942Z" fill="#85195A"/>
<path d="M342.361 449.716C342.361 445.691 341.743 445.072 337.723 444.762C334.476 444.453 327.673 447.394 314.531 454.98C297.679 464.423 295.978 465.816 295.978 469.841C295.978 472.318 297.215 474.95 298.607 475.879C300.926 477.272 304.173 476.188 315.614 469.996C323.499 465.816 332.775 460.553 336.177 458.386C341.124 455.135 342.361 453.277 342.361 449.716Z" fill="#85195A"/>
<path d="M455.691 450.181C455.227 445.691 454.609 445.072 450.589 444.608C447.806 444.453 443.477 445.691 439.766 447.859C436.365 449.871 427.861 454.825 420.749 459.005C411.008 464.578 407.916 467.21 407.916 469.686C408.071 471.544 408.844 473.866 409.926 474.95C411.008 476.034 413.018 476.808 414.255 476.808C415.492 476.808 425.387 471.854 436.365 465.971C455.691 455.289 456 454.98 455.691 450.181Z" fill="#85195A"/>
<path d="M23.5546 469.067C22.0085 466.59 19.5347 464.423 17.9886 464.423C16.4425 464.423 14.8964 465.661 14.4326 467.21C13.8141 468.603 14.4326 471.854 15.5148 474.331C16.7517 476.808 19.5347 479.749 22.0085 480.833C24.3276 482.071 28.6567 483 31.7489 483C36.078 483 38.5518 481.762 42.5717 477.582C45.5093 474.64 47.8284 470.77 47.8284 469.067C47.8284 467.364 46.5915 465.507 45.2001 465.042C43.1901 464.268 41.3348 465.352 38.5518 468.912C35.9234 472.163 33.295 473.712 30.5121 473.712C27.4198 473.712 25.4099 472.473 23.5546 469.067Z" fill="#85195A"/>
<path d="M136.42 469.067C134.874 466.59 132.4 464.423 130.854 464.423C129.308 464.423 127.762 465.661 127.298 467.21C126.68 468.603 127.298 471.854 128.38 474.331C129.617 476.808 132.4 479.749 134.874 480.833C137.193 482.071 140.904 483 143.378 483C145.697 483 150.026 481.452 152.964 479.439C155.901 477.582 158.993 474.021 159.921 471.699C160.952 468.913 160.952 466.952 159.921 465.816C158.993 464.888 156.983 464.578 155.283 465.042C153.582 465.507 151.572 467.519 150.644 469.377C149.562 471.854 147.552 473.092 144.151 473.402C139.976 473.711 138.585 472.938 136.42 469.067Z" fill="#85195A"/>
<path d="M248.049 469.067C246.657 466.281 244.493 464.423 242.638 464.423C240.164 464.423 239.545 465.507 239.545 469.067C239.545 471.699 241.092 475.414 243.101 477.737C245.266 480.213 248.822 481.916 252.687 482.536C256.81 483.052 260.572 482.484 263.974 480.833C266.602 479.439 270.004 476.188 271.241 473.712C272.477 471.235 273.25 467.984 272.787 466.745C272.323 465.507 270.622 464.423 268.921 464.423C267.066 464.423 265.056 466.126 263.819 468.758C262.273 472.009 260.727 473.092 256.089 473.402C251.141 473.711 250.059 473.092 248.049 469.067Z" fill="#85195A"/>
<path d="M360.915 469.067C359.523 466.281 357.359 464.423 355.503 464.423C353.029 464.423 352.411 465.507 352.411 469.067C352.411 471.699 353.957 475.414 355.967 477.737C358.132 480.213 361.688 481.916 365.553 482.536C369.676 483.052 373.438 482.484 376.839 480.833C379.468 479.439 382.869 476.188 384.106 473.712C385.343 471.235 386.116 467.984 385.652 466.745C385.188 465.507 383.642 464.423 382.251 464.423C380.705 464.423 377.922 466.436 376.066 469.067C373.438 472.473 371.273 473.712 367.872 473.712C364.316 473.712 362.77 472.628 360.915 469.067Z" fill="#85195A"/>
<path d="M48.4469 2.32212C47.21 1.08365 45.2 0 44.2724 0H44.1178C43.1901 0 33.295 5.10865 22.4723 11.301C3.45521 21.9827 2.68216 22.6019 3.14599 27.0913C3.45521 30.8067 4.38288 31.8904 7.47509 32.2C9.94886 32.5096 17.5248 29.2587 27.8837 23.6856C37.1603 18.7317 45.9731 13.4683 47.6738 12.075C49.3745 10.5269 50.766 8.20481 50.766 6.96635C50.766 5.72788 49.6838 3.56058 48.4469 2.32212Z" stroke="white"/>
<path d="M78.2867 2.63173C77.6682 1.23846 76.2767 0 75.0398 0C73.803 0 72.1023 1.08365 71.1746 2.32212C69.9377 4.025 70.0923 6.0375 71.793 10.0625C73.1845 13.3135 76.1221 16.4096 79.0597 17.9577C82.3066 19.6606 86.0172 20.125 89.5732 19.6606C92.5108 19.0413 96.84 16.7192 99.3137 14.3971C101.633 12.075 103.797 8.82404 104.261 7.27596C104.725 5.88269 103.952 3.56058 102.56 2.16731C100.396 0 99.7775 0.309615 95.2938 5.26346C92.5108 8.20481 88.9548 10.6817 87.2541 10.8365C85.5534 10.8365 83.0796 9.75288 81.6881 8.20481C80.2966 6.65673 78.7505 4.17981 78.2867 2.63173Z" stroke="white"/>
<path d="M191.462 3.40577C190.688 1.54808 189.142 0 188.06 0.154808C187.132 0.154808 185.122 0.619231 184.04 1.08365C182.803 1.39327 181.876 2.94135 182.03 4.33462C182.185 5.72788 183.576 9.13365 185.123 11.6106C186.669 14.0875 189.915 17.1837 192.544 18.2673C195.172 19.5058 199.347 19.9702 202.748 19.5058C206.613 18.8865 209.86 17.0288 212.489 13.9327C214.653 11.4558 216.354 7.58558 216.354 5.41827C216.354 3.25096 215.426 1.23846 214.344 0.928846C213.416 0.619231 211.715 0.774038 210.788 1.23846C209.86 1.85769 208.314 3.87019 207.232 5.72788C206.304 7.74038 203.83 9.59808 201.666 10.0625C199.501 10.5269 196.718 9.90769 195.327 8.82404C193.935 7.89519 192.08 5.41827 191.462 3.40577Z" stroke="white"/>
<path d="M274.797 1.85769C273.714 0.774039 271.704 0 270.467 0C269.231 0 260.109 4.64423 250.368 10.2173C240.628 15.7904 231.66 21.2087 230.578 22.1375C229.341 23.2212 228.723 25.6981 229.032 27.8654C229.341 30.6519 230.578 31.8904 233.361 32.2C235.68 32.5096 242.174 30.0327 249.595 26.1625C256.398 22.6019 265.211 17.6481 269.231 15.326C274.487 12.075 276.652 9.90769 276.652 7.27596C276.652 5.41827 275.879 2.94135 274.797 1.85769Z" stroke="white"/>
<path d="M304.018 5.10865C303.09 2.78654 300.926 0.619231 299.534 0.309615C298.143 0 296.442 1.08365 295.824 2.63173C295.36 4.17981 295.669 7.12115 296.597 9.28846C297.524 11.4558 299.689 14.5519 301.544 16.2548C303.863 18.4221 306.956 19.351 312.522 19.351C319.17 19.351 320.716 18.7317 324.736 14.2423C327.21 11.6106 329.219 7.58558 329.219 5.41827C329.219 3.25096 328.137 1.23846 326.9 0.774038C325.663 0.309615 323.499 1.08365 322.262 2.32212C321.025 3.56058 319.943 5.41827 319.943 6.19231C319.943 6.96635 318.397 8.51442 316.387 9.44327C314.531 10.3721 311.439 10.6817 309.429 10.2173C307.574 9.75288 305.1 7.43077 304.018 5.10865Z" stroke="white"/>
<path d="M381.942 6.65673C383.488 4.17981 383.642 2.63173 382.56 1.70288C381.426 0.670833 377.046 2.21891 369.418 6.34712C363.079 9.90769 353.339 15.1712 347.773 18.1125C342.207 21.0538 337.105 24.15 336.177 24.924C335.146 25.8529 335.301 26.9365 336.641 28.175C338.187 29.8779 339.578 29.7231 343.134 27.401C345.763 26.0077 349.01 24.7692 350.401 24.7692C352.72 24.6144 352.875 25.0788 351.174 27.0913C350.246 28.3298 349.628 30.1875 350.092 30.9615C350.556 31.7356 351.483 32.5096 352.411 32.5096C353.339 32.5096 363.388 27.401 374.829 21.2087C386.425 15.1712 395.547 9.28846 395.238 8.51442C394.929 7.74038 393.228 7.12115 391.682 7.27596C390.136 7.43077 386.735 8.20481 384.261 8.82404C379.777 10.0625 379.777 9.90769 381.942 6.65673Z" stroke="white"/>
<path d="M416.884 5.10865C415.956 2.78654 413.791 0.619231 412.4 0.309615C411.008 0 409.308 1.08365 408.689 2.63173C408.225 4.17981 408.071 6.96635 408.689 8.97885C409.153 10.8365 411.008 13.7779 412.709 15.4808C414.41 17.1837 418.43 19.0413 421.522 19.5058C425.542 20.125 429.098 19.6606 432.345 17.9577C435.128 16.5644 438.684 13.0038 440.075 10.0625C442.549 5.10865 442.549 4.33462 440.539 2.16731C438.374 -0.154808 437.756 0 432.808 5.41827C428.325 10.2173 426.624 10.9913 423.068 10.2173C420.594 9.59808 418.12 7.58558 416.884 5.10865Z" stroke="white"/>
<path d="M162.704 8.82404C161.931 8.20481 160.385 7.74038 159.148 7.74038C157.911 7.89519 148.171 12.6942 137.502 18.5769C126.834 24.4596 117.558 29.5683 116.63 29.8779C115.702 30.1875 115.857 31.426 117.094 32.974C118.795 35.2962 119.413 35.451 123.588 33.2837C126.061 32.0452 128.69 31.2712 129.463 31.7356C130.081 32.0452 129.463 33.5933 128.226 34.8317C126.68 36.483 126.422 37.8247 127.453 38.8567C128.535 39.9404 135.956 36.999 151.108 29.1038C163.168 22.9115 173.063 16.874 173.063 15.9452C173.063 14.8615 172.444 13.6231 171.517 13.1587C170.589 12.6942 167.806 13.4683 165.332 14.7067C162.859 15.9452 160.23 16.7192 159.612 16.2548C158.839 15.7904 159.612 14.2423 161.158 12.849C162.549 11.301 163.322 9.44327 162.704 8.82404Z" stroke="white"/>
<path d="M66.3817 41.7981C64.6809 40.0952 61.2795 38.7019 58.8058 38.7019C56.332 38.7019 52.9306 39.9404 51.0752 41.4885C49.3745 42.8817 47.3646 46.1327 46.9008 48.7644C45.9731 52.4798 46.5915 54.1827 49.8384 57.7433C52.6213 60.375 55.5589 61.9231 58.6511 61.9231C61.2795 61.9231 64.6809 60.5298 66.3817 58.8269C68.237 56.9692 69.4739 53.7183 69.4739 50.3125C69.4739 46.9067 68.237 43.6558 66.3817 41.7981Z" stroke="white"/>
<path d="M179.247 41.7981C177.547 40.0952 174.145 38.7019 171.517 38.7019C168.888 38.7019 165.487 40.0952 163.786 41.7981C161.931 43.6558 160.694 46.9067 160.694 50.3125C160.694 53.7183 161.931 56.9692 163.786 58.8269C165.487 60.5298 168.888 61.9231 171.517 61.9231C174.145 61.9231 177.547 60.5298 179.247 58.8269C181.103 56.9692 182.34 53.7183 182.34 50.3125C182.34 46.9067 181.103 43.6558 179.247 41.7981Z" stroke="white"/>
<path d="M292.113 41.6433C289.948 39.9404 286.392 38.5471 284.073 38.7019C281.599 38.7019 278.353 40.0952 276.652 41.7981C274.797 43.6558 273.56 46.9067 273.56 50.3125C273.56 53.7183 274.797 56.9692 276.652 58.8269C278.353 60.5298 281.599 61.9231 284.073 61.9231C286.392 62.0779 289.948 60.6846 292.113 58.9817C295.051 56.8144 295.978 54.4923 295.978 50.3125C295.978 46.1327 295.051 43.8106 292.113 41.6433Z" stroke="white"/>
<path d="M404.979 41.6433C402.814 39.9404 399.258 38.5471 397.093 38.7019C394.929 38.7019 391.527 40.25 389.517 42.2625C387.044 44.5846 385.962 47.3712 386.116 50.4673C386.271 52.9442 387.971 56.5048 389.827 58.3625C391.837 60.375 395.083 61.9231 397.248 61.9231C399.413 62.0779 402.814 60.6846 404.979 58.9817C407.916 56.8144 408.844 54.4923 408.844 50.3125C408.844 46.1327 407.916 43.8106 404.979 41.6433Z" stroke="white"/>
<path d="M115.084 68.8894C113.847 67.651 111.837 66.5673 110.91 66.7221C109.827 66.7221 102.561 70.2827 94.9846 74.4625C87.4087 78.6423 78.4413 83.9058 75.3491 85.9183C71.1746 88.7048 69.4739 90.8721 69.4739 93.6586C69.4739 95.9808 70.7108 98.1481 72.5661 99.0769C75.0398 100.315 78.5959 99.0769 90.8101 92.7298C99.0045 88.2404 107.972 83.2865 110.446 81.5836C112.919 79.726 115.548 77.5587 116.166 76.6298C116.785 75.8558 117.403 74.1529 117.403 73.224C117.403 72.1404 116.321 70.1279 115.084 68.8894Z" stroke="white"/>
<path d="M227.177 68.1154C225.476 67.3413 223.93 66.5673 223.775 66.5673C223.466 66.5673 218.828 69.0442 213.262 71.8308C207.696 74.7721 198.728 79.8808 193.162 83.1317C185.277 88.0856 182.958 90.2529 182.803 93.5038C182.494 96.4452 183.267 97.8385 185.896 98.9221C188.679 100.006 192.544 98.6125 205.531 91.6462C214.499 87.0019 223.621 81.7385 226.094 80.1904C228.723 78.3327 230.269 76.0106 230.269 73.5337C230.269 71.2115 229.032 69.0442 227.177 68.1154Z" stroke="white"/>
<path d="M340.042 68.1154C338.341 67.3413 336.795 66.5673 336.641 66.5673C336.332 66.5673 330.611 69.6635 323.808 73.224C317.005 76.9394 308.038 82.0481 303.709 84.525C297.833 88.0856 295.824 90.2529 295.669 93.349C295.36 96.2904 296.133 97.9933 298.297 99.0769C300.771 100.315 304.636 98.9221 318.088 91.9558C327.21 87.0019 336.486 81.8933 338.96 80.3452C341.588 78.4875 343.134 76.0106 343.134 73.5337C343.134 71.2115 341.897 69.0442 340.042 68.1154Z" stroke="white"/>
<path d="M454.145 68.425C453.062 67.3413 451.362 66.5673 450.589 66.5673C449.816 66.5673 446.26 67.9606 442.858 69.8183C439.457 71.5211 431.881 75.8558 425.851 79.2615C419.821 82.8221 413.482 86.5375 411.627 87.776C409.462 89.0144 408.071 91.3365 408.071 93.6586C408.071 95.9808 409.308 98.1481 411.163 99.0769C413.637 100.315 417.502 98.9221 430.953 91.801C440.075 87.0019 449.352 81.8933 451.826 80.1904C454.299 78.6423 456 76.0106 456 73.9981C456 71.9856 455.227 69.5087 454.145 68.425Z" stroke="white"/>
<path d="M23.5546 92.8846C22.0085 90.4077 19.9985 88.0856 19.0709 87.776C18.1432 87.4663 16.4425 87.4663 15.2056 87.776C14.1234 88.2404 13.3503 89.9433 13.5049 91.801C13.6595 93.6587 15.051 97.0644 16.9063 99.5414C18.607 101.863 22.6269 104.495 25.8737 105.424C30.5121 106.817 32.6766 106.662 37.4695 104.65C40.5617 103.257 44.2724 100.625 45.5093 98.7673C46.9008 96.7548 47.8284 93.8135 47.5192 92.1106C47.21 90.2529 45.6639 88.8596 43.4993 88.7048C41.644 88.3952 40.0979 89.0144 40.0979 89.7885C40.0979 90.5625 38.7064 92.7298 37.0057 94.4327C35.305 96.1356 32.2127 97.5288 30.0482 97.5288C27.4198 97.5288 25.4099 96.1356 23.5546 92.8846Z" stroke="white"/>
<path d="M136.42 92.8846C134.874 90.4077 132.864 88.0856 131.937 87.776C131.009 87.4663 129.308 87.4663 128.071 87.776C126.989 88.2404 126.216 90.2529 126.371 92.2654C126.525 94.2779 128.38 97.9933 130.545 100.625C132.864 103.257 136.575 105.579 139.512 106.198C142.45 106.662 146.779 106.198 150.335 104.65C153.427 103.257 157.138 100.625 158.375 98.7673C159.766 96.7548 160.694 93.8135 160.385 92.1106C160.076 90.2529 158.53 88.8596 156.365 88.7048C154.2 88.3952 152.345 89.4788 151.263 91.801C150.181 93.6587 148.634 95.6712 147.707 96.2904C146.779 96.9096 144.46 97.5288 142.605 97.5288C140.285 97.5288 138.121 95.826 136.42 92.8846Z" stroke="white"/>
<path d="M247.74 92.1106C246.967 89.9433 245.73 87.9308 244.802 87.6211C243.874 87.3115 242.174 87.4663 240.937 87.776C239.855 88.2404 239.082 90.4077 239.236 93.0394C239.391 95.5163 241.246 99.2317 243.411 101.399C245.575 103.566 249.595 105.734 252.378 106.198C255.676 106.817 259.336 106.198 263.355 104.34C266.757 102.638 270.313 99.3865 271.55 96.7548C272.787 94.1231 273.405 91.1817 272.941 90.2529C272.477 89.1692 270.622 88.2404 268.921 88.2404C267.066 88.2404 265.056 89.9433 263.974 92.2654C262.892 94.4327 260.572 96.6 258.872 97.0644C257.171 97.5288 254.233 97.374 252.378 96.9096C250.368 96.4452 248.358 94.2779 247.74 92.1106Z" stroke="white"/>
<path d="M360.142 90.7173C359.987 89.4788 359.059 88.2404 357.977 87.9308C356.895 87.4663 355.039 87.4663 353.803 87.776C352.72 88.2404 351.947 90.2529 352.102 92.575C352.256 94.8971 353.493 98.3029 354.73 100.315C355.967 102.173 359.678 104.495 362.925 105.424C366.017 106.353 370.346 106.662 372.51 106.198C374.675 105.734 378.695 102.947 381.478 99.851C384.106 96.9096 386.271 93.1942 385.962 91.801C385.807 90.2529 384.261 88.8596 382.56 88.55C380.55 88.2404 378.231 89.7885 376.066 92.8846C373.747 95.826 371.119 97.5288 368.645 97.5288C366.481 97.5288 363.698 96.4452 362.461 95.2067C361.224 93.9683 360.142 91.9558 360.142 90.7173Z" stroke="white"/>
<path d="M78.7505 129.419C78.5959 128.181 77.6682 126.942 76.2767 126.323C75.0398 125.859 73.0299 126.478 71.793 127.716C69.7831 129.729 69.7831 130.812 71.4838 134.992C72.4115 137.624 75.0398 140.875 77.2044 142.268C79.3689 143.507 83.698 144.59 86.7903 144.59C90.1917 144.745 94.2116 143.507 96.84 141.494C99.1591 139.791 101.942 136.54 103.024 134.528C103.952 132.515 104.416 129.884 104.107 128.955C103.797 127.871 102.251 126.942 100.86 126.942C99.3137 126.942 96.5307 128.955 94.6754 131.587C92.3563 134.528 89.7278 136.231 87.2541 136.231C85.0895 136.231 82.3065 135.147 81.0697 133.909C79.8328 132.67 78.7505 130.658 78.7505 129.419Z" stroke="white"/>
<path d="M161.312 127.407C159.766 126.323 158.066 125.394 157.602 125.394C157.138 125.394 153.273 127.252 149.098 129.419C144.769 131.587 135.802 136.386 128.999 140.101C122.196 143.816 116.166 147.996 115.702 149.699C115.239 151.247 115.084 153.414 115.393 154.498C115.548 155.427 117.248 156.975 118.949 157.904C121.268 159.142 123.742 158.523 129.463 155.582C133.483 153.414 142.605 148.306 149.871 144.281C159.921 138.708 163.168 136.076 163.632 133.135C164.095 130.658 163.322 128.8 161.312 127.407Z" stroke="white"/>
<path d="M189.452 126.633C188.524 126.013 187.442 125.394 186.978 125.394C186.514 125.394 185.277 126.013 184.195 126.633C182.803 127.252 182.339 129.264 182.958 132.361C183.422 134.992 185.123 138.243 186.514 139.637C188.06 141.185 191.462 143.042 193.935 143.816C196.873 144.745 200.738 144.745 204.449 143.816C207.696 143.042 211.406 140.72 213.262 138.243C215.117 135.766 216.508 132.361 216.354 130.503C216.354 127.716 215.426 126.942 212.489 126.942C209.912 126.942 208.366 127.974 207.85 130.038C207.386 131.741 205.531 133.909 203.676 134.837C201.666 135.766 198.574 136.076 196.718 135.612C194.708 135.147 192.698 133.135 192.235 131.277C191.616 129.264 190.379 127.252 189.452 126.633Z" stroke="white"/>
<path d="M266.602 126.942C266.138 126.013 264.902 125.549 263.974 125.549C262.892 125.704 253.151 130.503 242.328 136.076C231.506 141.649 221.765 147.222 220.683 148.306C218.982 149.854 218.982 150.473 220.683 152.176C222.229 153.724 223.62 153.414 227.95 150.938C230.887 149.235 233.825 148.306 234.443 148.925C235.216 149.544 234.598 151.247 233.361 152.486C231.815 154.137 231.557 155.479 232.588 156.511C233.67 157.594 241.091 154.498 255.625 146.758C267.53 140.565 277.58 134.528 278.043 133.444C278.507 132.361 278.507 130.967 277.734 130.348C277.116 129.729 274.024 130.503 270.777 132.051C267.685 133.599 264.747 134.373 264.283 134.063C263.819 133.599 264.438 132.206 265.52 130.812C266.448 129.574 267.066 127.871 266.602 126.942Z" stroke="white"/>
<path d="M304.173 130.503C303.09 128.336 301.544 126.168 300.617 125.859C299.843 125.704 298.143 126.013 297.06 126.633C295.669 127.252 295.205 129.264 295.824 132.361C296.287 134.992 297.988 138.243 299.38 139.637C300.926 141.03 304.018 142.887 306.492 143.816C309.275 145.055 312.676 145.055 316.851 143.971C320.561 143.042 324.272 140.72 326.127 138.243C327.983 135.766 329.374 132.361 329.219 130.503C329.219 127.716 328.292 126.942 325.354 126.942C322.777 126.942 321.231 127.974 320.716 130.038C320.252 131.741 318.397 133.909 316.541 134.837C314.531 135.766 311.439 136.076 309.584 135.612C307.574 135.147 305.1 132.825 304.173 130.503Z" stroke="white"/>
<path d="M387.662 127.252C386.58 126.168 384.57 125.394 383.333 125.394C382.096 125.549 372.047 130.658 361.224 136.695C343.289 146.758 341.434 148.306 341.588 152.176C341.588 154.808 342.671 156.975 344.68 157.904C347.154 159.142 349.783 158.368 356.74 154.808C361.533 152.176 370.81 147.067 377.149 143.507C386.116 138.398 388.899 136.076 389.208 133.135C389.363 130.967 388.744 128.336 387.662 127.252Z" stroke="white"/>
<path d="M417.038 130.503C415.956 128.181 413.791 126.013 412.4 125.704C411.008 125.394 409.308 126.478 408.689 128.026C408.071 129.574 408.225 132.515 408.998 134.528C409.771 136.54 412.4 139.637 414.719 141.494C417.502 143.507 421.213 144.745 424.769 144.59C427.861 144.59 432.19 143.352 434.355 142.113C436.519 140.72 439.147 137.624 440.384 135.147C441.467 132.825 441.93 129.884 441.467 128.955C441.003 127.871 439.302 126.942 437.911 126.942C436.365 126.942 433.427 129.264 431.262 131.896C428.016 135.921 426.624 136.54 423.223 135.612C420.594 135.147 418.12 132.98 417.038 130.503Z" stroke="white"/>
<path d="M49.3745 133.909C49.3745 132.67 48.1376 131.587 46.7461 131.741C45.2 131.741 34.8411 136.85 23.5546 142.887L23.5481 142.891C12.4188 149.082 2.68201 154.498 1.90911 155.117C1.29067 155.737 1.13605 157.439 1.90911 158.678C2.83677 160.69 3.76443 160.536 9.1758 157.904L15.3602 154.808C13.3503 162.858 13.6595 164.096 15.051 164.096C15.9787 164.096 22.9361 161 30.5121 157.13C37.9334 153.26 47.0554 148.461 50.9206 146.293C54.7859 144.126 58.6511 141.649 59.4242 140.875C60.4549 139.843 60.4549 138.811 59.4242 137.779C58.3419 136.54 56.1774 137.005 52.1575 138.862C48.9107 140.411 45.8185 141.03 45.2001 140.411C44.427 139.637 45.2 138.398 46.7461 137.624C48.1376 136.85 49.3745 135.147 49.3745 133.909Z" stroke="white"/>
<path d="M66.3817 167.192C64.6809 165.489 61.2795 164.096 58.8058 164.096C56.332 164.096 52.776 165.489 50.766 167.038C48.1377 169.205 47.0554 171.527 47.0554 175.397C47.0554 178.648 48.2922 182.054 50.1476 184.066C52.1575 186.234 55.0951 187.472 58.3419 187.317C61.1249 187.317 64.5263 186.079 66.3817 184.221C68.237 182.363 69.4739 179.112 69.4739 175.707C69.4739 172.301 68.237 169.05 66.3817 167.192Z" stroke="white"/>
<path d="M179.247 167.192C177.547 165.489 174.145 164.096 171.517 164.096C168.888 164.096 165.487 165.489 163.786 167.192C161.931 169.05 160.694 172.301 160.694 175.707C160.694 179.112 161.931 182.363 163.786 184.221C165.487 185.924 168.888 187.317 171.517 187.317C174.145 187.317 177.547 185.924 179.247 184.221C181.103 182.363 182.34 179.112 182.34 175.707C182.34 172.301 181.103 169.05 179.247 167.192Z" stroke="white"/>
<path d="M292.113 167.038C289.948 165.335 286.392 163.941 284.073 164.096C281.599 164.096 278.353 165.489 276.652 167.192C274.797 169.05 273.56 172.301 273.56 175.707C273.56 179.112 274.797 182.363 276.652 184.221C278.507 186.079 281.909 187.317 284.846 187.317C287.938 187.472 290.876 186.234 292.886 184.066C294.741 182.054 295.978 178.648 295.978 175.397C295.978 171.527 294.896 169.205 292.113 167.038Z" stroke="white"/>
<path d="M404.206 166.109C402.505 165.025 399.722 164.096 397.866 164.096C396.011 164.096 392.764 165.489 390.445 167.347C387.198 169.669 386.116 171.837 386.271 175.397C386.271 178.184 387.817 181.899 389.517 183.912C391.218 185.769 394.31 187.317 396.475 187.317C398.64 187.317 401.423 186.853 402.814 186.234C404.205 185.46 406.37 183.137 407.452 180.815C408.844 178.029 409.153 174.933 408.535 172.301C407.762 170.134 405.906 167.347 404.206 166.109Z" stroke="white"/>
<path d="M115.239 194.748C113.847 193.2 112.301 191.962 111.683 191.962C110.909 191.962 101.324 196.761 90.3463 202.643C71.6384 212.551 70.2469 213.635 69.9377 218.124C69.6285 221.685 70.2469 223.387 72.5661 224.471C75.0398 225.71 79.369 224.007 96.2215 214.718C110.291 206.978 116.785 202.643 117.094 200.476C117.403 198.773 116.63 196.141 115.239 194.748Z" stroke="white"/>
<path d="M227.795 193.974C226.249 192.89 224.548 191.962 224.084 191.962C223.62 191.962 214.035 196.915 202.593 202.953C182.958 213.325 181.876 214.099 182.03 218.434C182.185 221.22 183.576 223.542 185.432 224.471C187.751 225.71 190.225 225.09 195.945 222.149C199.965 219.982 209.087 215.028 216.354 210.848C226.249 205.275 229.65 202.643 230.114 199.702C230.578 197.225 229.805 195.367 227.795 193.974Z" stroke="white"/>
<path d="M340.661 193.974C339.115 192.89 337.414 191.962 336.95 191.962C336.486 191.962 328.137 196.296 318.397 201.56C308.656 206.668 299.38 212.087 297.834 213.48C296.287 214.873 295.051 217.505 295.205 219.517C295.205 221.375 296.597 223.542 298.297 224.471C300.771 225.71 305.1 224.007 321.953 214.873C338.341 205.739 342.516 202.798 342.98 199.857C343.444 197.225 342.671 195.367 340.661 193.974Z" stroke="white"/>
<path d="M453.526 193.974C451.98 192.89 450.279 191.962 449.816 191.962C449.352 191.962 441.312 196.141 432.035 201.25C422.759 206.359 414.41 210.538 413.637 210.538C412.864 210.538 411.318 211.777 410.235 213.325C409.153 214.718 408.071 217.505 408.071 219.517C408.071 221.375 409.462 223.542 411.163 224.471C413.173 225.555 415.492 225.555 417.811 224.471C419.667 223.697 428.943 218.588 438.22 213.325C451.362 205.739 455.382 202.643 455.845 199.702C456.309 197.225 455.536 195.367 453.526 193.974Z" stroke="white"/>
<path d="M23.0907 217.505C21.6992 215.028 19.5347 212.706 18.2978 212.396C17.0609 212.241 15.3602 212.396 14.5872 213.015C13.9687 213.635 13.3503 215.802 13.5049 217.814C13.6595 219.672 15.5148 223.542 17.6794 226.019C20.3078 229.115 23.5546 230.973 27.4198 231.592C30.8213 232.057 34.9957 231.747 37.6241 230.354C40.0979 229.27 43.4993 226.638 45.0454 224.471C46.5915 222.304 47.983 219.053 47.8284 217.195C47.8284 215.183 46.9007 213.325 45.9731 213.015C44.8908 212.706 43.1901 212.861 42.417 213.325C41.4894 213.944 39.6341 216.266 38.0879 218.743C36.078 221.994 34.3773 222.768 30.5121 222.613C26.956 222.304 24.9461 220.911 23.0907 217.505Z" stroke="white"/>
<path d="M135.956 217.505C134.256 214.563 131.937 212.087 130.854 212.087C129.617 212.087 128.226 212.551 127.453 213.17C126.68 213.635 126.216 215.802 126.371 217.814C126.525 219.672 128.38 223.542 130.545 226.019C132.71 228.651 136.266 231.128 138.739 231.592C141.059 232.057 145.542 231.747 148.789 230.818C151.881 229.889 155.901 227.258 157.602 224.936C159.457 222.459 160.849 219.053 160.694 217.195C160.694 215.183 159.612 213.325 158.375 212.861C157.138 212.396 154.819 213.48 153.427 215.028C151.881 216.731 149.717 219.208 148.789 220.446C147.707 221.839 145.078 222.923 142.914 222.923C140.131 222.923 138.121 221.375 135.956 217.505Z" stroke="white"/>
<path d="M247.276 216.731C246.503 214.254 244.802 212.087 243.72 212.087C242.483 212.087 241.091 212.551 240.318 213.17C239.545 213.635 239.082 216.112 239.236 218.588C239.391 220.911 241.246 224.626 243.411 226.793C245.575 228.961 249.595 231.128 252.378 231.592C255.316 232.057 259.645 231.592 263.201 230.044C266.757 228.496 269.849 225.71 271.395 222.613C272.632 219.827 273.405 216.576 272.941 215.647C272.477 214.563 270.622 213.635 268.921 213.635C267.066 213.635 265.056 215.338 263.974 217.66C262.892 219.827 260.572 221.994 258.872 222.459C257.171 222.923 254.233 222.768 252.378 222.304C250.214 221.685 248.204 219.517 247.276 216.731Z" stroke="white"/>
<path d="M360.142 216.731C359.368 214.254 357.668 212.087 356.586 212.087C355.349 212.087 353.957 212.551 353.184 213.17C352.411 213.635 351.947 215.957 352.102 218.124C352.256 220.291 353.339 223.542 354.421 225.245C355.658 226.948 358.595 229.27 361.069 230.354C363.698 231.747 367.872 232.057 371.428 231.592C375.448 230.973 378.54 228.961 381.787 225.245C384.415 222.304 386.425 218.743 386.425 217.505C386.425 216.266 385.034 214.563 383.333 213.789C381.478 213.015 379.622 212.706 379.004 213.325C378.386 213.944 377.149 215.802 376.221 217.505C375.293 219.208 373.438 221.22 372.356 221.994C371.119 222.768 368.336 222.923 366.017 222.304C363.079 221.685 361.224 219.982 360.142 216.731Z" stroke="white"/>
<path d="M50.6114 258.374C50.3022 256.516 48.7561 254.039 47.0554 252.956C44.2724 251.253 41.7986 252.027 25.4099 261.006C15.2056 266.579 5.61975 272.462 4.22826 274.164C2.52754 276.022 1.90911 278.035 2.68217 279.583C3.30061 280.976 5.00133 282.834 6.54744 283.453C8.40276 284.537 13.6595 282.524 25.8737 276.022C34.9958 271.223 44.2724 266.114 46.7461 264.412C49.3745 262.554 50.766 260.541 50.6114 258.374Z" stroke="white"/>
<path d="M79.2144 256.981C78.1321 254.813 76.586 252.491 75.9675 251.872C75.3491 251.098 73.4937 251.717 71.9476 253.111C70.5561 254.504 69.3193 256.052 69.3193 256.671C69.4739 257.29 70.8654 260.077 72.5661 262.863C74.2668 265.495 77.359 268.437 79.5236 269.365C81.6881 270.294 85.0895 270.913 87.2541 270.913C89.4186 270.913 93.2839 269.83 95.7577 268.591C98.2314 267.353 101.478 264.257 102.715 261.625C103.952 259.148 104.725 255.897 104.261 254.659C103.797 253.42 102.097 252.337 100.396 252.337C98.5406 252.337 96.5307 254.039 95.4484 256.362C94.3662 258.529 92.047 260.696 90.3463 261.161C88.6456 261.47 85.8626 261.625 84.1619 261.315C82.4612 261.161 80.2966 259.148 79.2144 256.981Z" stroke="white"/>
<path d="M192.08 256.981C190.998 254.813 189.452 252.646 188.833 252.027C188.215 251.408 186.359 251.717 184.659 252.491C183.113 253.42 181.876 255.433 182.03 256.981C182.185 258.684 184.813 262.554 187.751 265.495C192.08 269.83 194.399 270.913 199.347 270.913C203.985 270.913 206.923 269.83 210.942 266.269C214.498 263.328 216.354 260.232 216.354 257.755C216.354 255.587 215.272 253.42 214.035 252.801C212.334 251.872 210.324 253.111 207.386 256.671C203.985 260.851 202.284 261.78 198.574 261.315C195.636 261.006 193.317 259.458 192.08 256.981Z" stroke="white"/>
<path d="M274.024 253.575C272.477 252.027 270.931 250.943 270.467 250.943C270.004 250.943 262.119 255.278 252.687 260.387C243.411 265.34 234.134 270.604 232.279 271.842C230.114 273.081 228.723 275.558 228.723 277.88C228.723 280.202 229.96 282.369 231.815 283.298C234.289 284.537 238.309 282.988 253.151 275.403C263.046 270.139 272.477 264.721 274.024 263.328C275.57 261.935 276.807 259.767 276.807 258.529C276.807 257.29 275.57 254.968 274.024 253.575Z" stroke="white"/>
<path d="M304.946 256.981C303.4 254.504 301.39 252.027 300.307 251.717C299.225 251.408 297.524 251.872 296.597 252.801C295.514 253.73 294.741 255.433 294.896 256.516C295.051 257.6 296.133 260.387 297.37 262.863C298.452 265.186 301.853 267.972 304.636 269.211C307.883 270.449 312.058 271.068 315.305 270.449C318.551 269.83 322.417 267.508 325.045 264.721C327.364 262.244 329.219 258.684 329.219 256.981C329.219 255.278 328.137 253.42 326.746 252.801C325.045 251.872 323.19 252.956 320.561 256.671C317.778 260.387 315.614 261.625 312.212 261.625C308.656 261.625 306.956 260.541 304.946 256.981Z" stroke="white"/>
<path d="M417.811 256.981C416.265 254.504 414.255 252.182 413.327 251.872C412.4 251.562 410.699 251.562 409.462 251.872C408.38 252.337 407.607 254.504 407.762 257.136C407.916 259.613 409.771 263.328 411.936 265.495C414.101 267.663 417.657 269.83 420.13 270.294C422.45 270.913 426.624 270.913 429.407 270.294C432.345 269.675 435.901 267.353 438.374 264.412C440.539 261.625 442.085 257.91 441.776 256.207C441.467 254.504 439.921 252.956 438.22 252.646C436.158 252.337 434.251 253.781 432.499 256.981C430.335 260.541 428.634 261.625 425.078 261.625C421.522 261.625 419.821 260.541 417.811 256.981Z" stroke="white"/>
<path d="M384.879 254.659C384.879 253.42 383.642 252.337 382.251 252.491C380.705 252.491 369.727 257.6 357.822 263.947C345.917 270.294 336.022 276.177 335.868 277.106C335.558 277.88 336.332 279.118 337.414 279.583C338.341 280.047 341.588 279.273 344.371 278.035C347 276.641 350.246 275.558 351.329 275.558C352.875 275.403 352.875 275.867 351.329 277.88C349.989 279.428 349.834 280.873 350.865 282.214C351.947 283.608 357.204 281.595 373.283 273.7C384.725 267.817 394.62 262.244 395.083 261.315C395.547 260.232 395.393 258.684 394.774 258.064C394.001 257.445 390.754 258.064 387.662 259.612C384.415 261.161 381.323 261.78 380.705 261.161C379.932 260.387 380.705 259.148 382.251 258.374C383.642 257.6 384.879 255.897 384.879 254.659Z" stroke="white"/>
<path d="M161.931 261.006C161.158 259.613 160.23 258.529 159.612 258.684C158.839 258.838 148.634 263.947 136.729 270.139C124.824 276.487 114.929 282.369 114.775 283.143C114.466 284.072 115.239 285.311 116.321 285.775C117.249 286.239 120.495 285.465 123.278 284.227C125.907 282.834 128.69 282.06 129.463 282.524C130.081 282.988 129.617 284.227 128.535 285.311C127.453 286.239 126.68 288.097 126.68 289.181C126.68 290.11 127.607 291.038 128.69 291.038C129.617 291.038 139.976 286.239 151.417 280.202C162.859 274.164 172.599 268.901 173.063 268.437C173.527 268.127 173.063 266.888 171.981 265.805C170.435 264.412 169.043 264.412 165.332 266.269C162.859 267.508 160.23 267.972 159.457 267.353C158.839 266.734 159.457 265.495 160.694 264.721C162.086 263.947 162.549 262.554 161.931 261.006Z" stroke="white"/>
<path d="M66.8455 293.98C65.2994 292.587 62.671 291.038 60.9703 290.574C59.2696 290.11 56.332 290.264 54.6313 291.038C52.776 291.812 50.1476 293.98 48.7561 295.992C47.3646 298.005 46.2823 300.637 46.2823 301.875C46.1277 303.113 47.5192 306.055 49.3745 308.532C51.6937 311.783 53.7036 312.712 58.3419 312.712C61.898 312.866 65.1448 311.783 66.6909 310.08C68.237 308.532 69.4739 304.816 69.4739 301.875C69.4739 298.624 68.5462 295.528 66.8455 293.98Z" stroke="white"/>
<path d="M179.711 293.98C178.165 292.587 175.537 291.038 173.836 290.574C172.135 290.11 169.661 290.11 168.425 290.574C167.188 291.038 164.869 292.587 163.322 293.98C161.776 295.373 160.539 298.624 160.539 301.875C160.539 304.971 161.776 308.377 163.322 309.925C164.869 311.473 168.27 312.712 170.744 312.712C173.372 312.712 176.928 311.628 178.938 310.389C181.412 308.687 182.34 306.519 182.34 302.339C182.494 298.624 181.412 295.528 179.711 293.98Z" stroke="white"/>
<path d="M293.35 295.063C291.34 293.051 288.402 290.884 286.702 290.574C285.001 290.11 282.527 290.11 281.29 290.574C280.053 291.038 277.734 292.587 276.188 293.98C274.642 295.373 273.405 298.624 273.405 301.875C273.405 304.971 274.642 308.377 276.188 309.925C277.734 311.473 281.445 312.712 284.846 312.712C289.33 312.712 291.185 311.783 293.659 308.532C295.514 306.055 296.906 302.959 296.751 301.565C296.751 300.017 295.205 297.076 293.35 295.063Z" stroke="white"/>
<path d="M406.834 295.683C405.288 293.515 402.505 291.503 400.649 291.038C398.794 290.574 395.857 290.419 394.31 290.729C392.61 291.038 390.136 292.741 388.899 294.599C387.508 296.457 386.425 299.862 386.425 302.339C386.425 304.662 387.817 307.912 389.517 309.615C391.373 311.473 394.774 312.712 397.712 312.712C400.495 312.866 403.742 311.628 405.288 310.08C406.679 308.532 408.225 305.59 408.844 303.423C409.462 300.791 408.844 298.314 406.834 295.683Z" stroke="white"/>
<path d="M115.548 320.762C114.466 319.678 112.146 318.904 110.446 318.904C108.745 318.904 105.962 319.833 104.261 320.916C102.561 322.155 94.83 326.335 87.2541 330.514C79.6782 334.539 72.4115 338.719 71.3292 339.648C70.2469 340.577 69.3193 342.744 69.3193 344.447C69.3193 346.15 70.5561 348.627 71.9476 349.865C74.2668 352.033 76.2767 351.259 92.3562 342.899C102.097 337.79 111.837 332.372 113.847 330.979C115.702 329.431 117.403 326.954 117.403 325.561C117.403 324.013 116.63 321.845 115.548 320.762Z" stroke="white"/>
<path d="M229.496 321.226C229.032 319.833 227.022 318.904 224.548 319.059C222.074 319.059 211.87 323.858 201.666 329.586C186.514 337.945 182.958 340.577 182.649 343.673C182.494 345.84 183.113 348.472 184.195 349.556C185.277 350.639 186.823 351.568 187.751 351.568C188.679 351.568 198.574 346.46 209.86 340.267C224.239 332.372 230.423 328.192 230.269 326.335C230.269 324.787 229.96 322.464 229.496 321.226Z" stroke="white"/>
<path d="M342.361 322C341.743 319.833 340.351 318.904 337.414 319.059C334.94 319.213 324.736 323.858 314.531 329.586C298.297 338.564 295.978 340.422 295.669 344.137C295.36 347.234 296.133 348.782 298.761 350.02C301.699 351.413 304.946 350.175 321.798 341.041C332.93 335.159 341.897 329.276 342.361 327.883C342.825 326.335 342.825 323.703 342.361 322Z" stroke="white"/>
<path d="M455.691 324.787C455.227 320.297 454.609 319.678 450.589 319.368C447.496 319.213 440.075 322.464 427.397 329.586C412.245 337.945 408.689 340.577 408.38 343.673C408.225 345.84 408.844 348.472 409.926 349.556C411.008 350.639 412.864 351.568 413.946 351.413C414.874 351.413 424.923 346.614 435.901 340.577L436.04 340.502C455.692 329.894 455.999 329.729 455.691 324.787Z" stroke="white"/>
<path d="M23.5546 343.673C22.0085 341.196 19.5347 339.029 17.9886 339.029C16.4425 339.029 14.8964 340.267 14.4326 341.815C13.8141 343.209 14.4326 346.46 15.5148 348.937C16.7517 351.413 19.5347 354.355 22.0085 355.438C24.3276 356.677 28.6567 357.606 31.7489 357.606C36.078 357.606 38.5518 356.367 42.5717 352.188C45.5093 349.246 47.8284 345.376 47.8284 343.673C47.8284 341.97 46.5915 340.112 45.2001 339.648C43.1901 338.874 41.3348 339.958 38.5518 343.518C35.9234 346.769 33.295 348.317 30.5121 348.317C27.4198 348.317 25.4099 347.079 23.5546 343.673Z" stroke="white"/>
<path d="M136.42 343.673C134.874 341.196 132.4 339.029 130.854 339.029C129.308 339.029 127.762 340.267 127.298 341.815C126.68 343.209 127.298 346.46 128.38 348.782C129.617 351.259 132.091 354.2 134.101 355.438C135.956 356.677 140.285 357.606 143.687 357.606C148.634 357.606 150.954 356.522 155.283 352.188C158.839 348.627 160.539 345.531 160.385 343.363C160.076 340.99 158.787 339.7 156.52 339.493C154.046 339.184 152.5 340.113 151.727 342.589C150.954 344.447 149.253 346.46 147.861 347.234C146.315 347.853 143.842 348.317 142.141 348.317C140.285 348.317 137.966 346.46 136.42 343.673Z" stroke="white"/>
<path d="M248.049 343.673C246.657 340.887 244.493 339.029 242.638 339.029C240.164 339.029 239.545 340.112 239.545 343.673C239.545 346.769 241.092 349.865 244.184 352.962C247.74 356.522 250.214 357.606 255.006 357.606C258.408 357.606 263.046 356.367 265.211 354.974C267.53 353.426 270.313 350.02 271.55 347.543C272.787 345.066 273.405 341.97 272.941 341.041C272.477 339.958 270.622 339.029 268.921 339.029C267.066 339.029 265.211 340.422 264.592 342.589C263.819 344.447 262.118 346.46 260.727 347.234C259.181 347.853 256.398 348.317 254.233 348.317C251.45 348.317 249.75 346.924 248.049 343.673Z" stroke="white"/>
<path d="M360.915 343.673C359.523 340.887 357.359 339.029 355.503 339.029C353.029 339.029 352.411 340.112 352.411 343.673C352.411 346.769 353.957 349.865 357.049 352.962C360.76 356.677 362.925 357.606 368.336 357.606C372.201 357.451 376.066 356.367 378.076 354.819C379.777 353.426 382.405 350.33 383.797 348.008C385.188 345.531 386.116 342.589 385.652 341.351C385.188 340.112 383.642 339.029 382.251 339.029C380.705 339.029 377.922 341.041 376.066 343.673C373.438 347.079 371.273 348.317 367.872 348.317C364.316 348.317 362.77 347.234 360.915 343.673Z" stroke="white"/>
<path d="M268.458 378.195C267.839 377.112 266.448 376.183 265.52 376.183C264.438 376.183 257.326 379.588 249.595 383.613C242.019 387.638 231.97 393.057 227.64 395.534C223.157 398.165 219.446 400.642 219.446 401.416C219.446 402.036 220.374 402.964 221.456 403.429C222.384 403.893 225.63 403.119 228.413 401.881C231.042 400.487 233.67 399.404 234.134 399.404C234.598 399.404 234.598 401.107 234.134 403.274C233.67 405.441 234.134 407.454 234.907 407.918C235.835 408.383 245.884 403.584 257.326 397.546C272.014 389.496 278.198 385.471 278.198 383.613C278.198 382.065 277.58 380.827 276.652 380.827C275.879 380.827 273.096 381.911 270.467 383.149C267.994 384.387 265.365 385.162 264.747 384.697C263.974 384.233 264.901 382.994 266.448 381.911C267.994 380.982 268.921 379.124 268.458 378.195Z" stroke="white"/>
<path d="M79.5236 382.375C78.1321 379.588 75.9675 377.731 74.1122 377.731C72.5661 377.731 70.8654 378.35 70.2469 379.279C69.7831 380.208 70.4015 383.149 71.4838 385.936C72.5661 388.567 75.1945 392.128 77.359 393.676C79.369 395.069 83.3889 396.308 86.1718 396.308C88.8002 396.308 93.2839 395.224 95.7577 393.986C98.2314 392.747 101.478 389.496 102.715 387.019C103.952 384.542 104.725 381.291 104.261 380.053C103.797 378.814 102.251 377.731 100.86 377.731C99.3137 377.731 96.5307 379.743 94.6754 382.375C92.047 385.781 89.8824 387.019 86.481 387.019C82.925 387.019 81.3789 385.936 79.5236 382.375Z" stroke="white"/>
<path d="M163.477 382.375C163.168 379.279 162.086 378.35 158.375 378.04C154.973 377.731 148.789 380.517 135.956 387.793C126.216 393.212 117.249 398.939 116.321 400.487C114.775 402.81 114.775 403.893 116.63 406.835C117.867 408.692 120.032 410.24 121.268 410.24C122.505 410.24 131.473 405.906 141.059 400.642C150.49 395.379 159.612 389.961 161.158 388.722C162.859 387.174 163.786 384.697 163.477 382.375Z" stroke="white"/>
<path d="M192.389 382.375C191.152 379.743 188.833 377.731 187.287 377.731C185.741 377.731 183.886 378.195 183.113 378.814C182.34 379.279 181.876 381.137 182.03 382.685C182.185 384.233 184.813 387.948 187.751 390.889C191.925 395.069 194.399 396.308 198.574 396.308C201.511 396.308 205.84 395.379 208.314 394.14C210.633 393.057 213.416 390.115 214.653 387.638C215.735 385.161 216.199 381.911 215.735 380.517C215.272 378.969 213.725 377.731 212.489 377.731C211.252 377.731 208.778 379.898 207.077 382.375C204.758 385.781 202.748 387.019 199.347 387.019C195.791 387.019 194.244 385.936 192.389 382.375Z" stroke="white"/>
<path d="M304.482 381.601C303.554 379.279 301.699 377.731 299.843 377.731C298.143 377.731 296.287 378.969 295.824 380.517C295.205 381.911 295.824 385.161 296.906 387.638C298.143 390.115 300.926 393.057 303.4 394.14C305.719 395.379 309.738 396.308 312.212 396.308C314.841 396.308 318.706 395.379 321.18 394.14C323.499 393.057 326.282 390.115 327.519 387.638C328.601 385.161 329.065 381.911 328.601 380.517C328.137 378.969 326.436 377.731 325.045 377.731C323.499 377.731 321.334 379.434 320.407 381.601C319.324 383.768 316.851 385.936 314.995 386.4C312.985 387.019 310.202 387.019 308.811 386.4C307.265 385.936 305.409 383.768 304.482 381.601Z" stroke="white"/>
<path d="M389.208 382.375C388.899 379.279 387.817 378.35 384.106 378.04C380.859 377.886 374.83 380.362 363.234 387.019C354.266 391.973 345.763 396.927 344.371 397.856C342.825 398.63 341.588 400.952 341.588 402.964C341.588 404.822 342.361 407.299 343.444 408.383C344.526 409.466 346.381 410.24 347.464 410.24C348.391 410.24 357.513 405.751 367.563 400.333C377.458 394.76 386.58 389.496 387.662 388.258C388.744 387.174 389.363 384.542 389.208 382.375Z" stroke="white"/>
<path d="M417.347 381.601C416.265 378.969 414.564 377.731 411.936 377.731C409.153 377.731 408.071 378.505 408.071 380.827C408.071 382.53 408.998 385.781 410.235 388.258C411.318 390.58 414.101 393.366 416.42 394.45C418.584 395.379 422.759 396.308 425.542 396.308C428.17 396.308 432.035 395.224 434.045 393.986C435.901 392.747 438.529 389.341 439.921 386.71C441.157 383.923 441.93 380.672 441.467 379.743C441.003 378.66 439.147 377.731 437.447 377.731C435.591 377.731 433.736 379.279 432.808 381.601C432.035 383.768 429.716 385.936 427.861 386.4C425.851 387.019 423.068 387.019 421.677 386.4C420.13 385.936 418.12 383.768 417.347 381.601Z" stroke="white"/>
<path d="M48.6015 383.923C48.1376 382.994 47.3646 382.375 46.7461 382.53C45.9731 382.53 35.9234 387.638 24.3276 393.676C12.7318 399.868 2.37293 405.751 1.13605 406.835C-0.20391 408.073 -0.358514 409.208 0.672222 410.24C1.7545 411.479 3.91904 411.014 7.93891 409.157C11.1857 407.609 14.2779 406.835 14.8964 407.454C15.6694 408.073 15.2056 409.621 14.278 411.014C12.5772 412.872 12.7318 413.491 15.051 414.42C16.7517 415.039 24.7915 411.634 37.7787 404.822C48.7561 399.094 58.6511 393.676 59.4242 393.057C60.5065 392.283 60.3519 391.044 59.115 389.341C57.2597 387.329 56.6412 387.329 52.1575 389.961C49.3745 391.663 46.5915 392.747 45.9731 392.283C45.2 391.973 45.8185 390.27 47.0554 388.567C48.2922 386.864 49.0653 384.852 48.6015 383.923Z" stroke="white"/>
<path d="M65.2994 417.981C62.8256 416.123 59.888 414.885 58.6511 414.885C57.4143 414.885 54.7859 415.813 52.9306 416.897C51.2299 417.981 48.7561 421.077 47.5192 423.863C45.6639 428.353 45.8185 429.282 48.7561 433.152C51.2299 436.248 53.549 437.487 58.0327 437.796C62.2072 438.106 64.9902 437.332 66.8455 435.474C68.5462 433.771 69.6285 430.52 69.4739 426.96C69.4739 422.315 68.5462 420.303 65.2994 417.981Z" stroke="white"/>
<path d="M178.165 417.981C175.691 416.123 172.754 414.73 171.362 414.885C169.971 414.885 167.033 416.278 164.714 418.136C161.312 420.612 160.385 422.47 160.539 426.96C160.539 430.365 161.776 433.771 163.322 435.319C164.869 436.867 168.579 438.106 171.517 438.106C174.764 438.106 178.01 437.177 179.557 435.474C181.103 433.926 182.34 430.211 182.34 426.96C182.34 422.315 181.412 420.458 178.165 417.981Z" stroke="white"/>
<path d="M289.794 416.897C287.629 415.813 285.001 414.885 283.919 414.885C282.682 414.885 279.899 416.278 277.58 418.136C274.178 420.612 273.25 422.47 273.405 426.96C273.405 430.365 274.642 433.771 276.188 435.319C277.734 436.867 281.445 438.106 284.846 438.106C289.33 438.106 291.185 437.177 293.659 433.926C295.514 431.449 296.906 428.662 296.751 427.734C296.751 426.65 295.978 424.173 295.205 422.315C294.277 420.303 291.958 417.826 289.794 416.897Z" stroke="white"/>
<path d="M402.659 416.897C400.495 415.813 397.867 414.885 396.784 414.885C395.547 414.885 392.764 416.278 390.445 418.136C387.044 420.612 386.116 422.47 386.271 426.65C386.425 429.746 387.662 433.152 389.517 435.01C391.373 436.867 394.774 438.106 397.712 438.106C400.495 438.261 403.742 437.022 405.133 435.474C406.525 433.926 408.071 431.139 408.689 429.282C409.153 427.269 408.844 424.173 408.071 422.315C407.143 420.303 404.824 417.826 402.659 416.897Z" stroke="white"/>
<path d="M115.393 446.62C114.466 445.227 112.146 444.143 110.446 444.298C108.745 444.298 99.0045 449.097 88.8002 454.825C71.9476 464.423 70.2469 465.661 70.2469 469.686C70.2469 472.163 71.3292 474.95 72.8753 475.879C74.8852 477.272 77.6682 476.343 86.7903 471.544C92.9747 468.138 102.251 462.875 107.353 459.934C112.456 456.837 116.785 453.122 116.939 451.574C117.249 450.181 116.475 447.859 115.393 446.62Z" stroke="white"/>
<path d="M229.96 448.942C229.65 445.846 228.568 444.917 224.857 444.608C221.456 444.298 215.272 447.085 201.666 454.825C186.978 463.339 182.958 466.281 182.649 469.222C182.494 471.235 183.113 473.866 184.195 474.95C185.277 476.034 187.132 476.962 188.215 476.808C189.142 476.808 198.264 472.318 208.314 466.9C218.209 461.327 227.331 456.063 228.413 454.825C229.496 453.741 230.114 451.11 229.96 448.942Z" stroke="white"/>
<path d="M342.361 449.716C342.361 445.691 341.743 445.072 337.723 444.762C334.476 444.453 327.673 447.394 314.531 454.98C297.679 464.423 295.978 465.816 295.978 469.841C295.978 472.318 297.215 474.95 298.607 475.879C300.926 477.272 304.173 476.188 315.614 469.996C323.499 465.816 332.775 460.553 336.177 458.386C341.124 455.135 342.361 453.277 342.361 449.716Z" stroke="white"/>
<path d="M455.691 450.181C455.227 445.691 454.609 445.072 450.589 444.608C447.806 444.453 443.477 445.691 439.766 447.859C436.365 449.871 427.861 454.825 420.749 459.005C411.008 464.578 407.916 467.21 407.916 469.686C408.071 471.544 408.844 473.866 409.926 474.95C411.008 476.034 413.018 476.808 414.255 476.808C415.492 476.808 425.387 471.854 436.365 465.971C455.691 455.289 456 454.98 455.691 450.181Z" stroke="white"/>
<path d="M23.5546 469.067C22.0085 466.59 19.5347 464.423 17.9886 464.423C16.4425 464.423 14.8964 465.661 14.4326 467.21C13.8141 468.603 14.4326 471.854 15.5148 474.331C16.7517 476.808 19.5347 479.749 22.0085 480.833C24.3276 482.071 28.6567 483 31.7489 483C36.078 483 38.5518 481.762 42.5717 477.582C45.5093 474.64 47.8284 470.77 47.8284 469.067C47.8284 467.364 46.5915 465.507 45.2001 465.042C43.1901 464.268 41.3348 465.352 38.5518 468.912C35.9234 472.163 33.295 473.712 30.5121 473.712C27.4198 473.712 25.4099 472.473 23.5546 469.067Z" stroke="white"/>
<path d="M136.42 469.067C134.874 466.59 132.4 464.423 130.854 464.423C129.308 464.423 127.762 465.661 127.298 467.21C126.68 468.603 127.298 471.854 128.38 474.331C129.617 476.808 132.4 479.749 134.874 480.833C137.193 482.071 140.904 483 143.378 483C145.697 483 150.026 481.452 152.964 479.439C155.901 477.582 158.993 474.021 159.921 471.699C160.952 468.913 160.952 466.952 159.921 465.816C158.993 464.888 156.983 464.578 155.283 465.042C153.582 465.507 151.572 467.519 150.644 469.377C149.562 471.854 147.552 473.092 144.151 473.402C139.976 473.711 138.585 472.938 136.42 469.067Z" stroke="white"/>
<path d="M248.049 469.067C246.657 466.281 244.493 464.423 242.638 464.423C240.164 464.423 239.545 465.507 239.545 469.067C239.545 471.699 241.092 475.414 243.101 477.737C245.266 480.213 248.822 481.916 252.687 482.536C256.81 483.052 260.572 482.484 263.974 480.833C266.602 479.439 270.004 476.188 271.241 473.712C272.477 471.235 273.25 467.984 272.787 466.745C272.323 465.507 270.622 464.423 268.921 464.423C267.066 464.423 265.056 466.126 263.819 468.758C262.273 472.009 260.727 473.092 256.089 473.402C251.141 473.711 250.059 473.092 248.049 469.067Z" stroke="white"/>
<path d="M360.915 469.067C359.523 466.281 357.359 464.423 355.503 464.423C353.029 464.423 352.411 465.507 352.411 469.067C352.411 471.699 353.957 475.414 355.967 477.737C358.132 480.213 361.688 481.916 365.553 482.536C369.676 483.052 373.438 482.484 376.839 480.833C379.468 479.439 382.869 476.188 384.106 473.712C385.343 471.235 386.116 467.984 385.652 466.745C385.188 465.507 383.642 464.423 382.251 464.423C380.705 464.423 377.922 466.436 376.066 469.067C373.438 472.473 371.273 473.712 367.872 473.712C364.316 473.712 362.77 472.628 360.915 469.067Z" stroke="white"/>
</mask>
<g mask="url(#mask0_2_425)">
<path opacity="0.08" d="M116.73 223.027C156.47 150.834 72.4771 66.6656 36 31H372V476.607C162.733 494.813 57.578 330.486 116.73 223.027Z" fill="#F1B7DA"/>
</g>
</svg>
