<svg width="40" height="40" viewBox="0 0 40 40" fill="none" xmlns="http://www.w3.org/2000/svg">
<path d="M19.8467 11.6667C18.1094 11.698 16.4254 12.2715 15.0302 13.3071C13.635 14.3427 12.5984 15.7884 12.0653 17.4422C11.5323 19.0959 11.5295 20.8749 12.0574 22.5303C12.5853 24.1858 13.6174 25.6348 15.0093 26.6747C15.2215 26.8338 15.3618 27.0707 15.3993 27.3333C15.4368 27.5958 15.3685 27.8625 15.2093 28.0747C15.0502 28.2868 14.8133 28.4271 14.5508 28.4646C14.2882 28.5021 14.0215 28.4338 13.8093 28.2747C12.1305 27.0197 10.873 25.2837 10.2038 23.2973C9.53454 21.3109 9.48525 19.1679 10.0624 17.1529C10.6396 15.1378 11.816 13.3459 13.4354 12.015C15.0548 10.6841 17.0406 9.8772 19.1293 9.70134L18.3507 8.92C18.174 8.73044 18.0779 8.47971 18.0824 8.22064C18.087 7.96157 18.192 7.71439 18.3752 7.53117C18.5584 7.34796 18.8056 7.24301 19.0646 7.23844C19.3237 7.23387 19.5744 7.33003 19.764 7.50667L22.5933 10.3347C22.7806 10.5222 22.8858 10.7763 22.8858 11.0413C22.8858 11.3063 22.7806 11.5605 22.5933 11.748L19.764 14.5787C19.5744 14.7553 19.3237 14.8515 19.0646 14.8469C18.8056 14.8423 18.5584 14.7374 18.3752 14.5542C18.192 14.3709 18.087 14.1238 18.0824 13.8647C18.0779 13.6056 18.174 13.3549 18.3507 13.1653L19.8467 11.6667ZM20.1533 28.3307C21.8906 28.2994 23.5746 27.7258 24.9698 26.6902C26.365 25.6547 27.4017 24.2089 27.9347 22.5552C28.4677 20.9014 28.4705 19.1224 27.9426 17.467C27.4148 15.8116 26.3827 14.3626 24.9907 13.3227C24.7785 13.1635 24.6382 12.9266 24.6007 12.6641C24.5632 12.4015 24.6315 12.1348 24.7907 11.9227C24.9498 11.7105 25.1867 11.5702 25.4493 11.5327C25.7118 11.4952 25.9785 11.5635 26.1907 11.7227C27.8695 12.9777 29.127 14.7136 29.7963 16.7C30.4655 18.6864 30.5148 20.8294 29.9376 22.8445C29.3604 24.8596 28.184 26.6515 26.5646 27.9823C24.9452 29.3132 22.9594 30.1201 20.8707 30.296L21.6493 31.076C21.7449 31.1682 21.8211 31.2785 21.8736 31.4005C21.9261 31.5225 21.9537 31.6537 21.9549 31.7865C21.9561 31.9192 21.9309 32.0509 21.8807 32.1738C21.8305 32.2968 21.7563 32.4085 21.6624 32.5024C21.5686 32.5963 21.4569 32.6706 21.3341 32.721C21.2112 32.7713 21.0795 32.7967 20.9467 32.7956C20.814 32.7945 20.6827 32.767 20.5607 32.7146C20.4387 32.6623 20.3283 32.5861 20.236 32.4907L17.4067 29.6627C17.2194 29.4752 17.1142 29.221 17.1142 28.956C17.1142 28.691 17.2194 28.4368 17.4067 28.2493L20.236 25.42C20.3276 25.3218 20.438 25.243 20.5606 25.1883C20.6833 25.1336 20.8157 25.1043 20.95 25.1019C21.0842 25.0995 21.2176 25.1242 21.3421 25.1745C21.4667 25.2248 21.5798 25.2997 21.6747 25.3946C21.7697 25.4896 21.8445 25.6027 21.8948 25.7272C21.9451 25.8517 21.9698 25.9851 21.9675 26.1194C21.9651 26.2536 21.9357 26.3861 21.881 26.5087C21.8264 26.6314 21.7476 26.7418 21.6493 26.8333L20.1533 28.3307Z" fill="white"/>
<circle cx="20" cy="20" r="19.5" stroke="white" stroke-opacity="0.33"/>
</svg>
