<svg width="207" height="84" viewBox="0 0 207 84" fill="none" xmlns="http://www.w3.org/2000/svg">
<path d="M9.18 22.01H9.282L14.62 8.036C14.824 7.53733 15.0733 7.288 15.368 7.288C15.6627 7.288 15.9007 7.51467 16.082 7.968L21.454 21.84H21.556L26.588 8.444C26.86 7.67333 27.3927 7.288 28.186 7.288C28.798 7.288 29.2853 7.44667 29.648 7.764C30.0333 8.05867 30.226 8.43267 30.226 8.886C30.226 9.09 30.1693 9.362 30.056 9.702L22.474 29.66C22.2927 30.0907 22.0547 30.306 21.76 30.306C21.488 30.306 21.2387 30.0907 21.012 29.66L15.436 15.278C15.4133 15.2553 15.3793 15.244 15.334 15.244L9.69 29.694C9.486 30.1247 9.248 30.34 8.976 30.34C8.68133 30.34 8.44333 30.1247 8.262 29.694L0.544 9.702C0.430667 9.45267 0.374 9.18067 0.374 8.886C0.374 8.43267 0.555333 8.05867 0.918 7.764C1.30333 7.44667 1.802 7.288 2.414 7.288C3.20733 7.288 3.74 7.67333 4.012 8.444L9.18 22.01ZM39.0551 30.374C36.4031 30.374 34.3518 29.6373 32.9011 28.164C31.4731 26.6907 30.7591 24.764 30.7591 22.384C30.7591 20.14 31.4731 18.2587 32.9011 16.74C34.3518 15.1987 36.1878 14.428 38.4091 14.428C40.5624 14.428 42.3078 15.0853 43.6451 16.4C44.9824 17.7147 45.6511 19.3353 45.6511 21.262C45.6511 22.5087 45.0731 23.132 43.9171 23.132H34.3631C34.4084 24.5827 34.8618 25.6593 35.7231 26.362C36.6071 27.0647 37.7404 27.416 39.1231 27.416C40.3018 27.416 41.5711 27.11 42.9311 26.498C43.4524 26.2713 43.8944 26.3167 44.2571 26.634C44.6424 26.9513 44.8351 27.3707 44.8351 27.892C44.8351 28.3907 44.5744 28.7987 44.0531 29.116C42.6704 29.9547 41.0044 30.374 39.0551 30.374ZM38.4771 17.25C37.4118 17.25 36.5278 17.556 35.8251 18.168C35.1224 18.7573 34.6804 19.5847 34.4991 20.65H42.2511C42.1378 19.6073 41.7298 18.78 41.0271 18.168C40.3471 17.556 39.4971 17.25 38.4771 17.25ZM49.8528 28.572V7.05C49.8528 6.55133 50.0114 6.15467 50.3288 5.86C50.6688 5.54267 51.1221 5.384 51.6888 5.384C52.8901 5.384 53.4908 5.93933 53.4908 7.05V28.572C53.4908 29.6373 52.8788 30.17 51.6548 30.17C50.4534 30.17 49.8528 29.6373 49.8528 28.572ZM65.5103 14.496C66.9836 14.496 68.1736 14.6773 69.0803 15.04C69.715 15.2667 70.055 15.6747 70.1003 16.264C70.1456 16.7627 69.9983 17.1933 69.6583 17.556C69.341 17.896 68.9216 17.998 68.4003 17.862C67.3803 17.6353 66.587 17.522 66.0203 17.522C64.5923 17.522 63.4136 17.9527 62.4843 18.814C61.555 19.6753 61.0903 20.9333 61.0903 22.588C61.0903 24.1293 61.5096 25.3307 62.3483 26.192C63.2096 27.0307 64.3543 27.45 65.7823 27.45C66.4396 27.45 67.4143 27.2573 68.7063 26.872C69.2276 26.6907 69.6583 26.7813 69.9983 27.144C70.3383 27.484 70.4856 27.9033 70.4403 28.402C70.395 28.9233 70.1003 29.32 69.5563 29.592C68.355 30.136 66.9723 30.408 65.4083 30.408C62.8696 30.408 60.909 29.6827 59.5263 28.232C58.1663 26.7587 57.4863 24.8773 57.4863 22.588C57.4863 20.344 58.2343 18.44 59.7303 16.876C61.249 15.2893 63.1756 14.496 65.5103 14.496ZM81.1705 30.34C78.6318 30.34 76.6145 29.6033 75.1185 28.13C73.6452 26.634 72.9085 24.73 72.9085 22.418C72.9085 20.174 73.6905 18.2927 75.2545 16.774C76.8412 15.2327 78.8132 14.462 81.1705 14.462C83.5958 14.462 85.5678 15.2213 87.0865 16.74C88.6052 18.236 89.3645 20.1287 89.3645 22.418C89.3645 24.7073 88.5938 26.6 87.0525 28.096C85.5338 29.592 83.5732 30.34 81.1705 30.34ZM81.2045 17.352C79.8218 17.352 78.6885 17.8393 77.8045 18.814C76.9432 19.7887 76.5125 20.9787 76.5125 22.384C76.5125 23.9027 76.9205 25.138 77.7365 26.09C78.5752 27.0193 79.7312 27.484 81.2045 27.484C82.6325 27.484 83.7658 26.9967 84.6045 26.022C85.4658 25.0473 85.8965 23.8347 85.8965 22.384C85.8965 20.9787 85.4658 19.7887 84.6045 18.814C83.7432 17.8393 82.6098 17.352 81.2045 17.352ZM103.22 28.572V21.466C103.22 20.242 102.96 19.2787 102.438 18.576C101.94 17.8733 101.271 17.522 100.432 17.522C98.2109 17.522 97.1003 18.882 97.1003 21.602V28.572C97.1003 29.6373 96.4883 30.17 95.2643 30.17C94.0856 30.17 93.4963 29.6373 93.4963 28.572V21.33C93.4963 19.018 94.1309 17.2953 95.4003 16.162C96.6923 15.0287 98.2563 14.462 100.092 14.462C101.112 14.462 102.076 14.6887 102.982 15.142C103.889 15.5727 104.592 16.2187 105.09 17.08C106.201 15.3347 107.89 14.462 110.156 14.462C112.083 14.462 113.636 15.0287 114.814 16.162C115.993 17.2727 116.582 19.0067 116.582 21.364V28.572C116.582 29.6373 115.97 30.17 114.746 30.17C113.568 30.17 112.978 29.6373 112.978 28.572V21.364C112.978 20.1173 112.706 19.1427 112.162 18.44C111.641 17.7147 110.893 17.352 109.918 17.352C109.034 17.352 108.298 17.726 107.708 18.474C107.119 19.1993 106.824 20.2193 106.824 21.534V28.572C106.824 29.6373 106.212 30.17 104.988 30.17C103.81 30.17 103.22 29.6373 103.22 28.572ZM129.016 30.374C126.364 30.374 124.312 29.6373 122.862 28.164C121.434 26.6907 120.72 24.764 120.72 22.384C120.72 20.14 121.434 18.2587 122.862 16.74C124.312 15.1987 126.148 14.428 128.37 14.428C130.523 14.428 132.268 15.0853 133.606 16.4C134.943 17.7147 135.612 19.3353 135.612 21.262C135.612 22.5087 135.034 23.132 133.878 23.132H124.324C124.369 24.5827 124.822 25.6593 125.684 26.362C126.568 27.0647 127.701 27.416 129.084 27.416C130.262 27.416 131.532 27.11 132.892 26.498C133.413 26.2713 133.855 26.3167 134.218 26.634C134.603 26.9513 134.796 27.3707 134.796 27.892C134.796 28.3907 134.535 28.7987 134.014 29.116C132.631 29.9547 130.965 30.374 129.016 30.374ZM128.438 17.25C127.372 17.25 126.488 17.556 125.786 18.168C125.083 18.7573 124.641 19.5847 124.46 20.65H132.212C132.098 19.6073 131.69 18.78 130.988 18.168C130.308 17.556 129.458 17.25 128.438 17.25ZM152.732 10.824H147.088C146.657 10.824 146.306 10.6767 146.034 10.382C145.785 10.0873 145.66 9.67933 145.66 9.158C145.66 8.682 145.796 8.29667 146.068 8.002C146.34 7.70733 146.68 7.56 147.088 7.56H162.184C162.592 7.56 162.932 7.70733 163.204 8.002C163.476 8.29667 163.612 8.682 163.612 9.158C163.612 10.2687 163.136 10.824 162.184 10.824H156.608V28.504C156.608 29.6147 155.962 30.17 154.67 30.17C154.058 30.17 153.582 30.0227 153.242 29.728C152.902 29.4333 152.732 29.0253 152.732 28.504V10.824ZM9.18 64.01H9.282L14.62 50.036C14.824 49.5373 15.0733 49.288 15.368 49.288C15.6627 49.288 15.9007 49.5147 16.082 49.968L21.454 63.84H21.556L26.588 50.444C26.86 49.6733 27.3927 49.288 28.186 49.288C28.798 49.288 29.2853 49.4467 29.648 49.764C30.0333 50.0587 30.226 50.4327 30.226 50.886C30.226 51.09 30.1693 51.362 30.056 51.702L22.474 71.66C22.2927 72.0907 22.0547 72.306 21.76 72.306C21.488 72.306 21.2387 72.0907 21.012 71.66L15.436 57.278C15.4133 57.2553 15.3793 57.244 15.334 57.244L9.69 71.694C9.486 72.1247 9.248 72.34 8.976 72.34C8.68133 72.34 8.44333 72.1247 8.262 71.694L0.544 51.702C0.430667 51.4527 0.374 51.1807 0.374 50.886C0.374 50.4327 0.555333 50.0587 0.918 49.764C1.30333 49.4467 1.802 49.288 2.414 49.288C3.20733 49.288 3.74 49.6733 4.012 50.444L9.18 64.01ZM44.2244 72.374C40.5978 72.374 37.7078 71.286 35.5544 69.11C33.4238 66.9113 32.3584 64.1347 32.3584 60.78C32.3584 57.516 33.4918 54.762 35.7584 52.518C38.0478 50.274 40.8811 49.152 44.2584 49.152C47.6811 49.152 50.5031 50.274 52.7244 52.518C54.9458 54.7393 56.0564 57.4933 56.0564 60.78C56.0564 64.0893 54.9458 66.8547 52.7244 69.076C50.5031 71.2747 47.6698 72.374 44.2244 72.374ZM49.8684 54.966C48.4178 53.3793 46.5478 52.586 44.2584 52.586C41.9691 52.586 40.0878 53.3793 38.6144 54.966C37.1638 56.53 36.4384 58.468 36.4384 60.78C36.4384 63.1827 37.1411 65.1547 38.5464 66.696C39.9744 68.2373 41.8784 69.008 44.2584 69.008C46.5931 69.008 48.4744 68.2147 49.9024 66.628C51.3304 65.0413 52.0444 63.092 52.0444 60.78C52.0444 58.468 51.3191 56.53 49.8684 54.966ZM71.6994 72.374C68.0727 72.374 65.1827 71.286 63.0294 69.11C60.8987 66.9113 59.8334 64.1347 59.8334 60.78C59.8334 57.516 60.9667 54.762 63.2334 52.518C65.5227 50.274 68.356 49.152 71.7334 49.152C75.156 49.152 77.978 50.274 80.1994 52.518C82.4207 54.7393 83.5314 57.4933 83.5314 60.78C83.5314 64.0893 82.4207 66.8547 80.1994 69.076C77.978 71.2747 75.1447 72.374 71.6994 72.374ZM77.3434 54.966C75.8927 53.3793 74.0227 52.586 71.7334 52.586C69.444 52.586 67.5627 53.3793 66.0894 54.966C64.6387 56.53 63.9134 58.468 63.9134 60.78C63.9134 63.1827 64.616 65.1547 66.0214 66.696C67.4494 68.2373 69.3534 69.008 71.7334 69.008C74.068 69.008 75.9494 68.2147 77.3774 66.628C78.8054 65.0413 79.5194 63.092 79.5194 60.78C79.5194 58.468 78.794 56.53 77.3434 54.966ZM94.3123 49.118C96.1029 49.118 97.6669 49.3447 99.0043 49.798C100.342 50.2513 101.01 50.9087 101.01 51.77C101.01 52.3367 100.863 52.7673 100.568 53.062C100.274 53.3567 99.9223 53.504 99.5143 53.504C99.2876 53.504 99.1289 53.4813 99.0383 53.436C97.5876 52.824 96.1483 52.518 94.7203 52.518C93.7456 52.518 92.9069 52.7333 92.2043 53.164C91.5243 53.5947 91.1843 54.252 91.1843 55.136C91.1843 55.7933 91.5583 56.3713 92.3063 56.87C93.0543 57.3687 93.9609 57.8447 95.0263 58.298C96.0916 58.7287 97.1569 59.2273 98.2223 59.794C99.3103 60.3607 100.228 61.1653 100.976 62.208C101.724 63.2507 102.098 64.486 102.098 65.914C102.098 67.9993 101.373 69.5973 99.9223 70.708C98.4943 71.8187 96.6016 72.374 94.2443 72.374C92.5443 72.374 90.8216 72.1247 89.0763 71.626C87.3309 71.1047 86.4583 70.3567 86.4583 69.382C86.4583 68.838 86.6056 68.396 86.9003 68.056C87.2176 67.716 87.5689 67.546 87.9543 67.546C88.2036 67.546 88.3963 67.58 88.5323 67.648C90.4589 68.5773 92.1589 69.042 93.6323 69.042C94.9243 69.042 95.9783 68.804 96.7943 68.328C97.6329 67.8293 98.0523 67.0927 98.0523 66.118C98.0523 65.166 97.6783 64.3387 96.9303 63.636C96.1823 62.9107 95.2756 62.31 94.2103 61.834C93.1449 61.358 92.0796 60.8593 91.0143 60.338C89.9489 59.8167 89.0423 59.114 88.2943 58.23C87.5463 57.346 87.1723 56.3033 87.1723 55.102C87.1723 53.2887 87.8636 51.838 89.2463 50.75C90.6289 49.662 92.3176 49.118 94.3123 49.118ZM120.044 58.706V51.022C120.044 50.5007 120.214 50.0927 120.554 49.798C120.917 49.4807 121.404 49.322 122.016 49.322C123.308 49.322 123.954 49.8887 123.954 51.022V70.504C123.954 71.0253 123.784 71.4447 123.444 71.762C123.104 72.0567 122.617 72.204 121.982 72.204C121.37 72.204 120.894 72.0567 120.554 71.762C120.214 71.4447 120.044 71.0253 120.044 70.504V61.834H110.014V70.504C110.014 71.6373 109.368 72.204 108.076 72.204C107.464 72.204 106.988 72.0567 106.648 71.762C106.308 71.4447 106.138 71.0253 106.138 70.504V51.022C106.138 50.5007 106.308 50.0927 106.648 49.798C107.011 49.4807 107.498 49.322 108.11 49.322C109.379 49.322 110.014 49.8887 110.014 51.022V58.706H120.044ZM155.616 58.094V70.504C155.616 71.6147 154.959 72.17 153.644 72.17C152.375 72.17 151.74 71.6147 151.74 70.504V65.302H142.152V70.504C142.152 71.6147 141.506 72.17 140.214 72.17C138.945 72.17 138.31 71.6147 138.31 70.504V58.128C138.31 55.408 139.047 53.232 140.52 51.6C141.994 49.9453 144.113 49.118 146.878 49.118C149.689 49.118 151.842 49.9567 153.338 51.634C154.857 53.3113 155.616 55.4647 155.616 58.094ZM151.74 62.242V57.924C151.74 56.3373 151.31 55.0227 150.448 53.98C149.587 52.9373 148.397 52.416 146.878 52.416C145.292 52.416 144.113 52.9373 143.342 53.98C142.572 55 142.186 56.3487 142.186 58.026V62.242H151.74ZM164.197 70.504V77.882C164.197 78.9473 163.596 79.48 162.395 79.48C161.194 79.48 160.593 78.9473 160.593 77.882V64.962C160.593 64.3953 160.65 63.7833 160.763 63.126C160.899 62.4687 161.148 61.732 161.511 60.916C161.896 60.1 162.384 59.3747 162.973 58.74C163.562 58.1053 164.378 57.5727 165.421 57.142C166.464 56.7113 167.654 56.496 168.991 56.496C171.462 56.496 173.422 57.2553 174.873 58.774C176.346 60.2927 177.083 62.174 177.083 64.418C177.083 66.7527 176.335 68.6567 174.839 70.13C173.366 71.5807 171.496 72.306 169.229 72.306C167.053 72.306 165.421 71.694 164.333 70.47C164.31 70.47 164.288 70.4813 164.265 70.504C164.242 70.504 164.22 70.504 164.197 70.504ZM165.489 68.056C166.328 69.008 167.461 69.484 168.889 69.484C170.317 69.484 171.45 68.9967 172.289 68.022C173.15 67.0473 173.581 65.8573 173.581 64.452C173.581 62.956 173.162 61.732 172.323 60.78C171.507 59.828 170.362 59.352 168.889 59.352C167.484 59.352 166.35 59.8393 165.489 60.814C164.65 61.7887 164.231 63.0013 164.231 64.452C164.231 65.88 164.65 67.0813 165.489 68.056ZM184.766 70.504V77.882C184.766 78.9473 184.165 79.48 182.964 79.48C181.762 79.48 181.162 78.9473 181.162 77.882V64.962C181.162 64.3953 181.218 63.7833 181.332 63.126C181.468 62.4687 181.717 61.732 182.08 60.916C182.465 60.1 182.952 59.3747 183.542 58.74C184.131 58.1053 184.947 57.5727 185.99 57.142C187.032 56.7113 188.222 56.496 189.56 56.496C192.03 56.496 193.991 57.2553 195.442 58.774C196.915 60.2927 197.652 62.174 197.652 64.418C197.652 66.7527 196.904 68.6567 195.408 70.13C193.934 71.5807 192.064 72.306 189.798 72.306C187.622 72.306 185.99 71.694 184.902 70.47C184.879 70.47 184.856 70.4813 184.834 70.504C184.811 70.504 184.788 70.504 184.766 70.504ZM186.058 68.056C186.896 69.008 188.03 69.484 189.458 69.484C190.886 69.484 192.019 68.9967 192.858 68.022C193.719 67.0473 194.15 65.8573 194.15 64.452C194.15 62.956 193.73 61.732 192.892 60.78C192.076 59.828 190.931 59.352 189.458 59.352C188.052 59.352 186.919 59.8393 186.058 60.814C185.219 61.7887 184.8 63.0013 184.8 64.452C184.8 65.88 185.219 67.0813 186.058 68.056Z" fill="white"/>
<circle cx="202.574" cy="28.9657" r="4.42647" fill="white"/>
<circle cx="171" cy="22" r="7" fill="white"/>
<path d="M174.651 35.5637C173.889 34.7231 173.508 34.5062 172.746 34.4791C172.229 34.4791 171.385 34.7231 170.895 35.0214C170.378 35.3468 169.942 35.8619 169.861 36.2957C169.752 36.7296 169.752 37.4345 169.833 37.8683C169.942 38.3022 170.568 39.4409 171.249 40.3628C171.929 41.3118 173.29 42.6675 174.297 43.4267C175.331 44.1859 177.128 45.2704 178.325 45.8669C179.523 46.4634 181.292 47.1141 182.272 47.331C183.252 47.5751 184.776 47.7649 185.674 47.7649C186.572 47.7649 188.342 47.5208 189.621 47.1955C190.9 46.8972 193.023 46.138 194.384 45.4873C195.718 44.8366 197.323 43.9147 197.922 43.4538C198.521 42.9657 199.528 41.9354 200.181 41.1762C200.998 40.1459 201.324 39.5223 201.324 38.8716C201.324 38.2208 201.107 37.8141 200.372 37.1905C199.737 36.6482 199.12 36.3771 198.521 36.3771C197.868 36.3771 197.187 36.7567 195.745 37.8955C194.683 38.736 193.35 39.7392 192.751 40.1188C192.152 40.4984 191.091 41.0407 190.356 41.3118C189.648 41.5829 188.314 41.9083 187.362 42.071C186.246 42.2337 185.075 42.2337 183.905 42.071C182.925 41.9083 181.401 41.4202 180.503 41.0135C179.36 40.4442 178.38 39.685 177.237 38.4106C176.339 37.4074 175.168 36.1331 174.651 35.5637Z" fill="#FDFDFD" stroke="white" stroke-width="0.956187"/>
<circle cx="44" cy="61" r="9" fill="white"/>
<circle cx="72" cy="61" r="9" fill="white"/>
</svg>
